<?xml version="1.0" encoding="UTF-8"?><svg id="Layer_2" xmlns="http://www.w3.org/2000/svg" viewBox="0 0 366.02 121.19"><defs><style>.cls-1{fill:#fec830;}.cls-2{fill:#fcca35;}.cls-3{fill:#3071b5;}.cls-4{fill:#af1c2c;}.cls-5{fill:#adbfd5;}.cls-6{fill:#ee223b;}.cls-7{fill:#336dc1;}.cls-8{fill:#2c2a2b;}.cls-9{fill:#fec61f;}.cls-10{fill:#f1b831;}.cls-11{fill:#f9cc31;}</style></defs><g id="Layer_1-2"><path d="M123.73,39.49v3.2c-1.92-1.46-3.29-1.94-4.75-1.94-1.67,0-2.81.89-2.81,1.9s.8,1.48,3.33,2.06c3.31.73,5.16,1.9,5.16,4.36,0,3.02-2.74,5.16-6.3,5.16-1.9,0-3.56-.57-5.3-1.69v-3.29c2.17,1.76,3.75,2.38,5.32,2.38,1.76,0,3.11-1.1,3.11-2.33s-1.05-1.8-3.13-2.24c-3.24-.69-5.3-1.8-5.3-4.48s2.49-4.43,5.85-4.43c1.74,0,3.36.48,4.82,1.35Z"/><path d="M142.66,46.13c0,4.61-3.38,8.09-7.67,8.09s-7.51-3.43-7.51-8.11,3.36-7.97,7.49-7.97c4.66,0,7.7,3.75,7.7,7.99ZM135.03,51.71c2.6,0,4.52-2.47,4.52-5.53s-1.92-5.53-4.43-5.53c-2.65,0-4.54,2.38-4.54,5.5s1.85,5.55,4.45,5.55Z"/><path d="M148.87,38.39v9.55c0,2.31.98,3.77,3.17,3.77s3.29-1.48,3.29-3.59v-9.73h2.97v9.94c0,3.72-2.15,5.89-6.24,5.89s-6.17-2.15-6.17-5.78v-10.05h2.97Z"/><path d="M172.92,38.39v2.6h-4.5v12.97h-2.97v-12.97h-4.39v-2.6h11.86Z"/><path d="M179.06,38.39v6.24h6.85v-6.24h2.97v15.58h-2.97v-6.88h-6.85v6.88h-2.97v-15.58h2.97Z"/><path d="M195.3,38.39l2.1,10.67h.05l2.31-10.67h2.95l2.35,10.67h.04l2.17-10.67h3.24l-4,15.58h-2.9l-2.35-10.8h-.05l-2.35,10.8h-2.9l-3.84-15.58h3.17Z"/><path d="M224.28,38.39v2.6h-7.56v3.65h7.2v2.42h-7.2v4.29h7.56v2.6h-10.53v-15.58h10.53Z"/><path d="M238.25,39.49v3.2c-1.92-1.46-3.29-1.94-4.75-1.94-1.67,0-2.81.89-2.81,1.9s.8,1.48,3.33,2.06c3.31.73,5.16,1.9,5.16,4.36,0,3.02-2.74,5.16-6.3,5.16-1.9,0-3.56-.57-5.3-1.69v-3.29c2.17,1.76,3.75,2.38,5.32,2.38,1.76,0,3.11-1.1,3.11-2.33s-1.05-1.8-3.13-2.24c-3.24-.69-5.3-1.8-5.3-4.48s2.49-4.43,5.85-4.43c1.74,0,3.36.48,4.82,1.35Z"/><path d="M253.37,38.39v2.6h-4.5v12.97h-2.97v-12.97h-4.39v-2.6h11.86Z"/><path d="M275.91,38.37v2.6h-7.58v3.93h7.17v2.51h-7.17v6.56h-2.97v-15.6h10.55Z"/><path d="M282.78,38.39v15.58h-2.97v-15.58h2.97Z"/><path d="M290.29,38.39l6.74,10.62h.05v-10.62h2.97v15.58h-2.97l-6.74-10.74h-.05v10.74h-2.97v-15.58h2.97Z"/><path d="M307.56,38.39v12.97h7.45v2.6h-10.42v-15.58h2.97Z"/><path d="M325.44,38.39l5.69,15.58h-3.33l-1.35-4.18h-4.96l-1.39,4.18h-3.27l5.71-15.58h2.9ZM322.26,47.34h3.43l-1.69-5.21h-.04l-1.69,5.21Z"/><path d="M336.9,38.39l6.74,10.62h.05v-10.62h2.97v15.58h-2.97l-6.74-10.74h-.05v10.74h-2.97v-15.58h2.97Z"/><path d="M357.93,38.37c4.71,0,7.1,3.43,7.1,7.45,0,5.14-3.59,8.15-8.63,8.15h-5.23v-15.6h6.76ZM356.31,51.36c3.18,0,5.62-1.99,5.62-5.25,0-2.76-1.35-5.14-4.52-5.14h-3.27v10.39h2.17Z"/><path d="M120.76,58.39c2.85,0,4.71,1.48,4.71,3.84s-1.44,3.65-4.27,4.2v.05c.78.23,1.33.48,1.6.71.62.53.98.87,1.67,2.67l1.53,4.11h-3.24l-1.1-3.43c-.3-.96-.62-1.6-.96-2.01-.71-.82-1.35-1.12-3.17-1.12h-.69v6.56h-2.97v-15.58h6.9ZM119.3,64.95c2.03,0,3.17-.96,3.17-2.15,0-.98-.82-1.8-2.19-1.8h-3.45v3.95h2.47Z"/><path d="M139.78,58.39v2.6h-7.56v3.65h7.2v2.42h-7.2v4.29h7.56v2.6h-10.53v-15.58h10.53Z"/><path d="M153.76,59.49v3.2c-1.92-1.46-3.29-1.94-4.75-1.94-1.67,0-2.81.89-2.81,1.9s.8,1.48,3.33,2.06c3.31.73,5.16,1.9,5.16,4.36,0,3.02-2.74,5.16-6.3,5.16-1.9,0-3.56-.57-5.3-1.69v-3.29c2.17,1.76,3.75,2.38,5.32,2.38,1.76,0,3.11-1.1,3.11-2.33s-1.05-1.8-3.13-2.24c-3.24-.69-5.3-1.8-5.3-4.48s2.49-4.43,5.85-4.43c1.74,0,3.36.48,4.82,1.35Z"/><path d="M169.63,59.51v3.06c-1.67-1.35-2.95-1.83-4.32-1.83-2.99,0-4.75,2.54-4.75,5.55s1.74,5.32,4.45,5.32c1.62,0,3.06-.64,4.61-1.85v3.08c-1.58.89-3.33,1.37-4.98,1.37-3.93,0-7.2-3.43-7.2-7.83s3.01-8.25,7.61-8.25c1.46,0,2.86.37,4.57,1.37Z"/><path d="M175.79,58.39v9.55c0,2.31.98,3.77,3.17,3.77s3.29-1.48,3.29-3.59v-9.73h2.97v9.94c0,3.72-2.15,5.89-6.24,5.89s-6.17-2.15-6.17-5.78v-10.05h2.97Z"/><path d="M199.84,58.39v2.6h-7.56v3.65h7.2v2.42h-7.2v4.29h7.56v2.6h-10.53v-15.58h10.53Z"/><path d="M219.53,58.37c4.71,0,7.1,3.43,7.1,7.45,0,5.14-3.59,8.15-8.63,8.15h-5.23v-15.6h6.76ZM217.9,71.36c3.17,0,5.62-1.99,5.62-5.25,0-2.76-1.35-5.14-4.52-5.14h-3.27v10.39h2.17Z"/><path d="M240.83,58.39v2.6h-7.56v3.65h7.2v2.42h-7.2v4.29h7.56v2.6h-10.53v-15.58h10.53Z"/><path d="M251.95,58.37c2.85,0,4.73,1.62,4.73,4.18,0,2.97-2.31,4.89-5.5,4.89h-3.27v6.53h-2.97v-15.6h7.01ZM250.74,64.83c1.74,0,2.83-.87,2.83-2.08,0-1.1-.94-1.78-2.38-1.78h-3.29v3.86h2.83Z"/><path d="M265.86,58.39l5.69,15.58h-3.33l-1.35-4.18h-4.96l-1.39,4.18h-3.27l5.71-15.58h2.9ZM262.69,67.34h3.43l-1.69-5.21h-.04l-1.69,5.21Z"/><path d="M281.21,58.39c2.85,0,4.71,1.48,4.71,3.84s-1.44,3.65-4.27,4.2v.05c.78.23,1.33.48,1.6.71.62.53.98.87,1.67,2.67l1.53,4.11h-3.24l-1.1-3.43c-.3-.96-.62-1.6-.96-2.01-.71-.82-1.35-1.12-3.17-1.12h-.69v6.56h-2.97v-15.58h6.9ZM279.74,64.95c2.03,0,3.17-.96,3.17-2.15,0-.98-.82-1.8-2.19-1.8h-3.45v3.95h2.47Z"/><path d="M300.23,58.39v2.6h-4.5v12.97h-2.97v-12.97h-4.39v-2.6h11.86Z"/><path d="M306.73,58.39l4.5,7.63,4.52-7.63h3.27v15.58h-2.97v-10.96h-.04l-4.77,8.15-4.8-8.15h-.05v10.96h-2.97v-15.58h3.31Z"/><path d="M334.07,58.39v2.6h-7.56v3.65h7.2v2.42h-7.2v4.29h7.56v2.6h-10.53v-15.58h10.53Z"/><path d="M341.19,58.39l6.74,10.62h.05v-10.62h2.97v15.58h-2.97l-6.74-10.74h-.05v10.74h-2.97v-15.58h2.97Z"/><path d="M366.02,58.39v2.6h-4.5v12.97h-2.97v-12.97h-4.39v-2.6h11.86Z"/><path d="M117.54,77.66v.62h-3.68v2.62h3.54v.58h-3.54v3.25h-.71v-7.08h4.39Z"/><path d="M120.22,84.85c-1.19,0-2.37-.99-2.37-2.52,0-1.42,1-2.53,2.32-2.53s2.33,1.09,2.33,2.52-1.08,2.53-2.29,2.53ZM121.81,82.32c0-1.14-.77-1.93-1.64-1.93s-1.61.83-1.61,1.94.76,1.93,1.61,1.93c.9,0,1.64-.83,1.64-1.94Z"/><path d="M126.08,80.56c-.17-.06-.31-.1-.49-.1-.91,0-1.44.96-1.44,1.94v2.35h-.65v-4.82h.6l.04.83h.02c.29-.61.76-.88,1.38-.88.26,0,.46.03.54.05v.64Z"/><path d="M133,81.08c-.47-.4-1.05-.69-1.67-.69s-1.13.33-1.13.75c0,.48.57.69,1.57.9,1.03.23,1.56.62,1.56,1.3,0,.83-.84,1.52-2,1.52-.65,0-1.31-.2-1.84-.53v-.79c.53.44,1.16.73,1.81.73.71,0,1.28-.39,1.28-.86,0-.5-.54-.65-1.48-.86-.92-.21-1.59-.61-1.59-1.35,0-.82.78-1.39,1.86-1.39.62,0,1.22.19,1.65.49v.79Z"/><path d="M137.77,83.91c0,.15.06.36.32.36.12,0,.21-.04.32-.08v.51c-.28.08-.45.09-.57.09-.59,0-.72-.23-.72-.93-.36.69-.9,1-1.57,1-.92,0-1.66-.59-1.66-1.44,0-.32.09-.59.28-.8.39-.43.95-.67,2.95-.88-.02-.73-.38-1.34-1.28-1.34-.51,0-.98.21-1.55.66v-.74c.5-.32,1.08-.52,1.67-.52,1.17,0,1.79.82,1.79,1.81v2.3ZM137.13,82.53v-.25c-1.54.15-2.52.35-2.52,1.14,0,.43.38.84,1.01.84.79,0,1.51-.72,1.51-1.73Z"/><path d="M141.4,78.27c-.21-.08-.39-.12-.56-.12-.53,0-.73.36-.73.82v.94h1.29v.58h-1.29v4.25h-.65v-4.25h-.81v-.58h.81v-.96c0-.9.45-1.39,1.29-1.39.2,0,.35.03.65.11v.6Z"/><path d="M142.29,82.14c.04.51.09,1.02.45,1.48.36.48.86.64,1.31.64.63,0,1.25-.35,1.83-.98v.79c-.67.55-1.3.78-1.89.78-1.34,0-2.4-1.08-2.4-2.52s1-2.53,2.34-2.53c.9,0,2.03.67,2.03,2.33h-3.67ZM145.21,81.59c-.11-.75-.63-1.22-1.35-1.22s-1.22.52-1.48,1.22h2.83Z"/><path d="M147.24,78.48h.59v1.42h1.28v.58h-1.28v3.1c0,.42.16.67.62.67.18,0,.31-.01.65-.17v.59c-.24.07-.47.12-.76.12-.71,0-1.17-.34-1.17-1.04v-3.29h-.82v-.58h.82l.06-1.42Z"/><path d="M150.05,79.92l1.66,4.08,1.41-4.08h.72l-2.24,6.01c-.35.93-.8,1.11-1.33,1.11-.26,0-.43-.04-.63-.11v-.62c.17.09.36.15.56.15.43,0,.64-.24.78-.62l.41-1.12-2.05-4.78h.73Z"/><path d="M160.85,81.08c-.47-.4-1.05-.69-1.67-.69s-1.13.33-1.13.75c0,.48.57.69,1.57.9,1.03.23,1.56.62,1.56,1.3,0,.83-.84,1.52-2,1.52-.65,0-1.31-.2-1.84-.53v-.79c.53.44,1.16.73,1.81.73.71,0,1.28-.39,1.28-.86,0-.5-.54-.65-1.48-.86-.92-.21-1.59-.61-1.59-1.35,0-.82.78-1.39,1.86-1.39.62,0,1.22.19,1.65.49v.79Z"/><path d="M162.63,78.95c-.25,0-.37-.26-.37-.56,0-.37.13-.6.37-.6.28,0,.38.3.38.58,0,.25-.09.58-.38.58ZM162.96,79.92v4.82h-.65v-4.82h.65Z"/><path d="M168.25,84.74h-.65v-3.22c0-.62-.39-1.13-1.07-1.13-.9,0-1.5.9-1.5,1.84v2.51h-.62v-4.82h.57l.04.9h.02c.36-.71.88-1.02,1.56-1.02,1.04,0,1.66.7,1.66,1.68v3.26Z"/><path d="M173.34,81.18c-.47-.45-1.03-.79-1.68-.79-.97,0-1.7.86-1.7,1.93s.76,1.94,1.74,1.94c.65,0,1.15-.32,1.64-.81v.85c-.55.38-1.09.55-1.65.55-1.38,0-2.44-1.12-2.44-2.52s1.04-2.53,2.45-2.53c.57,0,1.09.16,1.64.54v.84Z"/><path d="M174.75,82.14c.04.51.09,1.02.45,1.48.36.48.86.64,1.31.64.63,0,1.25-.35,1.83-.98v.79c-.67.55-1.3.78-1.89.78-1.34,0-2.4-1.08-2.4-2.52s1-2.53,2.34-2.53c.9,0,2.03.67,2.03,2.33h-3.67ZM177.67,81.59c-.11-.75-.63-1.22-1.35-1.22s-1.22.52-1.48,1.22h2.83Z"/><path d="M185.51,78.01v6.73h-.65v-4.97h-1.6v-.51h.3c.96,0,1.38-.34,1.38-1.26h.57Z"/><path d="M191.9,81.07v.02c1.19.32,1.74.89,1.74,1.72,0,1.13-1.13,2.04-2.69,2.04s-2.5-.82-2.5-1.85c0-.86.63-1.43,1.79-1.72v-.02c-.88-.3-1.35-.86-1.35-1.61,0-1.05.91-1.76,2.2-1.76,1.14,0,2.14.59,2.14,1.58,0,.71-.47,1.27-1.33,1.6ZM192.94,82.85c0-.63-.59-1.06-1.87-1.36l-.62.23c-.61.23-1.29.64-1.29,1.28,0,.73.78,1.26,1.83,1.26,1.16,0,1.95-.65,1.95-1.4ZM192.52,79.57c0-.61-.6-1.08-1.47-1.08-.82,0-1.45.47-1.45,1.12,0,.61.52,1.03,1.53,1.25.96-.34,1.4-.75,1.4-1.29Z"/><path d="M199.35,79.09c-.57-.42-1.11-.59-1.49-.59-1.18,0-2.27,1.05-2.29,3.17.67-.72,1.37-1.05,2.15-1.05,1.19,0,2.12.78,2.12,2.02s-1.01,2.22-2.31,2.22-2.65-1.04-2.65-3.27,1.24-3.69,2.94-3.69c.48,0,.88.1,1.55.43v.77ZM197.55,84.25c.92,0,1.58-.71,1.58-1.57s-.64-1.47-1.47-1.47c-.75,0-1.44.39-2.01,1.13.19,1.09.95,1.91,1.91,1.91Z"/><path d="M202.88,84.85c-.51,0-1.07-.15-1.59-.45v-.78c.5.4,1.05.62,1.56.62,1.04,0,2.24-1.02,2.24-3.17-.66.71-1.35,1.02-2.15,1.02-1.27,0-2.13-.81-2.13-2,0-1.34,1.04-2.2,2.31-2.2s2.67,1,2.67,3.26-1.38,3.7-2.92,3.7ZM205.02,80.39c-.19-1.15-1.04-1.9-1.92-1.9-.93,0-1.59.71-1.59,1.56s.6,1.44,1.46,1.44,1.5-.43,2.04-1.1Z"/><path class="cls-8" d="M2.58,12.1c.49-.76,1.31-1.24,2.17-1.61,5.65-2.37,13.3-5.03,22.56-6.8,7.65-1.52,17.45-2.31,26.05-1.89,11.32.24,36.42,5.32,38.21,9.62.54,1.39.39,3.79.48,6.31.07,4.35.17,8.23.27,12.61.12,6.6.42,12.11.29,18.51.78,31.16-17.02,58.86-43.08,70.14-1.86.84-3.84.55-5.58-.45-5.48-2.72-13.87-8.64-19.22-14.43C7.45,85.91,1.34,63.14,1.76,39.35c-.1-7.62-.12-18.58.14-24.64.04-.89.2-1.81.62-2.52l.06-.09Z"/><path class="cls-10" d="M47.26,121.19c-1.38,0-2.8-.39-4.16-1.16-5.45-2.69-14-8.66-19.63-14.75C7.48,88.4-.4,66.21.07,39.32-.03,31.81-.06,20.8.21,14.64c.07-1.37.35-2.45.86-3.31l.09-.14c.79-1.24,2.05-1.88,2.93-2.25,7.33-3.08,15.03-5.4,22.91-6.9C35.11.42,45.01-.3,53.44.11c8.84.19,37.24,4.76,39.69,10.67.53,1.36.55,3.09.57,5.1,0,.58.01,1.19.03,1.8.06,3.29.12,6.29.2,9.43l.07,3.2c.04,2.11.09,4.1.15,6.04.12,4.19.23,8.15.14,12.55.78,31.07-16.95,59.9-44.1,71.66-.94.42-1.93.63-2.94.63ZM4.01,13.01l-.05.08c-.13.22-.32.73-.37,1.71-.26,6.08-.24,17.01-.13,24.53-.46,26.02,7.11,47.41,22.49,63.63,5.31,5.75,13.62,11.54,18.75,14.08,1.07.61,2.57,1.13,4.14.42,25.93-11.23,42.83-38.77,42.08-68.56.09-4.39-.02-8.31-.14-12.46-.06-1.95-.11-3.96-.15-6.07l-.07-3.19c-.07-3.15-.14-6.15-.2-9.42-.02-.61-.03-1.24-.04-1.85-.02-1.53-.04-3.12-.33-3.88-1.42-2.91-24.38-8.29-36.67-8.55-8.22-.4-17.81.3-25.68,1.86-7.66,1.46-15.14,3.71-22.24,6.7-.72.31-1.17.62-1.39.95Z"/><path class="cls-2" d="M13.77,15.98c.1.3.12.57.07.82-.05.25-.15.46-.31.66-.16.19-.35.36-.59.51-.24.15-.5.27-.77.37-.21.08-.43.15-.64.23.23.64.46,1.28.7,1.92-.42.15-.85.31-1.27.47-.64-1.69-1.28-3.38-1.91-5.07.67-.25,1.35-.5,2.03-.74.3-.11.6-.18.88-.21.28-.04.54-.02.78.03.24.06.45.17.62.33.18.16.32.39.41.69ZM12.45,16.43c-.04-.12-.1-.21-.18-.27-.08-.06-.17-.1-.27-.11-.1-.01-.21,0-.33.02-.12.02-.23.06-.35.1-.19.07-.39.14-.58.21l.44,1.2c.18-.07.37-.13.55-.2.12-.04.24-.09.34-.15.11-.06.19-.13.27-.21.07-.08.12-.17.14-.26.02-.1.01-.21-.03-.33Z"/><path class="cls-2" d="M16.28,19.11c-.54-1.72-1.09-3.44-1.63-5.17,1.25-.4,2.51-.77,3.77-1.12.1.35.2.71.29,1.06-.82.23-1.63.46-2.44.71.1.33.2.65.3.98.76-.23,1.52-.45,2.29-.66.09.34.19.67.28,1.01-.76.21-1.51.43-2.26.66.11.36.22.72.33,1.08.83-.25,1.67-.49,2.51-.72.1.36.2.72.3,1.08-1.24.34-2.48.71-3.72,1.1Z"/><path class="cls-2" d="M21.42,17.63c-.45-1.75-.91-3.5-1.36-5.24.46-.12.92-.23,1.37-.35.34,1.38.68,2.77,1.02,4.15.7-.17,1.41-.34,2.11-.49.08.37.17.74.25,1.11-1.13.25-2.27.53-3.39.82Z"/><path class="cls-2" d="M29.67,15.85c-.2-.33-.4-.65-.61-.97-.71.13-1.42.26-2.12.4-.07.37-.13.75-.19,1.12-.47.1-.95.2-1.42.3.37-1.93.79-3.86,1.24-5.78.45-.09.89-.17,1.34-.25,1.11,1.63,2.19,3.28,3.22,4.95-.49.08-.97.16-1.46.24ZM27.49,12.21c-.13.65-.25,1.31-.36,1.96.46-.09.93-.18,1.39-.26-.34-.57-.68-1.14-1.03-1.7Z"/><path class="cls-2" d="M34.59,11.09c-.13-.13-.3-.22-.5-.28-.2-.06-.39-.08-.57-.06-.09.01-.18.03-.27.06-.09.03-.17.07-.24.12-.07.05-.13.12-.17.19-.04.07-.05.17-.04.27.01.09.04.16.09.22.05.05.11.1.2.14.08.03.18.06.29.09s.24.05.37.07c.2.04.41.08.62.13.22.05.42.12.6.23.18.1.34.24.47.4.13.17.21.39.24.65.03.31,0,.58-.09.82-.09.24-.23.44-.41.61-.18.17-.39.31-.63.41-.24.1-.5.17-.77.2-.39.05-.78.04-1.16-.05-.38-.08-.72-.23-1-.44.25-.33.49-.66.75-.99.16.14.36.25.59.33.24.08.46.1.68.07.1-.01.19-.04.28-.07.09-.03.17-.08.23-.13.07-.05.11-.12.15-.2.03-.08.04-.17.03-.28-.01-.1-.05-.18-.11-.25-.06-.06-.14-.12-.25-.17-.11-.05-.23-.08-.38-.11-.15-.03-.32-.06-.51-.09-.19-.03-.37-.07-.55-.12-.18-.05-.35-.13-.5-.23-.15-.1-.28-.23-.39-.38-.11-.16-.18-.36-.21-.6-.04-.3-.02-.56.08-.79.1-.23.24-.43.43-.6.19-.17.42-.3.67-.4.26-.1.52-.17.79-.2.33-.04.66-.03,1.02.04.35.07.67.2.95.39-.26.32-.52.65-.78.97Z"/><path class="cls-2" d="M39.25,10.36c.1,1.43.21,2.86.31,4.29-.44.03-.88.07-1.33.11-.12-1.43-.25-2.86-.37-4.28-.54.05-1.08.1-1.61.15-.04-.37-.08-.74-.11-1.11,1.55-.16,3.11-.28,4.66-.37.02.37.04.74.06,1.12-.54.03-1.08.07-1.62.11Z"/><path class="cls-2" d="M46.79,13.22c-.11.27-.27.5-.48.69-.21.19-.46.34-.75.46-.29.11-.61.17-.97.18-.36,0-.69-.04-.98-.13-.29-.1-.55-.24-.76-.42-.21-.18-.38-.41-.5-.67-.12-.26-.19-.56-.21-.88-.05-1.12-.1-2.25-.16-3.37.46-.02.93-.04,1.39-.06.04,1.09.07,2.18.11,3.27,0,.15.03.29.07.42.04.13.11.25.19.35.08.1.19.18.33.24.14.06.3.08.48.08.19,0,.35-.04.48-.1.13-.06.24-.15.32-.25.08-.11.14-.23.18-.36.03-.13.05-.27.05-.42-.01-1.09-.03-2.18-.04-3.27.47,0,.93,0,1.4,0,0,1.12,0,2.25,0,3.37,0,.33-.06.62-.17.89Z"/><path class="cls-2" d="M51.7,10.47c-.11-.15-.26-.27-.45-.36-.19-.09-.37-.14-.55-.15-.09,0-.19,0-.28.01-.1.01-.18.04-.26.08-.08.04-.14.09-.2.16-.05.07-.08.15-.08.26,0,.09.01.17.05.23.04.06.1.12.17.17.08.05.17.09.27.13.11.04.22.09.36.13.19.07.39.14.59.23.2.08.39.19.55.32.16.13.3.29.4.48.1.19.15.41.13.69-.02.31-.09.58-.22.8-.13.22-.3.4-.5.54-.2.14-.43.24-.69.3-.26.06-.52.09-.79.08-.39-.01-.77-.09-1.14-.23-.37-.14-.67-.34-.91-.59.3-.29.59-.57.89-.86.13.17.31.31.53.42.22.11.44.18.66.18.1,0,.2,0,.29-.02.1-.02.18-.05.25-.09.07-.04.13-.1.18-.18.05-.08.07-.16.07-.27,0-.1-.02-.19-.07-.26-.05-.07-.12-.14-.22-.2-.1-.06-.21-.12-.36-.17-.14-.05-.31-.11-.49-.17-.18-.06-.35-.13-.52-.21-.17-.08-.32-.18-.46-.3-.13-.12-.24-.27-.32-.44-.08-.17-.12-.38-.12-.63,0-.3.07-.56.21-.77.13-.21.31-.39.52-.52.21-.13.46-.23.73-.28.27-.06.54-.08.81-.07.33.01.66.08,1,.21.34.13.63.31.87.54-.31.28-.62.56-.93.84Z"/><path class="cls-2" d="M53.78,14.6c.12-1.8.24-3.6.36-5.4.47.03.94.07,1.4.1-.11,1.42-.23,2.84-.34,4.26.72.06,1.43.12,2.15.2-.04.38-.08.76-.11,1.13-1.15-.12-2.3-.21-3.46-.29Z"/><path class="cls-2" d="M62.14,15.51c-.09-.37-.18-.74-.27-1.12-.71-.1-1.42-.2-2.14-.29-.18.33-.36.67-.53,1.01-.48-.06-.96-.11-1.44-.16.96-1.71,1.95-3.41,2.99-5.1.45.06.9.12,1.35.18.54,1.9,1.04,3.81,1.5,5.71-.49-.08-.97-.16-1.46-.23ZM61.21,11.37c-.32.58-.64,1.16-.96,1.75.47.06.93.12,1.4.19-.14-.65-.29-1.29-.44-1.94Z"/><path class="cls-2" d="M64.64,15.92c.31-1.78.63-3.56.94-5.33.46.08.93.17,1.39.25-.34,1.77-.67,3.55-1.01,5.32-.44-.08-.88-.16-1.32-.24Z"/><path class="cls-2" d="M70.93,12.82c-.32,1.4-.65,2.79-.97,4.19-.43-.1-.87-.2-1.3-.29.31-1.4.61-2.8.92-4.2-.53-.12-1.06-.23-1.59-.33.07-.37.15-.73.22-1.1,1.53.31,3.06.65,4.59,1.03-.09.36-.18.72-.27,1.08-.53-.13-1.06-.26-1.59-.38Z"/><path class="cls-2" d="M78.81,16.61c-.13.41-.32.76-.58,1.05-.26.29-.55.52-.88.68-.33.16-.7.25-1.09.28-.4.03-.8-.02-1.22-.14-.42-.12-.78-.29-1.1-.52-.32-.23-.58-.5-.77-.81-.2-.31-.33-.66-.39-1.04-.06-.38-.04-.78.07-1.19.11-.42.28-.78.52-1.08.24-.3.53-.53.86-.7.33-.17.71-.26,1.12-.29.41-.02.83.02,1.27.15.44.13.83.31,1.17.55.34.24.6.52.8.84.2.32.32.67.36,1.05.04.38,0,.78-.13,1.19ZM77.4,16.17c.07-.22.09-.45.08-.67-.02-.22-.08-.42-.17-.6-.1-.18-.23-.34-.4-.48-.17-.14-.38-.24-.61-.31-.24-.07-.46-.09-.68-.06-.22.03-.41.09-.59.19-.18.1-.33.24-.46.42-.13.18-.22.38-.28.6-.06.24-.08.46-.06.68.02.22.08.42.18.6.1.18.23.34.39.47.17.13.36.23.59.3.23.07.45.09.66.06.21-.03.41-.09.59-.19.18-.1.34-.24.47-.41.14-.17.24-.38.31-.61Z"/><path class="cls-2" d="M83.55,16.89c-.06-.18-.17-.34-.33-.48-.15-.15-.32-.25-.49-.31-.09-.03-.18-.06-.27-.07-.1-.02-.19-.02-.27,0-.09.02-.17.05-.24.09-.07.05-.12.12-.16.22-.03.09-.04.16-.02.24.02.07.06.14.12.21.06.07.13.14.22.21.09.07.19.15.3.23.16.12.33.26.51.4.17.14.32.3.44.47.12.18.2.37.24.58.04.21.02.44-.08.69-.11.29-.26.52-.45.69-.19.17-.41.29-.65.36-.24.07-.49.09-.76.07-.27-.02-.53-.08-.78-.17-.38-.13-.72-.32-1.03-.57-.31-.25-.54-.53-.7-.84.37-.18.75-.36,1.12-.54.08.2.21.39.38.57.18.18.37.3.58.38.09.03.19.06.29.07.1.01.19,0,.27,0,.08-.02.16-.06.22-.11.07-.06.12-.14.15-.24.03-.1.04-.19.01-.27-.03-.08-.08-.17-.15-.26-.07-.09-.17-.18-.29-.28-.12-.09-.26-.2-.42-.32-.15-.11-.3-.23-.44-.36-.14-.13-.26-.27-.35-.43-.09-.16-.15-.33-.18-.52-.03-.19,0-.4.08-.63.1-.29.24-.51.43-.67.19-.16.41-.27.66-.33.25-.06.51-.08.79-.05.28.03.55.09.81.18.31.11.61.28.9.51.29.22.51.49.68.78-.39.17-.77.34-1.15.51Z"/><path class="cls-2" d="M11.73,27.72c-.55-.49-1.11-.97-1.67-1.45-.13.05-.26.09-.39.14.22.6.44,1.21.66,1.81-.37.13-.74.27-1.1.41-.57-1.51-1.14-3.02-1.71-4.54.62-.23,1.25-.46,1.87-.69.24-.08.47-.14.72-.18.24-.03.47-.03.68.02.21.05.41.14.57.28.17.14.29.34.38.61.1.31.1.6,0,.88-.11.27-.3.51-.58.71.65.51,1.28,1.02,1.92,1.54-.45.15-.89.3-1.33.46ZM10.57,24.56c-.04-.11-.09-.19-.16-.24-.07-.05-.15-.08-.24-.09-.09,0-.18,0-.28.02-.1.02-.19.05-.28.08-.21.08-.42.15-.63.23.13.35.26.71.39,1.06.18-.07.37-.13.55-.2.1-.03.19-.08.29-.13.1-.05.18-.11.25-.18.07-.07.12-.15.14-.24.03-.09.02-.2-.02-.31Z"/><path class="cls-2" d="M17.35,25.93c-.21-.27-.42-.54-.64-.81-.62.18-1.24.37-1.86.56-.02.34-.04.68-.06,1.02-.42.13-.83.27-1.25.4.16-1.75.34-3.51.56-5.27.39-.12.78-.24,1.17-.35,1.15,1.35,2.27,2.71,3.36,4.08-.43.12-.86.24-1.28.36ZM15.05,22.91c-.05.59-.09,1.19-.14,1.78.41-.12.81-.25,1.22-.37-.36-.47-.72-.94-1.08-1.41Z"/><path class="cls-2" d="M23.52,21.85c.09.41.09.79,0,1.13-.09.34-.25.63-.46.88-.21.25-.47.46-.77.63-.3.17-.62.29-.95.37-.6.15-1.2.3-1.79.46-.41-1.56-.83-3.12-1.24-4.69.6-.16,1.21-.32,1.82-.47.35-.09.72-.13,1.08-.14.36,0,.7.05,1.01.17.31.12.58.31.81.58.23.27.4.62.49,1.07ZM22.28,22.13c-.06-.27-.16-.48-.29-.63-.13-.15-.29-.27-.46-.33-.18-.07-.37-.1-.57-.1-.21,0-.41.03-.62.08-.2.05-.4.1-.6.15.23.92.46,1.83.7,2.75.19-.05.37-.09.56-.14.21-.05.41-.13.59-.22.18-.09.34-.21.46-.35.12-.14.21-.31.26-.51.05-.2.04-.43-.02-.69Z"/><path class="cls-2" d="M29.47,20.72c.07.42.05.79-.06,1.12-.11.33-.28.62-.51.86-.23.24-.49.43-.8.59-.31.15-.63.26-.96.32-.6.11-1.21.23-1.81.36-.33-1.58-.65-3.17-.98-4.75.61-.13,1.22-.25,1.83-.36.36-.07.72-.09,1.08-.08.36.02.7.09,1,.23.3.14.56.34.78.62.22.28.36.64.43,1.09ZM28.22,20.93c-.05-.27-.13-.49-.25-.65-.12-.16-.27-.28-.44-.36-.17-.08-.36-.12-.57-.13-.21,0-.41,0-.62.05-.2.04-.4.08-.6.12.18.93.36,1.85.54,2.78.19-.04.37-.07.56-.11.21-.04.41-.1.6-.18.19-.08.35-.19.48-.33.13-.13.23-.3.29-.5.06-.2.07-.43.02-.69Z"/><path class="cls-2" d="M34.26,22.51c-.78-.97-1.58-1.93-2.4-2.89,0,0-.01,0-.02,0,.15,1.05.31,2.09.46,3.14-.38.05-.76.11-1.14.16-.24-1.6-.48-3.2-.72-4.8.47-.07.94-.14,1.41-.2.83.95,1.63,1.91,2.42,2.88,0,0,.01,0,.02,0-.13-1.05-.26-2.09-.4-3.14.4-.05.8-.09,1.2-.13.17,1.61.34,3.21.51,4.82-.45.05-.9.1-1.34.15Z"/><path class="cls-2" d="M37.14,22.21c-.15-1.61-.3-3.22-.44-4.83.42-.04.83-.07,1.25-.11.13,1.61.26,3.22.39,4.83-.4.03-.79.07-1.19.1Z"/><path class="cls-2" d="M42.98,21.83c-.7-1.03-1.42-2.06-2.15-3.07,0,0-.01,0-.02,0,.07,1.05.14,2.11.2,3.16-.38.02-.77.04-1.15.07-.11-1.61-.21-3.22-.32-4.84.47-.03.94-.06,1.41-.08.74,1.02,1.47,2.04,2.17,3.07,0,0,.01,0,.02,0-.05-1.05-.09-2.11-.14-3.16.4-.01.8-.03,1.21-.04.04,1.62.08,3.23.12,4.85-.45.01-.9.02-1.35.04Z"/><path class="cls-2" d="M49.4,21.8c-.32.07-.68.1-1.05.1-.39,0-.75-.07-1.09-.19-.33-.12-.62-.3-.86-.52-.24-.22-.43-.49-.57-.8-.14-.31-.21-.66-.22-1.04,0-.39.06-.74.2-1.06.14-.32.33-.59.58-.81.25-.22.54-.39.88-.51.34-.12.71-.17,1.1-.17.41,0,.78.07,1.13.2.35.13.62.29.83.49-.27.27-.54.55-.8.82-.12-.13-.27-.25-.47-.34-.19-.09-.42-.14-.67-.14-.22,0-.42.03-.6.11-.18.07-.34.18-.48.31-.13.13-.24.29-.31.48-.07.18-.11.39-.11.61,0,.22.03.43.1.62.07.19.16.35.29.48.13.14.29.24.48.32.19.08.41.12.65.12.14,0,.27,0,.4-.02.13-.02.24-.05.35-.09,0-.29.01-.59.02-.88-.32,0-.64-.01-.96-.02,0-.31,0-.63.01-.94.69,0,1.39.02,2.08.05-.03.86-.05,1.71-.08,2.57-.24.12-.53.21-.85.28Z"/><path class="cls-2" d="M54.58,18.44c-.1-.14-.23-.25-.39-.33-.17-.09-.33-.13-.49-.14-.08,0-.17,0-.25,0-.09,0-.16.03-.23.07-.07.03-.13.08-.18.14-.05.06-.08.14-.08.23,0,.08,0,.15.04.21.03.06.08.11.15.15.07.05.15.09.24.13.09.04.2.08.32.13.17.07.34.14.52.22.18.08.34.18.49.3.14.12.26.27.34.43.09.17.12.37.1.62-.02.28-.09.51-.21.71-.12.19-.27.35-.46.47-.19.12-.39.2-.63.25-.23.05-.47.07-.71.05-.35-.02-.69-.1-1.01-.24-.32-.14-.59-.32-.8-.55.27-.25.54-.5.82-.74.11.15.27.28.46.39.19.11.39.17.58.18.09,0,.18,0,.26-.01.09-.01.16-.04.23-.07.07-.04.12-.09.16-.15.04-.07.06-.15.07-.24,0-.09-.01-.17-.05-.24-.04-.07-.11-.13-.19-.19-.08-.06-.19-.11-.32-.16-.13-.05-.27-.11-.43-.17-.16-.06-.31-.13-.46-.2-.15-.08-.28-.17-.4-.28-.12-.11-.21-.25-.27-.4-.07-.16-.1-.34-.09-.56.01-.27.08-.5.2-.68.12-.19.28-.34.48-.45.19-.11.41-.19.65-.24.24-.04.48-.06.72-.04.29.02.58.09.88.21.29.12.55.29.76.5-.28.24-.56.48-.84.73Z"/><path class="cls-2" d="M58.74,22.42c-.39-.04-.79-.09-1.18-.13-.46-1.67-.94-3.34-1.46-5,.46.04.93.08,1.39.12.29,1.18.56,2.36.82,3.54,0,0,.02,0,.03,0,.5-1.1,1.02-2.19,1.54-3.29.46.05.91.11,1.36.17-.87,1.52-1.7,3.04-2.51,4.58Z"/><path class="cls-2" d="M61.54,22.77c.22-1.6.45-3.2.67-4.8,1.14.16,2.29.34,3.43.53-.06.32-.11.65-.17.97-.74-.13-1.48-.25-2.22-.36-.05.3-.09.6-.14.91.69.1,1.39.22,2.08.33-.05.31-.1.62-.16.92-.69-.12-1.37-.23-2.06-.33-.05.33-.1.66-.15,1,.76.11,1.53.24,2.29.37-.06.33-.11.66-.17.99-1.13-.19-2.27-.37-3.4-.53Z"/><path class="cls-2" d="M68.83,24.05c-.22-.7-.44-1.4-.67-2.1-.14-.03-.27-.05-.41-.08-.12.63-.25,1.26-.37,1.89-.38-.08-.76-.15-1.14-.22.29-1.59.59-3.18.88-4.77.65.12,1.29.24,1.93.38.24.05.47.12.7.22.22.1.41.22.57.37.16.15.27.33.34.54.07.21.07.45.01.72-.07.32-.22.57-.45.75-.23.18-.51.28-.85.31.29.77.56,1.54.83,2.31-.46-.1-.91-.2-1.37-.3ZM69.48,20.75c.02-.11.02-.21-.02-.29-.04-.08-.09-.15-.16-.2-.07-.05-.15-.1-.25-.13-.09-.03-.19-.06-.28-.08-.22-.04-.43-.09-.65-.13-.07.37-.15.74-.22,1.11.19.04.38.08.57.11.1.02.2.03.31.04.11,0,.21,0,.3-.03.09-.02.17-.07.24-.13.07-.07.12-.16.14-.28Z"/><path class="cls-2" d="M74.22,25.33c-.4-.88-.82-1.75-1.25-2.62,0,0,0,0-.01,0-.18.72-.36,1.45-.54,2.17-.38-.09-.76-.18-1.14-.27.37-1.57.74-3.15,1.11-4.72.4.09.79.19,1.19.29-.16.64-.32,1.28-.47,1.91,0,0,.01,0,.02,0,.75-.49,1.5-.98,2.27-1.45.51.13,1.01.27,1.51.41-.92.52-1.82,1.04-2.72,1.58.53,1.04,1.04,2.08,1.53,3.12-.5-.14-1-.28-1.51-.41Z"/><path class="cls-2" d="M76.61,25.99c.45-1.55.9-3.1,1.35-4.66,1.12.32,2.23.67,3.34,1.03-.1.31-.2.63-.3.94-.72-.23-1.44-.46-2.16-.68-.09.29-.18.59-.27.88.68.2,1.35.42,2.03.63-.1.3-.19.6-.29.89-.67-.22-1.34-.43-2.01-.63-.1.32-.19.64-.29.96.74.23,1.49.46,2.23.7-.1.32-.21.63-.31.95-1.1-.36-2.21-.7-3.32-1.02Z"/><path class="cls-2" d="M84.51,24.53c-.44,1.21-.88,2.41-1.31,3.62-.38-.14-.76-.27-1.14-.4.42-1.21.85-2.42,1.27-3.63-.46-.16-.92-.32-1.38-.47.11-.32.21-.63.32-.95,1.33.45,2.65.92,3.97,1.41-.12.31-.24.62-.35.94-.46-.17-.91-.34-1.37-.51Z"/><path class="cls-4" d="M45.73,26.29c0,8.7,0,17.4,0,26.09,0,2.74,4.26,2.75,4.26,0,0-8.7,0-17.4,0-26.09,0-2.74-4.26-2.75-4.26,0h0Z"/><path class="cls-4" d="M40.56,31c1.96,8.64,4.43,17.16,7.39,25.52.91,2.57,5.03,1.46,4.11-1.13-2.96-8.35-5.43-16.87-7.39-25.52-.61-2.67-4.72-1.54-4.11,1.13h0Z"/><path class="cls-4" d="M37.72,37.75c3.49,4.07,5.93,8.9,8.43,13.62,2.63,4.97,5.51,9.75,8.88,14.26.69.92,1.84,1.39,2.92.76.91-.53,1.46-1.99.76-2.92-3.46-4.63-6.39-9.55-9.09-14.65-2.61-4.93-5.24-9.83-8.89-14.09-1.79-2.09-4.79.94-3.01,3.01h0Z"/><path class="cls-4" d="M45.77,26.83c0,8.7,0,17.4,0,26.09,0,2.74,4.26,2.75,4.26,0,0-8.7,0-17.4,0-26.09,0-2.74-4.26-2.75-4.26,0h0Z"/><path class="cls-4" d="M51.09,30.42c-1.96,8.64-4.43,17.16-7.39,25.52-.92,2.59,3.2,3.71,4.11,1.13,2.96-8.35,5.43-16.87,7.39-25.52.61-2.67-3.5-3.81-4.11-1.13h0Z"/><path class="cls-4" d="M55.03,35.28c-3.65,4.26-6.28,9.16-8.89,14.09s-5.62,10.02-9.09,14.65c-.69.92-.15,2.38.76,2.92,1.09.64,2.22.16,2.92-.76,3.37-4.51,6.25-9.29,8.88-14.26,2.5-4.71,4.94-9.54,8.43-13.62,1.78-2.07-1.23-5.1-3.01-3.01h0Z"/><path class="cls-4" d="M50.72,86.6c0-8.7,0-17.4,0-26.09,0-2.74-4.26-2.75-4.26,0,0,8.7,0,17.4,0,26.09,0,2.74,4.26,2.75,4.26,0h0Z"/><path class="cls-4" d="M55.9,81.88c-1.96-8.64-4.43-17.16-7.39-25.52-.91-2.57-5.03-1.46-4.11,1.13,2.96,8.35,5.43,16.87,7.39,25.52.61,2.67,4.72,1.54,4.11-1.13h0Z"/><path class="cls-4" d="M58.73,75.14c-3.49-4.07-5.93-8.9-8.43-13.62-2.63-4.97-5.51-9.75-8.88-14.26-.69-.92-1.84-1.39-2.92-.76-.91.53-1.46,1.99-.76,2.92,3.46,4.63,6.39,9.55,9.09,14.65s5.24,9.83,8.89,14.09c1.79,2.09,4.79-.94,3.01-3.01h0Z"/><path class="cls-4" d="M50.68,86.05c0-8.7,0-17.4,0-26.09,0-2.74-4.26-2.75-4.26,0,0,8.7,0,17.4,0,26.09,0,2.74,4.26,2.75,4.26,0h0Z"/><path class="cls-4" d="M45.36,82.47c1.96-8.64,4.43-17.16,7.39-25.52.92-2.59-3.2-3.71-4.11-1.13-2.96,8.35-5.43,16.87-7.39,25.52-.61,2.67,3.5,3.81,4.11,1.13h0Z"/><path class="cls-4" d="M41.42,77.6c3.65-4.26,6.28-9.16,8.89-14.09s5.62-10.02,9.09-14.65c.69-.92.15-2.38-.76-2.92-1.09-.64-2.22-.16-2.92.76-3.37,4.51-6.25,9.29-8.88,14.26-2.5,4.71-4.94,9.54-8.43,13.62-1.78,2.07,1.23,5.1,3.01,3.01h0Z"/><path class="cls-4" d="M23.89,37.41c6.72,5.5,13.45,10.99,20.17,16.49.89.73,2.14.87,3.01,0,.75-.75.9-2.28,0-3.01-6.72-5.5-13.45-10.99-20.17-16.49-.89-.73-2.14-.87-3.01,0-.75.75-.9,2.28,0,3.01h0Z"/><path class="cls-4" d="M24.22,44.44c8.08,4.02,16.4,7.55,24.9,10.59,2.59.93,3.7-3.19,1.13-4.11-8.16-2.92-16.13-6.31-23.88-10.16-2.45-1.22-4.61,2.46-2.15,3.68h0Z"/><path class="cls-4" d="M27.64,51.03c5.54-.14,10.94,1.02,16.34,2.09s11.07,1.85,16.69,2.08c2.74.11,2.74-4.15,0-4.26-5.57-.23-11.03-1.03-16.49-2.12s-10.95-2.2-16.54-2.06c-2.74.07-2.75,4.33,0,4.26h0Z"/><path class="cls-4" d="M24.34,37.72c6.72,5.5,13.45,10.99,20.17,16.49.89.73,2.14.87,3.01,0,.75-.75.9-2.28,0-3.01-6.72-5.5-13.45-10.99-20.17-16.49-.89-.73-2.14-.87-3.01,0-.75.75-.9,2.28,0,3.01h0Z"/><path class="cls-4" d="M30.86,36.26c5.33,6.84,10.23,14.01,14.72,21.43,1.42,2.34,5.11.2,3.68-2.15-4.68-7.74-9.83-15.16-15.39-22.29-.71-.91-2.27-.74-3.01,0-.9.9-.71,2.1,0,3.01h0Z"/><path class="cls-4" d="M36.94,36.36c.97,5.41,3.13,10.46,5.24,15.5,2.21,5.25,4.12,10.57,5.49,16.1.66,2.66,4.77,1.53,4.11-1.13-1.37-5.53-3.29-10.85-5.49-16.1s-4.28-10.09-5.24-15.5c-.2-1.13-1.59-1.77-2.62-1.49-1.19.33-1.69,1.48-1.49,2.62h0Z"/><path class="cls-4" d="M23.04,62.79c7.93-3.53,15.85-7.07,23.78-10.6,1.05-.47,1.3-2,.76-2.92-.63-1.08-1.86-1.24-2.92-.76-7.93,3.53-15.85,7.07-23.78,10.6-1.05.47-1.3,2-.76,2.92.63,1.08,1.86,1.24,2.92.76h0Z"/><path class="cls-4" d="M28.95,65.9c7.23-5.42,14.14-11.24,20.68-17.47,1.99-1.9-1.03-4.91-3.01-3.01-6.27,5.98-12.88,11.61-19.82,16.81-.92.69-1.39,1.84-.76,2.92.53.91,1.99,1.46,2.92.76h0Z"/><path class="cls-4" d="M36.38,65.89c2.33-4.93,5.71-9.2,9.04-13.48,3.53-4.52,6.8-9.17,9.59-14.19,1.33-2.4-2.35-4.55-3.68-2.15-2.75,4.95-5.97,9.56-9.46,14.02s-6.81,8.66-9.17,13.65c-.49,1.04-.29,2.3.76,2.92.93.54,2.42.28,2.92-.76h0Z"/><path class="cls-4" d="M23.52,62.53c7.93-3.53,15.85-7.07,23.78-10.6,1.05-.47,1.3-2,.76-2.92-.63-1.08-1.86-1.24-2.92-.76-7.93,3.53-15.85,7.07-23.78,10.6-1.05.47-1.3,2-.76,2.92.63,1.08,1.86,1.24,2.92.76h0Z"/><path class="cls-4" d="M24.66,56.25c8.49-1.68,17.06-2.86,25.69-3.53,2.72-.21,2.74-4.48,0-4.26-9,.7-17.96,1.93-26.82,3.68-2.69.53-1.55,4.64,1.13,4.11h0Z"/><path class="cls-4" d="M27.43,50.79c5.32,1.59,10.87,1.98,16.38,2.36s11.11,1.05,16.58,2.3c2.67.61,3.81-3.5,1.13-4.11-5.53-1.27-11.13-1.99-16.79-2.39s-10.91-.69-16.18-2.27c-2.63-.79-3.76,3.32-1.13,4.11h0Z"/><path class="cls-4" d="M28.34,78.66c6.13-6.16,12.25-12.32,18.38-18.48,1.94-1.95-1.08-4.96-3.01-3.01-6.13,6.16-12.25,12.32-18.38,18.48-1.94,1.95,1.08,4.96,3.01,3.01h0Z"/><path class="cls-4" d="M35.32,79c4.7-7.51,8.95-15.29,12.74-23.3.49-1.04.29-2.3-.76-2.92-.93-.54-2.42-.28-2.92.76-3.79,8.01-8.04,15.79-12.74,23.3-1.46,2.33,2.23,4.47,3.68,2.15h0Z"/><path class="cls-4" d="M42.09,76.21c.4-5.4,2.09-10.58,3.66-15.73s2.93-10.71,3.71-16.24c.16-1.14-.28-2.29-1.49-2.62-1-.27-2.46.34-2.62,1.49-.8,5.68-2.18,11.2-3.85,16.69-1.64,5.39-3.25,10.77-3.67,16.42-.2,2.74,4.06,2.72,4.26,0h0Z"/><path class="cls-4" d="M28.7,78.24c6.13-6.16,12.25-12.32,18.38-18.48,1.94-1.95-1.08-4.96-3.01-3.01-6.13,6.16-12.25,12.32-18.38,18.48-1.94,1.95,1.08,4.96,3.01,3.01h0Z"/><path class="cls-4" d="M27.48,71.92c7.48-4.73,15.22-9.02,23.2-12.84,1.04-.5,1.31-1.98.76-2.92-.62-1.06-1.87-1.26-2.92-.76-7.98,3.82-15.73,8.1-23.2,12.84-2.31,1.46-.18,5.15,2.15,3.68h0Z"/><path class="cls-4" d="M28.41,65.79c5.56-.43,10.81-2.12,16.08-3.8s10.94-3.1,16.58-3.92c1.14-.17,1.77-1.61,1.49-2.62-.34-1.22-1.48-1.65-2.62-1.49-5.49.8-10.86,2.1-16.15,3.78s-10.09,3.37-15.39,3.79c-2.72.21-2.74,4.48,0,4.26h0Z"/><path class="cls-4" d="M68.97,34.39c-6.72,5.5-13.45,10.99-20.17,16.49-.89.73-.76,2.26,0,3.01.88.88,2.12.73,3.01,0,6.72-5.5,13.45-10.99,20.17-16.49.89-.73.76-2.26,0-3.01-.88-.88-2.12-.73-3.01,0h0Z"/><path class="cls-4" d="M69.51,40.76c-7.76,3.85-15.73,7.25-23.88,10.16-1.08.39-1.81,1.45-1.49,2.62.29,1.05,1.53,1.88,2.62,1.49,8.5-3.04,16.82-6.58,24.9-10.59,2.46-1.22.3-4.9-2.15-3.68h0Z"/><path class="cls-4" d="M68.24,46.77c-5.59-.14-11.09.97-16.54,2.06s-10.92,1.89-16.49,2.12c-2.73.11-2.75,4.37,0,4.26,5.62-.23,11.17-.99,16.69-2.08s10.8-2.23,16.34-2.09c2.74.07,2.74-4.19,0-4.26h0Z"/><path class="cls-4" d="M68.53,34.7c-6.72,5.5-13.45,10.99-20.17,16.49-.89.73-.76,2.26,0,3.01.88.88,2.12.73,3.01,0,6.72-5.5,13.45-10.99,20.17-16.49.89-.73.76-2.26,0-3.01-.88-.88-2.12-.73-3.01,0h0Z"/><path class="cls-4" d="M62,33.25c-5.56,7.13-10.71,14.56-15.39,22.29-1.42,2.35,2.26,4.5,3.68,2.15,4.49-7.42,9.39-14.59,14.72-21.43.71-.91.88-2.13,0-3.01-.74-.74-2.3-.91-3.01,0h0Z"/><path class="cls-4" d="M54.83,35.22c-.97,5.41-3.13,10.46-5.24,15.5s-4.12,10.57-5.49,16.1c-.66,2.66,3.45,3.8,4.11,1.13,1.37-5.53,3.29-10.85,5.49-16.1,2.12-5.04,4.28-10.09,5.24-15.5.2-1.13-.31-2.3-1.49-2.62-1.03-.28-2.42.35-2.62,1.49h0Z"/><path class="cls-4" d="M74.99,59.1c-7.93-3.53-15.85-7.07-23.78-10.6-1.05-.47-2.29-.3-2.92.76-.53.91-.29,2.44.76,2.92,7.93,3.53,15.85,7.07,23.78,10.6,1.05.47,2.29.3,2.92-.76.53-.91.29-2.44-.76-2.92h0Z"/><path class="cls-4" d="M69.08,62.22c-6.93-5.2-13.54-10.83-19.82-16.81-1.99-1.89-5,1.12-3.01,3.01,6.54,6.23,13.45,12.05,20.68,17.47.92.69,2.38.15,2.92-.76.64-1.09.16-2.22-.76-2.92h0Z"/><path class="cls-4" d="M63.18,63.73c-2.36-4.99-5.79-9.32-9.17-13.65s-6.7-9.07-9.46-14.02c-1.33-2.4-5.02-.25-3.68,2.15,2.79,5.02,6.06,9.67,9.59,14.19,3.34,4.28,6.71,8.55,9.04,13.48.49,1.04,1.98,1.31,2.92.76,1.07-.62,1.26-1.87.76-2.92h0Z"/><path class="cls-4" d="M74.51,58.85c-7.93-3.53-15.85-7.07-23.78-10.6-1.05-.47-2.29-.3-2.92.76-.53.91-.29,2.44.76,2.92,7.93,3.53,15.85,7.07,23.78,10.6,1.05.47,2.29.3,2.92-.76.53-.91.29-2.44-.76-2.92h0Z"/><path class="cls-4" d="M72.35,52.14c-8.86-1.75-17.82-2.98-26.82-3.68-2.74-.21-2.72,4.05,0,4.26,8.63.67,17.2,1.85,25.69,3.53,2.68.53,3.83-3.58,1.13-4.11h0Z"/><path class="cls-4" d="M67.31,46.68c-5.27,1.58-10.73,1.88-16.18,2.27s-11.26,1.12-16.79,2.39c-2.67.61-1.54,4.72,1.13,4.11,5.48-1.26,10.99-1.91,16.58-2.3s11.07-.76,16.38-2.36c2.62-.79,1.5-4.9-1.13-4.11h0Z"/><path class="cls-4" d="M70.55,75.64c-6.13-6.16-12.25-12.32-18.38-18.48-1.94-1.95-4.95,1.07-3.01,3.01,6.13,6.16,12.25,12.32,18.38,18.48,1.94,1.95,4.95-1.07,3.01-3.01h0Z"/><path class="cls-4" d="M64.24,76.85c-4.7-7.51-8.95-15.29-12.74-23.3-.49-1.04-1.98-1.31-2.92-.76-1.07.62-1.26,1.87-.76,2.92,3.79,8.01,8.04,15.79,12.74,23.3,1.45,2.32,5.14.18,3.68-2.15h0Z"/><path class="cls-4" d="M58.05,76.21c-.42-5.64-2.03-11.03-3.67-16.42s-3.05-11-3.85-16.69c-.16-1.14-1.61-1.77-2.62-1.49-1.23.34-1.65,1.48-1.49,2.62.78,5.52,2.09,10.91,3.71,16.24,1.56,5.15,3.25,10.33,3.66,15.73.2,2.72,4.47,2.74,4.26,0h0Z"/><path class="cls-4" d="M70.19,75.23c-6.13-6.16-12.25-12.32-18.38-18.48-1.94-1.95-4.95,1.07-3.01,3.01,6.13,6.16,12.25,12.32,18.38,18.48,1.94,1.95,4.95-1.07,3.01-3.01h0Z"/><path class="cls-4" d="M70.55,68.24c-7.48-4.73-15.22-9.02-23.2-12.84-1.04-.5-2.3-.29-2.92.76-.54.93-.28,2.42.76,2.92,7.98,3.82,15.73,8.1,23.2,12.84,2.32,1.47,4.47-2.22,2.15-3.68h0Z"/><path class="cls-4" d="M68,61.93c-5.43-.43-10.6-2.41-15.74-4.1s-10.78-3.06-16.34-3.87c-1.14-.16-2.29.28-2.62,1.49-.28,1,.34,2.46,1.49,2.62,5.72.83,11.3,2.19,16.78,4.01s10.73,3.66,16.43,4.11c2.74.22,2.72-4.05,0-4.26h0Z"/><path class="cls-6" d="M63.89,45.63c-.6-1.85-5.25-.84-7.55-1.09-8.02.04-18.62-.07-23.26.04-1.46.06-1.4,1.15-1.44,2.55-.02,3.37-.01,11.43,0,15.28-.45,6.12,4.26,11.52,9.68,13.92,7.84,3.71,18.08-.13,21.74-7.91,1.56-3.35,1.11-7.32,1.19-11.13-.14-3.6.33-8.55-.3-11.55l-.04-.1Z"/><path class="cls-11" d="M55.11,56.13c-.13-.56-.04-.97-.1-1.51-.78-7.66-13.08-7.91-14.16-.24-.08.58-.03,1.27-.13,1.82-.17.91-.99,2.53-1.34,3.5-.13.36-.26.72-.32,1.09h1.69v3.19c0,2.29,3.25,4.32,5.11,5.05.41.16,1.72.63,2.09.63.29,0,1.24-.32,1.57-.43,2.23-.79,5.64-2.88,5.64-5.57v-2.86h1.61c-.33-1.56-1.31-3.14-1.67-4.67ZM43.9,60.93v4.16c-.13-.03-.97-.35-.97-.41v-3.87h1.05s-.08.1-.08.13ZM46.23,66.05l-1.04-.32v-4.93h1.04v5.25ZM48.41,66.62c-.36.12-.62-.04-.96-.08v-5.74h.96v5.82ZM50.66,65.61c0,.1-.88.42-1.05.44v-5.25h1.05v4.81ZM52.91,64.76l-.96.41v-4.36h.96v3.96ZM42.12,58.54l.64-1.25c3.35-.11,6.75-.01,10.12-.05.07,0,.12.03.16.08.17.21.34.96.6,1.22h-11.52Z"/><path class="cls-11" d="M55.42,69.06c-.16.23-.59.47-.73.64-.06.07-.03.24-.11.36-.53.83-1.41-.04-1-.62.18-.26.4-.14.59-.27s.35-.37.53-.52c-.48-.46-.92-.97-1.4-1.43-1.81-1.77-3.68-3.47-5.48-5.27-.17-.17-.39-.24-.55-.44-.15-.19-.88-2.2-.94-2.51-.02-.09-.11-.09.05-.19.62.43,2.04.59,2.56,1.05.2.17.27.39.43.56,2.19,2.33,4.34,4.7,6.54,7.02.43-.15.61-.96.81-1.11.45-.32,1.21.22.86.76-.24.37-.46.23-.62.35-.1.07-.66.73-.65.8.04.23.4.37.54.52.25.25.63.78.88.99.18.15.52.11.72.23,1.48.88-.36,2.73-1.26,1.32-.14-.22-.09-.6-.24-.78-.2-.25-.74-.64-.98-.89-.18-.18-.25-.47-.57-.58Z"/><path class="cls-11" d="M40.71,69.06c.16.23.59.47.73.64.06.07.03.24.11.36.53.83,1.41-.04,1-.62-.18-.26-.4-.14-.59-.27s-.35-.37-.53-.52c.48-.46.92-.97,1.4-1.43,1.81-1.77,3.68-3.47,5.48-5.27.17-.17.39-.24.55-.44.15-.19.88-2.2.94-2.51.02-.09.11-.09-.05-.19-.62.43-2.04.59-2.56,1.05-.2.17-.27.39-.43.56-2.19,2.33-4.34,4.7-6.54,7.02-.43-.15-.61-.96-.81-1.11-.45-.32-1.21.22-.86.76.24.37.46.23.62.35.1.07.66.73.65.8-.04.23-.4.37-.54.52-.25.25-.63.78-.88.99-.18.15-.52.11-.72.23-1.48.88.36,2.73,1.26,1.32.14-.22.09-.6.24-.78.2-.25.74-.64.98-.89.18-.18.25-.47.57-.58Z"/><polygon class="cls-6" points="52.91 60.8 52.91 64.76 51.95 65.16 51.95 60.8 52.91 60.8"/><path class="cls-6" d="M50.66,60.8v4.81c0,.1-.88.42-1.05.44v-5.25h1.05Z"/><path class="cls-6" d="M48.41,60.8v5.82c-.36.12-.62-.04-.96-.08v-5.74h.96Z"/><path class="cls-6" d="M43.9,60.93v4.16c-.13-.03-.97-.35-.97-.41v-3.87h1.05s-.08.1-.08.13Z"/><polygon class="cls-6" points="46.23 60.8 46.23 66.05 45.19 65.73 45.19 60.8 46.23 60.8"/><path class="cls-7" d="M59.02,53.51l-2.44,1.72c-.58-1.03-.53-1.74-1.47-2.7-.24-.24-.38-.36-.69-.51.81-.57,1.68-1.1,2.48-1.66,1.27.67,1.46,2.01,2.12,3.16Z"/><path class="cls-7" d="M61.96,51.44l-2.28,1.6c-.54-.99-.73-2.01-1.57-2.81-.17-.16-.39-.24-.53-.44.74-.52,1.47-1.06,2.22-1.56.21.09.66.29.8.43.69.7.85,1.94,1.36,2.78Z"/><path class="cls-11" d="M60.91,55.5c-.59-.3-1.09-.75-1.48-1.29l-2.39,1.68c-.15-.19-.35-.46-.47-.67l2.44-1.72c-.66-1.14-.85-2.49-2.12-3.16.25-.18.47-.41.68-.56.14.19.37.28.53.44.84.8,1.03,1.83,1.57,2.81l2.28-1.6c.16.26.35.41.52.63l-2.39,1.68c.46.51.96.92,1.59,1.21-.26.18-.52.37-.78.55Z"/><path class="cls-7" d="M58.44,57.19c-.54-.34-1.01-.8-1.4-1.3l2.39-1.68c.38.54.89.99,1.48,1.29-.82.57-1.62,1.17-2.46,1.69Z"/><path class="cls-7" d="M61.69,54.95c-.62-.29-1.13-.7-1.59-1.21l2.39-1.68c.43.55.77.97,1.37,1.36-.72.51-1.45,1.01-2.17,1.52Z"/><path class="cls-11" d="M55.1,52.52l-3.94,2.77-.47-.67c1.24-.87,2.48-1.74,3.72-2.61.31.15.45.27.69.51Z"/><path class="cls-9" d="M60.6,48.66c-.14-.14-.59-.35-.8-.43.17-.12.57-.47.77-.38.33.15.45.68.03.81Z"/><path class="cls-7" d="M36.86,53.51l2.44,1.72c.58-1.03.53-1.74,1.47-2.7.24-.24.38-.36.69-.51-.81-.57-1.68-1.1-2.48-1.66-1.27.67-1.46,2.01-2.12,3.16Z"/><path class="cls-7" d="M33.91,51.44l2.28,1.6c.54-.99.73-2.01,1.57-2.81.17-.16.39-.24.53-.44-.74-.52-1.47-1.06-2.22-1.56-.21.09-.66.29-.8.43-.69.7-.85,1.94-1.36,2.78Z"/><path class="cls-11" d="M34.97,55.5c.59-.3,1.09-.75,1.48-1.29l2.39,1.68c.15-.19.35-.46.47-.67l-2.44-1.72c.66-1.14.85-2.49,2.12-3.16-.25-.18-.47-.41-.68-.56-.14.19-.37.28-.53.44-.84.8-1.03,1.83-1.57,2.81l-2.28-1.6c-.16.26-.35.41-.52.63l2.39,1.68c-.46.51-.96.92-1.59,1.21.26.18.52.37.78.55Z"/><path class="cls-7" d="M37.43,57.19c.54-.34,1.01-.8,1.4-1.3l-2.39-1.68c-.38.54-.89.99-1.48,1.29.82.57,1.62,1.17,2.46,1.69Z"/><path class="cls-7" d="M34.19,54.95c.62-.29,1.13-.7,1.59-1.21l-2.39-1.68c-.43.55-.77.97-1.37,1.36.72.51,1.45,1.01,2.17,1.52Z"/><path class="cls-11" d="M40.77,52.52l3.94,2.77.47-.67c-1.24-.87-2.48-1.74-3.72-2.61-.31.15-.45.27-.69.51Z"/><path class="cls-9" d="M35.28,48.66c.14-.14.59-.35.8-.43-.17-.12-.57-.47-.77-.38-.33.15-.45.68-.03.81Z"/><path class="cls-9" d="M65.09,41.32c-.08.76-.23,1.54-.4,2.3-.04.23-.1.44-.14.66-.11.44-.33,1.01-.47,1.49-.05.17-.1.33-.12.48H31.83c-.04-.14-.08-.3-.12-.44-.2-.71-.4-1.4-.57-2.11h0c-.19-.76-.35-1.5-.43-2.29-.18-1.59-.05-3.21-.09-4.82,1.46,1.01,2.77,2.27,4,3.55.31.5-.37.74-.57,1.14-.3.58-.22,1.25.21,1.73,1.21,1.39,3.67-.25,2.16-2.17-.14-.18-.41-.14-.31-.52.05-.2,1.08-1.35,1.29-1.6.63-.7,1.35-1.35,1.98-2.04l1.39,1.24,2.16,2.4c.16.34-.39.61-.56.88-.37.58-.31,1.18.06,1.74.24.38.57.52,1.02.57,1.01.1,1.89-.84,1.69-1.85-.11-.5-.85-1.02-.82-1.31.03-.23.58-.66.75-.84l.61-.6c.29-.29,2.01-2.12,2.22-2.09.74.77,1.58,1.44,2.33,2.2.25.26,1.22,1.18,1.19,1.49,0,.09-.47.46-.57.62-.58.92-.13,1.85.3,2.21.08.07.37.15.42.17,1.36.31,2.63-1.09,1.8-2.35-.17-.26-.7-.53-.52-.92l3.49-3.56,3.21,3.49c.09.1.11.25.06.38-.21.46-.73.57-.8,1.27-.22,2.31,3.36,2.2,3.02-.1-.12-.74-1.18-1.13-.6-1.81.61-.72,2.2-2.03,2.99-2.64.1-.07.89-.68.95-.61-.04,1.56.08,3.12-.09,4.66Z"/><circle class="cls-5" cx="39.3" cy="40.55" r=".89"/><ellipse class="cls-3" cx="39.16" cy="44.45" rx="1.57" ry="1.21"/><ellipse class="cls-3" cx="56.34" cy="44.45" rx="1.57" ry="1.21"/><circle class="cls-5" cx="30.61" cy="40.55" r=".89"/><circle class="cls-5" cx="47.94" cy="40.55" r=".89"/><circle class="cls-5" cx="56.34" cy="40.55" r=".89"/><circle class="cls-5" cx="65.18" cy="40.55" r=".89"/><path class="cls-6" d="M50.99,44.56c-1.04-.34-2.08-.68-3.12-1.02-.03,0-.06,0-.08,0l-3.35,1.14c-.13.04-.12.22,0,.26l3.31.89s.05,0,.08,0l3.16-1.02c.12-.04.12-.22,0-.26Z"/><path class="cls-6" d="M34.77,44.81l-3.06.98c-.2-.71-.4-1.4-.57-2.11h0s.43-.15.43-.15c.03,0,.05,0,.08,0,1.04.34,2.08.68,3.12,1.03.13.04.13.22,0,.25Z"/><path class="cls-6" d="M64.69,43.62c-.04.23-.1.44-.14.66-.11.44-.33,1.01-.47,1.49l-3.06-.82c-.13-.04-.13-.22,0-.25l3.36-1.15s.05,0,.08,0c.08.03.16.05.24.08Z"/><path class="cls-1" d="M31.81,93.37v8.14h-2.01v-8.14h-2.35v-2.11h6.7v2.11h-2.35Z"/><path class="cls-1" d="M41.85,99.33c-.17.51-.41.94-.72,1.3-.31.36-.69.64-1.13.85-.44.2-.93.3-1.47.3s-1.04-.1-1.48-.3c-.44-.2-.81-.49-1.11-.85-.3-.36-.54-.8-.7-1.3s-.25-1.07-.25-1.69v-6.39h1.99v6.18c0,.28.03.55.09.8s.15.48.27.67c.12.2.28.35.48.47.2.12.44.17.72.17s.52-.06.72-.17c.2-.12.36-.27.49-.47.12-.2.21-.42.27-.67s.08-.52.08-.8v-6.18h2.01v6.39c0,.62-.08,1.18-.25,1.69Z"/><path class="cls-1" d="M48.17,101.5l-1.8-4.07h-.68v4.07h-1.96v-10.25h3.17c.4,0,.79.05,1.17.15.38.1.72.27,1.02.51s.54.56.72.96c.18.4.27.89.27,1.48,0,.69-.15,1.28-.46,1.75-.31.47-.73.81-1.27,1.01l2.17,4.39h-2.35ZM48.09,94.4c0-.24-.04-.44-.12-.59-.08-.15-.19-.27-.32-.35-.13-.08-.28-.14-.44-.17s-.32-.04-.47-.04h-1.07v2.39h.96c.17,0,.33-.02.51-.05.17-.03.33-.09.47-.18.14-.09.26-.21.35-.38.09-.16.14-.38.14-.64Z"/><path class="cls-1" d="M56.56,101.5l-3.08-4.72h-.02v4.72h-1.96v-10.25h1.96v4.17h.04l2.97-4.17h2.51l-3.58,4.72,3.79,5.53h-2.62Z"/><path class="cls-1" d="M66.62,99.33c-.17.51-.41.94-.72,1.3-.31.36-.69.64-1.13.85-.44.2-.93.3-1.47.3s-1.04-.1-1.48-.3c-.44-.2-.81-.49-1.11-.85-.3-.36-.54-.8-.7-1.3s-.25-1.07-.25-1.69v-6.39h1.99v6.18c0,.28.03.55.09.8s.15.48.27.67c.12.2.28.35.48.47.2.12.44.17.72.17s.52-.06.72-.17c.2-.12.36-.27.49-.47.12-.2.21-.42.27-.67s.08-.52.08-.8v-6.18h2.01v6.39c0,.62-.08,1.18-.25,1.69Z"/><path class="cls-1" d="M39.39,110.52v-5.17l-1.06,1.01-.7-1.18,1.88-1.7h1.23v7.05h-1.35Z"/><path class="cls-1" d="M47.05,108.51c0,.37-.06.7-.18.97-.12.28-.27.5-.47.69-.2.18-.42.32-.68.41-.26.09-.53.13-.81.13s-.56-.04-.81-.13c-.26-.09-.48-.22-.68-.4-.2-.18-.35-.41-.47-.68-.12-.28-.18-.6-.18-.97,0-.21.03-.41.08-.59.05-.18.13-.34.22-.49.09-.14.2-.27.33-.37.12-.1.25-.18.4-.23v-.02c-.25-.11-.45-.3-.62-.55s-.25-.58-.25-.97c0-.33.05-.61.16-.87.11-.25.25-.46.44-.63.18-.17.39-.3.64-.38s.49-.13.76-.13.51.04.75.12c.24.08.45.21.63.37.18.17.33.37.44.62.11.25.17.54.17.86,0,.39-.08.72-.24.98-.16.27-.37.45-.63.56v.03c.14.05.28.13.4.23.12.1.23.23.32.37.09.14.16.31.22.49.05.18.08.38.08.58ZM45.7,108.45c0-.27-.07-.5-.22-.68-.15-.18-.34-.27-.57-.27s-.43.09-.58.27c-.15.18-.22.41-.22.69s.07.51.22.68c.15.17.34.25.58.25s.43-.08.57-.25c.14-.17.22-.4.22-.68ZM45.6,105.39c0-.23-.07-.42-.2-.58-.13-.15-.3-.23-.48-.23-.2,0-.37.08-.49.23-.12.15-.19.35-.19.58s.06.42.18.59c.12.17.29.25.5.25.2,0,.36-.08.49-.25.13-.17.19-.36.19-.59Z"/><path class="cls-1" d="M52.35,108.15c0,.4-.06.76-.18,1.07-.12.32-.28.59-.48.81-.2.22-.44.39-.72.5-.27.12-.56.17-.87.17s-.6-.06-.87-.17c-.27-.12-.51-.28-.71-.5-.2-.22-.36-.48-.48-.8-.12-.31-.18-.66-.18-1.04,0-.42.06-.8.18-1.14s.27-.69.46-1.04l1.38-2.54h1.63l-1.4,2.41-.02.05c.05-.03.12-.05.19-.06.08-.01.15-.02.21-.02.25,0,.48.05.71.16.23.11.43.27.59.47.17.2.3.44.41.73.1.28.15.6.15.94ZM51.01,108.19c0-.32-.08-.58-.24-.79s-.38-.31-.65-.31-.49.1-.66.31-.25.47-.25.81c0,.31.08.57.24.79.16.22.38.33.66.33s.49-.1.65-.31c.16-.21.25-.48.25-.82Z"/><path class="cls-1" d="M57.57,105.8c0,.42-.06.8-.18,1.14-.12.34-.27.69-.46,1.04l-1.38,2.54h-1.63l1.42-2.43.02-.03c-.06.03-.12.05-.2.06-.07.01-.14.02-.21.02-.25,0-.49-.05-.72-.16-.22-.11-.42-.27-.59-.47-.17-.2-.31-.44-.41-.73-.1-.28-.15-.6-.15-.94,0-.4.06-.76.18-1.07.12-.32.28-.59.48-.81.2-.22.44-.39.72-.5.27-.12.56-.17.87-.17s.6.06.88.17c.27.12.51.28.71.5.2.22.36.48.48.8.12.31.18.66.18,1.04ZM56.22,105.78c0-.3-.08-.57-.24-.79s-.38-.33-.65-.33-.5.1-.66.31c-.16.21-.25.48-.25.82,0,.32.08.58.24.79s.38.31.65.31.49-.1.66-.31c.17-.21.25-.47.25-.81Z"/></g></svg>