<?xml version="1.0" encoding="utf-8"?>
<!-- Generator: Adobe Illustrator 27.8.1, SVG Export Plug-In . SVG Version: 6.00 Build 0)  -->
<svg version="1.1" id="Layer_1" xmlns="http://www.w3.org/2000/svg" xmlns:xlink="http://www.w3.org/1999/xlink" x="0px" y="0px"
	 viewBox="0 0 48 48" style="enable-background:new 0 0 48 48;" xml:space="preserve">
<style type="text/css">
	.st0{fill:none;stroke:#FFFFFF;stroke-width:4;stroke-linecap:round;stroke-linejoin:round;stroke-miterlimit:8;}
</style>
<path class="st0" d="M38,34h4c1.2,0,2-0.8,2-2v-6c0-1.8-1.4-3.4-3-3.8c-3.6-1-9-2.2-9-2.2s-2.6-2.8-4.4-4.6c-1-0.8-2.2-1.4-3.6-1.4
	H10c-1.2,0-2.2,0.8-2.8,1.8l-2.8,5.8C4.1,22.4,4,23.2,4,24v8c0,1.2,0.8,2,2,2h4"/>
<circle class="st0" cx="14" cy="34" r="4"/>
<path class="st0" d="M18,34h12"/>
<circle class="st0" cx="34" cy="34" r="4"/>
</svg>
