<?xml version="1.0" encoding="utf-8"?>
<!-- Generator: Adobe Illustrator 27.8.1, SVG Export Plug-In . SVG Version: 6.00 Build 0)  -->
<svg version="1.1" id="Layer_1" xmlns="http://www.w3.org/2000/svg" xmlns:xlink="http://www.w3.org/1999/xlink" x="0px" y="0px"
	 viewBox="0 0 24 24" style="enable-background:new 0 0 24 24;" xml:space="preserve">
<style type="text/css">
	.st0{fill:none;stroke:#FFFFFF;stroke-width:2;stroke-linecap:round;stroke-linejoin:round;}
</style>
<path class="st0" d="M12,6v4"/>
<path class="st0" d="M14,14h-4"/>
<path class="st0" d="M14,18h-4"/>
<path class="st0" d="M14,8h-4"/>
<path class="st0" d="M18,12h2c1.1,0,2,0.9,2,2v6c0,1.1-0.9,2-2,2H4c-1.1,0-2-0.9-2-2v-9c0-1.1,0.9-2,2-2h2"/>
<path class="st0" d="M18,22V4c0-1.1-0.9-2-2-2H8C6.9,2,6,2.9,6,4v18"/>
</svg>
