<?xml version="1.0" encoding="utf-8"?>
<!-- Generator: Adobe Illustrator 27.8.1, SVG Export Plug-In . SVG Version: 6.00 Build 0)  -->
<svg version="1.1" id="Layer_1" xmlns="http://www.w3.org/2000/svg" xmlns:xlink="http://www.w3.org/1999/xlink" x="0px" y="0px"
	 viewBox="0 0 48 48" style="enable-background:new 0 0 48 48;" xml:space="preserve">
<style type="text/css">
	.st0{fill:none;stroke:#FFFFFF;stroke-width:4;stroke-linecap:round;stroke-linejoin:round;stroke-miterlimit:8;}
</style>
<path class="st0" d="M42,16l-4,4l-3-7.4C34.4,11,32.9,10,31.3,10H16.8c-1.7,0-3.2,1-3.8,2.5L10,20l-4-4"/>
<path class="st0" d="M14,28L14,28"/>
<path class="st0" d="M34,28L34,28"/>
<path class="st0" d="M10,20h28c2.2,0,4,1.8,4,4v8c0,2.2-1.8,4-4,4H10c-2.2,0-4-1.8-4-4v-8C6,21.8,7.8,20,10,20z"/>
<path class="st0" d="M10,36v4"/>
<path class="st0" d="M38,36v4"/>
</svg>
