<?xml version="1.0" encoding="utf-8"?>
<!-- Generator: Adobe Illustrator 27.8.1, SVG Export Plug-In . SVG Version: 6.00 Build 0)  -->
<svg version="1.1" id="Layer_1" xmlns="http://www.w3.org/2000/svg" xmlns:xlink="http://www.w3.org/1999/xlink" x="0px" y="0px"
	 viewBox="0 0 1263.5 486.6" style="enable-background:new 0 0 1263.5 486.6;" xml:space="preserve">
<style type="text/css">
	.st0{fill:#1F9CED;}
	.st1{fill-rule:evenodd;clip-rule:evenodd;fill:#1F9CED;stroke:#1F9CED;stroke-width:0.48;stroke-miterlimit:10;}
	.st2{font-family:'Baltore';}
	.st3{font-size:122.78px;}
</style>
<g>
	<path class="st0" d="M258.6,33.9c-12.3,14.1-13.4,33.5-17.9,50.6c-3.7,13.4-13.4,39.1-14.9,42.4c0,0.4-0.4,0.4-0.7,0.4
		c-54.7-10.1-112-11.5-167.1-4.1c-8.6,1.1-17.1,3-25.7,4.1c-0.2,0-0.5-0.1-0.7-0.4c-4.5-14.5-10.1-28.7-14.1-43.2
		C13,67,11.9,47.6,0,33.9c0-0.4,0-0.7,0.4-0.7c14.1-0.7,27.2,5.6,34.2,18.2c1.1,1.9,2.2,5.6,3,6.7c0.4,0.4,0.4,0.7,1.1,0.7
		c2.2,0.4,2.2-3.3,2.6-4.5c3.3-8.2,10-14.1,18.2-16c0.4,0,0.7,0.4,0.7,0.4l1.1,10.8c0.4,11.9-3,23.8-13.4,30.5
		c-6,4.1-14.5,4.5-10,14.9c3,6.7,11.5,10.4,18.6,9.7c6-0.4,16-5.6,14.5-13c-0.4-2.2-4.1-4.8-5.2-7.4c-2.2-6.3,2.2-14.1,8.6-14.9
		c7.1-0.7,13,5.6,11.9,12.7c-0.7,4.8-7.1,5.2-2.2,11.9c7.8,10.1,28.3,10.1,33.1-2.6c3.3-8.6-4.8-8.6-10.4-11.2
		C87.5,70.8,85.2,52.9,80.4,34c0-0.4,0-0.7,0.4-0.7c9.7-1.5,19.3,3.7,25.7,10.8c0.7,1.1,2.2,4.8,4.1,3.7c1.5-0.7,0.7-7.4,0.7-9.3
		c0.7-14.1,7.8-27.9,17.5-38l0.4-0.4c1.5,0.4,5.9,6.7,6.7,7.8c6.3,9.3,11.2,21.2,11.5,32.7c0,1.5-0.7,6,0,6.7
		c0.4,0.4,1.1,0.4,1.9,0.4c0.7-0.4,4.5-5.6,5.6-7.1c5.9-5.6,14.9-9.3,23.1-7.8c0.4,0,0.4,0.4,0.4,0.7c-3.7,11.5-4.1,24.6-11.5,34.6
		c-3.7,5.2-10.1,9.7-16,11.9c-5.2,2.2-12.6,2.2-9.3,10.4c5.6,13,24.9,13,33.5,3c5.6-6.7-3-7.4-1.9-14.5c1.9-14.5,22.7-11.9,21.2,2.6
		c-0.7,7.1-9.7,7.4-5.2,15.6c6.7,11.9,30.9,8.9,33.1-4.8c1.1-7.4-4.1-7.4-8.6-10.4C197.9,73,196,55.1,199,38.7
		c0-0.4,0.4-0.4,0.7-0.4c6.7,1.9,13.8,7.4,16.7,13.8c0.7,1.5,1.9,6,2.2,6.3c2.2,2.6,4.1-4.5,4.8-6c7.1-13.4,20.1-20.1,34.6-19.7
		C258.5,33.1,258.9,33.5,258.6,33.9L258.6,33.9z"/>
	<path class="st1" d="M241.9,147.9L241.9,147.9c0.3,3.3,0,7.5,0,10.9c-0.7,57.7-0.2,115.5-0.3,173.5c-3.2,43.6-33.8,65.2-71,79.5
		c-10.3,4-21.2,6.7-30.9,12.1c-1.6,1-8.8,6.1-9.7,6.1c-1.3,0-7.8-4.9-9.6-5.9C109,417.4,95,413.9,82.6,409
		c-41.1-16.3-64.5-39.7-65.3-86.2c-0.5-28.6,0-57.5,0-86.1c0-29.3-0.8-58.9-0.3-88.1c0-2,0.7-4,2.4-5.2c2.1-1.5,11-3.6,14-4.3
		c27.5-6.6,56-9.2,84.3-10.5l24.9-0.1c0.7,0,1.4,0.3,2.2,0.4c25.9,0.8,52.1,3.6,77.3,9.3c4.7,1,10.2,2.3,14.7,3.9
		C240.1,143.1,241.6,144,241.9,147.9L241.9,147.9z M206.9,263.5l-0.8-0.4c1.1-4,3.8-7.7,4.3-11.9c0.4-3.8-1.7-6.8-4.1-9.4
		c-0.2-0.2-1.3-1.4-1.5-1.5h-0.1c0,0-0.5,0.4-0.6,0.5c-1.6,1.4-3.9,4.5-4.6,6.6c-1.7,5.1,1.8,9.9,3.4,14.4c0.1,0.3,0.4,1.1,0.4,1.3
		s-0.6,0.4-0.8,0.5c-0.6-2.9-1.7-5.9-3.3-8.4c-2.4-3.8-6.9-6.6-11.4-4.8l1,0.5c3.6,2.2,2.7,6.9,4.5,10.2c0.9,1.5,2.3,2.6,3.8,3.4
		c1.3,0.7,2.9,1,4.1,1.9c0.1,0,0.7-0.7,0.9-0.9c1.6-1.3,3.9-1.2,5.5,0.2c0.1,0.1,0.6,0.7,0.7,0.7c1.9-1.2,3.9-1.5,5.8-2.9
		c4.3-3.5,2.4-9.8,6.3-12.4l1.1-0.6c-4.4-1.8-8.7,0.8-11.1,4.6C208.8,257.5,207.6,260.6,206.9,263.5L206.9,263.5z M54.7,275.1
		L54.7,275.1l0.5,0.2c-0.6,2.3-2.2,4.4-2.4,6.8c-0.2,2.2,1,3.9,2.3,5.4c0.1,0.1,0.7,0.8,0.8,0.9H56l0.3-0.3c0.9-0.9,2.2-2.6,2.6-3.8
		c0.9-2.9-1-5.6-2-8.2c-0.1-0.1-0.3-0.7-0.3-0.7s0.4-0.2,0.5-0.3c0.3,1.6,1,3.4,1.9,4.8c1.4,2.2,3.9,3.8,6.5,2.7l-0.6-0.3
		c-2.1-1.2-1.6-3.9-2.6-5.8c-0.5-0.9-1.3-1.5-2.2-1.9c-0.8-0.4-1.6-0.6-2.3-1.1c-0.1,0-0.5,0.4-0.5,0.5c-0.9,0.7-2.2,0.7-3.1-0.1
		c-0.1-0.1-0.3-0.4-0.4-0.4c-1.1,0.7-2.2,0.9-3.3,1.7c-2.5,2-1.3,5.5-3.6,7.1l-0.7,0.4c2.5,1,5-0.5,6.3-2.6
		C53.6,278.5,54.3,276.8,54.7,275.1L54.7,275.1z M130.3,374.1c-1.7,0-3.1,1.4-3.1,3.2s1.4,3.2,3.1,3.2s3.1-1.4,3.1-3.2
		S132,374.1,130.3,374.1z M56,266.1c-1.7,0-3.1,1.4-3.1,3.2s1.4,3.2,3.1,3.2s3.1-1.4,3.1-3.2S57.7,266.1,56,266.1z M132.4,169.9
		l-0.8-0.4c1.1-4,3.8-7.7,4.3-11.9c0.4-3.8-1.7-6.8-4.1-9.4c-0.2-0.2-1.3-1.4-1.5-1.5h-0.1c0,0-0.5,0.4-0.6,0.5
		c-1.6,1.4-3.9,4.5-4.6,6.6c-1.7,5.1,1.8,9.9,3.4,14.4c0.1,0.3,0.4,1.1,0.4,1.3s-0.6,0.4-0.8,0.6c-0.6-2.9-1.7-5.9-3.3-8.4
		c-2.4-3.8-6.9-6.6-11.4-4.8l1,0.5c3.6,2.2,2.7,6.9,4.5,10.2c0.9,1.5,2.3,2.6,3.8,3.4c1.3,0.7,2.9,1,4.1,1.9c0.1,0,0.7-0.7,0.9-0.9
		c1.6-1.3,3.9-1.2,5.5,0.2c0.1,0.1,0.6,0.7,0.7,0.7c1.9-1.2,3.9-1.5,5.8-2.9c4.3-3.5,2.4-9.8,6.3-12.4l1.1-0.6
		c-4.4-1.8-8.7,0.8-11.1,4.6C134.3,163.9,133.1,167,132.4,169.9L132.4,169.9z M129.1,181.5L129.1,181.5l0.5,0.2
		c-0.6,2.3-2.2,4.4-2.4,6.8c-0.2,2.2,1,3.9,2.4,5.4c0.1,0.1,0.7,0.8,0.9,0.9h0.1l0.3-0.3c0.9-0.9,2.2-2.6,2.6-3.8
		c0.9-2.9-1-5.6-2-8.2c-0.1-0.1-0.3-0.7-0.3-0.7s0.4-0.2,0.4-0.3c0.3,1.6,1,3.4,1.9,4.8c1.4,2.2,3.9,3.8,6.5,2.7l-0.6-0.3
		c-2.1-1.2-1.6-3.9-2.6-5.8c-0.5-0.9-1.3-1.5-2.1-1.9s-1.6-0.6-2.3-1.1c-0.1,0-0.4,0.4-0.5,0.5c-0.9,0.7-2.2,0.7-3.1-0.1
		c-0.1-0.1-0.3-0.4-0.4-0.4c-1.1,0.7-2.2,0.9-3.3,1.7c-2.5,2-1.3,5.5-3.6,7.1l-0.7,0.4c2.5,1,4.9-0.5,6.3-2.6
		C128,184.9,128.7,183.2,129.1,181.5L129.1,181.5z M74.6,271.2L74.6,271.2L74.6,271.2L74.6,271.2z M74.6,271.2
		c-0.2-5.3-5.2-8.9-10.1-6.2c-1,0.6-4,2.8-4.2,3.8c0,0.3,0,0.6,0,0.9c-0.1,1-0.4,1.7-0.8,2.5c2.9,1.5,5.8,0.6,8.5-0.8
		c0.8-0.5,1.6-1.1,2.6-1.3C72.1,269.6,73.6,270,74.6,271.2L74.6,271.2z M129.1,383.2L129.1,383.2l0.5,0.2c-0.6,2.3-2.2,4.4-2.4,6.8
		c-0.2,2.2,1,3.9,2.4,5.4c0.1,0.1,0.7,0.8,0.9,0.9h0.1l0.3-0.3c0.9-0.9,2.2-2.6,2.6-3.8c0.9-2.9-1-5.6-2-8.2
		c-0.1-0.1-0.3-0.7-0.3-0.7c0-0.1,0.4-0.2,0.4-0.3c0.3,1.6,1,3.4,1.9,4.8c1.4,2.2,3.9,3.8,6.5,2.7l-0.6-0.3
		c-2.1-1.2-1.6-3.9-2.6-5.8c-0.5-0.9-1.3-1.5-2.1-1.9s-1.6-0.6-2.3-1.1c-0.1,0-0.4,0.4-0.5,0.5c-0.9,0.7-2.2,0.7-3.1-0.1
		c-0.1-0.1-0.3-0.4-0.4-0.4c-1.1,0.7-2.2,0.9-3.3,1.7c-2.5,2-1.3,5.5-3.6,7.1l-0.7,0.4c2.5,1,4.9-0.5,6.3-2.6
		C128,386.6,128.7,384.9,129.1,383.2L129.1,383.2z M126.9,178.5L126.9,178.5c0-0.1-0.4-0.7-0.5-0.8c-0.3-0.6-0.4-1.3-0.5-1.9
		c0-0.2,0-0.5,0-0.6c-0.2-0.9-3.2-3.2-4.1-3.7c-5-2.8-10.1,0.7-10.3,6.2c0.6-0.7,1.4-1.2,2.3-1.4c2.3-0.4,3.8,1.1,5.7,2
		c1.9,0.9,3.9,1.3,6,0.7C125.9,179,126.4,178.7,126.9,178.5L126.9,178.5z M110.2,307.7c0.1-0.1,0.1-0.3,0.1-0.5l-1-14.7v-0.1
		l3.6-41.3c0.1-1.2,2-1.3,2.4-0.3l12.3,31.9c0.2,0.4,0.6,0.7,1.2,0.7h2.6c0.6,0,1-0.3,1.2-0.7l12.4-31.9c0.4-1.1,2.3-0.9,2.4,0.3
		l3.6,41.3v0.1l-0.9,12.4c-0.6,1.2-0.8,2.7-0.6,4.6c0.7,6,16.2,13.2,21.1,16.6c7.1,5,9.6,9.8-1.5,11.1c2.2,5,6.3,6.8,11.5,6.2
		c1.5-0.1,4-1.8,4.3-1.8c0.4,0.1,1.4,1.5,2.1,1.9c11.5,8,21.8-0.7,25.6-12.2c-4.9,2.3-10,5.5-14.1,0c-1.6-2.2-2-5-3.3-7.3
		c-2.8-4.9-9.1-6.2-14-7.9c-3.9-1.3-15.7-3.9-18.1-5.9c-0.8-0.6-1-1.4-0.9-2h17.6c0.8,0,1.4-0.7,1.2-1.3l-5-14.5v-0.1l-13.5-70.9
		v-0.2l0.1-3.9H180c7.4,0,3.8-7.1,6-12.3c1.8-4.2,5.7-12.8,11.2-11.8c2.3,0.4,3,3.4,2.5,5.4c-0.2,0.8-1.6,2.2-0.6,2.5
		c5.2,1.5,8.6-4.4,6.4-9c7.7-4.4,6.9-13.9,0.1-18.8l-0.6,4.2c-1.8,4.1-6.6,4.3-10.2,5.6c-8,3-13.5,9.8-16.4,17.7H81.2
		c-2.9-7.9-8.4-14.7-16.4-17.7c-3.5-1.3-8.4-1.5-10.2-5.6l-0.6-4.2c-6.8,4.8-7.6,14.4,0.1,18.8c-2.2,4.6,1.1,10.5,6.4,9
		c1-0.3-0.4-1.7-0.6-2.5c-0.5-2,0.2-5.1,2.5-5.4c5.5-0.9,9.5,7.6,11.2,11.8c2.2,5.1-1.3,12,5.5,12.3c0.1,0,0.1,0,0.2,0h18.2l0.1,3.9
		v0.2l-13.5,70.9h0.1v0.1l-5,14.5c-0.2,0.7,0.4,1.3,1.2,1.3h17c0.1,0.6-0.1,1.4-0.9,2c-2.4,2-14.2,4.6-18.1,5.9
		c-4.9,1.6-11.2,3-14,7.9c-1.3,2.3-1.6,5.1-3.3,7.3c-4.1,5.6-9.2,2.3-14.1,0c3.8,11.4,14.1,20.2,25.6,12.2c0.6-0.5,1.6-1.9,2.1-1.9
		c0.3,0,2.8,1.6,4.3,1.8c5.2,0.6,9.3-1.3,11.5-6.2c-11.1-1.3-8.7-6.1-1.5-11.1c4.9-3.4,20.3-10.6,21.1-16.6
		C110.2,308.8,110.2,308.3,110.2,307.7L110.2,307.7z M119.6,217.3h21.1l-9.4,21.4c-0.4,0.9-1.9,0.9-2.3,0L119.6,217.3z M58.1,263.5
		l-0.8-0.4c1.1-4,3.8-7.7,4.3-11.9c0.4-3.8-1.7-6.8-4.1-9.4c-0.2-0.2-1.3-1.4-1.5-1.5h-0.2c0,0-0.5,0.4-0.6,0.5
		c-1.6,1.4-3.9,4.5-4.6,6.6c-1.7,5.1,1.8,9.9,3.4,14.4c0.1,0.3,0.5,1.1,0.5,1.3s-0.6,0.4-0.8,0.5c-0.6-2.9-1.7-5.9-3.3-8.4
		c-2.5-3.8-6.9-6.6-11.4-4.8l1,0.5c3.6,2.2,2.7,6.9,4.5,10.2c0.9,1.5,2.3,2.6,3.8,3.4c1.3,0.7,2.9,1,4.1,1.9c0.1,0,0.7-0.7,0.9-0.9
		c1.6-1.3,3.9-1.2,5.5,0.2c0.2,0.1,0.6,0.7,0.7,0.7c1.9-1.2,3.9-1.5,5.8-2.9c4.3-3.5,2.4-9.8,6.3-12.4l1.2-0.6
		c-4.4-1.8-8.7,0.8-11.1,4.6C60,257.5,58.8,260.6,58.1,263.5L58.1,263.5z M223.4,271.2L223.4,271.2L223.4,271.2L223.4,271.2z
		 M223.4,271.2c-0.2-5.3-5.2-8.9-10.1-6.2c-1,0.6-4,2.8-4.2,3.8c0,0.3,0,0.6,0,0.9c-0.1,1-0.4,1.7-0.9,2.5c2.9,1.5,5.8,0.6,8.5-0.8
		c0.9-0.5,1.6-1.1,2.6-1.3C220.9,269.6,222.4,270,223.4,271.2L223.4,271.2z M52.5,272.1L52.5,272.1c0-0.1-0.4-0.7-0.5-0.8
		c-0.3-0.6-0.4-1.3-0.5-1.9c0-0.2,0-0.5,0-0.6c-0.2-0.9-3.2-3.2-4.1-3.7c-5-2.8-10,0.7-10.3,6.2c0.6-0.7,1.4-1.2,2.3-1.4
		c2.3-0.4,3.8,1.1,5.7,2s3.9,1.3,6,0.7C51.6,272.5,52.1,272.3,52.5,272.1L52.5,272.1z M148.9,177.6L148.9,177.6L148.9,177.6
		L148.9,177.6z M148.9,177.6c-0.2-5.3-5.2-8.9-10.1-6.2c-1,0.6-4,2.8-4.2,3.8c0,0.3,0,0.6,0,0.9c-0.1,1-0.4,1.7-0.9,2.5
		c2.9,1.5,5.8,0.6,8.5-0.8c0.9-0.4,1.6-1.1,2.6-1.3C146.4,176,147.9,176.4,148.9,177.6L148.9,177.6z M148.9,379.3
		c-0.2-5.3-5.2-8.9-10.1-6.2c-1,0.6-4,2.8-4.2,3.8c0,0.3,0,0.6,0,0.9c-0.1,1-0.4,1.7-0.9,2.5c2.9,1.5,5.8,0.6,8.5-0.8
		c0.9-0.5,1.6-1.1,2.6-1.3C146.4,377.7,147.9,378.1,148.9,379.3L148.9,379.3z M148.9,379.3L148.9,379.3L148.9,379.3L148.9,379.3z
		 M130.3,172.5c-1.7,0-3.1,1.4-3.1,3.2s1.4,3.2,3.1,3.2s3.1-1.4,3.1-3.2S132,172.5,130.3,172.5z M132.4,371.6l-0.8-0.4
		c1.1-4,3.8-7.7,4.3-11.9c0.4-3.8-1.7-6.8-4.1-9.4c-0.2-0.2-1.3-1.5-1.5-1.5h-0.1c0,0-0.5,0.5-0.6,0.5c-1.6,1.5-3.9,4.5-4.6,6.6
		c-1.7,5.1,1.8,9.9,3.4,14.4c0.1,0.3,0.4,1.1,0.4,1.3s-0.6,0.4-0.8,0.6c-0.6-2.9-1.7-5.9-3.3-8.4c-2.4-3.8-6.9-6.6-11.4-4.8l1,0.5
		c3.6,2.2,2.7,6.9,4.5,10.2c0.9,1.5,2.3,2.6,3.8,3.4c1.3,0.7,2.9,1,4.1,1.9c0.1,0,0.7-0.8,0.9-0.9c1.6-1.3,3.9-1.2,5.5,0.2
		c0.1,0.1,0.6,0.7,0.7,0.7c1.9-1.2,3.9-1.5,5.8-2.9c4.3-3.5,2.4-9.8,6.3-12.4l1.1-0.6c-4.4-1.8-8.7,0.8-11.1,4.6
		C134.3,365.6,133.1,368.7,132.4,371.6L132.4,371.6z M126.9,380.2L126.9,380.2c0-0.1-0.4-0.7-0.5-0.8c-0.3-0.6-0.4-1.3-0.5-1.9
		c0-0.2,0-0.5,0-0.6c-0.2-0.9-3.2-3.2-4.1-3.7c-5-2.8-10.1,0.7-10.3,6.2c0.6-0.7,1.4-1.2,2.3-1.4c2.3-0.4,3.8,1.2,5.7,2
		c1.9,0.9,3.9,1.3,6,0.7C125.9,380.6,126.4,380.4,126.9,380.2L126.9,380.2z M201.3,272.1L201.3,272.1c0-0.1-0.4-0.7-0.5-0.8
		c-0.3-0.6-0.4-1.3-0.5-1.9c0-0.2,0-0.5,0-0.6c-0.2-0.9-3.2-3.2-4.1-3.7c-5-2.8-10.1,0.7-10.3,6.2c0.6-0.7,1.4-1.2,2.3-1.4
		c2.3-0.4,3.8,1.1,5.6,2c1.9,0.9,3.9,1.3,6,0.7C200.4,272.5,200.9,272.3,201.3,272.1L201.3,272.1z M204.8,266.1
		c-1.7,0-3.1,1.4-3.1,3.2s1.4,3.2,3.1,3.2s3.1-1.4,3.1-3.2S206.5,266.1,204.8,266.1z M203.5,275.1L203.5,275.1l0.5,0.2
		c-0.6,2.3-2.1,4.4-2.4,6.8c-0.2,2.2,1,3.9,2.3,5.4c0.1,0.1,0.7,0.8,0.9,0.9h0.1l0.3-0.3c0.9-0.9,2.2-2.6,2.6-3.8
		c0.9-2.9-1-5.6-2-8.2c-0.1-0.1-0.3-0.7-0.3-0.7s0.4-0.2,0.4-0.3c0.3,1.6,1,3.4,1.9,4.8c1.4,2.2,3.9,3.8,6.5,2.7l-0.6-0.3
		c-2.1-1.2-1.6-3.9-2.6-5.8c-0.5-0.9-1.3-1.5-2.2-1.9c-0.8-0.4-1.6-0.6-2.3-1.1c-0.1,0-0.4,0.4-0.5,0.5c-0.9,0.7-2.2,0.7-3.1-0.1
		c-0.1-0.1-0.3-0.4-0.4-0.4c-1.1,0.7-2.2,0.9-3.3,1.7c-2.4,2-1.3,5.5-3.6,7.1l-0.7,0.4c2.5,1,4.9-0.5,6.3-2.6
		C202.4,278.5,203.1,276.8,203.5,275.1L203.5,275.1z"/>
</g>
<g>
	<g>
		<text transform="matrix(1 0 0 1 342.9082 255.5996)" class="st0 st2 st3">City of Turku</text>
	</g>
	<g>
		<text transform="matrix(1 0 0 1 342.9082 398.2596)" class="st0 st2 st3">Infrastructure Services</text>
	</g>
	<path class="st0" d="M299.2,398.2L299.2,398.2c-2.2,0-4-1.8-4-4V171c0-2.2,1.8-4,4-4l0,0c2.2,0,4,1.8,4,4v223.1
		C303.2,396.4,301.4,398.2,299.2,398.2z"/>
</g>
</svg>
