<?xml version="1.0" encoding="UTF-8" standalone="no"?>
<!DOCTYPE svg PUBLIC "-//W3C//DTD SVG 1.1//EN" "http://www.w3.org/Graphics/SVG/1.1/DTD/svg11.dtd">
<svg width="100%" height="100%" viewBox="0 0 70 116" version="1.1" xmlns="http://www.w3.org/2000/svg" xmlns:xlink="http://www.w3.org/1999/xlink" xml:space="preserve" xmlns:serif="http://www.serif.com/" style="fill-rule:evenodd;clip-rule:evenodd;stroke-miterlimit:10;">
    <g transform="matrix(1.05313,0,0,1.03592,-1.83262,-2.80648)">
        <path d="M63.48,40.88L63.48,40.89C63.55,41.73 63.49,42.82 63.48,43.7C63.31,58.67 63.44,73.66 63.4,88.71C62.59,100.02 54.78,105.64 45.27,109.34C42.64,110.37 39.85,111.08 37.38,112.48C36.96,112.73 35.13,114.06 34.9,114.06C34.57,114.06 32.9,112.79 32.46,112.52C29.55,110.78 25.97,109.88 22.82,108.61C12.33,104.38 6.36,98.31 6.16,86.24C6.04,78.81 6.15,71.33 6.16,63.9C6.16,56.29 5.96,48.63 6.08,41.04C6.09,40.53 6.26,40.01 6.68,39.69C7.21,39.29 9.49,38.77 10.26,38.58C17.29,36.87 24.56,36.18 31.77,35.85L38.12,35.82C38.31,35.82 38.49,35.9 38.68,35.91C45.28,36.11 51.97,36.83 58.41,38.32C59.61,38.59 61.02,38.91 62.16,39.34C63.01,39.64 63.39,39.88 63.48,40.88ZM54.554,70.881L54.355,70.775C54.64,69.732 55.333,68.767 55.447,67.686C55.551,66.701 55.01,65.929 54.402,65.243C54.346,65.185 54.061,64.867 54.023,64.847L53.985,64.847C53.975,64.847 53.852,64.963 53.833,64.983C53.424,65.359 52.836,66.151 52.655,66.691C52.228,68.004 53.121,69.259 53.529,70.427C53.557,70.495 53.643,70.726 53.643,70.775C53.643,70.823 53.481,70.881 53.443,70.919C53.291,70.157 53.007,69.385 52.598,68.738C51.972,67.743 50.842,67.029 49.693,67.502L49.949,67.637C50.87,68.197 50.642,69.423 51.108,70.273C51.326,70.668 51.696,70.958 52.076,71.161C52.418,71.334 52.807,71.412 53.111,71.653C53.14,71.653 53.301,71.46 53.339,71.431C53.757,71.093 54.336,71.122 54.735,71.479C54.773,71.508 54.887,71.653 54.906,71.653C55.381,71.344 55.912,71.267 56.378,70.89C57.479,69.993 56.985,68.352 57.992,67.666L58.286,67.502C57.156,67.029 56.064,67.715 55.447,68.689C55.029,69.336 54.725,70.128 54.554,70.881ZM15.699,73.893L15.708,73.883L15.822,73.941C15.661,74.53 15.271,75.08 15.205,75.698C15.148,76.258 15.461,76.702 15.803,77.088C15.832,77.117 15.993,77.3 16.021,77.31L16.04,77.31C16.05,77.31 16.116,77.242 16.126,77.233C16.363,77.011 16.696,76.567 16.8,76.258C17.038,75.514 16.534,74.8 16.297,74.134C16.278,74.105 16.23,73.96 16.23,73.941C16.23,73.922 16.325,73.883 16.344,73.864C16.43,74.288 16.601,74.732 16.829,75.099C17.18,75.669 17.826,76.074 18.481,75.804L18.338,75.727C17.807,75.408 17.94,74.713 17.674,74.23C17.55,74.008 17.341,73.844 17.123,73.729C16.924,73.632 16.705,73.584 16.534,73.449C16.515,73.449 16.42,73.555 16.401,73.574C16.164,73.767 15.832,73.748 15.604,73.545C15.585,73.526 15.518,73.449 15.509,73.449C15.233,73.622 14.939,73.671 14.673,73.883C14.046,74.395 14.331,75.321 13.752,75.717L13.581,75.814C14.227,76.084 14.844,75.688 15.195,75.138C15.423,74.771 15.604,74.327 15.699,73.893ZM34.994,99.59C34.559,99.59 34.205,99.957 34.205,100.41C34.205,100.863 34.559,101.231 34.994,101.231C35.429,101.231 35.782,100.863 35.782,100.41C35.782,99.957 35.429,99.59 34.994,99.59ZM16.021,71.547C15.586,71.547 15.233,71.915 15.233,72.367C15.233,72.82 15.586,73.188 16.021,73.188C16.456,73.188 16.81,72.82 16.81,72.367C16.81,71.915 16.456,71.547 16.021,71.547ZM35.544,46.603L35.345,46.497C35.63,45.454 36.323,44.489 36.437,43.407C36.541,42.423 36,41.651 35.392,40.965C35.335,40.907 35.051,40.589 35.013,40.569L34.975,40.569C34.965,40.569 34.842,40.685 34.823,40.705C34.414,41.081 33.826,41.873 33.645,42.413C33.218,43.726 34.11,44.981 34.519,46.149C34.547,46.217 34.633,46.448 34.633,46.497C34.633,46.545 34.471,46.603 34.433,46.641C34.281,45.879 33.997,45.106 33.588,44.46C32.962,43.465 31.832,42.751 30.683,43.224L30.939,43.359C31.86,43.919 31.632,45.145 32.097,45.995C32.316,46.39 32.686,46.68 33.066,46.883C33.408,47.056 33.797,47.134 34.101,47.375C34.129,47.375 34.291,47.182 34.329,47.153C34.747,46.815 35.326,46.844 35.725,47.201C35.763,47.23 35.877,47.375 35.896,47.375C36.37,47.066 36.902,46.989 37.367,46.612C38.469,45.715 37.975,44.074 38.982,43.388L39.276,43.224C38.146,42.751 37.054,43.436 36.437,44.411C36.019,45.058 35.715,45.85 35.544,46.603ZM34.68,49.615L34.69,49.605L34.804,49.663C34.642,50.252 34.253,50.802 34.186,51.42C34.129,51.98 34.443,52.424 34.785,52.81C34.813,52.839 34.975,53.022 35.003,53.032L35.022,53.032C35.032,53.032 35.098,52.964 35.108,52.955C35.345,52.733 35.677,52.289 35.782,51.98C36.019,51.236 35.516,50.522 35.278,49.856C35.259,49.827 35.212,49.682 35.212,49.663C35.212,49.644 35.307,49.605 35.326,49.586C35.411,50.01 35.582,50.454 35.81,50.821C36.162,51.391 36.807,51.796 37.462,51.526L37.32,51.449C36.788,51.13 36.921,50.435 36.655,49.952C36.532,49.73 36.323,49.566 36.105,49.45C35.905,49.354 35.687,49.306 35.516,49.171C35.497,49.171 35.402,49.277 35.383,49.296C35.146,49.489 34.813,49.47 34.585,49.267C34.566,49.248 34.5,49.171 34.49,49.171C34.215,49.344 33.921,49.393 33.655,49.605C33.028,50.117 33.313,51.043 32.734,51.439L32.563,51.536C33.208,51.806 33.826,51.41 34.177,50.86C34.405,50.493 34.585,50.049 34.68,49.615ZM20.778,72.876L20.779,72.889L20.788,72.889L20.778,72.876ZM20.778,72.876C20.714,71.493 19.455,70.574 18.205,71.267C17.949,71.412 17.189,71.981 17.123,72.252C17.113,72.319 17.123,72.406 17.123,72.474C17.094,72.725 17.019,72.908 16.905,73.12C17.636,73.506 18.395,73.284 19.079,72.918C19.297,72.802 19.497,72.638 19.744,72.57C20.138,72.456 20.513,72.558 20.778,72.876ZM34.68,101.935L34.69,101.926L34.804,101.984C34.642,102.573 34.253,103.123 34.186,103.741C34.129,104.301 34.443,104.745 34.785,105.131C34.813,105.16 34.975,105.343 35.003,105.353L35.022,105.353C35.032,105.353 35.098,105.285 35.108,105.275C35.345,105.053 35.677,104.609 35.782,104.301C36.019,103.557 35.516,102.843 35.278,102.177C35.259,102.148 35.212,102.003 35.212,101.984C35.212,101.964 35.307,101.926 35.326,101.906C35.411,102.331 35.582,102.775 35.81,103.142C36.162,103.712 36.807,104.117 37.462,103.847L37.32,103.77C36.788,103.451 36.921,102.756 36.655,102.273C36.532,102.051 36.323,101.887 36.105,101.771C35.905,101.675 35.687,101.627 35.516,101.491C35.497,101.491 35.402,101.598 35.383,101.617C35.146,101.81 34.813,101.791 34.585,101.588C34.566,101.569 34.5,101.491 34.49,101.491C34.215,101.665 33.921,101.713 33.655,101.926C33.028,102.437 33.313,103.364 32.734,103.76L32.563,103.856C33.208,104.127 33.826,103.731 34.177,103.181C34.405,102.814 34.585,102.37 34.68,101.935ZM34.12,48.842L34.11,48.842C34.12,48.823 34.016,48.669 33.997,48.64C33.93,48.495 33.892,48.302 33.873,48.138C33.864,48.08 33.883,48.002 33.883,47.974C33.826,47.732 33.056,47.143 32.829,47.008C31.556,46.275 30.265,47.201 30.208,48.63C30.36,48.456 30.559,48.311 30.787,48.273C31.376,48.167 31.746,48.572 32.23,48.794C32.715,49.016 33.227,49.132 33.759,48.987C33.883,48.948 34.006,48.891 34.12,48.842ZM29.875,82.353C29.896,82.314 29.907,82.269 29.904,82.223L29.648,78.401L29.648,78.362L30.559,67.657C30.578,67.357 31.072,67.309 31.176,67.589L34.329,75.862C34.376,75.968 34.49,76.045 34.633,76.045L35.307,76.045C35.449,76.045 35.573,75.978 35.611,75.862L38.763,67.589C38.868,67.309 39.352,67.357 39.381,67.657L40.292,78.362L40.292,78.401L40.076,81.628C39.923,81.952 39.867,82.326 39.922,82.812C40.112,84.376 44.052,86.239 45.306,87.127C47.129,88.421 47.756,89.666 44.916,90.014C45.467,91.298 46.521,91.771 47.851,91.626C48.23,91.587 48.867,91.172 48.943,91.172C49.056,91.191 49.303,91.558 49.465,91.674C52.389,93.749 55.02,91.481 55.988,88.517C54.735,89.116 53.434,89.956 52.399,88.508C51.981,87.929 51.896,87.205 51.563,86.616C50.851,85.351 49.246,84.994 47.993,84.569C46.996,84.231 43.986,83.565 43.369,83.034C43.173,82.868 43.107,82.671 43.144,82.513L47.642,82.513C47.851,82.513 48.002,82.339 47.946,82.165L46.664,78.401L46.664,78.372L43.226,59.963L43.226,59.915L43.258,58.891L47.67,58.891C49.569,58.891 48.629,57.057 49.199,55.696C49.655,54.596 50.661,52.385 52.067,52.626C52.655,52.723 52.826,53.514 52.712,54.036C52.665,54.248 52.304,54.605 52.56,54.683C53.899,55.078 54.763,53.534 54.194,52.337C56.169,51.207 55.969,48.726 54.222,47.472L54.07,48.553C53.624,49.624 52.389,49.663 51.478,50.01C49.437,50.785 48.04,52.553 47.293,54.605L22.476,54.605C21.729,52.553 20.332,50.785 18.291,50.01C17.389,49.663 16.145,49.624 15.699,48.553L15.547,47.472C13.8,48.726 13.6,51.207 15.575,52.337C15.005,53.534 15.86,55.069 17.208,54.683C17.465,54.605 17.104,54.248 17.056,54.036C16.933,53.514 17.113,52.723 17.702,52.626C19.108,52.385 20.114,54.596 20.57,55.696C21.126,57.024 20.244,58.803 21.965,58.888C21.981,58.89 21.997,58.891 22.013,58.891L26.663,58.891L26.694,59.915L26.694,59.963L23.257,78.372L23.276,78.372L23.276,78.401L21.994,82.165C21.937,82.339 22.089,82.513 22.298,82.513L26.634,82.513C26.671,82.671 26.605,82.868 26.41,83.034C25.792,83.565 22.782,84.231 21.785,84.569C20.532,84.994 18.927,85.351 18.215,86.616C17.883,87.205 17.797,87.929 17.379,88.508C16.344,89.956 15.043,89.116 13.79,88.517C14.759,91.481 17.389,93.749 20.313,91.674C20.475,91.558 20.722,91.191 20.836,91.172C20.912,91.172 21.548,91.587 21.928,91.626C23.257,91.771 24.311,91.298 24.862,90.014C22.023,89.666 22.649,88.421 24.473,87.127C25.726,86.239 29.667,84.376 29.856,82.812C29.875,82.647 29.881,82.495 29.875,82.353ZM32.264,58.891L37.657,58.891L35.259,64.442C35.155,64.683 34.766,64.683 34.661,64.442L32.264,58.891ZM16.572,70.881L16.373,70.775C16.658,69.732 17.351,68.767 17.465,67.686C17.569,66.701 17.028,65.929 16.42,65.243C16.363,65.185 16.078,64.867 16.04,64.847L16.002,64.847C15.993,64.847 15.87,64.963 15.851,64.983C15.442,65.359 14.854,66.151 14.673,66.691C14.246,68.004 15.138,69.259 15.547,70.427C15.575,70.495 15.661,70.726 15.661,70.775C15.661,70.823 15.499,70.881 15.461,70.919C15.309,70.157 15.024,69.385 14.616,68.738C13.989,67.743 12.859,67.029 11.71,67.502L11.967,67.637C12.888,68.197 12.66,69.423 13.125,70.273C13.344,70.668 13.714,70.958 14.094,71.161C14.436,71.334 14.825,71.412 15.129,71.653C15.157,71.653 15.319,71.46 15.357,71.431C15.775,71.093 16.354,71.122 16.753,71.479C16.791,71.508 16.905,71.653 16.924,71.653C17.398,71.344 17.93,71.267 18.395,70.89C19.497,69.993 19.003,68.352 20.01,67.666L20.304,67.502C19.174,67.029 18.082,67.715 17.465,68.689C17.047,69.336 16.743,70.128 16.572,70.881ZM58.76,72.876L58.761,72.889L58.77,72.889L58.76,72.876ZM58.76,72.876C58.697,71.493 57.437,70.574 56.188,71.267C55.931,71.412 55.172,71.981 55.105,72.252C55.096,72.319 55.105,72.406 55.105,72.474C55.077,72.725 55.001,72.908 54.887,73.12C55.618,73.506 56.378,73.284 57.061,72.918C57.28,72.802 57.479,72.638 57.726,72.57C58.12,72.456 58.495,72.558 58.76,72.876ZM15.148,73.12L15.138,73.12C15.148,73.101 15.043,72.947 15.024,72.918C14.958,72.773 14.92,72.58 14.901,72.416C14.892,72.358 14.91,72.281 14.91,72.252C14.854,72.01 14.084,71.421 13.856,71.286C12.584,70.553 11.293,71.479 11.236,72.908C11.388,72.734 11.587,72.589 11.815,72.551C12.404,72.445 12.774,72.85 13.258,73.072C13.743,73.294 14.255,73.41 14.787,73.265C14.91,73.227 15.034,73.169 15.148,73.12ZM39.75,48.598L39.751,48.611L39.76,48.611L39.75,48.598ZM39.75,48.598C39.686,47.215 38.427,46.296 37.178,46.989C36.921,47.134 36.162,47.703 36.095,47.974C36.086,48.041 36.095,48.128 36.095,48.196C36.067,48.447 35.991,48.63 35.877,48.842C36.608,49.228 37.367,49.006 38.051,48.64C38.27,48.524 38.469,48.36 38.716,48.292C39.11,48.178 39.485,48.28 39.75,48.598ZM39.75,100.929C39.686,99.546 38.427,98.626 37.178,99.319C36.921,99.464 36.162,100.034 36.095,100.304C36.086,100.372 36.095,100.458 36.095,100.526C36.067,100.777 35.991,100.96 35.877,101.173C36.608,101.559 37.367,101.337 38.051,100.97C38.27,100.854 38.469,100.69 38.716,100.623C39.11,100.508 39.485,100.61 39.75,100.929ZM39.75,100.929L39.751,100.941L39.76,100.941L39.75,100.929ZM34.994,47.269C34.559,47.269 34.205,47.636 34.205,48.089C34.205,48.542 34.559,48.91 34.994,48.91C35.429,48.91 35.782,48.542 35.782,48.089C35.782,47.636 35.429,47.269 34.994,47.269ZM35.544,98.933L35.345,98.827C35.63,97.785 36.323,96.819 36.437,95.738C36.541,94.753 36,93.981 35.392,93.296C35.335,93.238 35.051,92.919 35.013,92.9L34.975,92.9C34.965,92.9 34.842,93.016 34.823,93.035C34.414,93.412 33.826,94.203 33.645,94.744C33.218,96.057 34.11,97.312 34.519,98.48C34.547,98.547 34.633,98.779 34.633,98.827C34.633,98.875 34.471,98.933 34.433,98.972C34.281,98.209 33.997,97.437 33.588,96.79C32.962,95.796 31.832,95.082 30.683,95.555L30.939,95.69C31.86,96.25 31.632,97.476 32.097,98.325C32.316,98.721 32.686,99.011 33.066,99.213C33.408,99.387 33.797,99.464 34.101,99.706C34.129,99.706 34.291,99.512 34.329,99.484C34.747,99.146 35.326,99.175 35.725,99.532C35.763,99.561 35.877,99.706 35.896,99.706C36.37,99.397 36.902,99.319 37.367,98.943C38.469,98.045 37.975,96.404 38.982,95.719L39.276,95.555C38.146,95.082 37.054,95.767 36.437,96.742C36.019,97.389 35.715,98.18 35.544,98.933ZM34.12,101.173L34.11,101.173C34.12,101.154 34.016,100.999 33.997,100.97C33.93,100.825 33.892,100.632 33.873,100.468C33.864,100.41 33.883,100.333 33.883,100.304C33.826,100.063 33.056,99.474 32.829,99.339C31.556,98.605 30.265,99.532 30.208,100.96C30.36,100.787 30.559,100.642 30.787,100.603C31.376,100.497 31.746,100.903 32.23,101.125C32.715,101.347 33.227,101.462 33.759,101.318C33.883,101.279 34.006,101.221 34.12,101.173ZM53.13,73.12L53.121,73.12C53.13,73.101 53.026,72.947 53.007,72.918C52.94,72.773 52.902,72.58 52.883,72.416C52.874,72.358 52.893,72.281 52.893,72.252C52.836,72.01 52.067,71.421 51.839,71.286C50.566,70.553 49.275,71.479 49.218,72.908C49.37,72.734 49.569,72.589 49.797,72.551C50.386,72.445 50.756,72.85 51.24,73.072C51.725,73.294 52.237,73.41 52.769,73.265C52.893,73.227 53.016,73.169 53.13,73.12ZM54.004,71.547C53.569,71.547 53.216,71.915 53.216,72.367C53.216,72.82 53.569,73.188 54.004,73.188C54.439,73.188 54.792,72.82 54.792,72.367C54.792,71.915 54.439,71.547 54.004,71.547ZM53.681,73.893L53.69,73.883L53.804,73.941C53.643,74.53 53.254,75.08 53.187,75.698C53.13,76.258 53.443,76.702 53.785,77.088C53.814,77.117 53.975,77.3 54.004,77.31L54.023,77.31C54.032,77.31 54.099,77.242 54.108,77.233C54.346,77.011 54.678,76.567 54.782,76.258C55.02,75.514 54.516,74.8 54.279,74.134C54.26,74.105 54.213,73.96 54.213,73.941C54.213,73.922 54.308,73.883 54.327,73.864C54.412,74.288 54.583,74.732 54.811,75.099C55.162,75.669 55.808,76.074 56.463,75.804L56.321,75.727C55.789,75.408 55.922,74.713 55.656,74.23C55.532,74.008 55.324,73.844 55.105,73.729C54.906,73.632 54.687,73.584 54.516,73.449C54.497,73.449 54.402,73.555 54.383,73.574C54.146,73.767 53.814,73.748 53.586,73.545C53.567,73.526 53.5,73.449 53.491,73.449C53.216,73.622 52.921,73.671 52.655,73.883C52.029,74.395 52.313,75.321 51.734,75.717L51.563,75.814C52.209,76.084 52.826,75.688 53.178,75.138C53.405,74.771 53.586,74.327 53.681,73.893Z" style="fill:rgb(31,156,237);stroke:rgb(31,156,237);stroke-width:0.48px;"/>
    </g>
    <path d="M69.52,8.91C66.23,12.66 65.92,17.87 64.68,22.52C63.71,26.08 61.06,32.98 60.71,33.9C60.68,33.97 60.62,34 60.55,33.98C45.86,31.26 30.45,30.9 15.65,32.89C13.34,33.2 11.07,33.68 8.75,33.99C8.68,33.99 8.62,33.96 8.59,33.89C7.41,30.04 5.87,26.19 4.8,22.32C3.55,17.74 3.19,12.6 0.04,8.89C-0.04,8.8 0.02,8.66 0.13,8.65C3.92,8.44 7.44,10.17 9.33,13.59C9.6,14.1 9.88,15.06 10.13,15.43C10.21,15.54 10.28,15.64 10.43,15.65C10.99,15.71 10.99,14.78 11.13,14.42C12,12.25 13.79,10.67 16.03,10.15C16.11,10.13 16.2,10.2 16.21,10.29L16.49,13.24C16.59,16.49 15.65,19.62 12.92,21.48C11.27,22.59 9.01,22.64 10.19,25.43C10.97,27.25 13.29,28.2 15.15,28.05C16.72,27.94 19.49,26.5 19.08,24.55C18.97,23.95 17.93,23.23 17.65,22.52C17,20.85 18.23,18.75 19.96,18.53C21.86,18.3 23.51,20 23.18,21.93C22.97,23.22 21.26,23.37 22.55,25.09C24.62,27.83 30.1,27.79 31.48,24.37C32.4,22.05 30.22,22.11 28.68,21.38C23.44,18.93 22.88,14.08 21.63,8.95C21.61,8.87 21.67,8.78 21.75,8.75C24.33,8.38 26.95,9.75 28.6,11.7C28.85,12 29.22,12.99 29.7,12.73C30.06,12.53 29.87,10.73 29.9,10.26C30.14,6.48 32.03,2.73 34.56,0.06C34.59,0.03 34.63,-0.01 34.67,0C35.07,0.07 36.28,1.76 36.5,2.08C38.23,4.57 39.53,7.77 39.62,10.87C39.62,11.28 39.44,12.43 39.64,12.65C39.75,12.76 39.97,12.79 40.11,12.73C40.31,12.64 41.27,11.21 41.62,10.88C43.22,9.35 45.6,8.36 47.78,8.79C47.87,8.8 47.91,8.9 47.89,8.99C46.88,12.12 46.77,15.61 44.78,18.31C43.75,19.71 42.11,20.87 40.52,21.55C39.14,22.12 37.14,22.12 38.04,24.3C39.49,27.8 44.77,27.84 47,25.09C48.48,23.25 46.24,23.12 46.47,21.16C46.94,17.29 52.54,17.93 52.16,21.85C51.97,23.72 49.54,23.87 50.78,26.04C52.6,29.22 59.08,28.42 59.67,24.7C59.97,22.71 58.59,22.65 57.32,21.93C53.12,19.53 52.59,14.7 53.44,10.28C53.44,10.19 53.54,10.13 53.62,10.15C55.47,10.64 57.33,12.13 58.16,13.87C58.33,14.23 58.62,15.43 58.73,15.55C59.37,16.22 59.85,14.34 60.07,13.94C61.94,10.33 65.47,8.57 69.4,8.67C69.52,8.67 69.58,8.83 69.5,8.92L69.52,8.92L69.52,8.91Z" style="fill:rgb(31,156,237);fill-rule:nonzero;"/>
</svg>
