<?xml version="1.0" encoding="UTF-8"?><svg id="Layer_2" xmlns="http://www.w3.org/2000/svg" viewBox="0 0 68.54 131.56"><defs><style>.cls-1{fill:#1f9ced;}.cls-2{fill:none;stroke:#1f9ced;stroke-miterlimit:10;stroke-width:3px;}</style></defs><g id="Layer_1-2"><path class="cls-1" d="M16.9,118.88v2.56h-3.55v9.92h-2.91v-9.92h-3.53v-2.56h10Z"/><path class="cls-1" d="M20.64,118.88v7.38c0,1.76.7,2.84,2.31,2.84,1.52,0,2.34-1.03,2.34-2.36v-7.85h2.91v7.6c0,3.2-1.87,5.09-5.22,5.09-2.97,0-5.25-1.43-5.25-5.33v-7.36h2.91Z"/><path class="cls-1" d="M34.97,118.86c3.55,0,4.94,1.45,4.94,3.13,0,1.83-1.61,3.08-3.42,3.41v.04c1.34.29,2.03,1.08,2.53,2.49l1.19,3.44h-3.28l-.88-2.8c-.51-1.65-1.08-2.23-2.97-2.23h-.2v5.04h-2.91v-12.51h5ZM34.97,123.91c1.04,0,1.9-.51,1.9-1.41,0-.79-.6-1.17-1.94-1.17h-2.05v2.58h2.09Z"/><path class="cls-1" d="M44.13,118.88v5.07h.04l4.05-5.07h3.33l-3.92,4.54,4.28,7.95h-3.39l-2.8-5.71-1.59,1.85v3.86h-2.91v-12.49h2.91Z"/><path class="cls-1" d="M55.53,118.88v7.38c0,1.76.7,2.84,2.31,2.84,1.52,0,2.34-1.03,2.34-2.36v-7.85h2.91v7.6c0,3.2-1.87,5.09-5.22,5.09-2.97,0-5.25-1.43-5.25-5.33v-7.36h2.91Z"/><path class="cls-2" d="M62.97,43.12c-.09-.98-.47-1.21-1.32-1.51-1.14-.42-2.55-.73-3.75-1-6.44-1.46-13.13-2.16-19.73-2.36-.19-.01-.37-.09-.56-.09l-6.35.03c-7.21.32-14.48,1-21.51,2.67-.77.19-3.05.69-3.58,1.09-.42.31-.59.82-.6,1.32-.12,7.42.08,14.91.08,22.35-.01,7.26-.12,14.58,0,21.84.2,11.8,6.17,17.74,16.66,21.87,3.15,1.24,6.73,2.12,9.64,3.82.44.26,2.11,1.51,2.44,1.51.23,0,2.06-1.3,2.48-1.54,2.47-1.37,5.26-2.06,7.89-3.07,9.51-3.62,17.32-9.11,18.13-20.17.04-14.72-.09-29.37.08-44.01.01-.86.07-1.93,0-2.75Z"/><path class="cls-1" d="M68.26,9.63c-.53-1.23-1.75-2.05-3.09-2.08-3.67-.07-6.94,1.21-9.27,3.57-1.14-1.01-2.53-1.79-3.97-2.17-.92-.24-1.92-.1-2.73.41-.09.06-.19.12-.27.19-.04-.07-.08-.14-.12-.21-.51-.85-1.36-1.44-2.32-1.62-1.74-.33-3.61-.08-5.34.67-.58-1.8-1.47-3.57-2.62-5.18-1.51-2.13-2.46-2.92-3.74-3.15-1.14-.21-2.29.18-3.07,1.01-2.06,2.12-3.57,4.68-4.4,7.33-1.63-.71-3.38-.98-5.07-.75-.97.14-1.85.68-2.4,1.49-.08.12-.15.24-.21.36t-.02-.01c-.81-.58-1.82-.79-2.8-.56-1.56.36-2.99,1.11-4.16,2.15-2.38-2.42-5.76-3.73-9.4-3.53-1.32.06-2.47.87-2.99,2.09-.51,1.2-.29,2.62.57,3.61,1.56,1.79,2.15,4.42,2.78,7.2.23,1.04.48,2.13.78,3.2.58,2.05,1.29,4.07,1.99,6.02.5,1.43.98,2.79,1.42,4.18.47,1.44,1.81,2.38,3.28,2.38.15,0,.3-.01.45-.03,1.08-.14,2.15-.32,3.22-.5.97-.16,1.94-.33,2.92-.46,12.84-1.69,26.3-1.36,38.91.93,1.63.3,3.24-.58,3.85-2.12.45-1.15,2.75-7.04,3.64-10.24.3-1.08.53-2.17.76-3.22.62-2.82,1.2-5.48,2.81-7.27.9-1,1.14-2.45.61-3.69ZM65.19,11.09c-2.93,3.26-3.2,7.8-4.31,11.84-.86,3.1-3.22,9.1-3.53,9.9-.03.06-.08.09-.14.07-13.07-2.37-26.79-2.68-39.96-.95-2.06.27-4.08.69-6.14.96-.06.01-.12-.03-.14-.09-1.05-3.35-2.42-6.7-3.37-10.07-1.12-3.98-1.44-8.45-4.25-11.68-.07-.08-.02-.2.08-.21,3.37-.18,6.51,1.32,8.19,4.3.24.44.49,1.28.71,1.6.07.1.13.18.27.19.5.05.5-.76.62-1.07.77-1.89,2.37-3.26,4.36-3.72.07-.02.15.04.16.12l.25,2.57c.09,2.83-.75,5.55-3.18,7.17-1.47.97-3.48,1.01-2.43,3.44.69,1.58,2.76,2.41,4.41,2.28,1.4-.1,3.86-1.35,3.5-3.05-.1-.52-1.02-1.15-1.27-1.77-.58-1.45.52-3.28,2.06-3.47,1.69-.2,3.16,1.28,2.87,2.96-.19,1.12-1.71,1.25-.56,2.75,1.84,2.38,6.72,2.35,7.95-.63.82-2.02-1.12-1.97-2.49-2.6-4.66-2.13-5.16-6.35-6.27-10.82-.02-.07.04-.15.11-.17,2.3-.32,4.63.87,6.1,2.57.22.26.55,1.12.98.9.32-.17.15-1.74.18-2.15.21-3.29,1.9-6.55,4.15-8.88.03-.03.06-.06.1-.05.36.06,1.43,1.53,1.63,1.81,1.54,2.17,2.7,4.95,2.78,7.65.01.36-.16,1.36.02,1.55.1.1.29.12.42.07.18-.08,1.03-1.32,1.34-1.61,1.42-1.33,3.54-2.19,5.48-1.82.08.01.12.1.1.17-.9,2.72-1,5.76-2.77,8.11-.92,1.22-2.38,2.23-3.79,2.82-1.23.5-3.01.5-2.21,2.39,1.29,3.05,5.99,3.08,7.97.69,1.32-1.6-.68-1.71-.47-3.42.42-3.37,5.4-2.81,5.06.6-.17,1.63-2.33,1.76-1.23,3.65,1.62,2.77,7.39,2.07,7.91-1.17.27-1.73-.96-1.78-2.09-2.41-3.74-2.09-4.21-6.29-3.45-10.14.01-.08.09-.13.16-.11,1.65.43,3.3,1.72,4.04,3.24.15.31.41,1.36.51,1.46.57.58,1-1.05,1.19-1.4,1.66-3.14,4.81-4.67,8.3-4.59.11,0,.16.14.09.22Z"/><path class="cls-1" d="M35.1,47.61c.18-.77.5-1.56.94-2.22.65-.98,1.8-1.69,2.99-1.2l-.31.17c-1.06.7-.54,2.36-1.7,3.26-.49.38-1.05.46-1.55.78-.02,0-.14-.14-.18-.18-.42-.36-1.03-.39-1.47-.05-.04.03-.21.23-.24.22-.32-.24-.73-.32-1.09-.5-.4-.2-.79-.5-1.02-.9-.49-.86-.25-2.1-1.22-2.67l-.27-.13c1.21-.48,2.4.24,3.06,1.25.43.66.73,1.44.89,2.21.04-.04.21-.1.21-.14s-.09-.28-.12-.35c-.43-1.19-1.37-2.46-.92-3.79.19-.55.81-1.35,1.24-1.73.02-.02.15-.13.16-.14.02,0,.02,0,.04,0,.04.02.34.34.4.4.64.69,1.21,1.48,1.1,2.47-.12,1.1-.85,2.08-1.15,3.13l.21.11Z"/><path class="cls-1" d="M33.59,49.87c-.12.05-.25.11-.38.14-.56.15-1.1.03-1.61-.2s-.9-.64-1.52-.53c-.24.04-.45.19-.61.37.06-1.45,1.42-2.38,2.76-1.65.24.13,1.05.73,1.11.98,0,.03-.02.11-.01.17.02.17.06.36.13.51.02.03.13.19.12.2Z"/><path class="cls-1" d="M39.53,49.64c-.28-.33-.68-.44-1.1-.33-.26.07-.47.24-.7.36-.72.38-1.52.6-2.29.2.12-.22.2-.4.23-.66,0-.07-.01-.16,0-.23.07-.28.87-.85,1.14-1,1.32-.71,2.65.23,2.71,1.65Z"/><circle class="cls-1" cx="34.51" cy="49.11" r=".83"/><path class="cls-1" d="M34.18,50.65c-.1.44-.29.89-.53,1.26-.37.56-1.02.96-1.7.68l.18-.1c.61-.4.31-1.34.97-1.86.28-.21.59-.26.88-.44.01,0,.08.08.1.1.24.21.59.22.84.03.02-.02.12-.13.14-.13.18.14.41.18.62.28.23.12.45.29.58.51.28.49.14,1.2.7,1.52l.15.08c-.69.27-1.37-.14-1.74-.71-.24-.37-.42-.82-.51-1.26-.02.02-.12.05-.12.08s.05.16.07.2c.25.67.78,1.4.53,2.15-.11.31-.46.77-.71.99-.01.01-.08.08-.09.08-.01,0-.01,0-.02,0-.03-.01-.2-.19-.23-.23-.36-.39-.69-.84-.63-1.41.07-.63.48-1.18.65-1.78l-.12-.06Z"/><path class="cls-1" d="M35.1,100.61c.18-.77.5-1.56.94-2.22.65-.98,1.8-1.69,2.99-1.2l-.31.17c-1.06.7-.54,2.36-1.7,3.26-.49.38-1.05.46-1.55.78-.02,0-.14-.14-.18-.18-.42-.36-1.03-.39-1.47-.05-.04.03-.21.23-.24.22-.32-.24-.73-.32-1.09-.5-.4-.2-.79-.5-1.02-.9-.49-.86-.25-2.1-1.22-2.67l-.27-.13c1.21-.48,2.4.24,3.06,1.25.43.66.73,1.44.89,2.21.04-.04.21-.1.21-.14s-.09-.28-.12-.35c-.43-1.19-1.37-2.46-.92-3.79.19-.55.81-1.35,1.24-1.73.02-.02.15-.13.16-.14.02,0,.02,0,.04,0,.04.02.34.34.4.4.64.69,1.21,1.48,1.1,2.47-.12,1.1-.85,2.08-1.15,3.13l.21.11Z"/><path class="cls-1" d="M33.59,102.87c-.12.05-.25.11-.38.14-.56.15-1.1.03-1.61-.2s-.9-.64-1.52-.53c-.24.04-.45.19-.61.37.06-1.45,1.42-2.38,2.76-1.65.24.13,1.05.73,1.11.98,0,.03-.02.11-.01.17.02.17.06.36.13.51.02.03.13.19.12.2Z"/><path class="cls-1" d="M39.53,102.64c-.28-.33-.68-.44-1.1-.33-.26.07-.47.24-.7.36-.72.38-1.52.6-2.29.2.12-.22.2-.4.23-.66,0-.07-.01-.16,0-.23.07-.28.87-.85,1.14-1,1.32-.71,2.65.23,2.71,1.65Z"/><circle class="cls-1" cx="34.51" cy="102.11" r=".83"/><path class="cls-1" d="M34.18,103.65c-.1.44-.29.89-.53,1.26-.37.56-1.02.96-1.7.68l.18-.1c.61-.4.31-1.34.97-1.86.28-.21.59-.26.88-.44.01,0,.08.08.1.1.24.21.59.22.84.03.02-.02.12-.13.14-.13.18.14.41.18.62.28.23.12.45.29.58.51.28.49.14,1.2.7,1.52l.15.08c-.69.27-1.37-.14-1.74-.71-.24-.37-.42-.82-.51-1.26-.02.02-.12.05-.12.08s.05.16.07.2c.25.67.78,1.4.53,2.15-.11.31-.46.77-.71.99-.01.01-.08.08-.09.08-.01,0-.01,0-.02,0-.03-.01-.2-.19-.23-.23-.36-.39-.69-.84-.63-1.41.07-.63.48-1.18.65-1.78l-.12-.06Z"/><path class="cls-1" d="M15.11,72.2c.18-.77.5-1.56.94-2.22.65-.98,1.8-1.69,2.99-1.2l-.31.17c-1.06.7-.54,2.36-1.7,3.26-.49.38-1.05.46-1.55.78-.02,0-.14-.14-.18-.18-.42-.36-1.03-.39-1.47-.05-.04.03-.21.23-.24.22-.32-.24-.73-.32-1.09-.5-.4-.2-.79-.5-1.02-.9-.49-.86-.25-2.1-1.22-2.67l-.27-.13c1.21-.48,2.4.24,3.06,1.25.43.66.73,1.44.89,2.21.04-.04.21-.1.21-.14s-.09-.28-.12-.35c-.43-1.19-1.37-2.46-.92-3.79.19-.55.81-1.35,1.24-1.73.02-.02.15-.13.16-.14.02,0,.02,0,.04,0,.04.02.34.34.4.4.64.69,1.21,1.48,1.1,2.47-.12,1.1-.85,2.08-1.15,3.13l.21.11Z"/><path class="cls-1" d="M13.61,74.47c-.12.05-.25.11-.38.14-.56.15-1.1.03-1.61-.2s-.9-.64-1.52-.53c-.24.04-.45.19-.61.37.06-1.45,1.42-2.38,2.76-1.65.24.13,1.05.73,1.11.98,0,.03-.02.11-.01.17.02.17.06.36.13.51.02.03.13.19.12.2Z"/><path class="cls-1" d="M19.55,74.23c-.28-.33-.68-.44-1.1-.33-.26.07-.47.24-.7.36-.72.38-1.52.6-2.29.2.12-.22.2-.4.23-.66,0-.07-.01-.16,0-.23.07-.28.87-.85,1.14-1,1.32-.71,2.65.23,2.71,1.65Z"/><circle class="cls-1" cx="14.53" cy="73.7" r=".83"/><path class="cls-1" d="M14.2,75.25c-.1.44-.29.89-.53,1.26-.37.56-1.02.96-1.7.68l.18-.1c.61-.4.31-1.34.97-1.86.28-.21.59-.26.88-.44.01,0,.08.08.1.1.24.21.59.22.84.03.02-.02.12-.13.14-.13.18.14.41.18.62.28.23.12.45.29.58.51.28.49.14,1.2.7,1.52l.15.08c-.69.27-1.37-.14-1.74-.71-.24-.37-.42-.82-.51-1.26-.02.02-.12.05-.12.08s.05.16.07.2c.25.67.78,1.4.53,2.15-.11.31-.46.77-.71.99-.01.01-.08.08-.09.08-.01,0-.01,0-.02,0-.03-.01-.2-.19-.23-.23-.36-.39-.69-.84-.63-1.41.07-.63.48-1.18.65-1.78l-.12-.06Z"/><path class="cls-1" d="M55.11,72.2c.18-.77.5-1.56.94-2.22.65-.98,1.8-1.69,2.99-1.2l-.31.17c-1.06.7-.54,2.36-1.7,3.26-.49.38-1.05.46-1.55.78-.02,0-.14-.14-.18-.18-.42-.36-1.03-.39-1.47-.05-.04.03-.21.23-.24.22-.32-.24-.73-.32-1.09-.5-.4-.2-.79-.5-1.02-.9-.49-.86-.25-2.1-1.22-2.67l-.27-.13c1.21-.48,2.4.24,3.06,1.25.43.66.73,1.44.89,2.21.04-.04.21-.1.21-.14s-.09-.28-.12-.35c-.43-1.19-1.37-2.46-.92-3.79.19-.55.81-1.35,1.24-1.73.02-.02.15-.13.16-.14.02,0,.02,0,.04,0,.04.02.34.34.4.4.64.69,1.21,1.48,1.1,2.47-.12,1.1-.85,2.08-1.15,3.13l.21.11Z"/><path class="cls-1" d="M53.61,74.47c-.12.05-.25.11-.38.14-.56.15-1.1.03-1.61-.2s-.9-.64-1.52-.53c-.24.04-.45.19-.61.37.06-1.45,1.42-2.38,2.76-1.65.24.13,1.05.73,1.11.98,0,.03-.02.11-.01.17.02.17.06.36.13.51.02.03.13.19.12.2Z"/><path class="cls-1" d="M59.55,74.23c-.28-.33-.68-.44-1.1-.33-.26.07-.47.24-.7.36-.72.38-1.52.6-2.29.2.12-.22.2-.4.23-.66,0-.07-.01-.16,0-.23.07-.28.87-.85,1.14-1,1.32-.71,2.65.23,2.71,1.65Z"/><circle class="cls-1" cx="54.53" cy="73.7" r=".83"/><path class="cls-1" d="M54.2,75.25c-.1.44-.29.89-.53,1.26-.37.56-1.02.96-1.7.68l.18-.1c.61-.4.31-1.34.97-1.86.28-.21.59-.26.88-.44.01,0,.08.08.1.1.24.21.59.22.84.03.02-.02.12-.13.14-.13.18.14.41.18.62.28.23.12.45.29.58.51.28.49.14,1.2.7,1.52l.15.08c-.69.27-1.37-.14-1.74-.71-.24-.37-.42-.82-.51-1.26-.02.02-.12.05-.12.08s.05.16.07.2c.25.67.78,1.4.53,2.15-.11.31-.46.77-.71.99-.01.01-.08.08-.09.08-.01,0-.01,0-.02,0-.03-.01-.2-.19-.23-.23-.36-.39-.69-.84-.63-1.41.07-.63.48-1.18.65-1.78l-.12-.06Z"/><path class="cls-1" d="M22.15,79.78l3.62-18.65s0-.03,0-.05l-.05-1.56c0-.15.15-.28.34-.28h4.97c.14,0,.27.07.32.18l2.81,6.26c.11.24.52.24.63,0l2.81-6.26c.05-.11.17-.18.32-.18h4.97c.19,0,.34.13.34.28l-.05,1.56s0,.03,0,.05l3.62,18.65s0,.02,0,.03l1.35,3.81c.06.18-.1.35-.32.35h-7.67c-.19,0-.35-.13-.34-.29l.27-3.87s0-.02,0-.04l-.96-10.85c-.03-.3-.54-.35-.65-.07l-3.32,8.38c-.04.11-.17.19-.32.19h-.71c-.15,0-.27-.08-.32-.19l-3.32-8.38c-.11-.29-.63-.24-.65.07l-.96,10.85s0,.02,0,.04l.27,3.87c.01.16-.14.29-.34.29h-7.67c-.22,0-.38-.18-.32-.35l1.35-3.81s0-.02,0-.03Z"/><rect class="cls-1" x="20.46" y="55.71" width="27.78" height="4.34" rx=".38" ry=".38"/><path class="cls-1" d="M56.62,90.06c-1.02,3-3.79,5.3-6.87,3.2-.17-.12-.43-.49-.55-.51-.08,0-.75.42-1.15.46-1.4.15-2.51-.33-3.09-1.63,2.99-.35,2.33-1.61.41-2.92-1.32-.9-5.47-2.79-5.67-4.37-.12-1.02.26-1.54,1-2.16.22-.19.6-.21.63-.52l-.03-.12-.77-3h3.52c-1.15.73-1.87,1.8-1.87,3,0,.86.38,1.67,1.03,2.31-.19.16-.18.47.12.71.65.54,3.82,1.21,4.87,1.55,1.32.43,3.01.79,3.76,2.07.35.6.44,1.33.88,1.92,1.09,1.47,2.46.62,3.78.01Z"/><path class="cls-1" d="M12.18,90.06c1.02,3,3.79,5.3,6.87,3.2.17-.12.43-.49.55-.51.08,0,.75.42,1.15.46,1.4.15,2.51-.33,3.09-1.63-2.99-.35-2.33-1.61-.41-2.92,1.32-.9,5.47-2.79,5.67-4.37.12-1.02-.26-1.54-1-2.16-.22-.19-.6-.21-.63-.52l.03-.12.77-3h-3.52c1.15.73,1.87,1.8,1.87,3,0,.86-.38,1.67-1.03,2.31.19.16.18.47-.12.71-.65.54-3.82,1.21-4.87,1.55-1.32.43-3.01.79-3.76,2.07-.35.6-.44,1.33-.88,1.92-1.09,1.47-2.46.62-3.78.01Z"/><path class="cls-1" d="M47.14,56.72c.66-2.49,2.24-4.76,4.73-5.66.96-.35,2.26-.39,2.73-1.47l.16-1.1c1.84,1.27,2.05,3.79-.03,4.93.6,1.22-.31,2.77-1.72,2.38-.27-.07.11-.44.16-.65.12-.53-.06-1.33-.68-1.43-1.48-.24-2.54,2-3.02,3.11-.6,1.37.39,3.24-1.61,3.24l-.72-3.33Z"/><path class="cls-1" d="M20.93,60.05c-2,0-1.01-1.86-1.61-3.24-.48-1.11-1.54-3.35-3.02-3.11-.62.1-.81.9-.68,1.43.05.21.43.58.16.65-1.42.39-2.32-1.16-1.72-2.38-2.08-1.14-1.87-3.66-.03-4.93l.16,1.1c.47,1.08,1.78,1.12,2.73,1.47,2.49.91,4.07,3.17,4.73,5.66l-.72,3.33Z"/></g></svg>