<?xml version="1.0" encoding="utf-8"?>
<!-- Generator: Adobe Illustrator 27.8.1, SVG Export Plug-In . SVG Version: 6.00 Build 0)  -->
<svg version="1.1" id="Layer_2_00000103949946678287547120000001777346720467711918_"
	 xmlns="http://www.w3.org/2000/svg" xmlns:xlink="http://www.w3.org/1999/xlink" x="0px" y="0px" viewBox="0 0 173.9 115.6"
	 style="enable-background:new 0 0 173.9 115.6;" xml:space="preserve">
<style type="text/css">
	.st0{fill:#1F9CED;}
	.st1{fill:#1F9CED;stroke:#1F9CED;stroke-width:3.03;stroke-miterlimit:10;}
	.st2{fill:#FFFFFF;}
</style>
<g>
	<path class="st0" d="M90.7,44.3v4.6h-6.4v17.9h-5.2V48.9h-6.4v-4.6H90.7L90.7,44.3z"/>
	<path class="st0" d="M97.4,44.3v13.3c0,3.2,1.2,5.1,4.2,5.1c2.7,0,4.2-1.8,4.2-4.2V44.3h5.2V58c0,5.8-3.4,9.2-9.4,9.2
		c-5.3,0-9.5-2.6-9.5-9.6V44.3C92.2,44.3,97.4,44.3,97.4,44.3z"/>
	<path class="st0" d="M123.2,44.3c6.4,0,8.9,2.6,8.9,5.6c0,3.3-2.9,5.5-6.2,6.1v0.1c2.4,0.5,3.7,1.9,4.6,4.5l2.1,6.2h-5.9l-1.6-5
		c-0.9-3-1.9-4-5.3-4h-0.4v9.1h-5.2V44.3L123.2,44.3L123.2,44.3z M123.2,53.4c1.9,0,3.4-0.9,3.4-2.5c0-1.4-1.1-2.1-3.5-2.1h-3.7v4.7
		H123.2L123.2,53.4z"/>
	<path class="st0" d="M139.7,44.3v9.1h0.1l7.3-9.1h6l-7.1,8.2l7.7,14.3h-6.1l-5-10.3l-2.9,3.3v6.9h-5.2V44.3L139.7,44.3L139.7,44.3z
		"/>
	<path class="st0" d="M160.2,44.3v13.3c0,3.2,1.2,5.1,4.1,5.1c2.7,0,4.2-1.8,4.2-4.2V44.3h5.2V58c0,5.8-3.4,9.2-9.4,9.2
		c-5.3,0-9.5-2.6-9.5-9.6V44.3C155,44.3,160.2,44.3,160.2,44.3z"/>
	<path class="st0" d="M84.4,77l8.1,22.5h-5.9l-1.4-4.6H78l-1.4,4.6h-5.8L79,77H84.4L84.4,77z M84.8,73.2c0,1.7-1.4,3.1-3.1,3.1
		s-3.1-1.4-3.1-3.1s1.4-3.1,3.1-3.1S84.8,71.5,84.8,73.2z M79.3,90.6H84l-2.3-7.6h-0.1C81.6,83.1,79.3,90.6,79.3,90.6z M81.7,74.7
		c0.8,0,1.4-0.7,1.4-1.4s-0.7-1.4-1.4-1.4s-1.4,0.6-1.4,1.4S80.9,74.7,81.7,74.7z"/>
	<path class="st0" d="M105.1,77c3.2,0,7.2,1.1,7.2,5.3c0,2.6-1.5,4.2-3.8,5.2v0.1c3.4,0.4,5.4,2.3,5.4,5.2c0,3.9-3.8,6.7-8.4,6.7
		H94.7V77H105.1L105.1,77z M103.7,85.6c2,0,3.2-0.8,3.2-2.2s-1.2-2-3.3-2H100v4.2H103.7L103.7,85.6z M103.8,95
		c2.5,0,4.3-0.9,4.3-2.7c0-1.7-1.7-2.5-3.6-2.5H100V95C100,95,103.8,95,103.8,95z"/>
	<path class="st0" d="M138.3,88c0,6.5-4.6,11.8-11.5,11.8c-6.8,0-11.5-5-11.5-11.6s5.2-11.6,11.2-11.6
		C133.6,76.6,138.3,81.9,138.3,88L138.3,88z M126.8,95.4c3.4,0,6-3.2,6-7.2s-2.5-7.2-5.9-7.2c-3.4,0-6.1,3.3-6.1,7.2
		S123.3,95.4,126.8,95.4L126.8,95.4z"/>
	<path class="st1" d="M63.5,40.9c-0.1-1-0.5-1.2-1.3-1.5c-1.1-0.4-2.5-0.8-3.8-1c-6.4-1.5-13.1-2.2-19.7-2.4c-0.2,0-0.4-0.1-0.6-0.1
		l-6.4,0c-7.2,0.3-14.5,1-21.5,2.7c-0.8,0.2-3.1,0.7-3.6,1.1C6.3,40,6.1,40.5,6.1,41C6,48.6,6.2,56.3,6.2,63.9
		c0,7.4-0.1,14.9,0,22.3c0.2,12.1,6.2,18.1,16.7,22.4c3.1,1.3,6.7,2.2,9.6,3.9c0.4,0.3,2.1,1.5,2.4,1.5c0.2,0,2.1-1.3,2.5-1.6
		c2.5-1.4,5.3-2.1,7.9-3.1c9.5-3.7,17.3-9.3,18.1-20.6c0-15.1-0.1-30,0.1-45C63.5,42.8,63.5,41.7,63.5,40.9L63.5,40.9z"/>
	<path class="st0" d="M69.5,8.9c-3.3,3.8-3.6,9-4.8,13.6c-1,3.6-3.6,10.5-4,11.4c0,0.1-0.1,0.1-0.2,0.1c-14.7-2.7-30.1-3.1-44.9-1.1
		c-2.3,0.3-4.6,0.8-6.9,1.1c-0.1,0-0.1,0-0.2-0.1c-1.2-3.9-2.7-7.7-3.8-11.6C3.5,17.8,3.2,12.6,0,8.9C0,8.8,0,8.7,0.1,8.7
		c3.8-0.2,7.3,1.5,9.2,4.9c0.3,0.5,0.6,1.5,0.8,1.8c0.1,0.1,0.1,0.2,0.3,0.2c0.6,0.1,0.6-0.9,0.7-1.2c0.9-2.2,2.7-3.8,4.9-4.3
		c0.1,0,0.2,0.1,0.2,0.1l0.3,2.9c0.1,3.2-0.8,6.4-3.6,8.2c-1.6,1.1-3.9,1.2-2.7,4c0.8,1.8,3.1,2.8,5,2.6c1.6-0.1,4.3-1.5,3.9-3.5
		c-0.1-0.6-1.1-1.3-1.4-2c-0.6-1.7,0.6-3.8,2.3-4c1.9-0.2,3.5,1.5,3.2,3.4c-0.2,1.3-1.9,1.4-0.6,3.2c2.1,2.7,7.6,2.7,8.9-0.7
		c0.9-2.3-1.3-2.3-2.8-3c-5.2-2.5-5.8-7.3-7.1-12.4c0-0.1,0-0.2,0.1-0.2c2.6-0.4,5.2,1,6.9,2.9c0.2,0.3,0.6,1.3,1.1,1
		c0.4-0.2,0.2-2,0.2-2.5c0.2-3.8,2.1-7.5,4.7-10.2c0,0,0.1-0.1,0.1-0.1c0.4,0.1,1.6,1.8,1.8,2.1c1.7,2.5,3,5.7,3.1,8.8
		c0,0.4-0.2,1.6,0,1.8c0.1,0.1,0.3,0.1,0.5,0.1c0.2-0.1,1.2-1.5,1.5-1.9c1.6-1.5,4-2.5,6.2-2.1c0.1,0,0.1,0.1,0.1,0.2
		c-1,3.1-1.1,6.6-3.1,9.3c-1,1.4-2.7,2.6-4.3,3.2c-1.4,0.6-3.4,0.6-2.5,2.8c1.5,3.5,6.7,3.5,9,0.8c1.5-1.8-0.8-2-0.5-3.9
		c0.5-3.9,6.1-3.2,5.7,0.7c-0.2,1.9-2.6,2-1.4,4.2c1.8,3.2,8.3,2.4,8.9-1.3c0.3-2-1.1-2-2.3-2.8c-4.2-2.4-4.7-7.2-3.9-11.6
		c0-0.1,0.1-0.1,0.2-0.1c1.8,0.5,3.7,2,4.5,3.7c0.2,0.4,0.5,1.6,0.6,1.7c0.6,0.7,1.1-1.2,1.3-1.6c1.9-3.6,5.4-5.4,9.3-5.3
		C69.5,8.7,69.6,8.8,69.5,8.9L69.5,8.9z"/>
	<path class="st2" d="M35.6,45.5c0.2-0.8,0.5-1.6,0.9-2.3c0.7-1,1.8-1.7,3-1.2l-0.3,0.2c-1.1,0.7-0.5,2.4-1.7,3.3
		c-0.5,0.4-1,0.5-1.5,0.8c0,0-0.1-0.2-0.2-0.2c-0.4-0.4-1-0.4-1.5,0c0,0-0.2,0.2-0.2,0.2c-0.3-0.2-0.7-0.3-1.1-0.5
		c-0.4-0.2-0.8-0.5-1-0.9c-0.5-0.9-0.2-2.2-1.2-2.7L30.5,42c1.2-0.5,2.4,0.2,3.1,1.3c0.4,0.7,0.7,1.5,0.9,2.3c0,0,0.2-0.1,0.2-0.2
		s-0.1-0.3-0.1-0.4c-0.4-1.2-1.4-2.5-0.9-3.9c0.2-0.6,0.8-1.4,1.2-1.8c0,0,0.2-0.1,0.2-0.1c0,0,0,0,0,0c0,0,0.3,0.3,0.4,0.4
		c0.6,0.7,1.2,1.5,1.1,2.5c-0.1,1.1-0.8,2.1-1.2,3.2C35.4,45.4,35.6,45.5,35.6,45.5z"/>
	<path class="st2" d="M34.1,47.8c-0.1,0-0.2,0.1-0.4,0.2c-0.6,0.2-1.1,0-1.6-0.2s-0.9-0.7-1.5-0.5c-0.2,0-0.5,0.2-0.6,0.4
		c0.1-1.5,1.4-2.4,2.8-1.7c0.2,0.1,1,0.8,1.1,1c0,0,0,0.1,0,0.2c0,0.2,0.1,0.4,0.1,0.5C34,47.6,34.1,47.8,34.1,47.8L34.1,47.8z"/>
	<path class="st2" d="M40,47.5c-0.3-0.3-0.7-0.5-1.1-0.3c-0.3,0.1-0.5,0.2-0.7,0.4c-0.7,0.4-1.5,0.6-2.3,0.2
		c0.1-0.2,0.2-0.4,0.2-0.7c0-0.1,0-0.2,0-0.2c0.1-0.3,0.9-0.9,1.1-1C38.6,45.1,40,46.1,40,47.5L40,47.5z"/>
	<ellipse class="st2" cx="35" cy="47" rx="0.8" ry="0.8"/>
	<path class="st2" d="M34.7,48.6c-0.1,0.5-0.3,0.9-0.5,1.3c-0.4,0.6-1,1-1.7,0.7l0.2-0.1c0.6-0.4,0.3-1.4,1-1.9
		c0.3-0.2,0.6-0.3,0.9-0.5c0,0,0.1,0.1,0.1,0.1c0.2,0.2,0.6,0.2,0.8,0c0,0,0.1-0.1,0.1-0.1c0.2,0.1,0.4,0.2,0.6,0.3
		c0.2,0.1,0.5,0.3,0.6,0.5c0.3,0.5,0.1,1.2,0.7,1.5l0.2,0.1c-0.7,0.3-1.4-0.1-1.7-0.7c-0.2-0.4-0.4-0.8-0.5-1.3c0,0-0.1,0.1-0.1,0.1
		s0,0.2,0.1,0.2c0.2,0.7,0.8,1.4,0.5,2.2c-0.1,0.3-0.5,0.8-0.7,1c0,0-0.1,0.1-0.1,0.1s0,0,0,0c0,0-0.2-0.2-0.2-0.2
		c-0.4-0.4-0.7-0.9-0.6-1.4c0.1-0.6,0.5-1.2,0.7-1.8L34.7,48.6L34.7,48.6z"/>
	<path class="st2" d="M35.6,99.7c0.2-0.8,0.5-1.6,0.9-2.3c0.7-1,1.8-1.7,3-1.2l-0.3,0.2c-1.1,0.7-0.5,2.4-1.7,3.3
		c-0.5,0.4-1,0.5-1.5,0.8c0,0-0.1-0.2-0.2-0.2c-0.4-0.4-1-0.4-1.5-0.1c0,0-0.2,0.2-0.2,0.2c-0.3-0.2-0.7-0.3-1.1-0.5
		c-0.4-0.2-0.8-0.5-1-0.9c-0.5-0.9-0.2-2.2-1.2-2.7l-0.3-0.1c1.2-0.5,2.4,0.2,3.1,1.3c0.4,0.7,0.7,1.5,0.9,2.3c0,0,0.2-0.1,0.2-0.2
		s-0.1-0.3-0.1-0.4c-0.4-1.2-1.4-2.5-0.9-3.9c0.2-0.6,0.8-1.4,1.2-1.8c0,0,0.2-0.1,0.2-0.1c0,0,0,0,0,0c0,0,0.3,0.3,0.4,0.4
		c0.6,0.7,1.2,1.5,1.1,2.5c-0.1,1.1-0.8,2.1-1.2,3.2C35.4,99.6,35.6,99.7,35.6,99.7z"/>
	<path class="st2" d="M34.1,102c-0.1,0.1-0.2,0.1-0.4,0.2c-0.6,0.2-1.1,0-1.6-0.2s-0.9-0.7-1.5-0.5c-0.2,0-0.5,0.2-0.6,0.4
		c0.1-1.5,1.4-2.4,2.8-1.7c0.2,0.1,1,0.8,1.1,1c0,0,0,0.1,0,0.2c0,0.2,0.1,0.4,0.1,0.5C34,101.8,34.1,102,34.1,102L34.1,102z"/>
	<path class="st2" d="M40,101.8c-0.3-0.3-0.7-0.4-1.1-0.3c-0.3,0.1-0.5,0.2-0.7,0.4c-0.7,0.4-1.5,0.6-2.3,0.2
		c0.1-0.2,0.2-0.4,0.2-0.7c0-0.1,0-0.2,0-0.2c0.1-0.3,0.9-0.9,1.1-1C38.6,99.4,40,100.3,40,101.8L40,101.8z"/>
	<ellipse class="st2" cx="35" cy="101.2" rx="0.8" ry="0.8"/>
	<path class="st2" d="M34.7,102.8c-0.1,0.4-0.3,0.9-0.5,1.3c-0.4,0.6-1,1-1.7,0.7l0.2-0.1c0.6-0.4,0.3-1.4,1-1.9
		c0.3-0.2,0.6-0.3,0.9-0.4c0,0,0.1,0.1,0.1,0.1c0.2,0.2,0.6,0.2,0.8,0c0,0,0.1-0.1,0.1-0.1c0.2,0.1,0.4,0.2,0.6,0.3
		c0.2,0.1,0.5,0.3,0.6,0.5c0.3,0.5,0.1,1.2,0.7,1.6l0.2,0.1c-0.7,0.3-1.4-0.1-1.7-0.7c-0.2-0.4-0.4-0.8-0.5-1.3c0,0-0.1,0.1-0.1,0.1
		s0,0.2,0.1,0.2c0.2,0.7,0.8,1.4,0.5,2.2c-0.1,0.3-0.5,0.8-0.7,1c0,0-0.1,0.1-0.1,0.1s0,0,0,0c0,0-0.2-0.2-0.2-0.2
		c-0.4-0.4-0.7-0.9-0.6-1.4c0.1-0.6,0.5-1.2,0.7-1.8L34.7,102.8L34.7,102.8z"/>
	<path class="st2" d="M15.6,70.6c0.2-0.8,0.5-1.6,0.9-2.3c0.6-1,1.8-1.7,3-1.2l-0.3,0.2c-1.1,0.7-0.5,2.4-1.7,3.3
		c-0.5,0.4-1,0.5-1.6,0.8c0,0-0.1-0.2-0.2-0.2c-0.4-0.4-1-0.4-1.5-0.1c0,0-0.2,0.2-0.2,0.2c-0.3-0.2-0.7-0.3-1.1-0.5
		c-0.4-0.2-0.8-0.5-1-0.9c-0.5-0.9-0.2-2.2-1.2-2.7l-0.3-0.1c1.2-0.5,2.4,0.2,3.1,1.3c0.4,0.7,0.7,1.5,0.9,2.3c0,0,0.2-0.1,0.2-0.2
		s-0.1-0.3-0.1-0.4c-0.4-1.2-1.4-2.5-0.9-3.9c0.2-0.6,0.8-1.4,1.2-1.8c0,0,0.1-0.1,0.2-0.1c0,0,0,0,0,0c0,0,0.3,0.3,0.4,0.4
		c0.6,0.7,1.2,1.5,1.1,2.5c-0.1,1.1-0.9,2.1-1.1,3.2C15.4,70.5,15.6,70.6,15.6,70.6z"/>
	<path class="st2" d="M14.1,72.9c-0.1,0.1-0.2,0.1-0.4,0.2c-0.6,0.2-1.1,0-1.6-0.2s-0.9-0.7-1.5-0.5c-0.2,0-0.4,0.2-0.6,0.4
		c0.1-1.5,1.4-2.4,2.8-1.7c0.2,0.1,1.1,0.8,1.1,1c0,0,0,0.1,0,0.2c0,0.2,0.1,0.4,0.1,0.5C14,72.8,14.1,72.9,14.1,72.9L14.1,72.9z"/>
	<path class="st2" d="M20.1,72.7c-0.3-0.3-0.7-0.4-1.1-0.3c-0.3,0.1-0.5,0.2-0.7,0.4c-0.7,0.4-1.5,0.6-2.3,0.2
		c0.1-0.2,0.2-0.4,0.2-0.7c0-0.1,0-0.2,0-0.2c0.1-0.3,0.9-0.9,1.1-1C18.7,70.3,20,71.3,20.1,72.7L20.1,72.7z"/>
	<ellipse class="st2" cx="15" cy="72.2" rx="0.8" ry="0.8"/>
	<path class="st2" d="M14.7,73.7c-0.1,0.4-0.3,0.9-0.5,1.3c-0.4,0.6-1,1-1.7,0.7l0.2-0.1c0.6-0.4,0.3-1.4,1-1.9
		c0.3-0.2,0.6-0.3,0.9-0.4c0,0,0.1,0.1,0.1,0.1c0.2,0.2,0.6,0.2,0.8,0c0,0,0.1-0.1,0.1-0.1c0.2,0.1,0.4,0.2,0.6,0.3
		c0.2,0.1,0.5,0.3,0.6,0.5c0.3,0.5,0.1,1.2,0.7,1.6l0.1,0.1c-0.7,0.3-1.4-0.1-1.7-0.7c-0.2-0.4-0.4-0.8-0.5-1.3c0,0-0.1,0.1-0.1,0.1
		s0.1,0.2,0.1,0.2c0.2,0.7,0.8,1.4,0.5,2.2c-0.1,0.3-0.5,0.8-0.7,1c0,0-0.1,0.1-0.1,0.1s0,0,0,0c0,0-0.2-0.2-0.2-0.2
		c-0.4-0.4-0.7-0.9-0.6-1.4c0.1-0.6,0.5-1.2,0.6-1.8L14.7,73.7L14.7,73.7z"/>
	<path class="st2" d="M55.6,70.6c0.2-0.8,0.5-1.6,0.9-2.3c0.7-1,1.8-1.7,3-1.2l-0.3,0.2c-1.1,0.7-0.5,2.4-1.7,3.3
		c-0.5,0.4-1,0.5-1.5,0.8c0,0-0.1-0.2-0.2-0.2c-0.4-0.4-1-0.4-1.5-0.1c0,0-0.2,0.2-0.2,0.2c-0.3-0.2-0.7-0.3-1.1-0.5
		c-0.4-0.2-0.8-0.5-1-0.9c-0.5-0.9-0.2-2.2-1.2-2.7l-0.3-0.1c1.2-0.5,2.4,0.2,3.1,1.3c0.4,0.7,0.7,1.5,0.9,2.3c0,0,0.2-0.1,0.2-0.2
		s-0.1-0.3-0.1-0.4c-0.4-1.2-1.4-2.5-0.9-3.9c0.2-0.6,0.8-1.4,1.2-1.8c0,0,0.2-0.1,0.2-0.1c0,0,0,0,0,0c0,0,0.3,0.3,0.4,0.4
		c0.6,0.7,1.2,1.5,1.1,2.5c-0.1,1.1-0.8,2.1-1.2,3.2C55.4,70.5,55.6,70.6,55.6,70.6z"/>
	<path class="st2" d="M54.1,72.9c-0.1,0.1-0.2,0.1-0.4,0.2c-0.6,0.2-1.1,0-1.6-0.2s-0.9-0.7-1.5-0.5c-0.2,0-0.5,0.2-0.6,0.4
		c0.1-1.5,1.4-2.4,2.8-1.7c0.2,0.1,1,0.8,1.1,1c0,0,0,0.1,0,0.2c0,0.2,0.1,0.4,0.1,0.5C54,72.8,54.1,72.9,54.1,72.9L54.1,72.9z"/>
	<path class="st2" d="M60.1,72.7c-0.3-0.3-0.7-0.4-1.1-0.3c-0.3,0.1-0.5,0.2-0.7,0.4c-0.7,0.4-1.5,0.6-2.3,0.2
		c0.1-0.2,0.2-0.4,0.2-0.7c0-0.1,0-0.2,0-0.2c0.1-0.3,0.9-0.9,1.1-1C58.7,70.3,60,71.3,60.1,72.7L60.1,72.7z"/>
	<ellipse class="st2" cx="55" cy="72.2" rx="0.8" ry="0.8"/>
	<path class="st2" d="M54.7,73.7c-0.1,0.4-0.3,0.9-0.5,1.3c-0.4,0.6-1,1-1.7,0.7l0.2-0.1c0.6-0.4,0.3-1.4,1-1.9
		c0.3-0.2,0.6-0.3,0.9-0.4c0,0,0.1,0.1,0.1,0.1c0.2,0.2,0.6,0.2,0.8,0c0,0,0.1-0.1,0.1-0.1c0.2,0.1,0.4,0.2,0.6,0.3
		c0.2,0.1,0.5,0.3,0.6,0.5c0.3,0.5,0.1,1.2,0.7,1.6l0.2,0.1c-0.7,0.3-1.4-0.1-1.7-0.7c-0.2-0.4-0.4-0.8-0.5-1.3c0,0-0.1,0.1-0.1,0.1
		s0,0.2,0.1,0.2c0.2,0.7,0.8,1.4,0.5,2.2c-0.1,0.3-0.5,0.8-0.7,1c0,0-0.1,0.1-0.1,0.1s0,0,0,0c0,0-0.2-0.2-0.2-0.2
		c-0.4-0.4-0.7-0.9-0.6-1.4c0.1-0.6,0.5-1.2,0.7-1.8L54.7,73.7L54.7,73.7z"/>
	<path class="st2" d="M22.7,78.4l3.6-19.1c0,0,0,0,0,0l0-1.6c0-0.2,0.1-0.3,0.3-0.3h5c0.1,0,0.3,0.1,0.3,0.2l2.8,6.4
		c0.1,0.2,0.5,0.2,0.6,0l2.8-6.4c0-0.1,0.2-0.2,0.3-0.2h5c0.2,0,0.3,0.1,0.3,0.3l0,1.6c0,0,0,0,0,0l3.6,19.1c0,0,0,0,0,0l1.3,3.9
		c0.1,0.2-0.1,0.4-0.3,0.4h-7.7c-0.2,0-0.3-0.1-0.3-0.3l0.3-4c0,0,0,0,0,0l-1-11.1c0-0.3-0.5-0.4-0.7-0.1l-3.3,8.6
		c0,0.1-0.2,0.2-0.3,0.2h-0.7c-0.2,0-0.3-0.1-0.3-0.2L31,67.2c-0.1-0.3-0.6-0.2-0.6,0.1l-1,11.1c0,0,0,0,0,0l0.3,4
		c0,0.2-0.1,0.3-0.3,0.3h-7.7c-0.2,0-0.4-0.2-0.3-0.4L22.7,78.4C22.7,78.4,22.7,78.4,22.7,78.4L22.7,78.4z"/>
	<path class="st2" d="M21.3,53.8h27c0.2,0,0.4,0.2,0.4,0.4v3.7c0,0.2-0.2,0.4-0.4,0.4h-27c-0.2,0-0.4-0.2-0.4-0.4v-3.7
		C21,53.9,21.1,53.8,21.3,53.8z"/>
	<path class="st2" d="M57.1,88.9c-1,3.1-3.8,5.4-6.9,3.3c-0.2-0.1-0.4-0.5-0.5-0.5c-0.1,0-0.8,0.4-1.2,0.5c-1.4,0.2-2.5-0.3-3.1-1.7
		c3-0.4,2.3-1.7,0.4-3c-1.3-0.9-5.5-2.8-5.7-4.5c-0.1-1,0.3-1.6,1-2.2c0.2-0.2,0.6-0.2,0.6-0.5l0-0.1L41,77.1h3.5
		c-1.2,0.8-1.9,1.8-1.9,3.1c0,0.9,0.4,1.7,1,2.4c-0.2,0.2-0.2,0.5,0.1,0.7c0.7,0.6,3.8,1.2,4.9,1.6c1.3,0.4,3,0.8,3.8,2.1
		c0.3,0.6,0.4,1.4,0.9,2C54.4,90.4,55.8,89.5,57.1,88.9z"/>
	<path class="st2" d="M12.7,88.9c1,3.1,3.8,5.4,6.9,3.3c0.2-0.1,0.4-0.5,0.5-0.5c0.1,0,0.8,0.4,1.1,0.5c1.4,0.2,2.5-0.3,3.1-1.7
		c-3-0.4-2.3-1.7-0.4-3c1.3-0.9,5.5-2.8,5.7-4.5c0.1-1-0.3-1.6-1-2.2c-0.2-0.2-0.6-0.2-0.6-0.5l0-0.1l0.8-3.1h-3.5
		c1.1,0.8,1.9,1.8,1.9,3.1c0,0.9-0.4,1.7-1,2.4c0.2,0.2,0.2,0.5-0.1,0.7c-0.6,0.6-3.8,1.2-4.9,1.6c-1.3,0.4-3,0.8-3.8,2.1
		c-0.4,0.6-0.4,1.4-0.9,2C15.4,90.4,14,89.5,12.7,88.9z"/>
	<path class="st2" d="M47.7,54.8c0.7-2.5,2.2-4.9,4.7-5.8c1-0.4,2.3-0.4,2.7-1.5l0.2-1.1c1.8,1.3,2,3.9,0,5c0.6,1.2-0.3,2.8-1.7,2.4
		c-0.3-0.1,0.1-0.5,0.2-0.7c0.1-0.5-0.1-1.4-0.7-1.5c-1.5-0.2-2.5,2-3,3.2c-0.6,1.4,0.4,3.3-1.6,3.3C48.4,58.2,47.6,54.8,47.7,54.8z
		"/>
	<path class="st2" d="M21.4,58.2c-2,0-1-1.9-1.6-3.3c-0.5-1.1-1.5-3.4-3-3.2c-0.6,0.1-0.8,0.9-0.7,1.5c0,0.2,0.4,0.6,0.2,0.7
		c-1.4,0.4-2.3-1.2-1.7-2.4c-2.1-1.2-1.9-3.7,0-5l0.2,1.1c0.5,1.1,1.8,1.2,2.7,1.5c2.5,0.9,4.1,3.2,4.7,5.8
		C22.2,54.8,21.4,58.2,21.4,58.2z"/>
</g>
</svg>
