<?xml version="1.0" encoding="UTF-8" standalone="no"?>
<!DOCTYPE svg PUBLIC "-//W3C//DTD SVG 1.1//EN" "http://www.w3.org/Graphics/SVG/1.1/DTD/svg11.dtd">
<svg width="100%" height="100%" viewBox="0 0 88 131" version="1.1" xmlns="http://www.w3.org/2000/svg" xmlns:xlink="http://www.w3.org/1999/xlink" xml:space="preserve" xmlns:serif="http://www.serif.com/" style="fill-rule:evenodd;clip-rule:evenodd;stroke-miterlimit:10;">
    <g transform="matrix(1,0,0,1,9.1839,-0.00843384)">
        <g id="Layer_1-2">
            <path d="M63.48,40.88C63.39,39.88 63.01,39.64 62.16,39.34C61.02,38.91 59.61,38.59 58.41,38.32C51.97,36.83 45.28,36.11 38.68,35.91C38.49,35.9 38.31,35.82 38.12,35.82L31.77,35.85C24.56,36.18 17.29,36.87 10.26,38.58C9.49,38.77 7.21,39.29 6.68,39.69C6.26,40.01 6.09,40.53 6.08,41.04C5.96,48.63 6.16,56.29 6.16,63.9C6.15,71.33 6.04,78.81 6.16,86.24C6.36,98.31 12.33,104.38 22.82,108.61C25.97,109.88 29.55,110.78 32.46,112.52C32.9,112.79 34.57,114.06 34.9,114.06C35.13,114.06 36.96,112.73 37.38,112.48C39.85,111.08 42.64,110.37 45.27,109.34C54.78,105.64 62.59,100.02 63.4,88.71C63.44,73.66 63.31,58.67 63.48,43.7C63.49,42.82 63.55,41.73 63.48,40.89L63.48,40.88Z" style="fill:rgb(31,156,237);fill-rule:nonzero;stroke:rgb(31,156,237);stroke-width:3.03px;"/>
            <path d="M69.52,8.92C66.23,12.67 65.92,17.88 64.68,22.53C63.71,26.09 61.06,32.99 60.71,33.91C60.68,33.98 60.62,34.01 60.55,33.99C45.86,31.27 30.45,30.91 15.65,32.9C13.34,33.21 11.07,33.69 8.75,34C8.68,34.01 8.62,33.97 8.59,33.9C7.41,30.05 5.87,26.2 4.8,22.33C3.55,17.75 3.19,12.61 0.04,8.9C-0.04,8.81 0.02,8.67 0.13,8.66C3.92,8.45 7.44,10.18 9.33,13.6C9.6,14.11 9.88,15.07 10.13,15.44C10.21,15.55 10.28,15.65 10.43,15.66C10.99,15.72 10.99,14.79 11.13,14.43C12,12.26 13.79,10.68 16.03,10.16C16.11,10.14 16.2,10.21 16.21,10.3L16.49,13.25C16.59,16.5 15.65,19.63 12.92,21.49C11.27,22.6 9.01,22.65 10.19,25.44C10.97,27.26 13.29,28.21 15.15,28.06C16.72,27.95 19.49,26.51 19.08,24.56C18.97,23.96 17.93,23.24 17.65,22.53C17,20.86 18.23,18.76 19.96,18.54C21.86,18.31 23.51,20.01 23.18,21.94C22.97,23.23 21.26,23.38 22.55,25.1C24.62,27.84 30.1,27.8 31.48,24.38C32.4,22.06 30.22,22.12 28.68,21.39C23.44,18.94 22.88,14.09 21.63,8.96C21.61,8.88 21.67,8.79 21.75,8.76C24.33,8.39 26.95,9.76 28.6,11.71C28.85,12.01 29.22,13 29.7,12.74C30.06,12.54 29.87,10.74 29.9,10.27C30.14,6.49 32.03,2.74 34.56,0.07C34.59,0.04 34.63,0 34.67,0.01C35.07,0.08 36.28,1.77 36.5,2.09C38.23,4.58 39.53,7.78 39.62,10.88C39.63,11.29 39.44,12.44 39.64,12.66C39.75,12.77 39.97,12.8 40.11,12.74C40.31,12.65 41.27,11.22 41.62,10.89C43.22,9.36 45.6,8.37 47.78,8.8C47.87,8.81 47.91,8.91 47.89,9C46.88,12.13 46.77,15.62 44.78,18.32C43.75,19.72 42.11,20.88 40.52,21.56C39.14,22.13 37.14,22.13 38.04,24.31C39.49,27.81 44.77,27.85 47,25.1C48.48,23.26 46.24,23.13 46.47,21.17C46.94,17.3 52.54,17.94 52.16,21.86C51.97,23.73 49.54,23.88 50.78,26.05C52.6,29.23 59.08,28.43 59.67,24.71C59.97,22.72 58.59,22.66 57.32,21.94C53.12,19.54 52.59,14.71 53.44,10.29C53.45,10.2 53.54,10.14 53.62,10.16C55.47,10.65 57.33,12.14 58.16,13.88C58.33,14.24 58.62,15.44 58.73,15.56C59.37,16.23 59.85,14.35 60.07,13.95C61.94,10.34 65.47,8.58 69.4,8.68C69.52,8.68 69.58,8.84 69.5,8.93L69.52,8.92Z" style="fill:rgb(31,156,237);fill-rule:nonzero;"/>
            <path d="M35.6,45.47C35.78,44.69 36.1,43.87 36.54,43.2C37.19,42.19 38.34,41.48 39.53,41.97L39.22,42.14C38.16,42.85 38.68,44.55 37.52,45.48C37.03,45.87 36.47,45.95 35.97,46.27C35.95,46.27 35.83,46.12 35.79,46.09C35.37,45.72 34.76,45.69 34.32,46.04C34.28,46.07 34.11,46.27 34.08,46.27C33.76,46.02 33.35,45.94 32.99,45.76C32.59,45.55 32.2,45.25 31.97,44.84C31.48,43.96 31.72,42.69 30.75,42.11L30.48,41.97C31.69,41.48 32.88,42.22 33.54,43.25C33.97,43.92 34.27,44.72 34.43,45.51C34.47,45.47 34.64,45.41 34.64,45.36C34.64,45.31 34.55,45.07 34.52,45C34.09,43.79 33.15,42.49 33.6,41.13C33.79,40.57 34.41,39.75 34.84,39.36C34.86,39.34 34.99,39.22 35,39.22L35.04,39.22C35.08,39.24 35.38,39.57 35.44,39.63C36.08,40.34 36.65,41.14 36.54,42.16C36.42,43.28 35.69,44.28 35.39,45.36L35.6,45.47Z" style="fill:white;fill-rule:nonzero;"/>
            <path d="M34.1,47.79C33.98,47.84 33.85,47.9 33.72,47.94C33.16,48.09 32.62,47.97 32.11,47.74C31.6,47.51 31.21,47.09 30.59,47.2C30.35,47.24 30.14,47.39 29.98,47.57C30.04,46.09 31.4,45.13 32.74,45.89C32.98,46.03 33.79,46.64 33.85,46.89C33.85,46.92 33.83,47 33.84,47.06C33.86,47.23 33.9,47.43 33.97,47.58C33.99,47.61 34.1,47.77 34.09,47.79L34.1,47.79Z" style="fill:white;fill-rule:nonzero;"/>
            <path d="M40.04,47.55C39.76,47.21 39.36,47.1 38.94,47.22C38.68,47.29 38.47,47.46 38.24,47.58C37.52,47.96 36.72,48.19 35.95,47.79C36.07,47.57 36.15,47.38 36.18,47.12C36.18,47.05 36.17,46.96 36.18,46.89C36.25,46.61 37.05,46.02 37.32,45.87C38.64,45.15 39.97,46.11 40.03,47.55L40.04,47.55Z" style="fill:white;fill-rule:nonzero;"/>
            <ellipse cx="35.02" cy="47.01" rx="0.83" ry="0.85" style="fill:white;"/>
            <path d="M34.69,48.59C34.59,49.04 34.4,49.5 34.16,49.88C33.79,50.45 33.14,50.86 32.46,50.58L32.64,50.48C33.25,50.07 32.95,49.11 33.61,48.58C33.89,48.36 34.2,48.31 34.49,48.13C34.5,48.13 34.57,48.21 34.59,48.23C34.83,48.44 35.18,48.46 35.43,48.26C35.45,48.24 35.55,48.13 35.57,48.13C35.75,48.27 35.98,48.32 36.19,48.42C36.42,48.54 36.64,48.71 36.77,48.94C37.05,49.44 36.91,50.16 37.47,50.49L37.62,50.57C36.93,50.85 36.25,50.43 35.88,49.84C35.64,49.46 35.46,49 35.37,48.56C35.35,48.58 35.25,48.62 35.25,48.64C35.25,48.66 35.3,48.81 35.32,48.84C35.57,49.53 36.1,50.27 35.85,51.04C35.74,51.36 35.39,51.82 35.14,52.05C35.13,52.06 35.06,52.13 35.05,52.13L35.03,52.13C35,52.12 34.83,51.93 34.8,51.9C34.44,51.5 34.11,51.04 34.17,50.46C34.24,49.82 34.65,49.25 34.82,48.64L34.7,48.58L34.69,48.59Z" style="fill:white;fill-rule:nonzero;"/>
            <path d="M35.6,99.68C35.78,98.9 36.1,98.08 36.54,97.41C37.19,96.4 38.34,95.69 39.53,96.18L39.22,96.35C38.16,97.06 38.68,98.76 37.52,99.69C37.03,100.08 36.47,100.16 35.97,100.48C35.95,100.48 35.83,100.33 35.79,100.3C35.37,99.93 34.76,99.9 34.32,100.25C34.28,100.28 34.11,100.48 34.08,100.48C33.76,100.23 33.35,100.15 32.99,99.97C32.59,99.76 32.2,99.46 31.97,99.05C31.48,98.17 31.72,96.9 30.75,96.32L30.48,96.18C31.69,95.69 32.88,96.43 33.54,97.46C33.97,98.13 34.27,98.93 34.43,99.72C34.47,99.68 34.64,99.62 34.64,99.57C34.64,99.52 34.55,99.28 34.52,99.21C34.09,98 33.15,96.7 33.6,95.34C33.79,94.78 34.41,93.96 34.84,93.57C34.86,93.55 34.99,93.43 35,93.43L35.04,93.43C35.08,93.45 35.38,93.78 35.44,93.84C36.08,94.55 36.65,95.35 36.54,96.37C36.42,97.49 35.69,98.49 35.39,99.57L35.6,99.68Z" style="fill:white;fill-rule:nonzero;"/>
            <path d="M34.1,102C33.98,102.05 33.85,102.11 33.72,102.15C33.16,102.3 32.62,102.18 32.11,101.95C31.6,101.72 31.21,101.3 30.59,101.41C30.35,101.45 30.14,101.6 29.98,101.78C30.04,100.3 31.4,99.34 32.74,100.1C32.98,100.24 33.79,100.85 33.85,101.1C33.85,101.13 33.83,101.21 33.84,101.27C33.86,101.44 33.9,101.64 33.97,101.79C33.99,101.82 34.1,101.98 34.09,102L34.1,102Z" style="fill:white;fill-rule:nonzero;"/>
            <path d="M40.04,101.76C39.76,101.42 39.36,101.31 38.94,101.43C38.68,101.5 38.47,101.67 38.24,101.79C37.52,102.17 36.72,102.4 35.95,102C36.07,101.78 36.15,101.59 36.18,101.33C36.18,101.26 36.17,101.17 36.18,101.1C36.25,100.82 37.05,100.23 37.32,100.08C38.64,99.36 39.97,100.32 40.03,101.76L40.04,101.76Z" style="fill:white;fill-rule:nonzero;"/>
            <ellipse cx="35.02" cy="101.21" rx="0.83" ry="0.85" style="fill:white;"/>
            <path d="M34.69,102.79C34.59,103.24 34.4,103.7 34.16,104.08C33.79,104.65 33.14,105.06 32.46,104.78L32.64,104.68C33.25,104.27 32.95,103.31 33.61,102.78C33.89,102.56 34.2,102.51 34.49,102.33C34.5,102.33 34.57,102.41 34.59,102.43C34.83,102.64 35.18,102.66 35.43,102.46C35.45,102.44 35.55,102.33 35.57,102.33C35.75,102.47 35.98,102.52 36.19,102.62C36.42,102.74 36.64,102.91 36.77,103.14C37.05,103.64 36.91,104.36 37.47,104.69L37.62,104.77C36.93,105.05 36.25,104.63 35.88,104.04C35.64,103.66 35.46,103.2 35.37,102.76C35.35,102.78 35.25,102.82 35.25,102.84C35.25,102.86 35.3,103.01 35.32,103.04C35.57,103.73 36.1,104.47 35.85,105.24C35.74,105.56 35.39,106.02 35.14,106.25C35.13,106.26 35.06,106.33 35.05,106.33L35.03,106.33C35,106.32 34.83,106.13 34.8,106.1C34.44,105.7 34.11,105.24 34.17,104.66C34.24,104.02 34.65,103.45 34.82,102.84L34.7,102.78L34.69,102.79Z" style="fill:white;fill-rule:nonzero;"/>
            <path d="M15.62,70.62C15.8,69.84 16.12,69.02 16.56,68.35C17.21,67.34 18.36,66.63 19.55,67.12L19.24,67.29C18.18,68 18.7,69.7 17.54,70.63C17.05,71.02 16.49,71.1 15.99,71.42C15.97,71.42 15.85,71.27 15.81,71.24C15.39,70.87 14.78,70.84 14.34,71.19C14.3,71.22 14.13,71.42 14.1,71.42C13.78,71.17 13.37,71.09 13.01,70.91C12.61,70.7 12.22,70.4 11.99,69.99C11.5,69.11 11.74,67.84 10.77,67.26L10.5,67.12C11.71,66.63 12.9,67.37 13.56,68.4C13.99,69.07 14.29,69.87 14.45,70.66C14.49,70.62 14.66,70.56 14.66,70.51C14.66,70.46 14.57,70.22 14.54,70.15C14.11,68.94 13.17,67.64 13.62,66.28C13.81,65.72 14.43,64.9 14.86,64.51C14.88,64.49 15.01,64.37 15.02,64.37L15.06,64.37C15.1,64.39 15.4,64.72 15.46,64.78C16.1,65.49 16.67,66.29 16.56,67.31C16.44,68.43 15.71,69.43 15.41,70.51L15.62,70.62Z" style="fill:white;fill-rule:nonzero;"/>
            <path d="M14.12,72.94C14,72.99 13.87,73.05 13.74,73.09C13.18,73.24 12.64,73.12 12.13,72.89C11.62,72.66 11.23,72.24 10.61,72.35C10.37,72.39 10.16,72.54 10,72.72C10.06,71.24 11.42,70.28 12.76,71.04C13,71.18 13.81,71.79 13.87,72.04C13.87,72.07 13.85,72.15 13.86,72.21C13.88,72.38 13.92,72.58 13.99,72.73C14.01,72.76 14.12,72.92 14.11,72.94L14.12,72.94Z" style="fill:white;fill-rule:nonzero;"/>
            <path d="M20.06,72.7C19.78,72.36 19.38,72.25 18.96,72.37C18.7,72.44 18.49,72.61 18.26,72.73C17.54,73.11 16.74,73.34 15.97,72.94C16.09,72.72 16.17,72.53 16.2,72.27C16.2,72.2 16.19,72.11 16.2,72.04C16.27,71.76 17.07,71.17 17.34,71.02C18.66,70.3 19.99,71.26 20.05,72.7L20.06,72.7Z" style="fill:white;fill-rule:nonzero;"/>
            <ellipse cx="15.04" cy="72.16" rx="0.83" ry="0.85" style="fill:white;"/>
            <path d="M14.7,73.74C14.6,74.19 14.41,74.65 14.17,75.03C13.8,75.6 13.15,76.01 12.47,75.73L12.65,75.63C13.26,75.22 12.96,74.26 13.62,73.73C13.9,73.51 14.21,73.46 14.5,73.28C14.51,73.28 14.58,73.36 14.6,73.38C14.84,73.59 15.19,73.61 15.44,73.41C15.46,73.39 15.56,73.28 15.58,73.28C15.76,73.42 15.99,73.47 16.2,73.57C16.43,73.69 16.65,73.86 16.78,74.09C17.06,74.59 16.92,75.31 17.48,75.64L17.63,75.72C16.94,76 16.26,75.58 15.89,74.99C15.65,74.61 15.47,74.15 15.38,73.71C15.36,73.73 15.26,73.77 15.26,73.79C15.26,73.81 15.31,73.96 15.33,73.99C15.58,74.68 16.11,75.42 15.86,76.19C15.75,76.51 15.4,76.97 15.15,77.2C15.14,77.21 15.07,77.28 15.06,77.28L15.04,77.28C15.01,77.27 14.84,77.08 14.81,77.05C14.45,76.65 14.12,76.19 14.18,75.61C14.25,74.97 14.66,74.4 14.83,73.79L14.71,73.73L14.7,73.74Z" style="fill:white;fill-rule:nonzero;"/>
            <path d="M55.62,70.62C55.8,69.84 56.12,69.02 56.56,68.35C57.21,67.34 58.36,66.63 59.55,67.12L59.24,67.29C58.18,68 58.7,69.7 57.54,70.63C57.05,71.02 56.49,71.1 55.99,71.42C55.97,71.42 55.85,71.27 55.81,71.24C55.39,70.87 54.78,70.84 54.34,71.19C54.3,71.22 54.13,71.42 54.1,71.42C53.78,71.17 53.37,71.09 53.01,70.91C52.61,70.7 52.22,70.4 51.99,69.99C51.5,69.11 51.74,67.84 50.77,67.26L50.5,67.12C51.71,66.63 52.9,67.37 53.56,68.4C53.99,69.07 54.29,69.87 54.45,70.66C54.49,70.62 54.66,70.56 54.66,70.51C54.66,70.46 54.57,70.22 54.54,70.15C54.11,68.94 53.17,67.64 53.62,66.28C53.81,65.72 54.43,64.9 54.86,64.51C54.88,64.49 55.01,64.37 55.02,64.37L55.06,64.37C55.1,64.39 55.4,64.72 55.46,64.78C56.1,65.49 56.67,66.29 56.56,67.31C56.44,68.43 55.71,69.43 55.41,70.51L55.62,70.62Z" style="fill:white;fill-rule:nonzero;"/>
            <path d="M54.12,72.94C54,72.99 53.87,73.05 53.74,73.09C53.18,73.24 52.64,73.12 52.13,72.89C51.62,72.66 51.23,72.24 50.61,72.35C50.37,72.39 50.16,72.54 50,72.72C50.06,71.24 51.42,70.28 52.76,71.04C53,71.18 53.81,71.79 53.87,72.04C53.87,72.07 53.85,72.15 53.86,72.21C53.88,72.38 53.92,72.58 53.99,72.73C54.01,72.76 54.12,72.92 54.11,72.94L54.12,72.94Z" style="fill:white;fill-rule:nonzero;"/>
            <path d="M60.06,72.7C59.78,72.36 59.38,72.25 58.96,72.37C58.7,72.44 58.49,72.61 58.26,72.73C57.54,73.11 56.74,73.34 55.97,72.94C56.09,72.72 56.17,72.53 56.2,72.27C56.2,72.2 56.19,72.11 56.2,72.04C56.27,71.76 57.07,71.17 57.34,71.02C58.66,70.3 59.99,71.26 60.05,72.7L60.06,72.7Z" style="fill:white;fill-rule:nonzero;"/>
            <ellipse cx="55.04" cy="72.16" rx="0.83" ry="0.85" style="fill:white;"/>
            <path d="M54.7,73.74C54.6,74.19 54.41,74.65 54.17,75.03C53.8,75.6 53.15,76.01 52.47,75.73L52.65,75.63C53.26,75.22 52.96,74.26 53.62,73.73C53.9,73.51 54.21,73.46 54.5,73.28C54.51,73.28 54.58,73.36 54.6,73.38C54.84,73.59 55.19,73.61 55.44,73.41C55.46,73.39 55.56,73.28 55.58,73.28C55.76,73.42 55.99,73.47 56.2,73.57C56.43,73.69 56.65,73.86 56.78,74.09C57.06,74.59 56.92,75.31 57.48,75.64L57.63,75.72C56.94,76 56.26,75.58 55.89,74.99C55.65,74.61 55.47,74.15 55.38,73.71C55.36,73.73 55.26,73.77 55.26,73.79C55.26,73.81 55.31,73.96 55.33,73.99C55.58,74.68 56.11,75.42 55.86,76.19C55.75,76.51 55.4,76.97 55.15,77.2C55.14,77.21 55.07,77.28 55.06,77.28L55.04,77.28C55.01,77.27 54.84,77.08 54.81,77.05C54.45,76.65 54.12,76.19 54.18,75.61C54.25,74.97 54.66,74.4 54.83,73.79L54.71,73.73L54.7,73.74Z" style="fill:white;fill-rule:nonzero;"/>
            <path d="M22.66,78.38L26.28,59.31L26.28,59.26L26.23,57.66C26.23,57.5 26.38,57.37 26.57,57.37L31.54,57.37C31.68,57.37 31.81,57.44 31.86,57.55L34.67,63.95C34.78,64.2 35.19,64.2 35.3,63.95L38.11,57.55C38.16,57.44 38.28,57.37 38.43,57.37L43.4,57.37C43.59,57.37 43.74,57.5 43.74,57.66L43.69,59.26L43.69,59.31L47.31,78.38L47.31,78.41L48.66,82.31C48.72,82.49 48.56,82.67 48.34,82.67L40.67,82.67C40.48,82.67 40.32,82.53 40.33,82.37L40.6,78.41L40.6,78.37L39.64,67.28C39.61,66.97 39.1,66.92 38.99,67.21L35.67,75.78C35.63,75.9 35.5,75.97 35.35,75.97L34.64,75.97C34.49,75.97 34.37,75.89 34.32,75.78L31,67.21C30.89,66.92 30.37,66.97 30.35,67.28L29.39,78.37L29.39,78.41L29.66,82.37C29.67,82.53 29.52,82.67 29.32,82.67L21.65,82.67C21.43,82.67 21.27,82.49 21.33,82.31L22.68,78.41L22.68,78.38L22.66,78.38Z" style="fill:white;fill-rule:nonzero;"/>
            <path d="M48.75,54.14L48.75,57.82C48.75,58.03 48.58,58.2 48.37,58.2L21.35,58.2C21.14,58.2 20.97,58.03 20.97,57.82L20.97,54.14C20.97,53.93 21.14,53.76 21.35,53.76L48.37,53.76C48.58,53.76 48.75,53.93 48.75,54.14Z" style="fill:white;"/>
            <path d="M57.13,88.89C56.11,91.96 53.34,94.31 50.26,92.16C50.09,92.04 49.83,91.66 49.71,91.64C49.63,91.64 48.96,92.07 48.56,92.11C47.16,92.26 46.05,91.77 45.47,90.44C48.46,90.08 47.8,88.79 45.88,87.45C44.56,86.53 40.41,84.6 40.21,82.98C40.09,81.94 40.47,81.4 41.21,80.77C41.43,80.58 41.81,80.56 41.84,80.24L41.81,80.12L41.04,77.05L44.56,77.05C43.41,77.8 42.69,78.89 42.69,80.12C42.69,81 43.07,81.83 43.72,82.48C43.53,82.64 43.54,82.96 43.84,83.21C44.49,83.76 47.66,84.45 48.71,84.8C50.03,85.24 51.72,85.61 52.47,86.92C52.82,87.53 52.91,88.28 53.35,88.88C54.44,90.38 55.81,89.51 57.13,88.89Z" style="fill:white;fill-rule:nonzero;"/>
            <path d="M12.69,88.89C13.71,91.96 16.48,94.31 19.56,92.16C19.73,92.04 19.99,91.66 20.11,91.64C20.19,91.64 20.86,92.07 21.26,92.11C22.66,92.26 23.77,91.77 24.35,90.44C21.36,90.08 22.02,88.79 23.94,87.45C25.26,86.53 29.41,84.6 29.61,82.98C29.73,81.94 29.35,81.4 28.61,80.77C28.39,80.58 28.01,80.56 27.98,80.24L28.01,80.12L28.78,77.05L25.26,77.05C26.41,77.8 27.13,78.89 27.13,80.12C27.13,81 26.75,81.83 26.1,82.48C26.29,82.64 26.28,82.96 25.98,83.21C25.33,83.76 22.16,84.45 21.11,84.8C19.79,85.24 18.1,85.61 17.35,86.92C17,87.53 16.91,88.28 16.47,88.88C15.38,90.38 14.01,89.51 12.69,88.89Z" style="fill:white;fill-rule:nonzero;"/>
            <path d="M47.65,54.79C48.31,52.24 49.89,49.93 52.38,49C53.34,48.64 54.64,48.6 55.11,47.49L55.27,46.37C57.11,47.67 57.32,50.24 55.24,51.41C55.84,52.65 54.93,54.25 53.52,53.84C53.25,53.76 53.63,53.39 53.68,53.17C53.8,52.63 53.62,51.81 53,51.71C51.52,51.46 50.46,53.75 49.98,54.89C49.38,56.3 50.37,58.2 48.37,58.2L47.65,54.79Z" style="fill:white;fill-rule:nonzero;"/>
            <path d="M21.44,58.2C19.44,58.2 20.43,56.3 19.83,54.89C19.35,53.75 18.29,51.46 16.81,51.71C16.19,51.81 16,52.63 16.13,53.17C16.18,53.39 16.56,53.76 16.29,53.84C14.87,54.24 13.97,52.65 14.57,51.41C12.49,50.24 12.7,47.67 14.54,46.37L14.7,47.49C15.17,48.6 16.48,48.64 17.43,49C19.92,49.93 21.5,52.24 22.16,54.79L21.44,58.2Z" style="fill:white;fill-rule:nonzero;"/>
        </g>
        <g transform="matrix(0.271511,0,0,0.271035,-17.8952,123.309)">
            <g transform="matrix(64.1123,0,0,64.1123,313.465,26.0457)">
            </g>
            <text x="74.131px" y="26.046px" style="font-family:'AbadiMT-ExtraBold', sans-serif;font-size:64.112px;fill:rgb(31,156,237);">T<tspan x="109.313px 149.817px 191.667px 230.919px 272.769px " y="26.046px 26.046px 26.046px 26.046px 26.046px ">KURBX</tspan></text>
        </g>
    </g>
</svg>
