<?xml version="1.0" encoding="UTF-8"?>
<svg id="Layer_1" data-name="Layer 1" xmlns="http://www.w3.org/2000/svg" viewBox="0 0 439.14 728.69">
  <defs>
    <style>
      .cls-1 {
        fill-rule: evenodd;
        stroke: #1f9ced;
        stroke-miterlimit: 10;
        stroke-width: .48px;
      }

      .cls-1, .cls-2 {
        fill: #1f9ced;
      }

      .cls-2 {
        stroke-width: 0px;
      }
    </style>
  </defs>
  <g id="Layer_1-2" data-name="Layer 1-2">
    <path class="cls-1" d="m410.61,249.67v.07c.47,5.5.07,12.63,0,18.38-1.13,97.94-.27,196.01-.53,294.47-5.39,73.99-57.33,110.76-120.58,134.97-17.49,6.74-36.05,11.38-52.48,20.54-2.79,1.64-14.96,10.34-16.49,10.34-2.19,0-13.3-8.31-16.23-10.08-19.35-11.38-43.17-17.27-64.12-25.58-69.77-27.67-109.48-67.39-110.81-146.35-.8-48.61-.07-97.55,0-146.16,0-49.79-1.33-99.9-.53-149.56.07-3.34,1.2-6.74,3.99-8.83,3.53-2.62,18.69-6.02,23.81-7.26,46.76-11.19,95.11-15.7,143.06-17.86l42.23-.2c1.26,0,2.46.52,3.72.59,43.9,1.31,88.39,6.02,131.23,15.77,7.98,1.77,17.36,3.86,24.94,6.67,5.65,1.96,8.18,3.53,8.78,10.08Zm-59.37,196.28l-1.32-.69c1.9-6.82,6.5-13.14,7.26-20.21.69-6.44-2.91-11.49-6.95-15.98-.37-.38-2.27-2.46-2.52-2.59h-.25c-.07,0-.88.76-1.01.89-2.72,2.46-6.63,7.64-7.83,11.17-2.84,8.59,3.1,16.8,5.81,24.44.19.44.76,1.96.76,2.28s-1.08.69-1.33.94c-1.01-4.99-2.9-10.04-5.62-14.27-4.16-6.51-11.68-11.18-19.32-8.09l1.7.88c6.13,3.66,4.61,11.68,7.71,17.25,1.45,2.58,3.91,4.48,6.44,5.81,2.27,1.13,4.86,1.64,6.88,3.22.19,0,1.26-1.26,1.52-1.45,2.78-2.21,6.63-2.02,9.28.31.25.19,1.01,1.14,1.14,1.14,3.16-2.02,6.69-2.53,9.79-4.99,7.32-5.87,4.04-16.6,10.73-21.09l1.96-1.07c-7.52-3.09-14.78,1.39-18.88,7.77-2.78,4.23-4.8,9.41-5.94,14.34Zm-258.43,19.71l.06-.07.76.38c-1.07,3.85-3.66,7.45-4.1,11.49-.38,3.66,1.7,6.57,3.98,9.09.19.19,1.26,1.39,1.45,1.45h.13c.07,0,.51-.44.57-.5,1.58-1.45,3.79-4.36,4.48-6.38,1.58-4.87-1.77-9.54-3.35-13.9-.13-.19-.45-1.14-.45-1.26s.63-.38.76-.5c.57,2.77,1.71,5.68,3.23,8.08,2.33,3.73,6.63,6.38,10.99,4.61l-.95-.5c-3.53-2.09-2.65-6.63-4.42-9.79-.82-1.45-2.21-2.53-3.66-3.28-1.32-.63-2.78-.95-3.92-1.83-.13,0-.76.69-.88.82-1.58,1.26-3.78,1.14-5.3-.19-.13-.12-.57-.63-.63-.63-1.84,1.13-3.79,1.45-5.56,2.84-4.17,3.35-2.27,9.41-6.13,12l-1.14.63c4.3,1.77,8.4-.82,10.73-4.42,1.52-2.4,2.72-5.31,3.35-8.15Zm128.33,168.12c-2.89,0-5.25,2.4-5.25,5.36s2.35,5.37,5.25,5.37,5.24-2.41,5.24-5.37-2.35-5.36-5.24-5.36Zm-126.19-183.47c-2.89,0-5.24,2.41-5.24,5.36s2.35,5.37,5.24,5.37,5.25-2.41,5.25-5.37-2.35-5.36-5.25-5.36Zm129.85-163.19l-1.32-.69c1.9-6.82,6.5-13.14,7.26-20.22.69-6.44-2.91-11.49-6.95-15.98-.38-.38-2.27-2.46-2.52-2.59h-.25c-.07,0-.88.76-1.01.89-2.72,2.46-6.63,7.64-7.83,11.17-2.84,8.59,3.09,16.8,5.81,24.44.19.44.76,1.96.76,2.28s-1.08.69-1.33.94c-1.01-4.99-2.9-10.04-5.62-14.27-4.16-6.51-11.68-11.18-19.32-8.09l1.7.88c6.13,3.66,4.61,11.68,7.7,17.25,1.46,2.58,3.92,4.48,6.44,5.81,2.27,1.13,4.86,1.64,6.88,3.22.19,0,1.26-1.26,1.52-1.45,2.78-2.21,6.63-2.02,9.28.31.25.19,1.01,1.14,1.14,1.14,3.15-2.02,6.69-2.53,9.78-4.99,7.33-5.87,4.04-16.6,10.74-21.09l1.96-1.07c-7.52-3.09-14.78,1.39-18.88,7.77-2.78,4.23-4.8,9.41-5.94,14.34Zm-5.75,19.71l.07-.07.76.38c-1.08,3.85-3.66,7.45-4.11,11.49-.38,3.66,1.71,6.57,3.98,9.09.19.19,1.26,1.39,1.45,1.45h.13c.07,0,.51-.44.57-.5,1.58-1.45,3.78-4.36,4.48-6.38,1.58-4.87-1.77-9.54-3.35-13.9-.13-.19-.44-1.14-.44-1.26s.63-.38.76-.5c.57,2.77,1.7,5.68,3.22,8.08,2.34,3.73,6.63,6.38,10.99,4.61l-.94-.5c-3.54-2.09-2.65-6.63-4.42-9.79-.82-1.45-2.21-2.53-3.66-3.28-1.33-.63-2.78-.94-3.92-1.83-.13,0-.76.69-.88.82-1.58,1.26-3.79,1.14-5.31-.19-.13-.12-.57-.63-.63-.63-1.83,1.13-3.78,1.45-5.55,2.84-4.17,3.35-2.27,9.41-6.13,12l-1.14.63c4.29,1.77,8.4-.82,10.73-4.42,1.52-2.4,2.71-5.31,3.35-8.15Zm-92.46,152.18v.09h.07l-.07-.09Zm0,0c-.43-9.05-8.8-15.06-17.11-10.53-1.7.95-6.76,4.67-7.2,6.44-.07.44,0,1.01,0,1.45-.19,1.64-.69,2.84-1.45,4.23,4.86,2.53,9.91,1.07,14.46-1.32,1.45-.76,2.78-1.83,4.42-2.28,2.62-.75,5.11-.08,6.88,2Zm92.46,190.11l.07-.06.76.38c-1.08,3.85-3.66,7.45-4.11,11.49-.38,3.66,1.71,6.57,3.98,9.09.19.19,1.26,1.39,1.45,1.45h.13c.07,0,.51-.44.57-.51,1.58-1.45,3.78-4.36,4.48-6.37,1.58-4.87-1.77-9.54-3.35-13.9-.13-.19-.44-1.14-.44-1.26,0-.13.63-.38.76-.51.57,2.78,1.7,5.69,3.22,8.09,2.34,3.73,6.63,6.38,10.99,4.61l-.94-.5c-3.54-2.09-2.65-6.63-4.42-9.79-.82-1.45-2.21-2.53-3.66-3.28-1.33-.63-2.78-.94-3.92-1.83-.13,0-.76.7-.88.82-1.58,1.26-3.79,1.14-5.31-.19-.13-.12-.57-.63-.63-.63-1.83,1.14-3.78,1.45-5.55,2.85-4.17,3.34-2.27,9.41-6.13,12l-1.14.63c4.29,1.77,8.4-.82,10.73-4.42,1.52-2.4,2.71-5.31,3.35-8.15Zm-3.72-347.35h-.07c.07-.12-.63-1.13-.75-1.32-.45-.95-.7-2.21-.82-3.28-.06-.38.07-.89.07-1.07-.38-1.58-5.5-5.44-7.01-6.32-8.47-4.8-17.05,1.26-17.43,10.61,1.01-1.14,2.33-2.09,3.85-2.34,3.92-.69,6.38,1.96,9.6,3.41,3.23,1.45,6.63,2.21,10.17,1.26.82-.26,1.64-.63,2.4-.95Zm-28.23,219.24c.14-.26.21-.55.19-.85l-1.7-25v-.26l6.06-70.04c.13-1.96,3.41-2.28,4.1-.44l20.97,54.13c.31.69,1.07,1.2,2.02,1.2h4.48c.94,0,1.77-.44,2.02-1.2l20.96-54.13c.7-1.83,3.92-1.52,4.11.44l6.06,70.04v.26l-1.44,21.11c-1.02,2.12-1.39,4.57-1.02,7.75,1.26,10.23,27.47,22.42,35.81,28.23,12.12,8.47,16.3,16.61-2.59,18.89,3.66,8.4,10.67,11.49,19.52,10.55,2.52-.26,6.76-2.97,7.26-2.97.75.12,2.39,2.53,3.47,3.28,19.45,13.58,36.95-1.26,43.38-20.65-8.33,3.92-16.99,9.41-23.87-.06-2.78-3.79-3.35-8.52-5.56-12.38-4.74-8.28-15.41-10.61-23.74-13.39-6.63-2.21-26.65-6.57-30.75-10.04-1.3-1.09-1.74-2.37-1.5-3.41h29.92c1.39,0,2.39-1.14,2.02-2.28l-8.53-24.63v-.19l-22.87-120.44v-.31l.21-6.7h29.34c12.63,0,6.38-12,10.17-20.9,3.03-7.2,9.72-21.66,19.08-20.09,3.91.63,5.05,5.81,4.29,9.22-.31,1.39-2.71,3.72-1.01,4.23,8.91,2.58,14.65-7.52,10.87-15.35,13.14-7.39,11.81-23.62.19-31.83l-1.01,7.07c-2.97,7.01-11.18,7.26-17.24,9.53-13.57,5.07-22.87,16.64-27.83,30.06h-165.06c-4.97-13.42-14.26-24.99-27.83-30.06-6-2.27-14.27-2.53-17.24-9.53l-1.01-7.07c-11.62,8.2-12.95,24.44.19,31.83-3.79,7.83,1.9,17.87,10.86,15.35,1.71-.51-.69-2.85-1.01-4.23-.82-3.42.38-8.59,4.3-9.22,9.35-1.58,16.04,12.89,19.08,20.09,3.7,8.69-2.17,20.33,9.28,20.88.11.01.21.02.32.02h30.93l.21,6.7v.31l-22.86,120.44h.13v.19l-8.53,24.63c-.38,1.14.63,2.28,2.02,2.28h28.84c.25,1.03-.19,2.32-1.49,3.41-4.11,3.47-24.13,7.83-30.76,10.04-8.33,2.78-19.01,5.12-23.74,13.39-2.21,3.85-2.78,8.59-5.56,12.38-6.88,9.47-15.54,3.98-23.87.06,6.44,19.39,23.94,34.23,43.38,20.65,1.08-.76,2.72-3.16,3.48-3.28.51,0,4.74,2.72,7.26,2.97,8.84.95,15.85-2.15,19.51-10.55-18.88-2.28-14.72-10.42-2.59-18.89,8.33-5.81,34.55-18,35.8-28.23.13-1.08.17-2.07.13-3Zm15.89-153.5h35.87l-15.95,36.32c-.69,1.58-3.28,1.58-3.98,0l-15.94-36.32Zm-104.37,78.44l-1.32-.69c1.9-6.82,6.5-13.14,7.26-20.21.69-6.44-2.91-11.49-6.95-15.98-.38-.38-2.27-2.46-2.53-2.59h-.25c-.06,0-.88.76-1,.89-2.72,2.46-6.63,7.64-7.83,11.17-2.84,8.59,3.09,16.8,5.81,24.44.19.44.76,1.96.76,2.28s-1.08.69-1.33.94c-1.01-4.99-2.91-10.04-5.62-14.27-4.17-6.51-11.69-11.18-19.33-8.09l1.71.88c6.13,3.66,4.61,11.68,7.7,17.25,1.46,2.58,3.92,4.48,6.44,5.81,2.27,1.13,4.86,1.64,6.88,3.22.19,0,1.26-1.26,1.52-1.45,2.78-2.21,6.63-2.02,9.28.31.25.19,1.01,1.14,1.14,1.14,3.15-2.02,6.69-2.53,9.78-4.99,7.33-5.87,4.04-16.6,10.74-21.09l1.96-1.07c-7.52-3.09-14.78,1.39-18.88,7.77-2.78,4.23-4.8,9.41-5.94,14.34Zm280.59,13.05v.09h.07l-.07-.09Zm0,0c-.42-9.05-8.8-15.06-17.11-10.53-1.71.95-6.76,4.67-7.2,6.44-.06.44,0,1.01,0,1.45-.19,1.64-.69,2.84-1.45,4.23,4.86,2.53,9.92,1.07,14.46-1.32,1.46-.76,2.78-1.83,4.42-2.28,2.62-.75,5.11-.08,6.88,2Zm-290.07,1.6h-.07c.07-.12-.63-1.13-.76-1.32-.44-.95-.69-2.21-.82-3.28-.06-.38.06-.88.06-1.07-.37-1.58-5.49-5.44-7.01-6.32-8.46-4.8-17.05,1.26-17.43,10.61,1.01-1.14,2.33-2.09,3.85-2.34,3.92-.69,6.38,1.96,9.6,3.41,3.23,1.45,6.63,2.21,10.17,1.26.82-.25,1.64-.63,2.4-.95Zm163.63-160.43v.09h.07l-.07-.09Zm0,0c-.43-9.05-8.8-15.06-17.11-10.53-1.71.95-6.76,4.67-7.2,6.44-.06.44,0,1.01,0,1.45-.19,1.64-.69,2.84-1.45,4.23,4.86,2.53,9.91,1.07,14.46-1.32,1.46-.76,2.78-1.83,4.42-2.28,2.62-.75,5.11-.08,6.88,2Zm0,342.37c-.43-9.05-8.8-15.07-17.11-10.53-1.71.95-6.76,4.68-7.2,6.44-.06.44,0,1.01,0,1.45-.19,1.64-.69,2.84-1.45,4.23,4.86,2.53,9.91,1.07,14.46-1.33,1.46-.76,2.78-1.83,4.42-2.27,2.62-.75,5.11-.09,6.88,2Zm0,0v.08h.07l-.07-.08Zm-31.63-351.06c-2.89,0-5.25,2.4-5.25,5.36s2.35,5.37,5.25,5.37,5.24-2.41,5.24-5.37-2.35-5.36-5.24-5.36Zm3.66,338.01l-1.32-.69c1.9-6.82,6.5-13.14,7.26-20.21.69-6.44-2.91-11.49-6.95-15.98-.38-.38-2.27-2.47-2.52-2.59h-.25c-.07,0-.88.76-1.01.88-2.72,2.47-6.63,7.64-7.83,11.18-2.84,8.59,3.09,16.8,5.81,24.44.19.44.76,1.96.76,2.27s-1.08.69-1.33.95c-1.01-4.99-2.9-10.04-5.62-14.28-4.16-6.5-11.68-11.17-19.32-8.08l1.7.88c6.13,3.66,4.61,11.68,7.7,17.24,1.46,2.59,3.92,4.49,6.44,5.81,2.27,1.14,4.86,1.64,6.88,3.23.19,0,1.26-1.27,1.52-1.45,2.78-2.21,6.63-2.02,9.28.31.25.19,1.01,1.14,1.14,1.14,3.15-2.02,6.69-2.53,9.78-4.99,7.33-5.88,4.04-16.61,10.74-21.09l1.96-1.07c-7.52-3.09-14.78,1.39-18.88,7.77-2.78,4.23-4.8,9.41-5.94,14.33Zm-9.47,14.65h-.07c.07-.12-.63-1.14-.75-1.33-.45-.95-.7-2.21-.82-3.28-.06-.38.07-.88.07-1.07-.38-1.58-5.5-5.43-7.01-6.31-8.47-4.8-17.05,1.26-17.43,10.61,1.01-1.13,2.33-2.08,3.85-2.34,3.92-.69,6.38,1.96,9.6,3.42,3.23,1.45,6.63,2.2,10.17,1.26.82-.26,1.64-.63,2.4-.95Zm126.44-183.53h-.06c.06-.12-.63-1.13-.76-1.32-.45-.95-.7-2.21-.82-3.28-.06-.38.07-.88.07-1.07-.38-1.58-5.49-5.44-7.01-6.32-8.47-4.8-17.05,1.26-17.43,10.61,1.01-1.14,2.33-2.09,3.85-2.34,3.92-.69,6.38,1.96,9.6,3.41,3.23,1.45,6.63,2.21,10.17,1.26.82-.25,1.64-.63,2.4-.95Zm5.81-10.29c-2.89,0-5.24,2.41-5.24,5.36s2.35,5.37,5.24,5.37,5.24-2.41,5.24-5.37-2.35-5.36-5.24-5.36Zm-2.15,15.35l.06-.07.76.38c-1.07,3.85-3.66,7.45-4.1,11.49-.38,3.66,1.7,6.57,3.98,9.09.19.19,1.26,1.39,1.46,1.45h.13c.06,0,.51-.44.57-.5,1.58-1.45,3.79-4.36,4.48-6.38,1.58-4.87-1.77-9.54-3.35-13.9-.13-.19-.44-1.14-.44-1.26s.63-.38.76-.5c.57,2.77,1.7,5.68,3.22,8.08,2.33,3.73,6.63,6.38,10.99,4.61l-.94-.5c-3.54-2.09-2.65-6.63-4.42-9.79-.82-1.45-2.21-2.53-3.66-3.28-1.32-.63-2.78-.95-3.92-1.83-.13,0-.76.69-.88.82-1.58,1.26-3.78,1.14-5.3-.19-.13-.12-.57-.63-.63-.63-1.83,1.13-3.79,1.45-5.56,2.84-4.16,3.35-2.27,9.41-6.13,12l-1.14.63c4.3,1.77,8.4-.82,10.74-4.42,1.51-2.4,2.71-5.31,3.35-8.15Z"/>
    <path class="cls-2" d="m439.03,56.28c-20.78,23.68-22.74,56.59-30.57,85.95-6.13,22.48-22.86,66.06-25.07,71.87-.19.44-.57.63-1.01.51-92.77-17.18-190.1-19.45-283.57-6.88-14.59,1.96-28.93,4.99-43.58,6.95-.44.06-.82-.19-1.01-.63-7.45-24.31-17.18-48.63-23.94-73.07C22.4,112.05,20.13,79.59.23,56.15c-.51-.57-.13-1.45.57-1.52,23.94-1.33,46.17,9.6,58.1,31.2,1.71,3.22,3.47,9.28,5.05,11.62.51.69.95,1.33,1.89,1.39,3.54.38,3.54-5.49,4.42-7.77,5.49-13.7,16.8-23.68,30.95-26.97.51-.13,1.07.32,1.14.88l1.77,18.63c.63,20.53-5.31,40.29-22.55,52.04-10.42,7.01-24.69,7.33-17.24,24.95,4.93,11.49,19.58,17.49,31.32,16.55,9.92-.69,27.41-9.79,24.82-22.1-.69-3.79-7.26-8.34-9.03-12.82-4.11-10.55,3.66-23.81,14.59-25.2,12-1.45,22.42,9.28,20.34,21.47-1.33,8.15-12.13,9.09-3.98,19.96,13.07,17.3,47.68,17.05,56.4-4.55,5.81-14.65-7.96-14.27-17.68-18.88-33.09-15.47-36.63-46.1-44.52-78.5-.13-.51.25-1.07.76-1.26,16.29-2.34,32.84,6.32,43.26,18.63,1.58,1.89,3.92,8.15,6.95,6.5,2.27-1.26,1.07-12.63,1.26-15.6,1.52-23.87,13.45-47.56,29.43-64.42.19-.19.44-.44.69-.38,2.53.44,10.17,11.12,11.56,13.14,10.93,15.73,19.14,35.94,19.7,55.51.06,2.59-1.14,9.85.13,11.24.69.69,2.08.88,2.97.51,1.26-.57,7.33-9.6,9.54-11.68,10.1-9.66,25.14-15.92,38.9-13.2.57.06.82.69.69,1.26-6.38,19.77-7.07,41.81-19.64,58.86-6.5,8.84-16.86,16.17-26.9,20.46-8.72,3.6-21.35,3.6-15.66,17.37,9.16,22.1,42.5,22.36,56.59,4.99,9.35-11.62-4.8-12.44-3.35-24.82,2.97-24.44,38.34-20.4,35.94,4.36-1.2,11.81-16.55,12.76-8.72,26.46,11.49,20.08,52.42,15.03,56.14-8.46,1.89-12.57-6.82-12.95-14.84-17.49-26.53-15.16-29.87-45.66-24.5-73.58.06-.57.63-.95,1.14-.82,11.68,3.09,23.43,12.5,28.67,23.49,1.07,2.27,2.91,9.85,3.6,10.61,4.04,4.23,7.07-7.64,8.46-10.17,11.81-22.8,34.1-33.91,58.92-33.28.76,0,1.14,1.01.63,1.58l.13-.06Z"/>
  </g>
</svg>