<?xml version="1.0" encoding="UTF-8"?>
<svg id="Layer_2" data-name="Layer 2" xmlns="http://www.w3.org/2000/svg" viewBox="0 0 69.53 115.57">
  <defs>
    <style>
      .cls-1 {
        fill: #fff;
      }

      .cls-1, .cls-2 {
        stroke-width: 0px;
      }

      .cls-3 {
        stroke: #1f9ced;
        stroke-miterlimit: 10;
        stroke-width: 3.03px;
      }

      .cls-3, .cls-2 {
        fill: #1f9ced;
      }
    </style>
  </defs>
  <path class="cls-3" d="m63.48,40.87c-.09-1-.47-1.24-1.32-1.54-1.14-.43-2.55-.75-3.75-1.02-6.44-1.49-13.13-2.21-19.73-2.41-.19,0-.37-.09-.56-.09l-6.35.03c-7.21.33-14.48,1.02-21.51,2.73-.77.19-3.05.71-3.58,1.11-.42.32-.59.84-.6,1.35-.12,7.59.08,15.25.08,22.86-.01,7.43-.12,14.91,0,22.34.2,12.07,6.17,18.14,16.66,22.37,3.15,1.27,6.73,2.17,9.64,3.91.44.27,2.11,1.54,2.44,1.54.23,0,2.06-1.33,2.48-1.58,2.47-1.4,5.26-2.11,7.89-3.14,9.51-3.7,17.32-9.32,18.13-20.63.04-15.05-.09-30.04.08-45.01,0-.88.07-1.97,0-2.81h0Z"/>
  <path class="cls-2" d="m69.52,8.91c-3.29,3.75-3.6,8.96-4.84,13.61-.97,3.56-3.62,10.46-3.97,11.38-.03.07-.09.1-.16.08-14.69-2.72-30.1-3.08-44.9-1.09-2.31.31-4.58.79-6.9,1.1-.07,0-.13-.03-.16-.1-1.18-3.85-2.72-7.7-3.79-11.57C3.55,17.74,3.19,12.6.04,8.89c-.08-.09-.02-.23.09-.24,3.79-.21,7.31,1.52,9.2,4.94.27.51.55,1.47.8,1.84.08.11.15.21.3.22.56.06.56-.87.7-1.23.87-2.17,2.66-3.75,4.9-4.27.08-.02.17.05.18.14l.28,2.95c.1,3.25-.84,6.38-3.57,8.24-1.65,1.11-3.91,1.16-2.73,3.95.78,1.82,3.1,2.77,4.96,2.62,1.57-.11,4.34-1.55,3.93-3.5-.11-.6-1.15-1.32-1.43-2.03-.65-1.67.58-3.77,2.31-3.99,1.9-.23,3.55,1.47,3.22,3.4-.21,1.29-1.92,1.44-.63,3.16,2.07,2.74,7.55,2.7,8.93-.72.92-2.32-1.26-2.26-2.8-2.99-5.24-2.45-5.8-7.3-7.05-12.43-.02-.08.04-.17.12-.2,2.58-.37,5.2,1,6.85,2.95.25.3.62,1.29,1.1,1.03.36-.2.17-2,.2-2.47.24-3.78,2.13-7.53,4.66-10.2.03-.03.07-.07.11-.06.4.07,1.61,1.76,1.83,2.08,1.73,2.49,3.03,5.69,3.12,8.79,0,.41-.18,1.56.02,1.78.11.11.33.14.47.08.2-.09,1.16-1.52,1.51-1.85,1.6-1.53,3.98-2.52,6.16-2.09.09.01.13.11.11.2-1.01,3.13-1.12,6.62-3.11,9.32-1.03,1.4-2.67,2.56-4.26,3.24-1.38.57-3.38.57-2.48,2.75,1.45,3.5,6.73,3.54,8.96.79,1.48-1.84-.76-1.97-.53-3.93.47-3.87,6.07-3.23,5.69.69-.19,1.87-2.62,2.02-1.38,4.19,1.82,3.18,8.3,2.38,8.89-1.34.3-1.99-1.08-2.05-2.35-2.77-4.2-2.4-4.73-7.23-3.88-11.65,0-.09.1-.15.18-.13,1.85.49,3.71,1.98,4.54,3.72.17.36.46,1.56.57,1.68.64.67,1.12-1.21,1.34-1.61,1.87-3.61,5.4-5.37,9.33-5.27.12,0,.18.16.1.25h.02Z"/>
  <path class="cls-1" d="m35.6,45.46c.18-.78.5-1.6.94-2.27.65-1.01,1.8-1.72,2.99-1.23l-.31.17c-1.06.71-.54,2.41-1.7,3.34-.49.39-1.05.47-1.55.79-.02,0-.14-.15-.18-.18-.42-.37-1.03-.4-1.47-.05-.04.03-.21.23-.24.23-.32-.25-.73-.33-1.09-.51-.4-.21-.79-.51-1.02-.92-.49-.88-.25-2.15-1.22-2.73l-.27-.14c1.21-.49,2.4.25,3.06,1.28.43.67.73,1.47.89,2.26.04-.04.21-.1.21-.15s-.09-.29-.12-.36c-.43-1.21-1.37-2.51-.92-3.87.19-.56.81-1.38,1.24-1.77.02-.02.15-.14.16-.14h.04s.34.35.4.41c.64.71,1.21,1.51,1.1,2.53-.12,1.12-.85,2.12-1.15,3.2,0,0,.21.11.21.11Z"/>
  <path class="cls-1" d="m34.1,47.78c-.12.05-.25.11-.38.15-.56.15-1.1.03-1.61-.2s-.9-.65-1.52-.54c-.24.04-.45.19-.61.37.06-1.48,1.42-2.44,2.76-1.68.24.14,1.05.75,1.11,1,0,.03-.02.11,0,.17.02.17.06.37.13.52.02.03.13.19.12.21h.01Z"/>
  <path class="cls-1" d="m40.04,47.54c-.28-.34-.68-.45-1.1-.33-.26.07-.47.24-.7.36-.72.38-1.52.61-2.29.21.12-.22.2-.41.23-.67,0-.07,0-.16,0-.23.07-.28.87-.87,1.14-1.02,1.32-.72,2.65.24,2.71,1.68h.01Z"/>
  <ellipse class="cls-1" cx="35.02" cy="47" rx=".83" ry=".85"/>
  <path class="cls-1" d="m34.69,48.58c-.1.45-.29.91-.53,1.29-.37.57-1.02.98-1.7.7l.18-.1c.61-.41.31-1.37.97-1.9.28-.22.59-.27.88-.45,0,0,.08.08.1.1.24.21.59.23.84.03.02-.02.12-.13.14-.13.18.14.41.19.62.29.23.12.45.29.58.52.28.5.14,1.22.7,1.55l.15.08c-.69.28-1.37-.14-1.74-.73-.24-.38-.42-.84-.51-1.28-.02.02-.12.06-.12.08s.05.17.07.2c.25.69.78,1.43.53,2.2-.11.32-.46.78-.71,1.01,0,0-.08.08-.09.08h-.02s-.2-.2-.23-.23c-.36-.4-.69-.86-.63-1.44.07-.64.48-1.21.65-1.82l-.12-.06h-.01Z"/>
  <path class="cls-1" d="m35.6,99.67c.18-.78.5-1.6.94-2.27.65-1.01,1.8-1.72,2.99-1.23l-.31.17c-1.06.71-.54,2.41-1.7,3.34-.49.39-1.05.47-1.55.79-.02,0-.14-.15-.18-.18-.42-.37-1.03-.4-1.47-.05-.04.03-.21.23-.24.23-.32-.25-.73-.33-1.09-.51-.4-.21-.79-.51-1.02-.92-.49-.88-.25-2.15-1.22-2.73l-.27-.14c1.21-.49,2.4.25,3.06,1.28.43.67.73,1.47.89,2.26.04-.04.21-.1.21-.15s-.09-.29-.12-.36c-.43-1.21-1.37-2.51-.92-3.87.19-.56.81-1.38,1.24-1.77.02-.02.15-.14.16-.14h.04s.34.35.4.41c.64.71,1.21,1.51,1.1,2.53-.12,1.12-.85,2.12-1.15,3.2,0,0,.21.11.21.11Z"/>
  <path class="cls-1" d="m34.1,101.99c-.12.05-.25.11-.38.15-.56.15-1.1.03-1.61-.2s-.9-.65-1.52-.54c-.24.04-.45.19-.61.37.06-1.48,1.42-2.44,2.76-1.68.24.14,1.05.75,1.11,1,0,.03-.02.11,0,.17.02.17.06.37.13.52.02.03.13.19.12.21h.01Z"/>
  <path class="cls-1" d="m40.04,101.75c-.28-.34-.68-.45-1.1-.33-.26.07-.47.24-.7.36-.72.38-1.52.61-2.29.21.12-.22.2-.41.23-.67,0-.07,0-.16,0-.23.07-.28.87-.87,1.14-1.02,1.32-.72,2.65.24,2.71,1.68h.01Z"/>
  <ellipse class="cls-1" cx="35.02" cy="101.2" rx=".83" ry=".85"/>
  <path class="cls-1" d="m34.69,102.78c-.1.45-.29.91-.53,1.29-.37.57-1.02.98-1.7.7l.18-.1c.61-.41.31-1.37.97-1.9.28-.22.59-.27.88-.45,0,0,.08.08.1.1.24.21.59.23.84.03.02-.02.12-.13.14-.13.18.14.41.19.62.29.23.12.45.29.58.52.28.5.14,1.22.7,1.55l.15.08c-.69.28-1.37-.14-1.74-.73-.24-.38-.42-.84-.51-1.28-.02.02-.12.06-.12.08s.05.17.07.2c.25.69.78,1.43.53,2.2-.11.32-.46.78-.71,1.01,0,.01-.08.08-.09.08h-.02s-.2-.2-.23-.23c-.36-.4-.69-.86-.63-1.44.07-.64.48-1.21.65-1.82l-.12-.06h-.01Z"/>
  <path class="cls-1" d="m15.62,70.61c.18-.78.5-1.6.94-2.27.65-1.01,1.8-1.72,2.99-1.23l-.31.17c-1.06.71-.54,2.41-1.7,3.34-.49.39-1.05.47-1.55.79-.02,0-.14-.15-.18-.18-.42-.37-1.03-.4-1.47-.05-.04.03-.21.23-.24.23-.32-.25-.73-.33-1.09-.51-.4-.21-.79-.51-1.02-.92-.49-.88-.25-2.15-1.22-2.73l-.27-.14c1.21-.49,2.4.25,3.06,1.28.43.67.73,1.47.89,2.26.04-.04.21-.1.21-.15s-.09-.29-.12-.36c-.43-1.21-1.37-2.51-.92-3.87.19-.56.81-1.38,1.24-1.77.02-.02.15-.14.16-.14h.04s.34.35.4.41c.64.71,1.21,1.51,1.1,2.53-.12,1.12-.85,2.12-1.15,3.2,0,0,.21.11.21.11Z"/>
  <path class="cls-1" d="m14.12,72.93c-.12.05-.25.11-.38.15-.56.15-1.1.03-1.61-.2s-.9-.65-1.52-.54c-.24.04-.45.19-.61.37.06-1.48,1.42-2.44,2.76-1.68.24.14,1.05.75,1.11,1,0,.03-.02.11-.01.17.02.17.06.37.13.52.02.03.13.19.12.21h0Z"/>
  <path class="cls-1" d="m20.06,72.69c-.28-.34-.68-.45-1.1-.33-.26.07-.47.24-.7.36-.72.38-1.52.61-2.29.21.12-.22.2-.41.23-.67,0-.07-.01-.16,0-.23.07-.28.87-.87,1.14-1.02,1.32-.72,2.65.24,2.71,1.68h.01Z"/>
  <ellipse class="cls-1" cx="15.04" cy="72.15" rx=".83" ry=".85"/>
  <path class="cls-1" d="m14.7,73.73c-.1.45-.29.91-.53,1.29-.37.57-1.02.98-1.7.7l.18-.1c.61-.41.31-1.37.97-1.9.28-.22.59-.27.88-.45.01,0,.08.08.1.1.24.21.59.23.84.03.02-.02.12-.13.14-.13.18.14.41.19.62.29.23.12.45.29.58.52.28.5.14,1.22.7,1.55l.15.08c-.69.28-1.37-.14-1.74-.73-.24-.38-.42-.84-.51-1.28-.02.02-.12.06-.12.08s.05.17.07.2c.25.69.78,1.43.53,2.2-.11.32-.46.78-.71,1.01-.01.01-.08.08-.09.08h-.02s-.2-.2-.23-.23c-.36-.4-.69-.86-.63-1.44.07-.64.48-1.21.65-1.82l-.12-.06h-.01Z"/>
  <path class="cls-1" d="m55.62,70.61c.18-.78.5-1.6.94-2.27.65-1.01,1.8-1.72,2.99-1.23l-.31.17c-1.06.71-.54,2.41-1.7,3.34-.49.39-1.05.47-1.55.79-.02,0-.14-.15-.18-.18-.42-.37-1.03-.4-1.47-.05-.04.03-.21.23-.24.23-.32-.25-.73-.33-1.09-.51-.4-.21-.79-.51-1.02-.92-.49-.88-.25-2.15-1.22-2.73l-.27-.14c1.21-.49,2.4.25,3.06,1.28.43.67.73,1.47.89,2.26.04-.04.21-.1.21-.15s-.09-.29-.12-.36c-.43-1.21-1.37-2.51-.92-3.87.19-.56.81-1.38,1.24-1.77.02-.02.15-.14.16-.14h.04s.34.35.4.41c.64.71,1.21,1.51,1.1,2.53-.12,1.12-.85,2.12-1.15,3.2,0,0,.21.11.21.11Z"/>
  <path class="cls-1" d="m54.12,72.93c-.12.05-.25.11-.38.15-.56.15-1.1.03-1.61-.2s-.9-.65-1.52-.54c-.24.04-.45.19-.61.37.06-1.48,1.42-2.44,2.76-1.68.24.14,1.05.75,1.11,1,0,.03-.02.11,0,.17.02.17.06.37.13.52.02.03.13.19.12.21h.01Z"/>
  <path class="cls-1" d="m60.06,72.69c-.28-.34-.68-.45-1.1-.33-.26.07-.47.24-.7.36-.72.38-1.52.61-2.29.21.12-.22.2-.41.23-.67,0-.07,0-.16,0-.23.07-.28.87-.87,1.14-1.02,1.32-.72,2.65.24,2.71,1.68h.01Z"/>
  <ellipse class="cls-1" cx="55.04" cy="72.15" rx=".83" ry=".85"/>
  <path class="cls-1" d="m54.7,73.73c-.1.45-.29.91-.53,1.29-.37.57-1.02.98-1.7.7l.18-.1c.61-.41.31-1.37.97-1.9.28-.22.59-.27.88-.45,0,0,.08.08.1.1.24.21.59.23.84.03.02-.02.12-.13.14-.13.18.14.41.19.62.29.23.12.45.29.58.52.28.5.14,1.22.7,1.55l.15.08c-.69.28-1.37-.14-1.74-.73-.24-.38-.42-.84-.51-1.28-.02.02-.12.06-.12.08s.05.17.07.2c.25.69.78,1.43.53,2.2-.11.32-.46.78-.71,1.01,0,.01-.08.08-.09.08h-.02s-.2-.2-.23-.23c-.36-.4-.69-.86-.63-1.44.07-.64.48-1.21.65-1.82l-.12-.06h-.01Z"/>
  <path class="cls-1" d="m22.66,78.37l3.62-19.07v-.05l-.05-1.6c0-.16.15-.29.34-.29h4.97c.14,0,.27.07.32.18l2.81,6.4c.11.25.52.25.63,0l2.81-6.4c.05-.11.17-.18.32-.18h4.97c.19,0,.34.13.34.29l-.05,1.6v.05l3.62,19.07v.03l1.35,3.9c.06.18-.1.36-.32.36h-7.67c-.19,0-.35-.14-.34-.3l.27-3.96v-.04l-.96-11.09c-.03-.31-.54-.36-.65-.07l-3.32,8.57c-.04.12-.17.19-.32.19h-.71c-.15,0-.27-.08-.32-.19l-3.32-8.57c-.11-.29-.63-.24-.65.07l-.96,11.09v.04l.27,3.96c.01.16-.14.3-.34.3h-7.67c-.22,0-.38-.18-.32-.36l1.35-3.9v-.03h-.02Z"/>
  <rect class="cls-1" x="20.97" y="53.75" width="27.78" height="4.44" rx=".38" ry=".38"/>
  <path class="cls-1" d="m57.13,88.88c-1.02,3.07-3.79,5.42-6.87,3.27-.17-.12-.43-.5-.55-.52-.08,0-.75.43-1.15.47-1.4.15-2.51-.34-3.09-1.67,2.99-.36,2.33-1.65.41-2.99-1.32-.92-5.47-2.85-5.67-4.47-.12-1.04.26-1.58,1-2.21.22-.19.6-.21.63-.53l-.03-.12-.77-3.07h3.52c-1.15.75-1.87,1.84-1.87,3.07,0,.88.38,1.71,1.03,2.36-.19.16-.18.48.12.73.65.55,3.82,1.24,4.87,1.59,1.32.44,3.01.81,3.76,2.12.35.61.44,1.36.88,1.96,1.09,1.5,2.46.63,3.78,0Z"/>
  <path class="cls-1" d="m12.69,88.88c1.02,3.07,3.79,5.42,6.87,3.27.17-.12.43-.5.55-.52.08,0,.75.43,1.15.47,1.4.15,2.51-.34,3.09-1.67-2.99-.36-2.33-1.65-.41-2.99,1.32-.92,5.47-2.85,5.67-4.47.12-1.04-.26-1.58-1-2.21-.22-.19-.6-.21-.63-.53l.03-.12.77-3.07h-3.52c1.15.75,1.87,1.84,1.87,3.07,0,.88-.38,1.71-1.03,2.36.19.16.18.48-.12.73-.65.55-3.82,1.24-4.87,1.59-1.32.44-3.01.81-3.76,2.12-.35.61-.44,1.36-.88,1.96-1.09,1.5-2.46.63-3.78,0Z"/>
  <path class="cls-1" d="m47.65,54.78c.66-2.55,2.24-4.86,4.73-5.79.96-.36,2.26-.4,2.73-1.51l.16-1.12c1.84,1.3,2.05,3.87-.03,5.04.6,1.24-.31,2.84-1.72,2.43-.27-.08.11-.45.16-.67.12-.54-.06-1.36-.68-1.46-1.48-.25-2.54,2.04-3.02,3.18-.6,1.41.39,3.31-1.61,3.31,0,0-.72-3.41-.72-3.41Z"/>
  <path class="cls-1" d="m21.44,58.19c-2,0-1.01-1.9-1.61-3.31-.48-1.14-1.54-3.43-3.02-3.18-.62.1-.81.92-.68,1.46.05.22.43.59.16.67-1.42.4-2.32-1.19-1.72-2.43-2.08-1.17-1.87-3.74-.03-5.04l.16,1.12c.47,1.11,1.78,1.15,2.73,1.51,2.49.93,4.07,3.24,4.73,5.79,0,0-.72,3.41-.72,3.41Z"/>
</svg>