<?xml version="1.0" encoding="utf-8"?>
<!-- Generator: Adobe Illustrator 27.8.1, SVG Export Plug-In . SVG Version: 6.00 Build 0)  -->
<svg version="1.1" id="Layer_2_00000164512790808841338220000017689568369174222239_"
	 xmlns="http://www.w3.org/2000/svg" xmlns:xlink="http://www.w3.org/1999/xlink" x="0px" y="0px" viewBox="0 0 173.4 116.2"
	 style="enable-background:new 0 0 173.4 116.2;" xml:space="preserve">
<style type="text/css">
	.st0{fill:#1F9CED;}
	.st1{fill:none;stroke:#1F9CED;stroke-width:3;stroke-miterlimit:10;}
</style>
<g id="Layer_1-2">
	<path class="st0" d="M90.2,47.5v4.6h-6.4v17.9h-5.2V52.1h-6.4v-4.6H90.2L90.2,47.5z"/>
	<path class="st0" d="M96.9,47.5v13.3c0,3.2,1.2,5.1,4.2,5.1c2.7,0,4.2-1.8,4.2-4.2V47.5h5.2v13.7c0,5.8-3.4,9.2-9.4,9.2
		c-5.3,0-9.5-2.6-9.5-9.6V47.5C91.7,47.5,96.9,47.5,96.9,47.5z"/>
	<path class="st0" d="M122.7,47.4c6.4,0,8.9,2.6,8.9,5.6c0,3.3-2.9,5.5-6.2,6.1v0.1c2.4,0.5,3.7,1.9,4.6,4.5l2.1,6.2h-5.9l-1.6-5
		c-0.9-3-1.9-4-5.3-4H119v9.1h-5.2V47.4L122.7,47.4L122.7,47.4z M122.7,56.5c1.9,0,3.4-0.9,3.4-2.5c0-1.4-1.1-2.1-3.5-2.1H119v4.7
		H122.7L122.7,56.5z"/>
	<path class="st0" d="M139.2,47.5v9.1h0.1l7.3-9.1h6l-7.1,8.2l7.7,14.3h-6.1l-5-10.3l-2.9,3.3v6.9H134V47.5L139.2,47.5L139.2,47.5z"
		/>
	<path class="st0" d="M159.7,47.5v13.3c0,3.2,1.2,5.1,4.1,5.1c2.7,0,4.2-1.8,4.2-4.2V47.5h5.2v13.7c0,5.8-3.4,9.2-9.4,9.2
		c-5.3,0-9.5-2.6-9.5-9.6V47.5C154.5,47.5,159.7,47.5,159.7,47.5z"/>
	<path class="st0" d="M84,80.2l8.1,22.5h-5.9L84.8,98h-7.2l-1.4,4.6h-5.8l8.2-22.5H84L84,80.2z M84.4,76.4c0,1.7-1.4,3.1-3.1,3.1
		s-3.1-1.4-3.1-3.1s1.4-3.1,3.1-3.1S84.4,74.7,84.4,76.4z M78.9,93.8h4.7l-2.3-7.6h-0.1C81.2,86.2,78.9,93.8,78.9,93.8z M81.2,77.8
		c0.8,0,1.4-0.7,1.4-1.4S82,75,81.2,75s-1.4,0.6-1.4,1.4S80.4,77.8,81.2,77.8z"/>
	<path class="st0" d="M104.7,80.2c3.2,0,7.2,1.1,7.2,5.3c0,2.6-1.5,4.2-3.8,5.2v0.1c3.4,0.4,5.4,2.3,5.4,5.2c0,3.9-3.8,6.7-8.4,6.7
		H94.2V80.2H104.7L104.7,80.2z M103.2,88.8c2,0,3.2-0.8,3.2-2.2s-1.2-2-3.3-2h-3.6v4.2H103.2L103.2,88.8z M103.4,98.2
		c2.5,0,4.3-0.9,4.3-2.7c0-1.7-1.7-2.5-3.6-2.5h-4.6v5.2C99.6,98.2,103.4,98.2,103.4,98.2z"/>
	<path class="st0" d="M137.8,91.2c0,6.5-4.6,11.8-11.5,11.8s-11.5-5-11.5-11.6s5.2-11.6,11.2-11.6C133.1,79.8,137.9,85,137.8,91.2
		L137.8,91.2z M126.4,98.5c3.4,0,6-3.2,6-7.2s-2.5-7.2-5.9-7.2s-6.1,3.3-6.1,7.2S122.9,98.5,126.4,98.5L126.4,98.5z"/>
	<path class="st1" d="M63,43.1c-0.1-1-0.5-1.2-1.3-1.5c-1.1-0.4-2.5-0.7-3.8-1c-6.4-1.5-13.1-2.2-19.7-2.4c-0.2,0-0.4-0.1-0.6-0.1
		l-6.4,0c-7.2,0.3-14.5,1-21.5,2.7C9,41,6.7,41.5,6.2,42c-0.4,0.3-0.6,0.8-0.6,1.3c-0.1,7.4,0.1,14.9,0.1,22.4
		c0,7.3-0.1,14.6,0,21.8c0.2,11.8,6.2,17.7,16.7,21.9c3.1,1.2,6.7,2.1,9.6,3.8c0.4,0.3,2.1,1.5,2.4,1.5c0.2,0,2.1-1.3,2.5-1.5
		c2.5-1.4,5.3-2.1,7.9-3.1c9.5-3.6,17.3-9.1,18.1-20.2c0-14.7-0.1-29.4,0.1-44C63,45,63,43.9,63,43.1L63,43.1z"/>
	<path class="st0" d="M68.3,9.6c-0.5-1.2-1.8-2.1-3.1-2.1c-3.7-0.1-6.9,1.2-9.3,3.6c-1.1-1-2.5-1.8-4-2.2C51,8.7,50,8.8,49.2,9.4
		c-0.1,0.1-0.2,0.1-0.3,0.2c0-0.1-0.1-0.1-0.1-0.2c-0.5-0.9-1.4-1.4-2.3-1.6c-1.7-0.3-3.6-0.1-5.3,0.7c-0.6-1.8-1.5-3.6-2.6-5.2
		c-1.5-2.1-2.5-2.9-3.7-3.2c-1.1-0.2-2.3,0.2-3.1,1c-2.1,2.1-3.6,4.7-4.4,7.3c-1.6-0.7-3.4-1-5.1-0.8c-1,0.1-1.9,0.7-2.4,1.5
		c-0.1,0.1-0.1,0.2-0.2,0.4c0,0.1,0,0.1,0,0c-0.8-0.6-1.8-0.8-2.8-0.6c-1.6,0.4-3,1.1-4.2,2.1c-2.4-2.4-5.8-3.7-9.4-3.5
		c-1.3,0.1-2.5,0.9-3,2.1c-0.5,1.2-0.3,2.6,0.6,3.6C2.4,15,3,17.7,3.6,20.4c0.2,1,0.5,2.1,0.8,3.2c0.6,2,1.3,4.1,2,6
		c0.5,1.4,1,2.8,1.4,4.2c0.5,1.4,1.8,2.4,3.3,2.4c0.1,0,0.3,0,0.4,0c1.1-0.1,2.2-0.3,3.2-0.5c1-0.2,1.9-0.3,2.9-0.5
		c12.8-1.7,26.3-1.4,38.9,0.9c1.6,0.3,3.2-0.6,3.8-2.1c0.5-1.2,2.8-7,3.6-10.2c0.3-1.1,0.5-2.2,0.8-3.2c0.6-2.8,1.2-5.5,2.8-7.3
		C68.6,12.3,68.8,10.9,68.3,9.6z M65.2,11.1c-2.9,3.3-3.2,7.8-4.3,11.8C60,26,57.7,32,57.4,32.8c0,0.1-0.1,0.1-0.1,0.1
		c-13.1-2.4-26.8-2.7-40-1c-2.1,0.3-4.1,0.7-6.1,1c-0.1,0-0.1,0-0.1-0.1c-1.1-3.4-2.4-6.7-3.4-10.1c-1.1-4-1.4-8.4-4.2-11.7
		c-0.1-0.1,0-0.2,0.1-0.2c3.4-0.2,6.5,1.3,8.2,4.3c0.2,0.4,0.5,1.3,0.7,1.6c0.1,0.1,0.1,0.2,0.3,0.2c0.5,0,0.5-0.8,0.6-1.1
		c0.8-1.9,2.4-3.3,4.4-3.7c0.1,0,0.1,0,0.2,0.1l0.2,2.6c0.1,2.8-0.8,5.6-3.2,7.2c-1.5,1-3.5,1-2.4,3.4c0.7,1.6,2.8,2.4,4.4,2.3
		c1.4-0.1,3.9-1.4,3.5-3c-0.1-0.5-1-1.1-1.3-1.8c-0.6-1.5,0.5-3.3,2.1-3.5c1.7-0.2,3.2,1.3,2.9,3c-0.2,1.1-1.7,1.2-0.6,2.8
		c1.8,2.4,6.7,2.4,7.9-0.6c0.8-2-1.1-2-2.5-2.6c-4.7-2.1-5.2-6.4-6.3-10.8c0-0.1,0-0.1,0.1-0.2c2.3-0.3,4.6,0.9,6.1,2.6
		c0.2,0.3,0.5,1.1,1,0.9c0.3-0.2,0.1-1.7,0.2-2.1c0.2-3.3,1.9-6.6,4.2-8.9c0,0,0.1-0.1,0.1,0c0.4,0.1,1.4,1.5,1.6,1.8
		c1.5,2.2,2.7,4.9,2.8,7.7c0,0.4-0.2,1.4,0,1.6c0.1,0.1,0.3,0.1,0.4,0.1c0.2-0.1,1-1.3,1.3-1.6c1.4-1.3,3.5-2.2,5.5-1.8
		c0.1,0,0.1,0.1,0.1,0.2c-0.9,2.7-1,5.8-2.8,8.1c-0.9,1.2-2.4,2.2-3.8,2.8c-1.2,0.5-3,0.5-2.2,2.4c1.3,3,6,3.1,8,0.7
		c1.3-1.6-0.7-1.7-0.5-3.4c0.4-3.4,5.4-2.8,5.1,0.6c-0.2,1.6-2.3,1.8-1.2,3.6c1.6,2.8,7.4,2.1,7.9-1.2c0.3-1.7-1-1.8-2.1-2.4
		c-3.7-2.1-4.2-6.3-3.5-10.1c0-0.1,0.1-0.1,0.2-0.1c1.7,0.4,3.3,1.7,4,3.2c0.2,0.3,0.4,1.4,0.5,1.5c0.6,0.6,1-1.1,1.2-1.4
		c1.7-3.1,4.8-4.7,8.3-4.6C65.2,10.9,65.3,11,65.2,11.1z"/>
	<path class="st0" d="M35.1,47.6c0.2-0.8,0.5-1.6,0.9-2.2c0.7-1,1.8-1.7,3-1.2l-0.3,0.2c-1.1,0.7-0.5,2.4-1.7,3.3
		c-0.5,0.4-1,0.5-1.5,0.8c0,0-0.1-0.1-0.2-0.2c-0.4-0.4-1-0.4-1.5,0c0,0-0.2,0.2-0.2,0.2c-0.3-0.2-0.7-0.3-1.1-0.5
		c-0.4-0.2-0.8-0.5-1-0.9c-0.5-0.9-0.2-2.1-1.2-2.7L30,44.2c1.2-0.5,2.4,0.2,3.1,1.2c0.4,0.7,0.7,1.4,0.9,2.2c0,0,0.2-0.1,0.2-0.1
		S34,47.2,34,47.2c-0.4-1.2-1.4-2.5-0.9-3.8c0.2-0.5,0.8-1.3,1.2-1.7c0,0,0.2-0.1,0.2-0.1c0,0,0,0,0,0c0,0,0.3,0.3,0.4,0.4
		c0.6,0.7,1.2,1.5,1.1,2.5c-0.1,1.1-0.8,2.1-1.2,3.1C34.9,47.5,35.1,47.6,35.1,47.6z"/>
	<path class="st0" d="M33.6,49.9c-0.1,0-0.2,0.1-0.4,0.1c-0.6,0.2-1.1,0-1.6-0.2s-0.9-0.6-1.5-0.5c-0.2,0-0.5,0.2-0.6,0.4
		c0.1-1.5,1.4-2.4,2.8-1.7c0.2,0.1,1,0.7,1.1,1c0,0,0,0.1,0,0.2c0,0.2,0.1,0.4,0.1,0.5C33.5,49.7,33.6,49.8,33.6,49.9L33.6,49.9z"/>
	<path class="st0" d="M39.5,49.6c-0.3-0.3-0.7-0.4-1.1-0.3c-0.3,0.1-0.5,0.2-0.7,0.4c-0.7,0.4-1.5,0.6-2.3,0.2
		c0.1-0.2,0.2-0.4,0.2-0.7c0-0.1,0-0.2,0-0.2c0.1-0.3,0.9-0.8,1.1-1C38.1,47.3,39.5,48.2,39.5,49.6L39.5,49.6z"/>
	<circle class="st0" cx="34.5" cy="49.1" r="0.8"/>
	<path class="st0" d="M34.2,50.7c-0.1,0.4-0.3,0.9-0.5,1.3c-0.4,0.6-1,1-1.7,0.7l0.2-0.1c0.6-0.4,0.3-1.3,1-1.9
		c0.3-0.2,0.6-0.3,0.9-0.4c0,0,0.1,0.1,0.1,0.1c0.2,0.2,0.6,0.2,0.8,0c0,0,0.1-0.1,0.1-0.1c0.2,0.1,0.4,0.2,0.6,0.3
		c0.2,0.1,0.5,0.3,0.6,0.5c0.3,0.5,0.1,1.2,0.7,1.5l0.2,0.1c-0.7,0.3-1.4-0.1-1.7-0.7c-0.2-0.4-0.4-0.8-0.5-1.3c0,0-0.1,0-0.1,0.1
		s0,0.2,0.1,0.2c0.2,0.7,0.8,1.4,0.5,2.2c-0.1,0.3-0.5,0.8-0.7,1c0,0-0.1,0.1-0.1,0.1s0,0,0,0c0,0-0.2-0.2-0.2-0.2
		c-0.4-0.4-0.7-0.8-0.6-1.4c0.1-0.6,0.5-1.2,0.7-1.8L34.2,50.7L34.2,50.7z"/>
	<path class="st0" d="M35.1,100.6c0.2-0.8,0.5-1.6,0.9-2.2c0.7-1,1.8-1.7,3-1.2l-0.3,0.2c-1.1,0.7-0.5,2.4-1.7,3.3
		c-0.5,0.4-1,0.5-1.5,0.8c0,0-0.1-0.1-0.2-0.2c-0.4-0.4-1-0.4-1.5-0.1c0,0-0.2,0.2-0.2,0.2c-0.3-0.2-0.7-0.3-1.1-0.5
		c-0.4-0.2-0.8-0.5-1-0.9c-0.5-0.9-0.2-2.1-1.2-2.7L30,97.2c1.2-0.5,2.4,0.2,3.1,1.2c0.4,0.7,0.7,1.4,0.9,2.2c0,0,0.2-0.1,0.2-0.1
		s-0.1-0.3-0.1-0.3c-0.4-1.2-1.4-2.5-0.9-3.8c0.2-0.6,0.8-1.3,1.2-1.7c0,0,0.2-0.1,0.2-0.1c0,0,0,0,0,0c0,0,0.3,0.3,0.4,0.4
		c0.6,0.7,1.2,1.5,1.1,2.5c-0.1,1.1-0.8,2.1-1.2,3.1C34.9,100.5,35.1,100.6,35.1,100.6z"/>
	<path class="st0" d="M33.6,102.9c-0.1,0.1-0.2,0.1-0.4,0.1c-0.6,0.2-1.1,0-1.6-0.2s-0.9-0.6-1.5-0.5c-0.2,0-0.5,0.2-0.6,0.4
		c0.1-1.4,1.4-2.4,2.8-1.7c0.2,0.1,1,0.7,1.1,1c0,0,0,0.1,0,0.2c0,0.2,0.1,0.4,0.1,0.5C33.5,102.7,33.6,102.9,33.6,102.9L33.6,102.9
		z"/>
	<path class="st0" d="M39.5,102.6c-0.3-0.3-0.7-0.4-1.1-0.3c-0.3,0.1-0.5,0.2-0.7,0.4c-0.7,0.4-1.5,0.6-2.3,0.2
		c0.1-0.2,0.2-0.4,0.2-0.7c0-0.1,0-0.2,0-0.2c0.1-0.3,0.9-0.8,1.1-1C38.1,100.3,39.5,101.2,39.5,102.6L39.5,102.6z"/>
	<circle class="st0" cx="34.5" cy="102.1" r="0.8"/>
	<path class="st0" d="M34.2,103.7c-0.1,0.4-0.3,0.9-0.5,1.3c-0.4,0.6-1,1-1.7,0.7l0.2-0.1c0.6-0.4,0.3-1.3,1-1.9
		c0.3-0.2,0.6-0.3,0.9-0.4c0,0,0.1,0.1,0.1,0.1c0.2,0.2,0.6,0.2,0.8,0c0,0,0.1-0.1,0.1-0.1c0.2,0.1,0.4,0.2,0.6,0.3
		c0.2,0.1,0.5,0.3,0.6,0.5c0.3,0.5,0.1,1.2,0.7,1.5l0.2,0.1c-0.7,0.3-1.4-0.1-1.7-0.7c-0.2-0.4-0.4-0.8-0.5-1.3c0,0-0.1,0.1-0.1,0.1
		s0,0.2,0.1,0.2c0.2,0.7,0.8,1.4,0.5,2.2c-0.1,0.3-0.5,0.8-0.7,1c0,0-0.1,0.1-0.1,0.1s0,0,0,0c0,0-0.2-0.2-0.2-0.2
		c-0.4-0.4-0.7-0.8-0.6-1.4c0.1-0.6,0.5-1.2,0.7-1.8L34.2,103.7L34.2,103.7z"/>
	<path class="st0" d="M15.1,72.2c0.2-0.8,0.5-1.6,0.9-2.2c0.6-1,1.8-1.7,3-1.2l-0.3,0.2c-1.1,0.7-0.5,2.4-1.7,3.3
		c-0.5,0.4-1.1,0.5-1.6,0.8c0,0-0.1-0.1-0.2-0.2c-0.4-0.4-1-0.4-1.5-0.1c0,0-0.2,0.2-0.2,0.2c-0.3-0.2-0.7-0.3-1.1-0.5
		c-0.4-0.2-0.8-0.5-1-0.9c-0.5-0.9-0.2-2.1-1.2-2.7L10,68.8c1.2-0.5,2.4,0.2,3.1,1.2c0.4,0.7,0.7,1.4,0.9,2.2c0,0,0.2-0.1,0.2-0.1
		s-0.1-0.3-0.1-0.3c-0.4-1.2-1.4-2.5-0.9-3.8c0.2-0.6,0.8-1.3,1.2-1.7c0,0,0.1-0.1,0.2-0.1c0,0,0,0,0,0c0,0,0.3,0.3,0.4,0.4
		c0.6,0.7,1.2,1.5,1.1,2.5c-0.1,1.1-0.9,2.1-1.1,3.1C14.9,72.1,15.1,72.2,15.1,72.2z"/>
	<path class="st0" d="M13.6,74.5c-0.1,0.1-0.2,0.1-0.4,0.1c-0.6,0.2-1.1,0-1.6-0.2s-0.9-0.6-1.5-0.5c-0.2,0-0.4,0.2-0.6,0.4
		c0.1-1.4,1.4-2.4,2.8-1.7c0.2,0.1,1.1,0.7,1.1,1c0,0,0,0.1,0,0.2c0,0.2,0.1,0.4,0.1,0.5C13.5,74.3,13.6,74.5,13.6,74.5L13.6,74.5z"
		/>
	<path class="st0" d="M19.5,74.2c-0.3-0.3-0.7-0.4-1.1-0.3c-0.3,0.1-0.5,0.2-0.7,0.4c-0.7,0.4-1.5,0.6-2.3,0.2
		c0.1-0.2,0.2-0.4,0.2-0.7c0-0.1,0-0.2,0-0.2c0.1-0.3,0.9-0.8,1.1-1C18.1,71.9,19.5,72.8,19.5,74.2L19.5,74.2z"/>
	<circle class="st0" cx="14.5" cy="73.7" r="0.8"/>
	<path class="st0" d="M14.2,75.2c-0.1,0.4-0.3,0.9-0.5,1.3c-0.4,0.6-1,1-1.7,0.7l0.2-0.1c0.6-0.4,0.3-1.3,1-1.9
		c0.3-0.2,0.6-0.3,0.9-0.4c0,0,0.1,0.1,0.1,0.1c0.2,0.2,0.6,0.2,0.8,0c0,0,0.1-0.1,0.1-0.1c0.2,0.1,0.4,0.2,0.6,0.3
		c0.2,0.1,0.4,0.3,0.6,0.5c0.3,0.5,0.1,1.2,0.7,1.5l0.1,0.1c-0.7,0.3-1.4-0.1-1.7-0.7c-0.2-0.4-0.4-0.8-0.5-1.3c0,0-0.1,0.1-0.1,0.1
		s0.1,0.2,0.1,0.2c0.2,0.7,0.8,1.4,0.5,2.2c-0.1,0.3-0.5,0.8-0.7,1c0,0-0.1,0.1-0.1,0.1s0,0,0,0c0,0-0.2-0.2-0.2-0.2
		c-0.4-0.4-0.7-0.8-0.6-1.4c0.1-0.6,0.5-1.2,0.6-1.8L14.2,75.2L14.2,75.2z"/>
	<path class="st0" d="M55.1,72.2c0.2-0.8,0.5-1.6,0.9-2.2c0.7-1,1.8-1.7,3-1.2l-0.3,0.2c-1.1,0.7-0.5,2.4-1.7,3.3
		c-0.5,0.4-1,0.5-1.5,0.8c0,0-0.1-0.1-0.2-0.2c-0.4-0.4-1-0.4-1.5-0.1c0,0-0.2,0.2-0.2,0.2c-0.3-0.2-0.7-0.3-1.1-0.5
		c-0.4-0.2-0.8-0.5-1-0.9c-0.5-0.9-0.2-2.1-1.2-2.7L50,68.8c1.2-0.5,2.4,0.2,3.1,1.2c0.4,0.7,0.7,1.4,0.9,2.2c0,0,0.2-0.1,0.2-0.1
		s-0.1-0.3-0.1-0.3c-0.4-1.2-1.4-2.5-0.9-3.8c0.2-0.6,0.8-1.3,1.2-1.7c0,0,0.2-0.1,0.2-0.1c0,0,0,0,0,0c0,0,0.3,0.3,0.4,0.4
		c0.6,0.7,1.2,1.5,1.1,2.5c-0.1,1.1-0.8,2.1-1.2,3.1C54.9,72.1,55.1,72.2,55.1,72.2z"/>
	<path class="st0" d="M53.6,74.5c-0.1,0.1-0.2,0.1-0.4,0.1c-0.6,0.2-1.1,0-1.6-0.2s-0.9-0.6-1.5-0.5c-0.2,0-0.5,0.2-0.6,0.4
		c0.1-1.4,1.4-2.4,2.8-1.7c0.2,0.1,1,0.7,1.1,1c0,0,0,0.1,0,0.2c0,0.2,0.1,0.4,0.1,0.5C53.5,74.3,53.6,74.5,53.6,74.5L53.6,74.5z"/>
	<path class="st0" d="M59.5,74.2c-0.3-0.3-0.7-0.4-1.1-0.3c-0.3,0.1-0.5,0.2-0.7,0.4c-0.7,0.4-1.5,0.6-2.3,0.2
		c0.1-0.2,0.2-0.4,0.2-0.7c0-0.1,0-0.2,0-0.2c0.1-0.3,0.9-0.8,1.1-1C58.1,71.9,59.5,72.8,59.5,74.2L59.5,74.2z"/>
	<circle class="st0" cx="54.5" cy="73.7" r="0.8"/>
	<path class="st0" d="M54.2,75.2c-0.1,0.4-0.3,0.9-0.5,1.3c-0.4,0.6-1,1-1.7,0.7l0.2-0.1c0.6-0.4,0.3-1.3,1-1.9
		c0.3-0.2,0.6-0.3,0.9-0.4c0,0,0.1,0.1,0.1,0.1c0.2,0.2,0.6,0.2,0.8,0c0,0,0.1-0.1,0.1-0.1c0.2,0.1,0.4,0.2,0.6,0.3
		c0.2,0.1,0.5,0.3,0.6,0.5c0.3,0.5,0.1,1.2,0.7,1.5l0.2,0.1c-0.7,0.3-1.4-0.1-1.7-0.7c-0.2-0.4-0.4-0.8-0.5-1.3c0,0-0.1,0.1-0.1,0.1
		s0,0.2,0.1,0.2c0.2,0.7,0.8,1.4,0.5,2.2c-0.1,0.3-0.5,0.8-0.7,1c0,0-0.1,0.1-0.1,0.1s0,0,0,0c0,0-0.2-0.2-0.2-0.2
		c-0.4-0.4-0.7-0.8-0.6-1.4c0.1-0.6,0.5-1.2,0.7-1.8L54.2,75.2L54.2,75.2z"/>
	<path class="st0" d="M22.1,79.8l3.6-18.7c0,0,0,0,0,0l0-1.6c0-0.2,0.1-0.3,0.3-0.3h5c0.1,0,0.3,0.1,0.3,0.2l2.8,6.3
		c0.1,0.2,0.5,0.2,0.6,0l2.8-6.3c0-0.1,0.2-0.2,0.3-0.2h5c0.2,0,0.3,0.1,0.3,0.3l0,1.6c0,0,0,0,0,0l3.6,18.7c0,0,0,0,0,0l1.3,3.8
		c0.1,0.2-0.1,0.3-0.3,0.3h-7.7c-0.2,0-0.3-0.1-0.3-0.3l0.3-3.9c0,0,0,0,0,0l-1-10.8c0-0.3-0.5-0.3-0.7-0.1l-3.3,8.4
		c0,0.1-0.2,0.2-0.3,0.2h-0.7c-0.2,0-0.3-0.1-0.3-0.2l-3.3-8.4c-0.1-0.3-0.6-0.2-0.6,0.1l-1,10.8c0,0,0,0,0,0l0.3,3.9
		c0,0.2-0.1,0.3-0.3,0.3h-7.7c-0.2,0-0.4-0.2-0.3-0.3L22.1,79.8C22.2,79.8,22.2,79.8,22.1,79.8L22.1,79.8z"/>
	<path class="st0" d="M20.8,55.7h27c0.2,0,0.4,0.2,0.4,0.4v3.6c0,0.2-0.2,0.4-0.4,0.4h-27c-0.2,0-0.4-0.2-0.4-0.4v-3.6
		C20.5,55.9,20.6,55.7,20.8,55.7z"/>
	<path class="st0" d="M56.6,90.1c-1,3-3.8,5.3-6.9,3.2c-0.2-0.1-0.4-0.5-0.5-0.5c-0.1,0-0.8,0.4-1.2,0.5c-1.4,0.2-2.5-0.3-3.1-1.6
		c3-0.3,2.3-1.6,0.4-2.9c-1.3-0.9-5.5-2.8-5.7-4.4c-0.1-1,0.3-1.5,1-2.2c0.2-0.2,0.6-0.2,0.6-0.5l0-0.1l-0.8-3H44
		c-1.2,0.7-1.9,1.8-1.9,3c0,0.9,0.4,1.7,1,2.3C43,84,43,84.3,43.3,84.5c0.7,0.5,3.8,1.2,4.9,1.6c1.3,0.4,3,0.8,3.8,2.1
		c0.3,0.6,0.4,1.3,0.9,1.9C53.9,91.5,55.3,90.7,56.6,90.1z"/>
	<path class="st0" d="M12.2,90.1c1,3,3.8,5.3,6.9,3.2c0.2-0.1,0.4-0.5,0.5-0.5c0.1,0,0.8,0.4,1.1,0.5c1.4,0.2,2.5-0.3,3.1-1.6
		c-3-0.3-2.3-1.6-0.4-2.9c1.3-0.9,5.5-2.8,5.7-4.4c0.1-1-0.3-1.5-1-2.2c-0.2-0.2-0.6-0.2-0.6-0.5l0-0.1l0.8-3h-3.5
		c1.1,0.7,1.9,1.8,1.9,3c0,0.9-0.4,1.7-1,2.3c0.2,0.2,0.2,0.5-0.1,0.7c-0.6,0.5-3.8,1.2-4.9,1.6c-1.3,0.4-3,0.8-3.8,2.1
		c-0.4,0.6-0.4,1.3-0.9,1.9C14.9,91.5,13.5,90.7,12.2,90.1z"/>
	<path class="st0" d="M47.1,56.7c0.7-2.5,2.2-4.8,4.7-5.7c1-0.3,2.3-0.4,2.7-1.5l0.2-1.1c1.8,1.3,2,3.8,0,4.9
		c0.6,1.2-0.3,2.8-1.7,2.4c-0.3-0.1,0.1-0.4,0.2-0.7c0.1-0.5-0.1-1.3-0.7-1.4c-1.5-0.2-2.5,2-3,3.1c-0.6,1.4,0.4,3.2-1.6,3.2
		L47.1,56.7L47.1,56.7z"/>
	<path class="st0" d="M20.9,60c-2,0-1-1.9-1.6-3.2c-0.5-1.1-1.5-3.3-3-3.1c-0.6,0.1-0.8,0.9-0.7,1.4c0.1,0.2,0.4,0.6,0.2,0.7
		c-1.4,0.4-2.3-1.2-1.7-2.4c-2.1-1.1-1.9-3.7,0-4.9l0.2,1.1c0.5,1.1,1.8,1.1,2.7,1.5c2.5,0.9,4.1,3.2,4.7,5.7L20.9,60L20.9,60z"/>
</g>
</svg>
