<?xml version="1.0" encoding="UTF-8"?>
<svg id="Layer_1" data-name="Layer 1" xmlns="http://www.w3.org/2000/svg" viewBox="0 0 432.86 733.59">
  <defs>
    <style>
      .cls-1 {
        fill: none;
        stroke: #1f9ced;
        stroke-miterlimit: 63.16;
        stroke-width: 18.95px;
      }

      .cls-2 {
        fill-rule: evenodd;
      }

      .cls-2, .cls-3 {
        fill: #1f9ced;
        stroke-width: 0px;
      }
    </style>
  </defs>
  <g id="Layer_1-2" data-name="Layer 1-2">
    <path class="cls-1" d="m397.7,272.3c-.57-6.19-2.97-7.64-8.34-9.54-7.2-2.65-16.1-4.61-23.68-6.32-40.67-9.22-82.92-13.64-124.61-14.9-1.2-.06-2.34-.57-3.54-.57l-40.1.19c-45.53,2.02-91.45,6.32-135.85,16.86-4.86,1.2-19.26,4.36-22.61,6.88-2.65,1.96-3.73,5.18-3.79,8.34-.76,46.86.51,94.16.51,141.15-.06,45.85-.76,92.08,0,137.93,1.26,74.52,38.97,112.04,105.22,138.12,19.89,7.83,42.5,13.39,60.88,24.13,2.78,1.64,13.33,9.54,15.41,9.54,1.45,0,13.01-8.21,15.66-9.73,15.6-8.65,33.22-13.01,49.83-19.39,60.06-22.86,109.38-57.53,114.5-127.38.25-92.96-.57-185.49.51-277.95.06-5.43.44-12.19,0-17.37Z"/>
    <path class="cls-3" d="m431.1,60.79c-3.35-7.77-11.05-12.95-19.51-13.14-23.18-.44-43.83,7.64-58.54,22.55-7.2-6.38-15.98-11.3-25.07-13.7-5.81-1.52-12.13-.63-17.24,2.59-.57.38-1.2.76-1.71,1.2-.25-.44-.51-.88-.76-1.33-3.22-5.37-8.59-9.09-14.65-10.23-10.99-2.08-22.8-.51-33.72,4.23-3.66-11.37-9.28-22.55-16.55-32.71-9.54-13.45-15.54-18.44-23.62-19.89-7.2-1.33-14.46,1.14-19.39,6.38-13.01,13.39-22.55,29.56-27.79,46.29-10.29-4.48-21.35-6.19-32.02-4.74-6.13.88-11.68,4.29-15.16,9.41-.51.76-.95,1.52-1.33,2.27q82.69,40-.13-.06c-5.12-3.66-11.49-4.99-17.68-3.54-9.85,2.27-18.88,7.01-26.27,13.58-15.03-15.28-36.38-23.56-59.37-22.29-8.34.38-15.6,5.49-18.88,13.2-3.22,7.58-1.83,16.55,3.6,22.8,9.85,11.3,13.58,27.91,17.56,45.47,1.45,6.57,3.03,13.45,4.93,20.21,3.66,12.95,8.15,25.7,12.57,38.02,3.16,9.03,6.19,17.62,8.97,26.4,2.97,9.09,11.43,15.03,20.71,15.03.95,0,1.89-.06,2.84-.19,6.82-.88,13.58-2.02,20.34-3.16,6.13-1.01,12.25-2.08,18.44-2.91,81.09-10.67,166.1-8.59,245.74,5.87,10.29,1.89,20.46-3.66,24.31-13.39,2.84-7.26,17.37-44.46,22.99-64.67,1.89-6.82,3.35-13.7,4.8-20.34,3.92-17.81,7.58-34.61,17.75-45.91,5.68-6.32,7.2-15.47,3.85-23.3Zm-19.39,9.22c-18.5,20.59-20.21,49.26-27.22,74.78-5.43,19.58-20.34,57.47-22.29,62.52-.19.38-.51.57-.88.44-82.54-14.97-169.19-16.93-252.37-6-13.01,1.71-25.77,4.36-38.78,6.06-.38.06-.76-.19-.88-.57-6.63-21.16-15.28-42.31-21.28-63.6-7.07-25.14-9.09-53.37-26.84-73.77-.44-.51-.13-1.26.51-1.33,21.28-1.14,41.11,8.34,51.72,27.16,1.52,2.78,3.09,8.08,4.48,10.1.44.63.82,1.14,1.71,1.2,3.16.32,3.16-4.8,3.92-6.76,4.86-11.94,14.97-20.59,27.54-23.49.44-.13.95.25,1.01.76l1.58,16.23c.57,17.87-4.74,35.05-20.08,45.28-9.28,6.13-21.98,6.38-15.35,21.73,4.36,9.98,17.43,15.22,27.85,14.4,8.84-.63,24.38-8.53,22.1-19.26-.63-3.28-6.44-7.26-8.02-11.18-3.66-9.16,3.28-20.71,13.01-21.91,10.67-1.26,19.96,8.08,18.13,18.69-1.2,7.07-10.8,7.89-3.54,17.37,11.62,15.03,42.44,14.84,50.21-3.98,5.18-12.76-7.07-12.44-15.73-16.42-29.43-13.45-32.59-40.1-39.6-68.33-.13-.44.25-.95.69-1.07,14.53-2.02,29.24,5.49,38.52,16.23,1.39,1.64,3.47,7.07,6.19,5.68,2.02-1.07.95-10.99,1.14-13.58,1.33-20.78,12-41.37,26.21-56.08.19-.19.38-.38.63-.32,2.27.38,9.03,9.66,10.29,11.43,9.73,13.7,17.05,31.26,17.56,48.31.06,2.27-1.01,8.59.13,9.79.63.63,1.83.76,2.65.44,1.14-.51,6.5-8.34,8.46-10.17,8.97-8.4,22.36-13.83,34.61-11.49.51.06.76.63.63,1.07-5.68,17.18-6.32,36.38-17.49,51.22-5.81,7.7-15.03,14.08-23.94,17.81-7.77,3.16-19.01,3.16-13.96,15.09,8.15,19.26,37.83,19.45,50.33,4.36,8.34-10.1-4.29-10.8-2.97-21.6,2.65-21.28,34.1-17.75,31.96,3.79-1.07,10.29-14.72,11.12-7.77,23.05,10.23,17.49,46.67,13.07,49.96-7.39,1.71-10.93-6.06-11.24-13.2-15.22-23.62-13.2-26.59-39.72-21.79-64.04.06-.51.57-.82,1.01-.69,10.42,2.72,20.84,10.86,25.51,20.46.95,1.96,2.59,8.59,3.22,9.22,3.6,3.66,6.32-6.63,7.52-8.84,10.48-19.83,30.38-29.49,52.42-28.99.69,0,1.01.88.57,1.39Z"/>
    <path class="cls-3" d="m221.68,300.66c1.14-4.86,3.16-9.85,5.94-14.02,4.11-6.19,11.37-10.67,18.88-7.58l-1.96,1.07c-6.69,4.42-3.41,14.9-10.74,20.59-3.09,2.4-6.63,2.91-9.79,4.93-.13,0-.88-.88-1.14-1.14-2.65-2.27-6.5-2.46-9.28-.32-.25.19-1.33,1.45-1.52,1.39-2.02-1.52-4.61-2.02-6.88-3.16-2.53-1.26-4.99-3.16-6.44-5.68-3.09-5.43-1.58-13.26-7.7-16.86l-1.71-.82c7.64-3.03,15.16,1.52,19.33,7.89,2.72,4.17,4.61,9.09,5.62,13.96.25-.25,1.33-.63,1.33-.88s-.57-1.77-.76-2.21c-2.72-7.52-8.65-15.54-5.81-23.94,1.2-3.47,5.12-8.53,7.83-10.93.13-.13.95-.82,1.01-.88h.25c.25.13,2.15,2.15,2.53,2.53,4.04,4.36,7.64,9.35,6.95,15.6-.76,6.95-5.37,13.14-7.26,19.77l1.33.69Z"/>
    <path class="cls-3" d="m212.15,314.93c-.76.32-1.58.69-2.4.88-3.54.95-6.95.19-10.17-1.26s-5.68-4.04-9.6-3.35c-1.52.25-2.84,1.2-3.85,2.34.38-9.16,8.97-15.03,17.43-10.42,1.52.82,6.63,4.61,7.01,6.19,0,.19-.13.69-.06,1.07.13,1.07.38,2.27.82,3.22.13.19.82,1.2.76,1.26l.06.06Z"/>
    <path class="cls-3" d="m249.66,313.48c-1.77-2.08-4.29-2.78-6.95-2.08-1.64.44-2.97,1.52-4.42,2.27-4.55,2.4-9.6,3.79-14.46,1.26.76-1.39,1.26-2.53,1.45-4.17,0-.44-.06-1.01,0-1.45.44-1.77,5.49-5.37,7.2-6.32,8.34-4.48,16.74,1.45,17.12,10.42l.06.06Z"/>
    <circle class="cls-3" cx="217.96" cy="310.13" r="5.24"/>
    <path class="cls-3" d="m215.87,319.86c-.63,2.78-1.83,5.62-3.35,7.96-2.34,3.54-6.44,6.06-10.74,4.29l1.14-.63c3.85-2.53,1.96-8.46,6.13-11.75,1.77-1.33,3.73-1.64,5.56-2.78.06,0,.51.51.63.63,1.52,1.33,3.73,1.39,5.31.19.13-.13.76-.82.88-.82,1.14.88,2.59,1.14,3.92,1.77,1.45.76,2.84,1.83,3.66,3.22,1.77,3.09.88,7.58,4.42,9.6l.95.51c-4.36,1.71-8.65-.88-10.99-4.48-1.52-2.34-2.65-5.18-3.22-7.96-.13.13-.76.32-.76.51s.32,1.01.44,1.26c1.58,4.23,4.93,8.84,3.35,13.58-.69,1.96-2.91,4.86-4.48,6.25-.06.06-.51.51-.57.51h-.13c-.19-.06-1.26-1.2-1.45-1.45-2.27-2.46-4.36-5.31-3.98-8.9.44-3.98,3.03-7.45,4.11-11.24l-.76-.38-.06.13Z"/>
    <path class="cls-3" d="m221.68,635.38c1.14-4.86,3.16-9.85,5.94-14.02,4.11-6.19,11.37-10.67,18.88-7.58l-1.96,1.07c-6.69,4.42-3.41,14.9-10.74,20.59-3.09,2.4-6.63,2.91-9.79,4.93-.13,0-.88-.88-1.14-1.14-2.65-2.27-6.5-2.46-9.28-.32-.25.19-1.33,1.45-1.52,1.39-2.02-1.52-4.61-2.02-6.88-3.16-2.53-1.26-4.99-3.16-6.44-5.68-3.09-5.43-1.58-13.26-7.7-16.86l-1.71-.82c7.64-3.03,15.16,1.52,19.33,7.89,2.72,4.17,4.61,9.09,5.62,13.96.25-.25,1.33-.63,1.33-.88s-.57-1.77-.76-2.21c-2.72-7.52-8.65-15.54-5.81-23.94,1.2-3.47,5.12-8.53,7.83-10.93.13-.13.95-.82,1.01-.88h.25c.25.13,2.15,2.15,2.53,2.53,4.04,4.36,7.64,9.35,6.95,15.6-.76,6.95-5.37,13.14-7.26,19.77l1.33.69Z"/>
    <path class="cls-3" d="m212.15,649.65c-.76.32-1.58.69-2.4.88-3.54.95-6.95.19-10.17-1.26-3.22-1.45-5.68-4.04-9.6-3.35-1.52.25-2.84,1.2-3.85,2.34.38-9.16,8.97-15.03,17.43-10.42,1.52.82,6.63,4.61,7.01,6.19,0,.19-.13.69-.06,1.07.13,1.07.38,2.27.82,3.22.13.19.82,1.2.76,1.26l.06.06Z"/>
    <path class="cls-3" d="m249.66,648.2c-1.77-2.08-4.29-2.78-6.95-2.08-1.64.44-2.97,1.52-4.42,2.27-4.55,2.4-9.6,3.79-14.46,1.26.76-1.39,1.26-2.53,1.45-4.17,0-.44-.06-1.01,0-1.45.44-1.77,5.49-5.37,7.2-6.32,8.34-4.48,16.74,1.45,17.12,10.42l.06.06Z"/>
    <circle class="cls-3" cx="217.96" cy="644.85" r="5.24"/>
    <path class="cls-3" d="m215.87,654.58c-.63,2.78-1.83,5.62-3.35,7.96-2.34,3.54-6.44,6.06-10.74,4.29l1.14-.63c3.85-2.53,1.96-8.46,6.13-11.75,1.77-1.33,3.73-1.64,5.56-2.78.06,0,.51.51.63.63,1.52,1.33,3.73,1.39,5.31.19.13-.13.76-.82.88-.82,1.14.88,2.59,1.14,3.92,1.77,1.45.76,2.84,1.83,3.66,3.22,1.77,3.09.88,7.58,4.42,9.6l.95.51c-4.36,1.71-8.65-.88-10.99-4.48-1.52-2.34-2.65-5.18-3.22-7.96-.13.13-.76.32-.76.51s.32,1.01.44,1.26c1.58,4.23,4.93,8.84,3.35,13.58-.69,1.96-2.91,4.86-4.48,6.25-.06.06-.51.51-.57.51h-.13c-.19-.06-1.26-1.2-1.45-1.45-2.27-2.46-4.36-5.31-3.98-8.9.44-3.98,3.03-7.45,4.11-11.24l-.76-.38-.06.13Z"/>
    <path class="cls-3" d="m95.43,455.96c1.14-4.86,3.16-9.85,5.94-14.02,4.11-6.19,11.37-10.67,18.88-7.58l-1.96,1.07c-6.69,4.42-3.41,14.9-10.74,20.59-3.09,2.4-6.63,2.91-9.79,4.93-.13,0-.88-.88-1.14-1.14-2.65-2.27-6.5-2.46-9.28-.32-.25.19-1.33,1.45-1.52,1.39-2.02-1.52-4.61-2.02-6.88-3.16-2.53-1.26-4.99-3.16-6.44-5.68-3.09-5.43-1.58-13.26-7.7-16.86l-1.71-.82c7.64-3.03,15.16,1.52,19.33,7.89,2.72,4.17,4.61,9.09,5.62,13.96.25-.25,1.33-.63,1.33-.88s-.57-1.77-.76-2.21c-2.72-7.52-8.65-15.54-5.81-23.94,1.2-3.47,5.12-8.53,7.83-10.93.13-.13.95-.82,1.01-.88h.25c.25.13,2.15,2.15,2.53,2.53,4.04,4.36,7.64,9.35,6.95,15.6-.76,6.95-5.37,13.14-7.26,19.77l1.33.69Z"/>
    <path class="cls-3" d="m85.96,470.29c-.76.32-1.58.69-2.4.88-3.54.95-6.95.19-10.17-1.26-3.22-1.45-5.68-4.04-9.6-3.35-1.52.25-2.84,1.2-3.85,2.34.38-9.16,8.97-15.03,17.43-10.42,1.52.82,6.63,4.61,7.01,6.19,0,.19-.13.69-.06,1.07.13,1.07.38,2.27.82,3.22.13.19.82,1.2.76,1.26l.06.06Z"/>
    <path class="cls-3" d="m123.48,468.78c-1.77-2.08-4.29-2.78-6.95-2.08-1.64.44-2.97,1.52-4.42,2.27-4.55,2.4-9.6,3.79-14.46,1.26.76-1.39,1.26-2.53,1.45-4.17,0-.44-.06-1.01,0-1.45.44-1.77,5.49-5.37,7.2-6.32,8.34-4.48,16.74,1.45,17.12,10.42l.06.06Z"/>
    <circle class="cls-3" cx="91.77" cy="465.43" r="5.24"/>
    <path class="cls-3" d="m89.69,475.22c-.63,2.78-1.83,5.62-3.35,7.96-2.34,3.54-6.44,6.06-10.74,4.29l1.14-.63c3.85-2.53,1.96-8.46,6.13-11.75,1.77-1.33,3.73-1.64,5.56-2.78.06,0,.51.51.63.63,1.52,1.33,3.73,1.39,5.31.19.13-.13.76-.82.88-.82,1.14.88,2.59,1.14,3.92,1.77,1.45.76,2.84,1.83,3.66,3.22,1.77,3.09.88,7.58,4.42,9.6l.95.51c-4.36,1.71-8.65-.88-10.99-4.48-1.52-2.34-2.65-5.18-3.22-7.96-.13.13-.76.32-.76.51s.32,1.01.44,1.26c1.58,4.23,4.93,8.84,3.35,13.58-.69,1.96-2.91,4.86-4.48,6.25-.06.06-.51.51-.57.51h-.13c-.19-.06-1.26-1.2-1.45-1.45-2.27-2.46-4.36-5.31-3.98-8.9.44-3.98,3.03-7.45,4.11-11.24l-.76-.38-.06.13Z"/>
    <path class="cls-3" d="m348.06,455.96c1.14-4.86,3.16-9.85,5.94-14.02,4.11-6.19,11.37-10.67,18.88-7.58l-1.96,1.07c-6.69,4.42-3.41,14.9-10.74,20.59-3.09,2.4-6.63,2.91-9.79,4.93-.13,0-.88-.88-1.14-1.14-2.65-2.27-6.5-2.46-9.28-.32-.25.19-1.33,1.45-1.52,1.39-2.02-1.52-4.61-2.02-6.88-3.16-2.53-1.26-4.99-3.16-6.44-5.68-3.09-5.43-1.58-13.26-7.7-16.86l-1.71-.82c7.64-3.03,15.16,1.52,19.33,7.89,2.72,4.17,4.61,9.09,5.62,13.96.25-.25,1.33-.63,1.33-.88s-.57-1.77-.76-2.21c-2.72-7.52-8.65-15.54-5.81-23.94,1.2-3.47,5.12-8.53,7.83-10.93.13-.13.95-.82,1.01-.88h.25c.25.13,2.15,2.15,2.53,2.53,4.04,4.36,7.64,9.35,6.95,15.6-.76,6.95-5.37,13.14-7.26,19.77l1.33.69Z"/>
    <path class="cls-3" d="m338.58,470.29c-.76.32-1.58.69-2.4.88-3.54.95-6.95.19-10.17-1.26-3.22-1.45-5.68-4.04-9.6-3.35-1.52.25-2.84,1.2-3.85,2.34.38-9.16,8.97-15.03,17.43-10.42,1.52.82,6.63,4.61,7.01,6.19,0,.19-.13.69-.06,1.07.13,1.07.38,2.27.82,3.22.13.19.82,1.2.76,1.26l.06.06Z"/>
    <path class="cls-3" d="m376.1,468.78c-1.77-2.08-4.29-2.78-6.95-2.08-1.64.44-2.97,1.52-4.42,2.27-4.55,2.4-9.6,3.79-14.46,1.26.76-1.39,1.26-2.53,1.45-4.17,0-.44-.06-1.01,0-1.45.44-1.77,5.49-5.37,7.2-6.32,8.34-4.48,16.74,1.45,17.12,10.42l.06.06Z"/>
    <circle class="cls-3" cx="344.39" cy="465.43" r="5.24"/>
    <path class="cls-3" d="m342.31,475.22c-.63,2.78-1.83,5.62-3.35,7.96-2.34,3.54-6.44,6.06-10.74,4.29l1.14-.63c3.85-2.53,1.96-8.46,6.13-11.75,1.77-1.33,3.73-1.64,5.56-2.78.06,0,.51.51.63.63,1.52,1.33,3.73,1.39,5.31.19.13-.13.76-.82.88-.82,1.14.88,2.59,1.14,3.92,1.77,1.45.76,2.84,1.83,3.66,3.22,1.77,3.09.88,7.58,4.42,9.6l.95.51c-4.36,1.71-8.65-.88-10.99-4.48-1.52-2.34-2.65-5.18-3.22-7.96-.13.13-.76.32-.76.51s.32,1.01.44,1.26c1.58,4.23,4.93,8.84,3.35,13.58-.69,1.96-2.91,4.86-4.48,6.25-.06.06-.51.51-.57.51h-.13c-.19-.06-1.26-1.2-1.45-1.45-2.27-2.46-4.36-5.31-3.98-8.9.44-3.98,3.03-7.45,4.11-11.24l-.76-.38-.06.13Z"/>
    <path class="cls-3" d="m139.9,503.83l22.86-117.78v-.32l-.32-9.85c0-.95.95-1.77,2.15-1.77h31.39c.88,0,1.71.44,2.02,1.14l17.75,39.54c.69,1.52,3.28,1.52,3.98,0l17.75-39.54c.32-.69,1.07-1.14,2.02-1.14h31.39c1.2,0,2.15.82,2.15,1.77l-.32,9.85v.32l22.86,117.78v.19l8.53,24.06c.38,1.14-.63,2.21-2.02,2.21h-48.44c-1.2,0-2.21-.82-2.15-1.83l1.71-24.44v-.25l-6.06-68.52c-.19-1.89-3.41-2.21-4.11-.44l-20.97,52.92c-.25.69-1.07,1.2-2.02,1.2h-4.48c-.95,0-1.71-.51-2.02-1.2l-20.97-52.92c-.69-1.83-3.98-1.52-4.11.44l-6.06,68.52v.25l1.71,24.44c.06,1.01-.88,1.83-2.15,1.83h-48.44c-1.39,0-2.4-1.14-2.02-2.21l8.53-24.06v-.19h-.13Z"/>
    <path class="cls-2" d="m304.67,354.26v22.52c0,1.35-1.09,2.44-2.44,2.44h-170.56c-1.35,0-2.44-1.09-2.44-2.44v-22.52c0-1.35,1.09-2.44,2.44-2.44h170.56c1.35,0,2.44,1.09,2.44,2.44Z"/>
    <path class="cls-3" d="m357.59,568.75c-6.44,18.95-23.94,33.47-43.39,20.21-1.07-.76-2.72-3.09-3.47-3.22-.51,0-4.74,2.65-7.26,2.91-8.84.95-15.85-2.08-19.51-10.29,18.88-2.21,14.72-10.17,2.59-18.44-8.34-5.68-34.55-17.62-35.81-27.6-.76-6.44,1.64-9.73,6.32-13.64,1.39-1.2,3.79-1.33,3.98-3.28l-.19-.76-4.86-18.95h22.23c-7.26,4.61-11.81,11.37-11.81,18.95,0,5.43,2.4,10.55,6.5,14.59-1.2,1.01-1.14,2.97.76,4.48,4.11,3.41,24.13,7.64,30.76,9.79,8.34,2.72,19.01,4.99,23.75,13.07,2.21,3.79,2.78,8.4,5.56,12.13,6.88,9.28,15.54,3.92,23.87.06Z"/>
    <path class="cls-3" d="m76.93,568.75c6.44,18.95,23.94,33.47,43.39,20.21,1.07-.76,2.72-3.09,3.47-3.22.51,0,4.74,2.65,7.26,2.91,8.84.95,15.85-2.08,19.51-10.29-18.88-2.21-14.72-10.17-2.59-18.44,8.34-5.68,34.55-17.62,35.81-27.6.76-6.44-1.64-9.73-6.32-13.64-1.39-1.2-3.79-1.33-3.98-3.28l.19-.76,4.86-18.95h-22.23c7.26,4.61,11.81,11.37,11.81,18.95,0,5.43-2.4,10.55-6.5,14.59,1.2,1.01,1.14,2.97-.76,4.48-4.11,3.41-24.13,7.64-30.76,9.79-8.34,2.72-19.01,4.99-23.75,13.07-2.21,3.79-2.78,8.4-5.56,12.13-6.88,9.28-15.54,3.92-23.87.06Z"/>
    <path class="cls-3" d="m297.72,358.19c4.17-15.73,14.15-30.06,29.87-35.75,6.06-2.21,14.27-2.46,17.24-9.28l1.01-6.95c11.62,8.02,12.95,23.94-.19,31.14,3.79,7.7-1.96,17.49-10.86,15.03-1.71-.44.69-2.78,1.01-4.11.76-3.35-.38-8.4-4.29-9.03-9.35-1.52-16.04,12.63-19.07,19.64-3.79,8.65,2.46,20.46-10.17,20.46l-4.55-21.03v-.13Z"/>
    <path class="cls-3" d="m132.19,379.22c-12.63,0-6.38-11.75-10.17-20.46-3.03-7.01-9.73-21.16-19.07-19.64-3.92.63-5.12,5.68-4.29,9.03.32,1.33,2.72,3.66,1.01,4.11-8.97,2.46-14.65-7.33-10.86-15.03-13.14-7.2-11.81-23.11-.19-31.14l1.01,6.95c2.97,6.82,11.24,7.07,17.24,9.28,15.73,5.75,25.7,20.02,29.87,35.75l-4.55,21.03v.13Z"/>
  </g>
</svg>