<?xml version="1.0" encoding="UTF-8" standalone="no"?>
<!DOCTYPE svg PUBLIC "-//W3C//DTD SVG 1.1//EN" "http://www.w3.org/Graphics/SVG/1.1/DTD/svg11.dtd">
<svg width="100%" height="100%" viewBox="0 0 88 131" version="1.1" xmlns="http://www.w3.org/2000/svg" xmlns:xlink="http://www.w3.org/1999/xlink" xml:space="preserve" xmlns:serif="http://www.serif.com/" style="fill-rule:evenodd;clip-rule:evenodd;stroke-miterlimit:10;">
    <g transform="matrix(1,0,0,1,9.54316,-0.00398601)">
        <g id="Layer_1-2">
            <path d="M62.97,43.12C62.88,42.14 62.5,41.91 61.65,41.61C60.51,41.19 59.1,40.88 57.9,40.61C51.46,39.15 44.77,38.45 38.17,38.25C37.98,38.24 37.8,38.16 37.61,38.16L31.26,38.19C24.05,38.51 16.78,39.19 9.75,40.86C8.98,41.05 6.7,41.55 6.17,41.95C5.75,42.26 5.58,42.77 5.57,43.27C5.45,50.69 5.65,58.18 5.65,65.62C5.64,72.88 5.53,80.2 5.65,87.46C5.85,99.26 11.82,105.2 22.31,109.33C25.46,110.57 29.04,111.45 31.95,113.15C32.39,113.41 34.06,114.66 34.39,114.66C34.62,114.66 36.45,113.36 36.87,113.12C39.34,111.75 42.13,111.06 44.76,110.05C54.27,106.43 62.08,100.94 62.89,89.88C62.93,75.16 62.8,60.51 62.97,45.87C62.98,45.01 63.04,43.94 62.97,43.12Z" style="fill:none;fill-rule:nonzero;stroke:rgb(31,156,237);stroke-width:3px;"/>
            <path d="M68.26,9.63C67.73,8.4 66.51,7.58 65.17,7.55C61.5,7.48 58.23,8.76 55.9,11.12C54.76,10.11 53.37,9.33 51.93,8.95C51.01,8.71 50.01,8.85 49.2,9.36C49.11,9.42 49.01,9.48 48.93,9.55C48.89,9.48 48.85,9.41 48.81,9.34C48.3,8.49 47.45,7.9 46.49,7.72C44.75,7.39 42.88,7.64 41.15,8.39C40.57,6.59 39.68,4.82 38.53,3.21C37.02,1.08 36.07,0.29 34.79,0.06C33.65,-0.15 32.5,0.24 31.72,1.07C29.66,3.19 28.15,5.75 27.32,8.4C25.69,7.69 23.94,7.42 22.25,7.65C21.28,7.79 20.4,8.33 19.85,9.14C19.77,9.26 19.7,9.38 19.64,9.5C32.733,15.833 32.727,15.83 19.62,9.49C18.81,8.91 17.8,8.7 16.82,8.93C15.26,9.29 13.83,10.04 12.66,11.08C10.28,8.66 6.9,7.35 3.26,7.55C1.94,7.61 0.79,8.42 0.27,9.64C-0.24,10.84 -0.02,12.26 0.84,13.25C2.4,15.04 2.99,17.67 3.62,20.45C3.85,21.49 4.1,22.58 4.4,23.65C4.98,25.7 5.69,27.72 6.39,29.67C6.89,31.1 7.37,32.46 7.81,33.85C8.28,35.29 9.62,36.23 11.09,36.23C11.24,36.23 11.39,36.22 11.54,36.2C12.62,36.06 13.69,35.88 14.76,35.7C15.73,35.54 16.7,35.37 17.68,35.24C30.52,33.55 43.98,33.88 56.59,36.17C58.22,36.47 59.83,35.59 60.44,34.05C60.89,32.9 63.19,27.01 64.08,23.81C64.38,22.73 64.61,21.64 64.84,20.59C65.46,17.77 66.04,15.11 67.65,13.32C68.55,12.32 68.79,10.87 68.26,9.63ZM65.19,11.09C62.26,14.35 61.99,18.89 60.88,22.93C60.02,26.03 57.66,32.03 57.35,32.83C57.32,32.89 57.27,32.92 57.21,32.9C44.14,30.53 30.42,30.22 17.25,31.95C15.19,32.22 13.17,32.64 11.11,32.91C11.05,32.92 10.99,32.88 10.97,32.82C9.92,29.47 8.55,26.12 7.6,22.75C6.48,18.77 6.16,14.3 3.35,11.07C3.28,10.99 3.33,10.87 3.43,10.86C6.8,10.68 9.94,12.18 11.62,15.16C11.86,15.6 12.11,16.44 12.33,16.76C12.4,16.86 12.46,16.94 12.6,16.95C13.1,17 13.1,16.19 13.22,15.88C13.99,13.99 15.59,12.62 17.58,12.16C17.65,12.14 17.73,12.2 17.74,12.28L17.99,14.85C18.08,17.68 17.24,20.4 14.81,22.02C13.34,22.99 11.33,23.03 12.38,25.46C13.07,27.04 15.14,27.87 16.79,27.74C18.19,27.64 20.65,26.39 20.29,24.69C20.19,24.17 19.27,23.54 19.02,22.92C18.44,21.47 19.54,19.64 21.08,19.45C22.77,19.25 24.24,20.73 23.95,22.41C23.76,23.53 22.24,23.66 23.39,25.16C25.23,27.54 30.11,27.51 31.34,24.53C32.16,22.51 30.22,22.56 28.85,21.93C24.19,19.8 23.69,15.58 22.58,11.11C22.56,11.04 22.62,10.96 22.69,10.94C24.99,10.62 27.32,11.81 28.79,13.51C29.01,13.77 29.34,14.63 29.77,14.41C30.09,14.24 29.92,12.67 29.95,12.26C30.16,8.97 31.85,5.71 34.1,3.38C34.13,3.35 34.16,3.32 34.2,3.33C34.56,3.39 35.63,4.86 35.83,5.14C37.37,7.31 38.53,10.09 38.61,12.79C38.62,13.15 38.45,14.15 38.63,14.34C38.73,14.44 38.92,14.46 39.05,14.41C39.23,14.33 40.08,13.09 40.39,12.8C41.81,11.47 43.93,10.61 45.87,10.98C45.95,10.99 45.99,11.08 45.97,11.15C45.07,13.87 44.97,16.91 43.2,19.26C42.28,20.48 40.82,21.49 39.41,22.08C38.18,22.58 36.4,22.58 37.2,24.47C38.49,27.52 43.19,27.55 45.17,25.16C46.49,23.56 44.49,23.45 44.7,21.74C45.12,18.37 50.1,18.93 49.76,22.34C49.59,23.97 47.43,24.1 48.53,25.99C50.15,28.76 55.92,28.06 56.44,24.82C56.71,23.09 55.48,23.04 54.35,22.41C50.61,20.32 50.14,16.12 50.9,12.27C50.91,12.19 50.99,12.14 51.06,12.16C52.71,12.59 54.36,13.88 55.1,15.4C55.25,15.71 55.51,16.76 55.61,16.86C56.18,17.44 56.61,15.81 56.8,15.46C58.46,12.32 61.61,10.79 65.1,10.87C65.21,10.87 65.26,11.01 65.19,11.09Z" style="fill:rgb(31,156,237);fill-rule:nonzero;"/>
            <path d="M35.1,47.61C35.28,46.84 35.6,46.05 36.04,45.39C36.69,44.41 37.84,43.7 39.03,44.19L38.72,44.36C37.66,45.06 38.18,46.72 37.02,47.62C36.53,48 35.97,48.08 35.47,48.4C35.45,48.4 35.33,48.26 35.29,48.22C34.87,47.86 34.26,47.83 33.82,48.17C33.78,48.2 33.61,48.4 33.58,48.39C33.26,48.15 32.85,48.07 32.49,47.89C32.09,47.69 31.7,47.39 31.47,46.99C30.98,46.13 31.22,44.89 30.25,44.32L29.98,44.19C31.19,43.71 32.38,44.43 33.04,45.44C33.47,46.1 33.77,46.88 33.93,47.65C33.97,47.61 34.14,47.55 34.14,47.51C34.14,47.47 34.05,47.23 34.02,47.16C33.59,45.97 32.65,44.7 33.1,43.37C33.29,42.82 33.91,42.02 34.34,41.64C34.36,41.62 34.49,41.51 34.5,41.5L34.54,41.5C34.58,41.52 34.88,41.84 34.94,41.9C35.58,42.59 36.15,43.38 36.04,44.37C35.92,45.47 35.19,46.45 34.89,47.5L35.1,47.61Z" style="fill:rgb(31,156,237);fill-rule:nonzero;"/>
            <path d="M33.59,49.87C33.47,49.92 33.34,49.98 33.21,50.01C32.65,50.16 32.11,50.04 31.6,49.81C31.09,49.58 30.7,49.17 30.08,49.28C29.84,49.32 29.63,49.47 29.47,49.65C29.53,48.2 30.89,47.27 32.23,48C32.47,48.13 33.28,48.73 33.34,48.98C33.34,49.01 33.32,49.09 33.33,49.15C33.35,49.32 33.39,49.51 33.46,49.66C33.48,49.69 33.59,49.85 33.58,49.86L33.59,49.87Z" style="fill:rgb(31,156,237);fill-rule:nonzero;"/>
            <path d="M39.53,49.64C39.25,49.31 38.85,49.2 38.43,49.31C38.17,49.38 37.96,49.55 37.73,49.67C37.01,50.05 36.21,50.27 35.44,49.87C35.56,49.65 35.64,49.47 35.67,49.21C35.67,49.14 35.66,49.05 35.67,48.98C35.74,48.7 36.54,48.13 36.81,47.98C38.13,47.27 39.46,48.21 39.52,49.63L39.53,49.64Z" style="fill:rgb(31,156,237);fill-rule:nonzero;"/>
            <circle cx="34.51" cy="49.11" r="0.83" style="fill:rgb(31,156,237);"/>
            <path d="M34.18,50.65C34.08,51.09 33.89,51.54 33.65,51.91C33.28,52.47 32.63,52.87 31.95,52.59L32.13,52.49C32.74,52.09 32.44,51.15 33.1,50.63C33.38,50.42 33.69,50.37 33.98,50.19C33.99,50.19 34.06,50.27 34.08,50.29C34.32,50.5 34.67,50.51 34.92,50.32C34.94,50.3 35.04,50.19 35.06,50.19C35.24,50.33 35.47,50.37 35.68,50.47C35.91,50.59 36.13,50.76 36.26,50.98C36.54,51.47 36.4,52.18 36.96,52.5L37.11,52.58C36.42,52.85 35.74,52.44 35.37,51.87C35.13,51.5 34.95,51.05 34.86,50.61C34.84,50.63 34.74,50.66 34.74,50.69C34.74,50.72 34.79,50.85 34.81,50.89C35.06,51.56 35.59,52.29 35.34,53.04C35.23,53.35 34.88,53.81 34.63,54.03C34.62,54.04 34.55,54.11 34.54,54.11L34.52,54.11C34.49,54.1 34.32,53.92 34.29,53.88C33.93,53.49 33.6,53.04 33.66,52.47C33.73,51.84 34.14,51.29 34.31,50.69L34.19,50.63L34.18,50.65Z" style="fill:rgb(31,156,237);fill-rule:nonzero;"/>
            <path d="M35.1,100.61C35.28,99.84 35.6,99.05 36.04,98.39C36.69,97.41 37.84,96.7 39.03,97.19L38.72,97.36C37.66,98.06 38.18,99.72 37.02,100.62C36.53,101 35.97,101.08 35.47,101.4C35.45,101.4 35.33,101.26 35.29,101.22C34.87,100.86 34.26,100.83 33.82,101.17C33.78,101.2 33.61,101.4 33.58,101.39C33.26,101.15 32.85,101.07 32.49,100.89C32.09,100.69 31.7,100.39 31.47,99.99C30.98,99.13 31.22,97.89 30.25,97.32L29.98,97.19C31.19,96.71 32.38,97.43 33.04,98.44C33.47,99.1 33.77,99.88 33.93,100.65C33.97,100.61 34.14,100.55 34.14,100.51C34.14,100.47 34.05,100.23 34.02,100.16C33.59,98.97 32.65,97.7 33.1,96.37C33.29,95.82 33.91,95.02 34.34,94.64C34.36,94.62 34.49,94.51 34.5,94.5L34.54,94.5C34.58,94.52 34.88,94.84 34.94,94.9C35.58,95.59 36.15,96.38 36.04,97.37C35.92,98.47 35.19,99.45 34.89,100.5L35.1,100.61Z" style="fill:rgb(31,156,237);fill-rule:nonzero;"/>
            <path d="M33.59,102.87C33.47,102.92 33.34,102.98 33.21,103.01C32.65,103.16 32.11,103.04 31.6,102.81C31.09,102.58 30.7,102.17 30.08,102.28C29.84,102.32 29.63,102.47 29.47,102.65C29.53,101.2 30.89,100.27 32.23,101C32.47,101.13 33.28,101.73 33.34,101.98C33.34,102.01 33.32,102.09 33.33,102.15C33.35,102.32 33.39,102.51 33.46,102.66C33.48,102.69 33.59,102.85 33.58,102.86L33.59,102.87Z" style="fill:rgb(31,156,237);fill-rule:nonzero;"/>
            <path d="M39.53,102.64C39.25,102.31 38.85,102.2 38.43,102.31C38.17,102.38 37.96,102.55 37.73,102.67C37.01,103.05 36.21,103.27 35.44,102.87C35.56,102.65 35.64,102.47 35.67,102.21C35.67,102.14 35.66,102.05 35.67,101.98C35.74,101.7 36.54,101.13 36.81,100.98C38.13,100.27 39.46,101.21 39.52,102.63L39.53,102.64Z" style="fill:rgb(31,156,237);fill-rule:nonzero;"/>
            <circle cx="34.51" cy="102.11" r="0.83" style="fill:rgb(31,156,237);"/>
            <path d="M34.18,103.65C34.08,104.09 33.89,104.54 33.65,104.91C33.28,105.47 32.63,105.87 31.95,105.59L32.13,105.49C32.74,105.09 32.44,104.15 33.1,103.63C33.38,103.42 33.69,103.37 33.98,103.19C33.99,103.19 34.06,103.27 34.08,103.29C34.32,103.5 34.67,103.51 34.92,103.32C34.94,103.3 35.04,103.19 35.06,103.19C35.24,103.33 35.47,103.37 35.68,103.47C35.91,103.59 36.13,103.76 36.26,103.98C36.54,104.47 36.4,105.18 36.96,105.5L37.11,105.58C36.42,105.85 35.74,105.44 35.37,104.87C35.13,104.5 34.95,104.05 34.86,103.61C34.84,103.63 34.74,103.66 34.74,103.69C34.74,103.72 34.79,103.85 34.81,103.89C35.06,104.56 35.59,105.29 35.34,106.04C35.23,106.35 34.88,106.81 34.63,107.03C34.62,107.04 34.55,107.11 34.54,107.11L34.52,107.11C34.49,107.1 34.32,106.92 34.29,106.88C33.93,106.49 33.6,106.04 33.66,105.47C33.73,104.84 34.14,104.29 34.31,103.69L34.19,103.63L34.18,103.65Z" style="fill:rgb(31,156,237);fill-rule:nonzero;"/>
            <path d="M15.11,72.2C15.29,71.43 15.61,70.64 16.05,69.98C16.7,69 17.85,68.29 19.04,68.78L18.73,68.95C17.67,69.65 18.19,71.31 17.03,72.21C16.54,72.59 15.98,72.67 15.48,72.99C15.46,72.99 15.34,72.85 15.3,72.81C14.88,72.45 14.27,72.42 13.83,72.76C13.79,72.79 13.62,72.99 13.59,72.98C13.27,72.74 12.86,72.66 12.5,72.48C12.1,72.28 11.71,71.98 11.48,71.58C10.99,70.72 11.23,69.48 10.26,68.91L9.99,68.78C11.2,68.3 12.39,69.02 13.05,70.03C13.48,70.69 13.78,71.47 13.94,72.24C13.98,72.2 14.15,72.14 14.15,72.1C14.15,72.06 14.06,71.82 14.03,71.75C13.6,70.56 12.66,69.29 13.11,67.96C13.3,67.41 13.92,66.61 14.35,66.23C14.37,66.21 14.5,66.1 14.51,66.09L14.55,66.09C14.59,66.11 14.89,66.43 14.95,66.49C15.59,67.18 16.16,67.97 16.05,68.96C15.93,70.06 15.2,71.04 14.9,72.09L15.11,72.2Z" style="fill:rgb(31,156,237);fill-rule:nonzero;"/>
            <path d="M13.61,74.47C13.49,74.52 13.36,74.58 13.23,74.61C12.67,74.76 12.13,74.64 11.62,74.41C11.11,74.18 10.72,73.77 10.1,73.88C9.86,73.92 9.65,74.07 9.49,74.25C9.55,72.8 10.91,71.87 12.25,72.6C12.49,72.73 13.3,73.33 13.36,73.58C13.36,73.61 13.34,73.69 13.35,73.75C13.37,73.92 13.41,74.11 13.48,74.26C13.5,74.29 13.61,74.45 13.6,74.46L13.61,74.47Z" style="fill:rgb(31,156,237);fill-rule:nonzero;"/>
            <path d="M19.55,74.23C19.27,73.9 18.87,73.79 18.45,73.9C18.19,73.97 17.98,74.14 17.75,74.26C17.03,74.64 16.23,74.86 15.46,74.46C15.58,74.24 15.66,74.06 15.69,73.8C15.69,73.73 15.68,73.64 15.69,73.57C15.76,73.29 16.56,72.72 16.83,72.57C18.15,71.86 19.48,72.8 19.54,74.22L19.55,74.23Z" style="fill:rgb(31,156,237);fill-rule:nonzero;"/>
            <circle cx="14.53" cy="73.7" r="0.83" style="fill:rgb(31,156,237);"/>
            <path d="M14.2,75.25C14.1,75.69 13.91,76.14 13.67,76.51C13.3,77.07 12.65,77.47 11.97,77.19L12.15,77.09C12.76,76.69 12.46,75.75 13.12,75.23C13.4,75.02 13.71,74.97 14,74.79C14.01,74.79 14.08,74.87 14.1,74.89C14.34,75.1 14.69,75.11 14.94,74.92C14.96,74.9 15.06,74.79 15.08,74.79C15.26,74.93 15.49,74.97 15.7,75.07C15.93,75.19 16.15,75.36 16.28,75.58C16.56,76.07 16.42,76.78 16.98,77.1L17.13,77.18C16.44,77.45 15.76,77.04 15.39,76.47C15.15,76.1 14.97,75.65 14.88,75.21C14.86,75.23 14.76,75.26 14.76,75.29C14.76,75.32 14.81,75.45 14.83,75.49C15.08,76.16 15.61,76.89 15.36,77.64C15.25,77.95 14.9,78.41 14.65,78.63C14.64,78.64 14.57,78.71 14.56,78.71L14.54,78.71C14.51,78.7 14.34,78.52 14.31,78.48C13.95,78.09 13.62,77.64 13.68,77.07C13.75,76.44 14.16,75.89 14.33,75.29L14.21,75.23L14.2,75.25Z" style="fill:rgb(31,156,237);fill-rule:nonzero;"/>
            <path d="M55.11,72.2C55.29,71.43 55.61,70.64 56.05,69.98C56.7,69 57.85,68.29 59.04,68.78L58.73,68.95C57.67,69.65 58.19,71.31 57.03,72.21C56.54,72.59 55.98,72.67 55.48,72.99C55.46,72.99 55.34,72.85 55.3,72.81C54.88,72.45 54.27,72.42 53.83,72.76C53.79,72.79 53.62,72.99 53.59,72.98C53.27,72.74 52.86,72.66 52.5,72.48C52.1,72.28 51.71,71.98 51.48,71.58C50.99,70.72 51.23,69.48 50.26,68.91L49.99,68.78C51.2,68.3 52.39,69.02 53.05,70.03C53.48,70.69 53.78,71.47 53.94,72.24C53.98,72.2 54.15,72.14 54.15,72.1C54.15,72.06 54.06,71.82 54.03,71.75C53.6,70.56 52.66,69.29 53.11,67.96C53.3,67.41 53.92,66.61 54.35,66.23C54.37,66.21 54.5,66.1 54.51,66.09L54.55,66.09C54.59,66.11 54.89,66.43 54.95,66.49C55.59,67.18 56.16,67.97 56.05,68.96C55.93,70.06 55.2,71.04 54.9,72.09L55.11,72.2Z" style="fill:rgb(31,156,237);fill-rule:nonzero;"/>
            <path d="M53.61,74.47C53.49,74.52 53.36,74.58 53.23,74.61C52.67,74.76 52.13,74.64 51.62,74.41C51.11,74.18 50.72,73.77 50.1,73.88C49.86,73.92 49.65,74.07 49.49,74.25C49.55,72.8 50.91,71.87 52.25,72.6C52.49,72.73 53.3,73.33 53.36,73.58C53.36,73.61 53.34,73.69 53.35,73.75C53.37,73.92 53.41,74.11 53.48,74.26C53.5,74.29 53.61,74.45 53.6,74.46L53.61,74.47Z" style="fill:rgb(31,156,237);fill-rule:nonzero;"/>
            <path d="M59.55,74.23C59.27,73.9 58.87,73.79 58.45,73.9C58.19,73.97 57.98,74.14 57.75,74.26C57.03,74.64 56.23,74.86 55.46,74.46C55.58,74.24 55.66,74.06 55.69,73.8C55.69,73.73 55.68,73.64 55.69,73.57C55.76,73.29 56.56,72.72 56.83,72.57C58.15,71.86 59.48,72.8 59.54,74.22L59.55,74.23Z" style="fill:rgb(31,156,237);fill-rule:nonzero;"/>
            <circle cx="54.53" cy="73.7" r="0.83" style="fill:rgb(31,156,237);"/>
            <path d="M54.2,75.25C54.1,75.69 53.91,76.14 53.67,76.51C53.3,77.07 52.65,77.47 51.97,77.19L52.15,77.09C52.76,76.69 52.46,75.75 53.12,75.23C53.4,75.02 53.71,74.97 54,74.79C54.01,74.79 54.08,74.87 54.1,74.89C54.34,75.1 54.69,75.11 54.94,74.92C54.96,74.9 55.06,74.79 55.08,74.79C55.26,74.93 55.49,74.97 55.7,75.07C55.93,75.19 56.15,75.36 56.28,75.58C56.56,76.07 56.42,76.78 56.98,77.1L57.13,77.18C56.44,77.45 55.76,77.04 55.39,76.47C55.15,76.1 54.97,75.65 54.88,75.21C54.86,75.23 54.76,75.26 54.76,75.29C54.76,75.32 54.81,75.45 54.83,75.49C55.08,76.16 55.61,76.89 55.36,77.64C55.25,77.95 54.9,78.41 54.65,78.63C54.64,78.64 54.57,78.71 54.56,78.71L54.54,78.71C54.51,78.7 54.34,78.52 54.31,78.48C53.95,78.09 53.62,77.64 53.68,77.07C53.75,76.44 54.16,75.89 54.33,75.29L54.21,75.23L54.2,75.25Z" style="fill:rgb(31,156,237);fill-rule:nonzero;"/>
            <path d="M22.15,79.78L25.77,61.13L25.77,61.08L25.72,59.52C25.72,59.37 25.87,59.24 26.06,59.24L31.03,59.24C31.17,59.24 31.3,59.31 31.35,59.42L34.16,65.68C34.27,65.92 34.68,65.92 34.79,65.68L37.6,59.42C37.65,59.31 37.77,59.24 37.92,59.24L42.89,59.24C43.08,59.24 43.23,59.37 43.23,59.52L43.18,61.08L43.18,61.13L46.8,79.78L46.8,79.81L48.15,83.62C48.21,83.8 48.05,83.97 47.83,83.97L40.16,83.97C39.97,83.97 39.81,83.84 39.82,83.68L40.09,79.81L40.09,79.77L39.13,68.92C39.1,68.62 38.59,68.57 38.48,68.85L35.16,77.23C35.12,77.34 34.99,77.42 34.84,77.42L34.13,77.42C33.98,77.42 33.86,77.34 33.81,77.23L30.49,68.85C30.38,68.56 29.86,68.61 29.84,68.92L28.88,79.77L28.88,79.81L29.15,83.68C29.16,83.84 29.01,83.97 28.81,83.97L21.14,83.97C20.92,83.97 20.76,83.79 20.82,83.62L22.17,79.81L22.17,79.78L22.15,79.78Z" style="fill:rgb(31,156,237);fill-rule:nonzero;"/>
            <path d="M48.24,56.09L48.24,59.67C48.24,59.88 48.07,60.05 47.86,60.05L20.84,60.05C20.63,60.05 20.46,59.88 20.46,59.67L20.46,56.09C20.46,55.88 20.63,55.71 20.84,55.71L47.86,55.71C48.07,55.71 48.24,55.88 48.24,56.09Z" style="fill:rgb(31,156,237);"/>
            <path d="M56.62,90.06C55.6,93.06 52.83,95.36 49.75,93.26C49.58,93.14 49.32,92.77 49.2,92.75C49.12,92.75 48.45,93.17 48.05,93.21C46.65,93.36 45.54,92.88 44.96,91.58C47.95,91.23 47.29,89.97 45.37,88.66C44.05,87.76 39.9,85.87 39.7,84.29C39.58,83.27 39.96,82.75 40.7,82.13C40.92,81.94 41.3,81.92 41.33,81.61L41.3,81.49L40.53,78.49L44.05,78.49C42.9,79.22 42.18,80.29 42.18,81.49C42.18,82.35 42.56,83.16 43.21,83.8C43.02,83.96 43.03,84.27 43.33,84.51C43.98,85.05 47.15,85.72 48.2,86.06C49.52,86.49 51.21,86.85 51.96,88.13C52.31,88.73 52.4,89.46 52.84,90.05C53.93,91.52 55.3,90.67 56.62,90.06Z" style="fill:rgb(31,156,237);fill-rule:nonzero;"/>
            <path d="M12.18,90.06C13.2,93.06 15.97,95.36 19.05,93.26C19.22,93.14 19.48,92.77 19.6,92.75C19.68,92.75 20.35,93.17 20.75,93.21C22.15,93.36 23.26,92.88 23.84,91.58C20.85,91.23 21.51,89.97 23.43,88.66C24.75,87.76 28.9,85.87 29.1,84.29C29.22,83.27 28.84,82.75 28.1,82.13C27.88,81.94 27.5,81.92 27.47,81.61L27.5,81.49L28.27,78.49L24.75,78.49C25.9,79.22 26.62,80.29 26.62,81.49C26.62,82.35 26.24,83.16 25.59,83.8C25.78,83.96 25.77,84.27 25.47,84.51C24.82,85.05 21.65,85.72 20.6,86.06C19.28,86.49 17.59,86.85 16.84,88.13C16.49,88.73 16.4,89.46 15.96,90.05C14.87,91.52 13.5,90.67 12.18,90.06Z" style="fill:rgb(31,156,237);fill-rule:nonzero;"/>
            <path d="M47.14,56.72C47.8,54.23 49.38,51.96 51.87,51.06C52.83,50.71 54.13,50.67 54.6,49.59L54.76,48.49C56.6,49.76 56.81,52.28 54.73,53.42C55.33,54.64 54.42,56.19 53.01,55.8C52.74,55.73 53.12,55.36 53.17,55.15C53.29,54.62 53.11,53.82 52.49,53.72C51.01,53.48 49.95,55.72 49.47,56.83C48.87,58.2 49.86,60.07 47.86,60.07L47.14,56.74L47.14,56.72Z" style="fill:rgb(31,156,237);fill-rule:nonzero;"/>
            <path d="M20.93,60.05C18.93,60.05 19.92,58.19 19.32,56.81C18.84,55.7 17.78,53.46 16.3,53.7C15.68,53.8 15.49,54.6 15.62,55.13C15.67,55.34 16.05,55.71 15.78,55.78C14.36,56.17 13.46,54.62 14.06,53.4C11.98,52.26 12.19,49.74 14.03,48.47L14.19,49.57C14.66,50.65 15.97,50.69 16.92,51.04C19.41,51.95 20.99,54.21 21.65,56.7L20.93,60.03L20.93,60.05Z" style="fill:rgb(31,156,237);fill-rule:nonzero;"/>
        </g>
        <g transform="matrix(0.271511,0,0,0.271035,-17.8952,123.309)">
            <g transform="matrix(64.1123,0,0,64.1123,313.465,26.0457)">
            </g>
            <text x="74.131px" y="26.046px" style="font-family:'AbadiMT-ExtraBold', sans-serif;font-size:64.112px;fill:rgb(31,156,237);">T<tspan x="109.313px 149.817px 191.667px 230.919px 272.769px " y="26.046px 26.046px 26.046px 26.046px 26.046px ">KURBX</tspan></text>
        </g>
    </g>
</svg>
