<?xml version="1.0" encoding="UTF-8" standalone="no"?>
<!DOCTYPE svg PUBLIC "-//W3C//DTD SVG 1.1//EN" "http://www.w3.org/Graphics/SVG/1.1/DTD/svg11.dtd">
<svg width="100%" height="100%" viewBox="0 0 270 118" version="1.1" xmlns="http://www.w3.org/2000/svg" xmlns:xlink="http://www.w3.org/1999/xlink" xml:space="preserve" xmlns:serif="http://www.serif.com/" style="fill-rule:evenodd;clip-rule:evenodd;stroke-miterlimit:10;">
    <g transform="matrix(0.970166,0,0,0.968468,3,3.89419)">
        <g>
            <path d="M63.5,40.9C63.4,39.9 63,39.7 62.2,39.4C61.1,39 59.7,38.6 58.4,38.4C52,36.9 45.3,36.2 38.7,36C38.5,36 38.3,35.9 38.1,35.9L31.7,35.9C24.5,36.2 17.2,36.9 10.2,38.6C9.4,38.8 7.1,39.3 6.6,39.7C6.3,40 6.1,40.5 6.1,41C6,48.6 6.2,56.3 6.2,63.9C6.2,71.3 6.1,78.8 6.2,86.2C6.4,98.3 12.4,104.3 22.9,108.6C26,109.9 29.6,110.8 32.5,112.5C32.9,112.8 34.6,114 34.9,114C35.1,114 37,112.7 37.4,112.4C39.9,111 42.7,110.3 45.3,109.3C54.8,105.6 62.6,100 63.4,88.7C63.4,73.6 63.3,58.7 63.5,43.7L63.5,40.9Z" style="fill:rgb(31,156,237);fill-rule:nonzero;stroke:rgb(31,156,237);stroke-width:3.03px;"/>
            <path d="M69.5,8.9C66.2,12.7 65.9,17.9 64.7,22.5C63.7,26.1 61.1,33 60.7,33.9C60.7,34 60.6,34 60.5,34C45.8,31.3 30.4,30.9 15.6,32.9C13.3,33.2 11,33.7 8.7,34C8.6,34 8.6,34 8.5,33.9C7.3,30 5.8,26.2 4.7,22.3C3.5,17.8 3.2,12.6 0,8.9C0,8.8 0,8.7 0.1,8.7C3.9,8.5 7.4,10.2 9.3,13.6C9.6,14.1 9.9,15.1 10.1,15.4C10.2,15.5 10.2,15.6 10.4,15.6C11,15.7 11,14.7 11.1,14.4C12,12.2 13.8,10.6 16,10.1C16.1,10.1 16.2,10.2 16.2,10.2L16.5,13.1C16.6,16.3 15.7,19.5 12.9,21.3C11.3,22.4 9,22.5 10.2,25.3C11,27.1 13.3,28.1 15.2,27.9C16.8,27.8 19.5,26.4 19.1,24.4C19,23.8 18,23.1 17.7,22.4C17.1,20.7 18.3,18.6 20,18.4C21.9,18.2 23.5,19.9 23.2,21.8C23,23.1 21.3,23.2 22.6,25C24.7,27.7 30.2,27.7 31.5,24.3C32.4,22 30.2,22 28.7,21.3C23.5,18.8 22.9,14 21.6,8.9C21.6,8.8 21.6,8.7 21.7,8.7C24.3,8.3 26.9,9.7 28.6,11.6C28.8,11.9 29.2,12.9 29.7,12.6C30.1,12.4 29.9,10.6 29.9,10.1C30.1,6.3 32,2.6 34.6,-0.1L34.7,-0.2C35.1,-0.1 36.3,1.6 36.5,1.9C38.2,4.4 39.5,7.6 39.6,10.7C39.6,11.1 39.4,12.3 39.6,12.5C39.7,12.6 39.9,12.6 40.1,12.6C40.3,12.5 41.3,11.1 41.6,10.7C43.2,9.2 45.6,8.2 47.8,8.6C47.9,8.6 47.9,8.7 47.9,8.8C46.9,11.9 46.8,15.4 44.8,18.1C43.8,19.5 42.1,20.7 40.5,21.3C39.1,21.9 37.1,21.9 38,24.1C39.5,27.6 44.7,27.6 47,24.9C48.5,23.1 46.2,22.9 46.5,21C47,17.1 52.6,17.8 52.2,21.7C52,23.6 49.6,23.7 50.8,25.9C52.6,29.1 59.1,28.3 59.7,24.6C60,22.6 58.6,22.6 57.4,21.8C53.2,19.4 52.7,14.6 53.5,10.2C53.5,10.1 53.6,10.1 53.7,10.1C55.5,10.6 57.4,12.1 58.2,13.8C58.4,14.2 58.7,15.4 58.8,15.5C59.4,16.2 59.9,14.3 60.1,13.9C62,10.3 65.5,8.5 69.4,8.6C69.5,8.7 69.6,8.8 69.5,8.9Z" style="fill:rgb(31,156,237);fill-rule:nonzero;"/>
            <path d="M35.6,45.5C35.8,44.7 36.1,43.9 36.5,43.2C37.2,42.2 38.3,41.5 39.5,42L39.2,42.2C38.1,42.9 38.7,44.6 37.5,45.5C37,45.9 36.5,46 36,46.3C36,46.3 35.9,46.1 35.8,46.1C35.4,45.7 34.8,45.7 34.3,46.1L34.1,46.3C33.8,46.1 33.4,46 33,45.8C32.6,45.6 32.2,45.3 32,44.9C31.5,44 31.8,42.7 30.8,42.2L30.5,42C31.7,41.5 32.9,42.2 33.6,43.3C34,44 34.3,44.8 34.5,45.6C34.5,45.6 34.7,45.5 34.7,45.4C34.7,45.3 34.6,45.1 34.6,45C34.2,43.8 33.2,42.5 33.7,41.1C33.9,40.5 34.5,39.7 34.9,39.3L35.1,39.2C35.1,39.2 35.4,39.5 35.5,39.6C36.1,40.3 36.7,41.1 36.6,42.1C36.5,43.2 35.8,44.2 35.4,45.3C35.4,45.4 35.6,45.5 35.6,45.5Z" style="fill:white;fill-rule:nonzero;"/>
            <path d="M34.1,47.8C34,47.8 33.9,47.9 33.7,48C33.1,48.2 32.6,48 32.1,47.8C31.6,47.6 31.2,47.1 30.6,47.3C30.4,47.3 30.1,47.5 30,47.7C30.1,46.2 31.4,45.3 32.8,46C33,46.1 33.8,46.8 33.9,47L33.9,47.2C33.9,47.4 34,47.6 34,47.7C34,47.6 34.1,47.8 34.1,47.8Z" style="fill:white;fill-rule:nonzero;"/>
            <path d="M40,47.5C39.7,47.2 39.3,47 38.9,47.2C38.6,47.3 38.4,47.4 38.2,47.6C37.5,48 36.7,48.2 35.9,47.8C36,47.6 36.1,47.4 36.1,47.1L36.1,46.9C36.2,46.6 37,46 37.2,45.9C38.6,45.1 40,46.1 40,47.5Z" style="fill:white;fill-rule:nonzero;"/>
            <circle cx="35" cy="47" r="0.8" style="fill:white;"/>
            <path d="M34.7,48.6C34.6,49.1 34.4,49.5 34.2,49.9C33.8,50.5 33.2,50.9 32.5,50.6L32.7,50.5C33.3,50.1 33,49.1 33.7,48.6C34,48.4 34.3,48.3 34.6,48.1L34.7,48.2C34.9,48.4 35.3,48.4 35.5,48.2L35.6,48.1C35.8,48.2 36,48.3 36.2,48.4C36.4,48.5 36.7,48.7 36.8,48.9C37.1,49.4 36.9,50.1 37.5,50.4L37.7,50.5C37,50.8 36.3,50.4 36,49.8C35.8,49.4 35.6,49 35.5,48.5L35.4,48.6C35.4,48.6 35.4,48.8 35.5,48.8C35.7,49.5 36.3,50.2 36,51C35.9,51.3 35.5,51.8 35.3,52L35.2,52.1L35,51.9C34.6,51.5 34.3,51 34.4,50.5C34.5,49.9 34.9,49.3 35.1,48.7L34.7,48.6Z" style="fill:white;fill-rule:nonzero;"/>
            <path d="M35.6,99.7C35.8,98.9 36.1,98.1 36.5,97.4C37.2,96.4 38.3,95.7 39.5,96.2L39.2,96.4C38.1,97.1 38.7,98.8 37.5,99.7C37,100.1 36.5,100.2 36,100.5C36,100.5 35.9,100.3 35.8,100.3C35.4,99.9 34.8,99.9 34.3,100.2L34.1,100.4C33.8,100.2 33.4,100.1 33,99.9C32.6,99.7 32.2,99.4 32,99C31.5,98.1 31.8,96.8 30.8,96.3L30.5,96.2C31.7,95.7 32.9,96.4 33.6,97.5C34,98.2 34.3,99 34.5,99.8C34.5,99.8 34.7,99.7 34.7,99.6C34.7,99.5 34.6,99.3 34.6,99.2C34.2,98 33.2,96.7 33.7,95.3C33.9,94.7 34.5,93.9 34.9,93.5L35.1,93.4C35.1,93.4 35.4,93.7 35.5,93.8C36.1,94.5 36.7,95.3 36.6,96.3C36.5,97.4 35.8,98.4 35.4,99.5C35.4,99.6 35.6,99.7 35.6,99.7Z" style="fill:white;fill-rule:nonzero;"/>
            <path d="M34.1,102C34,102.1 33.9,102.1 33.7,102.2C33.1,102.4 32.6,102.2 32.1,102C31.6,101.8 31.2,101.3 30.6,101.5C30.4,101.5 30.1,101.7 30,101.9C30.1,100.4 31.4,99.5 32.8,100.2C33,100.3 33.8,101 33.9,101.2L33.9,101.4C33.9,101.6 34,101.8 34,101.9C34,101.8 34.1,102 34.1,102Z" style="fill:white;fill-rule:nonzero;"/>
            <path d="M40,101.8C39.7,101.5 39.3,101.4 38.9,101.5C38.6,101.6 38.4,101.7 38.2,101.9C37.5,102.3 36.7,102.5 35.9,102.1C36,101.9 36.1,101.7 36.1,101.4L36.1,101.2C36.2,100.9 37,100.3 37.2,100.2C38.6,99.4 40,100.3 40,101.8Z" style="fill:white;fill-rule:nonzero;"/>
            <circle cx="35" cy="101.2" r="0.8" style="fill:white;"/>
            <path d="M34.7,102.8C34.6,103.2 34.4,103.7 34.2,104.1C33.8,104.7 33.2,105.1 32.5,104.8L32.7,104.7C33.3,104.3 33,103.3 33.7,102.8C34,102.6 34.3,102.5 34.6,102.4L34.7,102.5C34.9,102.7 35.3,102.7 35.5,102.5L35.6,102.4C35.8,102.5 36,102.6 36.2,102.7C36.4,102.8 36.7,103 36.8,103.2C37.1,103.7 36.9,104.4 37.5,104.8L37.7,104.9C37,105.2 36.3,104.8 36,104.2C35.8,103.8 35.6,103.4 35.5,102.9L35.4,103C35.4,103 35.4,103.2 35.5,103.2C35.7,103.9 36.3,104.6 36,105.4C35.9,105.7 35.5,106.2 35.3,106.4L35.2,106.5L35,106.3C34.6,105.9 34.3,105.4 34.4,104.9C34.5,104.3 34.9,103.7 35.1,103.1L34.7,102.8Z" style="fill:white;fill-rule:nonzero;"/>
            <path d="M15.6,70.6C15.8,69.8 16.1,69 16.5,68.3C17.1,67.3 18.3,66.6 19.5,67.1L19.2,67.3C18.1,68 18.7,69.7 17.5,70.6C17,71 16.5,71.1 15.9,71.4C15.9,71.4 15.8,71.2 15.7,71.2C15.3,70.8 14.7,70.8 14.2,71.1L14,71.3C13.7,71.1 13.3,71 12.9,70.8C12.5,70.6 12.1,70.3 11.9,69.9C11.4,69 11.7,67.7 10.7,67.2L10.4,67.1C11.6,66.6 12.8,67.3 13.5,68.4C13.9,69.1 14.2,69.9 14.4,70.7C14.4,70.7 14.6,70.6 14.6,70.5C14.6,70.4 14.5,70.2 14.5,70.1C14.1,68.9 13.1,67.6 13.6,66.2C13.8,65.6 14.4,64.8 14.8,64.4C14.8,64.4 14.9,64.3 15,64.3C15,64.3 15.3,64.6 15.4,64.7C16,65.4 16.6,66.2 16.5,67.2C16.4,68.3 15.6,69.3 15.4,70.4C15.4,70.5 15.6,70.6 15.6,70.6Z" style="fill:white;fill-rule:nonzero;"/>
            <path d="M14.1,72.9C14,73 13.9,73 13.7,73.1C13.1,73.3 12.6,73.1 12.1,72.9C11.6,72.7 11.2,72.2 10.6,72.4C10.4,72.4 10.2,72.6 10,72.8C10.1,71.3 11.4,70.4 12.8,71.1C13,71.2 13.9,71.9 13.9,72.1L13.9,72.3C13.9,72.5 14,72.7 14,72.8L14.1,72.9Z" style="fill:white;fill-rule:nonzero;"/>
            <path d="M20.1,72.7C19.8,72.4 19.4,72.3 19,72.4C18.7,72.5 18.5,72.6 18.3,72.8C17.6,73.2 16.8,73.4 16,73C16.1,72.8 16.2,72.6 16.2,72.3L16.2,72.1C16.3,71.8 17.1,71.2 17.3,71.1C18.7,70.3 20,71.3 20.1,72.7Z" style="fill:white;fill-rule:nonzero;"/>
            <circle cx="15" cy="72.2" r="0.8" style="fill:white;"/>
            <path d="M14.7,73.7C14.6,74.1 14.4,74.6 14.2,75C13.8,75.6 13.2,76 12.5,75.7L12.7,75.6C13.3,75.2 13,74.2 13.7,73.7C14,73.5 14.3,73.4 14.6,73.3L14.7,73.4C14.9,73.6 15.3,73.6 15.5,73.4L15.6,73.3C15.8,73.4 16,73.5 16.2,73.6C16.4,73.7 16.7,73.9 16.8,74.1C17.1,74.6 16.9,75.3 17.5,75.7L17.6,75.8C16.9,76.1 16.2,75.7 15.9,75.1C15.7,74.7 15.5,74.3 15.4,73.8L15.3,73.9L15.4,74.1C15.6,74.8 16.2,75.5 15.9,76.3C15.8,76.6 15.4,77.1 15.2,77.3L15.1,77.4L14.9,77.2C14.5,76.8 14.2,76.3 14.3,75.8C14.4,75.2 14.8,74.6 14.9,74L14.7,73.7Z" style="fill:white;fill-rule:nonzero;"/>
            <path d="M55.6,70.6C55.8,69.8 56.1,69 56.5,68.3C57.2,67.3 58.3,66.6 59.5,67.1L59.2,67.3C58.1,68 58.7,69.7 57.5,70.6C57,71 56.5,71.1 56,71.4C56,71.4 55.9,71.2 55.8,71.2C55.4,70.8 54.8,70.8 54.3,71.1L54.1,71.3C53.8,71.1 53.4,71 53,70.8C52.6,70.6 52.2,70.3 52,69.9C51.5,69 51.8,67.7 50.8,67.2L50.5,67.1C51.7,66.6 52.9,67.3 53.6,68.4C54,69.1 54.3,69.9 54.5,70.7C54.5,70.7 54.7,70.6 54.7,70.5C54.7,70.4 54.6,70.2 54.6,70.1C54.2,68.9 53.2,67.6 53.7,66.2C53.9,65.6 54.5,64.8 54.9,64.4L55.1,64.3C55.1,64.3 55.4,64.6 55.5,64.7C56.1,65.4 56.7,66.2 56.6,67.2C56.5,68.3 55.8,69.3 55.4,70.4C55.4,70.5 55.6,70.6 55.6,70.6Z" style="fill:white;fill-rule:nonzero;"/>
            <path d="M54.1,72.9C54,73 53.9,73 53.7,73.1C53.1,73.3 52.6,73.1 52.1,72.9C51.6,72.7 51.2,72.2 50.6,72.4C50.4,72.4 50.1,72.6 50,72.8C50.1,71.3 51.4,70.4 52.8,71.1C53,71.2 53.8,71.9 53.9,72.1L53.9,72.3C53.9,72.5 54,72.7 54,72.8L54.1,72.9Z" style="fill:white;fill-rule:nonzero;"/>
            <path d="M60.1,72.7C59.8,72.4 59.4,72.3 59,72.4C58.7,72.5 58.5,72.6 58.3,72.8C57.6,73.2 56.8,73.4 56,73C56.1,72.8 56.2,72.6 56.2,72.3L56.2,72.1C56.3,71.8 57.1,71.2 57.3,71.1C58.7,70.3 60,71.3 60.1,72.7Z" style="fill:white;fill-rule:nonzero;"/>
            <circle cx="55" cy="72.2" r="0.8" style="fill:white;"/>
            <path d="M54.7,73.7C54.6,74.1 54.4,74.6 54.2,75C53.8,75.6 53.2,76 52.5,75.7L52.7,75.6C53.3,75.2 53,74.2 53.7,73.7C54,73.5 54.3,73.4 54.6,73.3L54.7,73.4C54.9,73.6 55.3,73.6 55.5,73.4L55.6,73.3C55.8,73.4 56,73.5 56.2,73.6C56.4,73.7 56.7,73.9 56.8,74.1C57.1,74.6 56.9,75.3 57.5,75.7L57.7,75.8C57,76.1 56.3,75.7 56,75.1C55.8,74.7 55.6,74.3 55.5,73.8L55.4,73.9C55.4,73.9 55.4,74.1 55.5,74.1C55.7,74.8 56.3,75.5 56,76.3C55.9,76.6 55.5,77.1 55.3,77.3L55.2,77.4L55,77.2C54.6,76.8 54.3,76.3 54.4,75.8C54.5,75.2 54.9,74.6 55.1,74L54.7,73.7Z" style="fill:white;fill-rule:nonzero;"/>
            <path d="M22.7,78.4L26.3,59.3L26.3,57.7C26.3,57.5 26.4,57.4 26.6,57.4L31.6,57.4C31.7,57.4 31.9,57.5 31.9,57.6L34.7,64C34.8,64.2 35.2,64.2 35.3,64L38.1,57.6C38.1,57.5 38.3,57.4 38.4,57.4L43.4,57.4C43.6,57.4 43.7,57.5 43.7,57.7L43.7,59.3L47.3,78.4L48.6,82.3C48.7,82.5 48.5,82.7 48.3,82.7L40.6,82.7C40.4,82.7 40.3,82.6 40.3,82.4L40.6,78.4L39.6,67.3C39.6,67 39.1,66.9 38.9,67.2L35.6,75.8C35.6,75.9 35.4,76 35.3,76L34.6,76C34.4,76 34.3,75.9 34.3,75.8L31,67.2C30.9,66.9 30.4,67 30.4,67.3L29.4,78.4L29.7,82.4C29.7,82.6 29.6,82.7 29.4,82.7L21.7,82.7C21.5,82.7 21.3,82.5 21.4,82.3L22.7,78.4Z" style="fill:white;fill-rule:nonzero;"/>
            <path d="M21.3,53.8L48.3,53.8C48.5,53.8 48.7,54 48.7,54.2L48.7,57.9C48.7,58.1 48.5,58.3 48.3,58.3L21.3,58.3C21.1,58.3 20.9,58.1 20.9,57.9L20.9,54.2C21,53.9 21.1,53.8 21.3,53.8Z" style="fill:white;fill-rule:nonzero;"/>
            <path d="M57.1,88.9C56.1,92 53.3,94.3 50.2,92.2C50,92.1 49.8,91.7 49.7,91.7C49.6,91.7 48.9,92.1 48.5,92.2C47.1,92.4 46,91.9 45.4,90.5C48.4,90.1 47.7,88.8 45.8,87.5C44.5,86.6 40.3,84.7 40.1,83C40,82 40.4,81.4 41.1,80.8C41.3,80.6 41.7,80.6 41.7,80.3L41.7,80.2L41,77.1L44.5,77.1C43.3,77.9 42.6,78.9 42.6,80.2C42.6,81.1 43,81.9 43.6,82.6C43.4,82.8 43.4,83.1 43.7,83.3C44.4,83.9 47.5,84.5 48.6,84.9C49.9,85.3 51.6,85.7 52.4,87C52.7,87.6 52.8,88.4 53.3,89C54.4,90.4 55.8,89.5 57.1,88.9Z" style="fill:white;fill-rule:nonzero;"/>
            <path d="M12.7,88.9C13.7,92 16.5,94.3 19.6,92.2C19.8,92.1 20,91.7 20.1,91.7C20.2,91.7 20.9,92.1 21.2,92.2C22.6,92.4 23.7,91.9 24.3,90.5C21.3,90.1 22,88.8 23.9,87.5C25.2,86.6 29.4,84.7 29.6,83C29.7,82 29.3,81.4 28.6,80.8C28.4,80.6 28,80.6 28,80.3L28,80.2L28.8,77.1L25.3,77.1C26.4,77.9 27.2,78.9 27.2,80.2C27.2,81.1 26.8,81.9 26.2,82.6C26.4,82.8 26.4,83.1 26.1,83.3C25.5,83.9 22.3,84.5 21.2,84.9C19.9,85.3 18.2,85.7 17.4,87C17,87.6 17,88.4 16.5,89C15.4,90.4 14,89.5 12.7,88.9Z" style="fill:white;fill-rule:nonzero;"/>
            <path d="M47.7,54.8C48.4,52.3 49.9,49.9 52.4,49C53.4,48.6 54.7,48.6 55.1,47.5L55.3,46.4C57.1,47.7 57.3,50.3 55.3,51.4C55.9,52.6 55,54.2 53.6,53.8C53.3,53.7 53.7,53.3 53.8,53.1C53.9,52.6 53.7,51.7 53.1,51.6C51.6,51.4 50.6,53.6 50.1,54.8C49.5,56.2 50.5,58.1 48.5,58.1C48.4,58.2 47.6,54.8 47.7,54.8Z" style="fill:white;fill-rule:nonzero;"/>
            <path d="M21.4,58.2C19.4,58.2 20.4,56.3 19.8,54.9C19.3,53.8 18.3,51.5 16.8,51.7C16.2,51.8 16,52.6 16.1,53.2C16.1,53.4 16.5,53.8 16.3,53.9C14.9,54.3 14,52.7 14.6,51.5C12.5,50.3 12.7,47.8 14.6,46.5L14.8,47.6C15.3,48.7 16.6,48.8 17.5,49.1C20,50 21.6,52.3 22.2,54.9C22.2,54.8 21.4,58.2 21.4,58.2Z" style="fill:white;fill-rule:nonzero;"/>
        </g>
    </g>
    <g transform="matrix(0.971864,0,0,0.970166,-78.2702,55.4425)">
        <g>
            <g>
                <g transform="matrix(1,0,0,1,161.774,47.131)">
                    <text x="0px" y="0px" style="font-family:'Baltore';font-size:70px;fill:rgb(31,156,237);">t</text>
                </g>
                <g transform="matrix(1,0,0,1,186.358,47.131)">
                    <text x="0px" y="0px" style="font-family:'Baltore';font-size:70px;fill:rgb(31,156,237);">k<tspan x="33.062px 70.942px 97.099px " y="0px 0px 0px ">urb</tspan></text>
                </g>
            </g>
        </g>
    </g>
    <g transform="matrix(0.971864,0,0,0.970166,229.57,102.295)">
        <g>
            <text x="0px" y="0px" style="font-family:'Baltore';font-size:70px;fill:rgb(31,156,237);">x</text>
        </g>
    </g>
</svg>
