<?xml version="1.0" encoding="UTF-8" standalone="no"?>
<!DOCTYPE svg PUBLIC "-//W3C//DTD SVG 1.1//EN" "http://www.w3.org/Graphics/SVG/1.1/DTD/svg11.dtd">
<svg width="100%" height="100%" viewBox="0 0 372 167" version="1.1" xmlns="http://www.w3.org/2000/svg" xmlns:xlink="http://www.w3.org/1999/xlink" xml:space="preserve" xmlns:serif="http://www.serif.com/" style="fill-rule:evenodd;clip-rule:evenodd;stroke-linejoin:round;stroke-miterlimit:2;">
    <g id="Layer_1-2">
        <path d="M52.3,18.97C52.3,18.97 52.36,18.7 52.44,18.33L52.57,17.91L52.54,17.91C53.31,14.59 55.65,4.65 55.75,4C55.17,4.37 54.65,4.71 53.73,5.3C51.46,6.75 47.13,9.62 45.15,10.86C43.62,8.08 41.01,2.96 39.41,-0C39.37,-0.13 37.46,2.47 35.48,4.95C34,6.76 32.77,8.55 31.54,9.91C31.03,9.39 22.75,0.96 22.48,0.69C22.48,0.94 23.68,17.16 23.71,17.54C23.66,17.55 23.57,17.56 23.52,17.57C20.83,17.58 18.77,19.4 16.81,21.1C15.02,22.45 12.63,23.45 11.71,25.62C11.53,25.95 11.6,26.42 11.31,26.67C8.04,28.87 4.52,30.64 1.44,33.14C0.9,33.59 0.35,34.14 0.11,34.8C-0.18,35.47 0.11,36.5 0.73,36.98C0.96,37.18 1.21,37.34 1.26,37.5C1.36,37.89 1.27,38.32 1.3,38.71C1.49,40.6 2.08,42.64 3.61,43.89C4.18,44.36 4.93,44.68 5.48,45.16C6.83,46.99 8.61,48.72 10.98,49.2C11.02,49.16 11.1,49.09 11.14,49.05C10.95,47.22 10.71,45.28 10.91,43.48C13.11,42.09 16.71,42.06 18.26,44.46C20.57,48.25 17.44,52.22 13.69,52.98C12.57,52.73 11.55,51.48 10.62,50.78C10.28,50.53 10.01,50.07 9.48,50.07C8.84,50.12 8.69,50.81 8.62,51.39C8.43,52.35 9.06,53.67 9.11,54.43C9.11,54.85 8.55,55.19 8.42,55.56C6.69,58.91 10.16,63.57 13.59,64.1C14.75,64.35 14.8,62.72 15.51,62.13C15.56,62.07 15.62,62.01 15.68,61.95L18.1,66.98C17.76,67.02 17.42,67.04 17.12,67.1C11.72,67.86 6.27,69.23 1.46,71.84C1.37,71.92 1.46,72.02 1.52,72.18C3.05,74.88 5.02,77.38 6.6,80.05C6.67,80.07 6.81,80.11 6.88,80.13C9.4,78.86 12.06,77.85 14.77,77.05C14.71,84.13 14.72,91.32 14.73,98.29C14.73,103.18 14.75,108.07 14.73,112.96C14.76,117.86 14.74,122.87 14.73,127.72C14.7,134.51 14.68,141.53 14.79,148.35C14.82,149.6 15.33,150.75 16.23,151.61C18.22,153.49 20.73,155.83 23.27,158.21C25.99,160.75 28.75,163.33 30.98,165.44C31.87,166.27 32.99,166.69 34.12,166.69C35.25,166.69 36.45,166.24 37.35,165.35C39.48,163.24 41.98,160.76 44.44,158.32C47.16,155.63 49.83,152.98 51.87,150.96C52.74,150.09 53.22,148.94 53.22,147.71C53.23,137.18 53.22,126.65 53.22,116.12L53.22,77.12C55.76,77.87 58.24,78.79 60.6,79.99C60.88,80.1 61.01,80.12 61.02,80.08C61.07,80 61.47,79.38 62.02,78.51C63.5,76.16 66.11,72.03 66.25,71.8C66.21,71.78 66.13,71.72 66.09,71.69C61.7,69.37 56.81,68.01 51.9,67.17L51.9,62.37C52.9,61.56 53.87,60.71 54.77,59.78C54.82,59.79 54.91,59.81 54.96,59.82C55.38,61.15 55.61,62.89 56.76,63.77C60.07,61.2 62.39,57.35 63.79,53.41C65.19,49.42 65.59,45.05 64.95,40.87C65.04,40.79 66.1,41.56 66.45,41.73C67.21,42.16 67.95,42.72 67.96,42.6C66.21,32.35 63.29,22.43 52.3,18.97ZM31.66,12.93C31.9,12.64 39.22,3.79 39.22,3.79C39.39,4.12 40.42,6.04 41.52,8.11C42.62,10.19 43.81,12.42 44.3,13.35C44.47,13.62 44.44,13.71 44.51,13.64C46.8,12.05 50.65,9.39 52.8,7.92C52.73,8.21 50.9,15.88 50.15,19.07L48.54,24.62C43.25,18.71 33.33,17.96 25.84,17.48C25.66,17.47 25.62,17.47 25.64,17.43C25.59,16.69 24.82,6.16 24.82,6.16C24.84,6.16 31.41,12.73 31.66,12.93ZM7.47,44.77C7.68,44.68 8.8,44.2 8.91,44.31L9.11,46.57C8.5,46.04 7.75,45.58 7.47,44.77ZM13.64,61.32C13.53,61.47 13.47,61.76 13.35,61.8C13.27,61.78 13.12,61.74 13.05,61.72C11.64,60.94 9.74,59.81 9.78,58.01C10.45,54.6 15.59,55.21 18.31,52.83C20.96,50.78 21.84,46.75 20.24,43.95C18.87,41.11 15.08,39.9 11.98,40.84C9.44,41.49 7.43,43.65 4.76,42.24C4.07,41.86 3.7,41.07 3.57,40.33C3,37.47 6.94,36.5 8.06,34.47C8.06,34.4 3.32,34.51 2.96,34.49C5.32,32.51 8.06,31.16 10.64,29.49C11.54,28.94 12.58,28.34 13.39,27.69C13.74,27.44 14.06,26.96 13.91,26.59C13.86,26.3 13.76,26.02 13.96,25.7C16.47,24.1 19.07,21.27 21.86,19.97C25.45,18.72 29.52,19.68 33.15,20.05C35.7,20.44 38.3,21.02 40.73,21.88L40.77,21.91C39.43,22.32 37.29,23.04 36.04,23.96C35.78,24.15 35.18,24.6 35.12,24.82C35.41,24.82 35.71,24.74 35.99,24.68C38.65,24.12 41.3,23.46 44.05,23.82C46.87,24.3 48.75,26.85 47.7,29.77C46.76,32.25 44.11,33.76 41.63,34.28C41.02,34.47 40.12,34.55 39.65,34.93C39.6,35.04 39.84,35.22 39.94,35.37C45.6,40.84 43.71,47.64 37.17,51.56C33.32,54.09 29.65,55.71 26.71,59.9C25.34,61.83 24.68,63.95 23.88,66.17C23.81,66.35 23.69,66.38 23.51,66.38C22.92,66.43 21.8,66.67 21.32,66.62C21.09,66.6 21.03,66.45 20.99,66.14C20.27,62.75 22.29,58.55 24.4,54.87C26.97,49.47 33.74,47.03 35.37,41.19C35.79,39.57 34.98,37.31 33.68,36.4C33.67,36.45 33.66,36.56 33.66,36.61C36.07,44.08 25.51,47.39 22.83,53.65C22.18,54.95 21.54,56.18 20.25,57.03C18.12,58.51 15,58.87 13.64,61.32ZM44.71,38.76C44.35,37.68 43.71,36.82 43.22,35.94C43.45,35.49 44.28,35.56 44.71,35.27C45.19,35.11 45.71,34.58 46.2,34.62C48.58,35.57 50.36,39.77 50.72,41.83C51.6,47.59 49.11,52.69 45.06,56.44C43.06,58.39 40.44,59.65 38.39,61.48C36.83,62.76 35.48,64.33 34.27,65.91C31.59,66.15 28.72,65.99 26.02,66.2L25.97,66.15C27.2,60.33 32.4,56.37 37.38,53.67C42.78,50.72 47.08,44.83 44.71,38.76ZM17.29,60.7C17.91,60.34 18.58,60.05 19.24,59.74C19.52,59.6 19.93,59.38 20.04,59.62C19.58,61.27 19.37,63.08 19.29,64.84L17.29,60.7ZM33.03,164.07C32.85,163.97 32.68,163.86 32.52,163.71C30.34,161.64 27.58,159.06 24.86,156.52C22.32,154.14 19.81,151.8 17.82,149.92C17.37,149.5 17.12,148.93 17.11,148.31C16.99,141.52 17.02,134.51 17.05,127.73C17.07,122.88 17.09,117.85 17.05,112.95C17.07,108.07 17.06,103.18 17.05,98.29C17.05,91.35 17.02,84.19 17.09,77.15C23.09,75.59 27.96,74.93 33.03,74.98L33.03,164.07ZM50.9,116.12C50.91,126.65 50.91,137.18 50.9,147.71C50.9,148.32 50.66,148.89 50.23,149.32C48.2,151.34 45.53,153.98 42.81,156.68C40.35,159.11 37.84,161.59 35.72,163.7C35.6,163.82 35.48,163.91 35.35,164L35.35,74.96C39.61,74.85 43.66,75.65 47.93,76.52C48.91,76.72 49.9,76.92 50.9,77.11L50.9,116.12ZM62.55,72.1C63.05,72.37 63.55,72.43 63.45,72.7C62.9,73.46 60.49,77.6 60.15,77.6C43.51,70.67 23.83,70.83 7.31,77.69L7.25,77.71C7.25,77.71 4.36,72.86 4.18,72.55C4.22,72.52 4.31,72.47 4.35,72.45C19.35,66.31 47.46,66.01 62.55,72.1ZM45.58,66.34C47.01,65.6 48.53,64.83 49.9,63.89L49.9,66.85C48.45,66.64 47.01,66.47 45.58,66.34ZM47.05,63.42C45.02,64.39 42.86,65.71 40.73,66.2C39.67,66.06 37.87,66.19 36.87,66.15L36.87,66.13C39.89,62.06 44.85,59.91 48.1,56.01C53.48,50.35 55.16,39.19 48.24,33.97C48.04,33.81 47.72,33.66 47.61,33.51C47.68,33.03 48.31,32.64 48.53,32.31C49.36,31.31 49.8,29.92 50.12,28.71C56.33,32.08 59.07,39.85 58.36,46.67C57.66,53.68 53.46,59.85 47.05,63.42ZM62.58,37.81C62.03,38.2 62.68,39.27 62.79,39.91C63.73,43.41 63.53,47.2 62.6,50.83C61.61,54.43 59.91,57.99 57.27,60.63C56.78,60.24 56.79,59.19 56.64,58.5C56.56,57.98 56.64,57.61 56.84,57.01C61.98,47.46 61.88,33.2 51.57,27.17C51.19,26.88 50.54,26.74 50.08,26.48L51.69,20.92C52.45,21.15 53.19,21.42 53.91,21.75C60.6,24.73 63.97,31.85 65.01,38.72C64.82,39.04 63.15,37.53 62.58,37.81Z" style="fill:rgb(35,68,131);fill-rule:nonzero;"/>
        <path d="M22.81,26.55C23.9,26.34 25.02,26.12 26.13,26.02C26.89,25.95 27.59,26.06 28.39,25.91C28.56,25.88 28.57,25.98 28.55,25.71C24.85,24.44 20.53,24.21 17.65,27.3C17.14,27.85 16.5,28.62 16.63,29.41C16.98,29.33 17.31,28.96 17.7,29C17.97,29.03 18.76,29.61 19.38,29.69C21.75,30.01 22.23,28.44 22.82,26.55L22.81,26.55Z" style="fill:rgb(35,68,131);fill-rule:nonzero;"/>
        <path d="M37.15,33.14C37.21,29.69 40.06,27.79 43.29,27.66C43.7,27.64 45.5,27.96 45.6,27.61C45.61,27.33 45.24,27.01 45.04,26.84C44.06,26.07 42.56,26.01 41.37,26.15C37.62,26.57 33.02,31.26 36.41,34.75L37.16,33.13L37.15,33.14Z" style="fill:rgb(35,68,131);fill-rule:nonzero;"/>
        <path d="M109.53,53.95C120.18,53.95 126.91,58.85 126.91,68.35C126.91,79.76 117.49,85.12 108.38,85.12L97.58,85.12L97.58,106.18L85.4,106.18L85.4,53.95L109.53,53.95ZM106.08,74.78C110.67,74.78 114.2,73.02 114.2,69.19C114.2,66.05 111.67,64.29 107.69,64.29L97.58,64.29L97.58,74.78L106.08,74.78Z" style="fill:rgb(35,68,131);fill-rule:nonzero;"/>
        <path d="M190.55,79.61C190.55,94.7 179.75,107.03 163.9,107.03C148.05,107.03 137.25,95.39 137.25,80.07C137.25,64.75 149.43,53.11 163.37,53.11C179.61,53.11 190.56,65.29 190.56,79.61L190.55,79.61ZM163.9,96.69C171.86,96.69 177.84,89.19 177.84,80.07C177.84,70.95 172.02,63.45 164.05,63.45C156.08,63.45 149.96,71.18 149.96,80.07C149.96,88.96 155.78,96.69 163.9,96.69Z" style="fill:rgb(35,68,131);fill-rule:nonzero;"/>
        <path d="M215.9,53.95L215.9,95.46L240.02,95.46L240.02,106.18L203.72,106.18L203.72,53.95L215.9,53.95Z" style="fill:rgb(35,68,131);fill-rule:nonzero;"/>
        <rect x="252.12" y="53.95" width="12.41" height="52.23" style="fill:rgb(35,68,131);fill-rule:nonzero;"/>
        <rect x="279.77" y="53.95" width="12.41" height="52.23" style="fill:rgb(35,68,131);fill-rule:nonzero;"/>
        <path d="M342.57,57.63L342.57,70.57C337.29,66.05 331.85,63.91 326.95,63.91C322.05,63.91 318.3,65.9 318.3,68.89C318.3,71.72 321.67,72.8 329.56,74.48C340.59,76.85 345.8,81.76 345.8,89.34C345.8,99.76 335.61,107.03 323.44,107.03C316.7,107.03 311.11,105.11 305.37,101.44L305.37,88.42C311.19,93.47 317.47,96.23 323.29,96.23C328.11,96.23 332.79,93.63 332.79,89.64C332.79,86.42 329.96,84.89 322.22,83.36C312.26,81.44 305.37,77.16 305.37,68.81C305.37,59.08 314.64,53.11 326.12,53.11C331.33,53.11 336.15,54.34 342.59,57.63L342.57,57.63Z" style="fill:rgb(35,68,131);fill-rule:nonzero;"/>
        <rect x="358.95" y="53.95" width="12.41" height="52.23" style="fill:rgb(35,68,131);fill-rule:nonzero;"/>
        <g transform="matrix(1.97734,0,0,1.97734,-92.3017,-97.8099)">
            <g transform="matrix(12,0,0,12,234.895,117.938)">
            </g>
            <text x="128.791px" y="117.938px" style="font-family:'AbadiMTPro', sans-serif;font-size:12px;fill:rgb(35,68,131);">POLICE OF FINLAND</text>
        </g>
    </g>
</svg>
