<?xml version="1.0" encoding="UTF-8"?><svg id="Layer_2" xmlns="http://www.w3.org/2000/svg" viewBox="0 0 371.36 166.69"><defs><style>.cls-1{fill:#234483;}</style></defs><g id="Layer_1-2"><path class="cls-1" d="M52.3,18.97s.06-.27.14-.64l.13-.42h-.03c.77-3.32,3.11-13.26,3.21-13.91-.58.37-1.1.71-2.02,1.3-2.27,1.45-6.6,4.32-8.58,5.56-1.53-2.78-4.14-7.9-5.74-10.86-.04-.13-1.95,2.47-3.93,4.95-1.48,1.81-2.71,3.6-3.94,4.96-.51-.52-8.79-8.95-9.06-9.22,0,.25,1.2,16.47,1.23,16.85-.05.01-.14.02-.19.03-2.69.01-4.75,1.83-6.71,3.53-1.79,1.35-4.18,2.35-5.1,4.52-.18.33-.11.8-.4,1.05-3.27,2.2-6.79,3.97-9.87,6.47-.54.45-1.09,1-1.33,1.66-.29.67,0,1.7.62,2.18.23.2.48.36.53.52.1.39.01.82.04,1.21.19,1.89.78,3.93,2.31,5.18.57.47,1.32.79,1.87,1.27,1.35,1.83,3.13,3.56,5.5,4.04.04-.04.12-.11.16-.15-.19-1.83-.43-3.77-.23-5.57,2.2-1.39,5.8-1.42,7.35.98,2.31,3.79-.82,7.76-4.57,8.52-1.12-.25-2.14-1.5-3.07-2.2-.34-.25-.61-.71-1.14-.71-.64.05-.79.74-.86,1.32-.19.96.44,2.28.49,3.04,0,.42-.56.76-.69,1.13-1.73,3.35,1.74,8.01,5.17,8.54,1.16.25,1.21-1.38,1.92-1.97.05-.06.11-.12.17-.18l2.42,5.03c-.34.04-.68.06-.98.12-5.4.76-10.85,2.13-15.66,4.74-.09.08,0,.18.06.34,1.53,2.7,3.5,5.2,5.08,7.87.07.02.21.06.28.08,2.52-1.27,5.18-2.28,7.89-3.08-.06,7.08-.05,14.27-.04,21.24,0,4.89.02,9.78,0,14.67.03,4.9.01,9.91,0,14.76-.03,6.79-.05,13.81.06,20.63.03,1.25.54,2.4,1.44,3.26,1.99,1.88,4.5,4.22,7.04,6.6,2.72,2.54,5.48,5.12,7.71,7.23.89.83,2.01,1.25,3.14,1.25s2.33-.45,3.23-1.34c2.13-2.11,4.63-4.59,7.09-7.03,2.72-2.69,5.39-5.34,7.43-7.36.87-.87,1.35-2.02,1.35-3.25.01-10.53,0-21.06,0-31.59v-39c2.54.75,5.02,1.67,7.38,2.87.28.11.41.13.42.09.05-.08.45-.7,1-1.57,1.48-2.35,4.09-6.48,4.23-6.71-.04-.02-.12-.08-.16-.11-4.39-2.32-9.28-3.68-14.19-4.52v-4.8c1-.81,1.97-1.66,2.87-2.59.05.01.14.03.19.04.42,1.33.65,3.07,1.8,3.95,3.31-2.57,5.63-6.42,7.03-10.36,1.4-3.99,1.8-8.36,1.16-12.54.09-.08,1.15.69,1.5.86.76.43,1.5.99,1.51.87-1.75-10.25-4.67-20.17-15.66-23.63ZM31.66,12.93c.24-.29,7.56-9.14,7.56-9.14.17.33,1.2,2.25,2.3,4.32,1.1,2.08,2.29,4.31,2.78,5.24.17.27.14.36.21.29,2.29-1.59,6.14-4.25,8.29-5.72-.07.29-1.9,7.96-2.65,11.15l-1.61,5.55c-5.29-5.91-15.21-6.66-22.7-7.14-.18-.01-.22-.01-.2-.05-.05-.74-.82-11.27-.82-11.27.02,0,6.59,6.57,6.84,6.77ZM7.47,44.77c.21-.09,1.33-.57,1.44-.46l.2,2.26c-.61-.53-1.36-.99-1.64-1.8ZM13.64,61.32c-.11.15-.17.44-.29.48-.08-.02-.23-.06-.3-.08-1.41-.78-3.31-1.91-3.27-3.71.67-3.41,5.81-2.8,8.53-5.18,2.65-2.05,3.53-6.08,1.93-8.88-1.37-2.84-5.16-4.05-8.26-3.11-2.54.65-4.55,2.81-7.22,1.4-.69-.38-1.06-1.17-1.19-1.91-.57-2.86,3.37-3.83,4.49-5.86,0-.07-4.74.04-5.1.02,2.36-1.98,5.1-3.33,7.68-5,.9-.55,1.94-1.15,2.75-1.8.35-.25.67-.73.52-1.1-.05-.29-.15-.57.05-.89,2.51-1.6,5.11-4.43,7.9-5.73,3.59-1.25,7.66-.29,11.29.08,2.55.39,5.15.97,7.58,1.83l.04.03c-1.34.41-3.48,1.13-4.73,2.05-.26.19-.86.64-.92.86.29,0,.59-.08.87-.14,2.66-.56,5.31-1.22,8.06-.86,2.82.48,4.7,3.03,3.65,5.95-.94,2.48-3.59,3.99-6.07,4.51-.61.19-1.51.27-1.98.65-.05.11.19.29.29.44,5.66,5.47,3.77,12.27-2.77,16.19-3.85,2.53-7.52,4.15-10.46,8.34-1.37,1.93-2.03,4.05-2.83,6.27-.07.18-.19.21-.37.21-.59.05-1.71.29-2.19.24-.23-.02-.29-.17-.33-.48-.72-3.39,1.3-7.59,3.41-11.27,2.57-5.4,9.34-7.84,10.97-13.68.42-1.62-.39-3.88-1.69-4.79-.01.05-.02.16-.02.21,2.41,7.47-8.15,10.78-10.83,17.04-.65,1.3-1.29,2.53-2.58,3.38-2.13,1.48-5.25,1.84-6.61,4.29ZM44.71,38.76c-.36-1.08-1-1.94-1.49-2.82.23-.45,1.06-.38,1.49-.67.48-.16,1-.69,1.49-.65,2.38.95,4.16,5.15,4.52,7.21.88,5.76-1.61,10.86-5.66,14.61-2,1.95-4.62,3.21-6.67,5.04-1.56,1.28-2.91,2.85-4.12,4.43-2.68.24-5.55.08-8.25.29l-.05-.05c1.23-5.82,6.43-9.78,11.41-12.48,5.4-2.95,9.7-8.84,7.33-14.91ZM17.29,60.7c.62-.36,1.29-.65,1.95-.96.28-.14.69-.36.8-.12-.46,1.65-.67,3.46-.75,5.22l-2-4.14ZM33.03,164.07c-.18-.1-.35-.21-.51-.36-2.18-2.07-4.94-4.65-7.66-7.19-2.54-2.38-5.05-4.72-7.04-6.6-.45-.42-.7-.99-.71-1.61-.12-6.79-.09-13.8-.06-20.58.02-4.85.04-9.88,0-14.78.02-4.88.01-9.77,0-14.66,0-6.94-.03-14.1.04-21.14,6-1.56,10.87-2.22,15.94-2.17v89.09ZM50.9,116.12c.01,10.53.01,21.06,0,31.59,0,.61-.24,1.18-.67,1.61-2.03,2.02-4.7,4.66-7.42,7.36-2.46,2.43-4.97,4.91-7.09,7.02-.12.12-.24.21-.37.3v-89.04c4.26-.11,8.31.69,12.58,1.56.98.2,1.97.4,2.97.59v39.01ZM62.55,72.1c.5.27,1,.33.9.6-.55.76-2.96,4.9-3.3,4.9-16.64-6.93-36.32-6.77-52.84.09l-.06.02s-2.89-4.85-3.07-5.16c.04-.03.13-.08.17-.1,15-6.14,43.11-6.44,58.2-.35ZM45.58,66.34c1.43-.74,2.95-1.51,4.32-2.45v2.96c-1.45-.21-2.89-.38-4.32-.51ZM47.05,63.42c-2.03.97-4.19,2.29-6.32,2.78-1.06-.14-2.86-.01-3.86-.05v-.02c3.02-4.07,7.98-6.22,11.23-10.12,5.38-5.66,7.06-16.82.14-22.04-.2-.16-.52-.31-.63-.46.07-.48.7-.87.92-1.2.83-1,1.27-2.39,1.59-3.6,6.21,3.37,8.95,11.14,8.24,17.96-.7,7.01-4.9,13.18-11.31,16.75ZM62.58,37.81c-.55.39.1,1.46.21,2.1.94,3.5.74,7.29-.19,10.92-.99,3.6-2.69,7.16-5.33,9.8-.49-.39-.48-1.44-.63-2.13-.08-.52,0-.89.2-1.49,5.14-9.55,5.04-23.81-5.27-29.84-.38-.29-1.03-.43-1.49-.69l1.61-5.56c.76.23,1.5.5,2.22.83,6.69,2.98,10.06,10.1,11.1,16.97-.19.32-1.86-1.19-2.43-.91Z"/><path class="cls-1" d="M22.81,26.55c1.09-.21,2.21-.43,3.32-.53.76-.07,1.46.04,2.26-.11.17-.03.18.07.16-.2-3.7-1.27-8.02-1.5-10.9,1.59-.51.55-1.15,1.32-1.02,2.11.35-.08.68-.45,1.07-.41.27.03,1.06.61,1.68.69,2.37.32,2.85-1.25,3.44-3.14Z"/><path class="cls-1" d="M37.15,33.14c.06-3.45,2.91-5.35,6.14-5.48.41-.02,2.21.3,2.31-.05.01-.28-.36-.6-.56-.77-.98-.77-2.48-.83-3.67-.69-3.75.42-8.35,5.11-4.96,8.6l.75-1.62Z"/><path class="cls-1" d="M109.53,53.95c10.65,0,17.38,4.9,17.38,14.4,0,11.41-9.42,16.77-18.53,16.77h-10.8v21.06h-12.18v-52.23h24.12ZM106.08,74.78c4.59,0,8.12-1.76,8.12-5.59,0-3.14-2.53-4.9-6.51-4.9h-10.11v10.49h8.5Z"/><path class="cls-1" d="M190.55,79.61c0,15.09-10.8,27.42-26.65,27.42s-26.65-11.64-26.65-26.96,12.18-26.96,26.12-26.96c16.24,0,27.19,12.18,27.19,26.5ZM163.9,96.69c7.96,0,13.94-7.5,13.94-16.62s-5.82-16.62-13.79-16.62-14.09,7.73-14.09,16.62,5.82,16.62,13.94,16.62Z"/><path class="cls-1" d="M215.9,53.95v41.51h24.12v10.72h-36.3v-52.23h12.18Z"/><path class="cls-1" d="M264.53,53.95v52.23h-12.41v-52.23h12.41Z"/><path class="cls-1" d="M292.18,53.95v52.23h-12.41v-52.23h12.41Z"/><path class="cls-1" d="M342.57,57.63v12.94c-5.28-4.52-10.72-6.66-15.62-6.66s-8.65,1.99-8.65,4.98c0,2.83,3.37,3.91,11.26,5.59,11.03,2.37,16.24,7.28,16.24,14.86,0,10.42-10.19,17.69-22.36,17.69-6.74,0-12.33-1.92-18.07-5.59v-13.02c5.82,5.05,12.1,7.81,17.92,7.81,4.82,0,9.5-2.6,9.5-6.59,0-3.22-2.83-4.75-10.57-6.28-9.96-1.92-16.85-6.2-16.85-14.55,0-9.73,9.27-15.7,20.75-15.7,5.21,0,10.03,1.23,16.47,4.52Z"/><path class="cls-1" d="M371.36,53.95v52.23h-12.41v-52.23h12.41Z"/></g></svg>