<?xml version="1.0" encoding="UTF-8" standalone="no"?>
<!DOCTYPE svg PUBLIC "-//W3C//DTD SVG 1.1//EN" "http://www.w3.org/Graphics/SVG/1.1/DTD/svg11.dtd">
<svg width="100%" height="100%" viewBox="0 0 520 900" version="1.1" xmlns="http://www.w3.org/2000/svg" xmlns:xlink="http://www.w3.org/1999/xlink" xml:space="preserve" xmlns:serif="http://www.serif.com/" style="fill-rule:evenodd;clip-rule:evenodd;stroke-linejoin:round;stroke-miterlimit:2;">
    <g transform="matrix(1,0,0,1,-240.277,-50)">
        <g transform="matrix(1.16747,0,0,2.29234,-83.7356,-381.176)">
            <path d="M298.948,302C298.948,245.153 389.036,199 500,199C610.964,199 701.052,245.153 701.052,302L701.052,466.8C701.052,523.647 610.964,569.8 500,569.8C389.036,569.8 298.948,523.647 298.948,466.8L298.948,302Z" style="fill:rgb(35,68,131);"/>
            <path d="M277.534,302C277.534,239.116 377.253,188.094 500,188.094C622.747,188.094 722.466,239.116 722.466,302L722.466,466.8C722.466,529.684 622.747,580.706 500,580.706C377.253,580.706 277.534,529.684 277.534,466.8L277.534,302ZM298.948,302L298.948,466.8C298.948,523.647 389.036,569.8 500,569.8C610.964,569.8 701.052,523.647 701.052,466.8L701.052,302C701.052,245.153 610.964,199 500,199C389.036,199 298.948,245.153 298.948,302Z" style="fill:rgb(230,229,230);"/>
        </g>
        <g transform="matrix(1.1053,0,0,1.9854,-10.3339,-149.239)">
            <path d="M389.893,285.097L385.687,278.825L391.048,285.028C390.662,285.053 390.276,285.075 389.893,285.097ZM588.791,297.708C591.015,298.377 593.239,298.526 592.795,299.194C590.348,301.076 579.627,311.33 578.114,311.33C504.088,294.167 416.539,294.563 343.047,311.553L342.78,311.602C342.78,311.602 329.923,299.591 329.123,298.823C329.301,298.748 329.701,298.625 329.879,298.575C396.609,283.369 521.661,282.626 588.791,297.708ZM451.372,151.166L485.004,128.53C485.76,129.347 490.342,134.102 495.236,139.229C500.129,144.38 505.423,149.903 507.603,152.206C508.359,152.875 508.226,153.098 508.537,152.924C518.724,148.987 535.852,142.399 545.416,138.758C545.105,139.476 536.964,158.472 533.627,166.372L526.465,180.118C502.932,165.481 458.801,163.623 425.481,162.435C424.68,162.41 424.502,162.41 424.591,162.311C424.368,160.478 420.943,134.399 420.943,134.399C421.032,134.399 450.26,150.671 451.372,151.166ZM509.427,215.137C507.825,212.463 504.978,210.333 502.798,208.153C503.821,207.039 507.514,207.212 509.427,206.494C511.562,206.098 513.875,204.785 516.055,204.884C526.643,207.237 534.562,217.639 536.163,222.741C540.078,237.006 529.001,249.637 510.984,258.924C502.086,263.754 490.431,266.874 481.311,271.406C474.371,274.577 468.366,278.465 462.983,282.378C451.06,282.972 438.293,282.576 426.281,283.096L426.059,282.972C431.531,268.558 454.664,258.751 476.818,252.064C500.841,244.758 519.97,230.171 509.427,215.137ZM387.445,269.475C390.203,268.583 393.183,267.865 396.119,267.097C397.365,266.75 399.189,266.206 399.678,266.8C397.632,270.886 396.698,275.369 396.342,279.728L387.445,269.475ZM588.924,212.785C586.477,213.75 589.369,216.4 589.858,217.985C594.04,226.654 593.15,236.04 589.013,245.03C584.609,253.946 577.046,262.763 565.302,269.301C563.122,268.335 563.167,265.735 562.499,264.026C562.143,262.738 562.499,261.822 563.389,260.336C586.255,236.684 585.81,201.367 539.945,186.433C538.254,185.715 535.362,185.368 533.316,184.724L540.478,170.954C543.859,171.524 547.151,172.193 550.354,173.01C580.116,180.39 595.108,198.024 599.734,215.038C598.889,215.831 591.46,212.091 588.924,212.785ZM343.759,230.022C344.693,229.799 349.675,228.61 350.165,228.883L351.055,234.48C348.341,233.167 345.004,232.028 343.759,230.022ZM457.466,525.484C456.666,525.236 455.909,524.964 455.198,524.593C445.5,519.466 433.221,513.076 421.121,506.786C409.821,500.891 398.655,495.096 389.802,490.44C387.8,489.4 386.688,487.988 386.644,486.452C386.11,469.636 386.243,452.275 386.377,435.483C386.466,423.472 386.555,411.014 386.377,398.879C386.466,386.793 386.421,374.682 386.377,362.571C386.377,345.383 386.243,327.651 386.555,310.215C413.247,306.352 434.912,304.717 457.466,304.841L457.466,525.484ZM371.207,271.01C370.718,271.382 370.451,272.1 369.917,272.199C369.561,272.149 368.894,272.05 368.582,272.001C362.31,270.069 353.857,267.27 354.035,262.813C357.016,254.367 379.882,255.878 391.982,249.984C403.771,244.906 407.686,234.926 400.568,227.991C394.473,220.957 377.613,217.961 363.822,220.289C352.523,221.899 343.581,227.248 331.703,223.756C328.633,222.815 326.987,220.858 326.409,219.026C323.873,211.943 341.401,209.54 346.383,204.513C346.383,204.339 325.297,204.612 323.695,204.562C334.194,199.658 346.383,196.315 357.861,192.179C361.865,190.817 366.491,189.331 370.095,187.721C371.652,187.102 373.075,185.913 372.408,184.997C372.186,184.279 371.741,183.585 372.631,182.793C383.797,178.83 395.363,171.821 407.775,168.601C423.746,165.506 441.852,167.883 458,168.8C469.344,169.765 480.911,171.202 491.721,173.332L491.899,173.406C485.938,174.422 476.418,176.205 470.857,178.483C469.7,178.954 467.031,180.068 466.764,180.613C468.054,180.613 469.389,180.415 470.634,180.266C482.468,178.879 494.257,177.245 506.491,178.136C519.036,179.325 527.399,185.641 522.728,192.872C518.546,199.014 506.758,202.754 495.725,204.042C493.011,204.513 489.007,204.711 486.917,205.652C486.694,205.924 487.762,206.37 488.207,206.742C513.386,220.289 504.978,237.13 475.884,246.838C458.757,253.104 442.43,257.116 429.351,267.493C423.256,272.273 420.32,277.524 416.761,283.022C416.45,283.468 415.916,283.542 415.115,283.542C412.49,283.666 407.508,284.26 405.373,284.136C404.349,284.087 404.083,283.715 403.905,282.948C400.702,274.552 409.688,264.15 419.075,255.036C430.508,241.662 460.625,235.619 467.876,221.156C469.745,217.143 466.141,211.546 460.358,209.293C460.314,209.416 460.269,209.689 460.269,209.813C470.99,228.313 424.013,236.511 412.09,252.014C409.198,255.234 406.351,258.28 400.613,260.385C391.137,264.051 377.257,264.942 371.207,271.01ZM475.795,201.219C476.062,192.674 488.74,187.969 503.11,187.647C504.934,187.597 512.941,188.39 513.386,187.523C513.431,186.829 511.785,186.037 510.895,185.616C506.535,183.709 499.862,183.56 494.568,183.907C477.886,184.947 457.422,196.563 472.503,205.206L475.839,201.194L475.795,201.219ZM412.001,184.898C416.85,184.378 421.833,183.833 426.771,183.585C430.152,183.412 433.266,183.684 436.825,183.313C437.581,183.238 437.625,183.486 437.536,182.817C421.076,179.672 401.858,179.102 389.046,186.755C386.777,188.117 383.93,190.024 384.508,191.981C386.065,191.783 387.534,190.866 389.269,190.965C390.47,191.04 393.984,192.476 396.742,192.674C407.286,193.467 409.421,189.579 412.046,184.898L412.001,184.898ZM536.964,406.73C537.008,432.809 537.008,458.887 536.964,484.966C536.964,486.477 535.896,487.889 533.983,488.954C524.953,493.957 513.075,500.495 500.974,507.182C490.031,513.2 478.864,519.342 469.433,524.568C468.899,524.865 468.366,525.088 467.787,525.311L467.787,304.791C486.739,304.519 504.756,306.5 523.751,308.655C528.111,309.15 532.515,309.646 536.964,310.116L536.964,406.73ZM519.837,276.211C510.806,278.613 501.197,281.883 491.721,283.096C487.006,282.749 478.998,283.071 474.549,282.972L474.549,282.923C487.984,272.843 510.05,267.518 524.508,257.859C548.441,243.842 555.915,216.202 525.13,203.274C524.241,202.878 522.817,202.507 522.328,202.135C522.639,200.946 525.442,199.98 526.421,199.163C530.113,196.686 532.07,193.244 533.494,190.247C561.12,198.593 573.309,217.837 570.151,234.728C567.037,252.089 548.352,267.37 519.837,276.211ZM513.297,283.443C519.659,281.61 526.421,279.703 532.515,277.375L532.515,284.706C526.065,284.186 519.659,283.765 513.297,283.443Z" style="fill:rgb(230,229,230);"/>
        </g>
    </g>
</svg>
