<?xml version="1.0" encoding="utf-8"?>
<!-- Generator: Adobe Illustrator 27.8.1, SVG Export Plug-In . SVG Version: 6.00 Build 0)  -->
<svg version="1.1" id="Layer_1" xmlns="http://www.w3.org/2000/svg" xmlns:xlink="http://www.w3.org/1999/xlink" x="0px" y="0px"
	 viewBox="0 0 1263.4 485.7" style="enable-background:new 0 0 1263.4 485.7;" xml:space="preserve">
<style type="text/css">
	.st0{fill:none;stroke:#1F9CED;stroke-width:11.16;stroke-miterlimit:37.2;}
	.st1{fill:#1F9CED;}
	.st2{font-family:'Baltore';}
	.st3{font-size:122.78px;}
</style>
<g id="Layer_1-2">
	<path class="st0" d="M234.3,160.2c-0.4-3.7-1.9-4.5-4.8-5.6c-4.1-1.5-9.3-2.6-14.1-3.7c-23.8-5.6-48.7-8.2-73.3-8.9
		c-0.7,0-1.5-0.4-2.2-0.4H116c-26.8,1.1-54,3.7-80,10.1c-2.6,0.7-11.2,2.6-13,4.5c-1.5,1.1-2.2,3-2.2,4.8
		c-0.4,27.5,0.4,55.4,0.4,83.3s-0.4,54.3,0,81.1c0.7,43.9,23.1,65.9,62.1,81.5c11.5,4.5,24.9,7.8,35.7,14.1c1.5,1.1,7.8,5.6,8.9,5.6
		c0.7,0,7.8-4.8,9.3-5.6c9.3-5.2,19.7-7.8,29.4-11.5c35.3-13.4,64.4-33.9,67.3-75.1c0-54.7-0.4-109.4,0.4-163.7L234.3,160.2
		L234.3,160.2z"/>
	<path class="st1" d="M254,35.5c-1.9-4.5-6.7-7.8-11.5-7.8c-13.8-0.4-25.7,4.5-34.6,13.4c-4.1-3.7-9.3-6.7-14.9-8.2
		c-3.4-0.7-7.1-0.4-10.1,1.9c-0.4,0.4-0.7,0.4-1.1,0.7c0-0.4-0.4-0.4-0.4-0.7c-1.9-3.4-5.2-5.2-8.6-6c-6.3-1.1-13.4-0.4-19.7,2.6
		c-2.2-6.7-5.6-13.4-9.7-19.4c-5.6-7.8-9.3-10.8-13.8-11.9c-4.1-0.7-8.6,0.7-11.5,3.7c-7.8,7.8-13.4,17.5-16.4,27.2
		c-5.9-2.6-12.7-3.7-19-3c-3.7,0.4-7.1,2.6-8.9,5.6c-0.4,0.4-0.4,0.7-0.7,1.5c0,0.2,0,0.2,0,0c-3-2.2-6.7-3-10.4-2.2
		c-6,1.5-11.2,4.1-15.6,7.8c-8.9-8.9-21.6-13.8-35-13C7.3,28.1,2.9,31.1,1,35.5s-1.1,9.7,2.2,13.4c5.6,6.7,7.8,16.7,10.1,26.8
		c0.7,3.7,1.9,7.8,3,11.9c2.2,7.4,4.8,15.2,7.4,22.3c1.9,5.2,3.7,10.4,5.2,15.6c1.9,5.2,6.7,8.9,12.3,8.9h1.5
		c4.1-0.4,8.2-1.1,11.9-1.9s7.1-1.1,10.8-1.9c47.6-6.3,97.8-5.2,144.7,3.4c5.9,1.1,11.9-2.2,14.1-7.8c1.9-4.5,10.4-26,13.4-37.9
		c1.1-4.1,1.9-8.2,3-11.9C242.9,66,245.1,56,251,49.3C255.1,45.6,255.9,40.4,254,35.5L254,35.5z M242.5,41.1
		c-10.8,12.3-11.9,29-16,43.9c-3.4,11.5-11.9,33.9-13,36.8c0,0.4-0.4,0.4-0.4,0.4c-48.7-8.9-99.7-10.1-148.8-3.7
		c-7.8,1.1-15.2,2.6-22.7,3.7c-0.2,0-0.4-0.1-0.4-0.4c-4.1-12.7-8.9-24.9-12.6-37.6C24.4,69.4,23.3,53,12.9,40.7
		c-0.4-0.4,0-0.7,0.4-0.7c12.6-0.7,24.2,4.8,30.5,16c0.7,1.5,1.9,4.8,2.6,6c0.4,0.4,0.4,0.7,1.1,0.7c1.9,0,1.9-3,2.2-4.1
		c3-7.1,8.9-12.3,16.4-13.8c0.2,0,0.5,0.1,0.7,0.4l0.7,9.7c0.4,10.4-3,20.8-11.9,26.8c-5.6,3.7-13,3.7-8.9,12.7
		c2.6,5.9,10.4,8.9,16.4,8.6c5.2-0.4,14.5-5.2,13-11.2c-0.4-1.9-3.7-4.1-4.8-6.7c-2.2-5.6,1.9-12.3,7.8-13
		c6.3-0.7,11.9,4.8,10.8,11.2c-0.7,4.1-6.3,4.5-2.2,10.4c6.7,8.9,24.9,8.9,29.4-2.2c3-7.4-4.1-7.4-9.3-9.7
		C90.3,74,88.5,58,84.4,41.6c0-0.2,0.1-0.5,0.4-0.7c8.6-1.1,17.1,3.3,22.7,9.7c0.7,1.1,1.9,4.1,3.7,3.3c1.1-0.7,0.4-6.3,0.7-7.8
		c0.7-12.3,7.1-24.6,15.6-33.1c0,0,0.4-0.4,0.4,0c1.5,0.4,5.2,5.6,5.9,6.7c5.6,8.2,10.1,18.2,10.4,28.7c0,1.5-0.7,5.2,0,6
		c0.4,0.4,1.1,0.4,1.5,0.4c0.7-0.4,3.7-4.8,4.8-6c5.2-4.8,13-8.2,20.5-6.7c0.4,0,0.4,0.4,0.4,0.7c-3.4,10-3.7,21.6-10.4,30.1
		c-3.4,4.5-8.9,8.2-14.1,10.4c-4.5,1.9-11.2,1.9-8.2,8.9c4.8,11.2,22.3,11.5,29.8,2.6c4.8-5.9-2.6-6.3-1.9-12.7
		c1.5-12.7,20.1-10.4,19,2.2c-0.7,5.9-8.6,6.7-4.5,13.4c5.9,10.4,27.5,7.8,29.4-4.5c1.1-6.3-3.7-6.7-7.8-8.9
		c-13.8-7.8-15.6-23.4-13-37.6c0-0.4,0.4-0.4,0.7-0.4c6.3,1.5,12.3,6.3,14.9,11.9c0.7,1.1,1.5,5.2,1.9,5.6c2.2,2.2,3.7-4.1,4.5-5.2
		c6.3-11.5,17.9-17.5,30.9-17.1C242.4,40.4,242.8,40.7,242.5,41.1L242.5,41.1z"/>
	<path class="st1" d="M130.5,176.9c0.7-3,1.9-5.9,3.4-8.2c2.6-3.7,6.7-6.3,11.2-4.5l-1.1,0.7c-4.1,2.6-1.9,8.9-6.3,12.3
		c-1.9,1.5-3.7,1.9-5.6,3l-0.7-0.7c-1.5-1.5-3.7-1.5-5.6,0l-0.7,0.7c-1.1-0.7-2.6-1.1-4.1-1.9s-3-1.9-3.7-3.4
		c-1.9-3.4-0.7-7.8-4.5-10.1l-1.1-0.7c4.5-1.9,8.9,0.7,11.5,4.5c1.5,2.6,2.6,5.2,3.3,8.2l0.7-0.4l-0.7-1.1
		c-1.5-4.5-5.2-9.3-3.3-14.1c0.7-1.9,3-4.8,4.5-6.3l0.7-0.4c0,0,1.1,1.1,1.5,1.5c2.2,2.6,4.5,5.6,4.1,9.3c-0.4,4.1-3,7.8-4.5,11.5
		C129.7,176.5,130.5,176.9,130.5,176.9L130.5,176.9z"/>
	<path class="st1" d="M124.9,185.5c-0.4,0-0.7,0.4-1.5,0.4c-2.2,0.7-4.1,0-5.9-0.7c-1.9-0.7-3.3-2.2-5.6-1.9c-0.7,0-1.9,0.7-2.2,1.5
		c0.4-5.6,5.2-8.9,10.4-6.3c0.7,0.4,3.7,2.6,4.1,3.7v0.7c0,0.7,0.4,1.5,0.4,1.9C124.5,184.7,124.9,185.1,124.9,185.5z"/>
	<path class="st1" d="M146.8,184.4c-1.1-1.1-2.6-1.5-4.1-1.1c-1.1,0.4-1.9,0.7-2.6,1.5c-2.6,1.5-5.6,2.2-8.6,0.7
		c0.4-0.7,0.7-1.5,0.7-2.6v-0.7c0.4-1.1,3.4-3,4.1-3.7C141.6,175.8,146.8,179.1,146.8,184.4z"/>
	<circle class="st1" cx="128.2" cy="182.5" r="3"/>
	<path class="st1" d="M127.1,188.4c-0.4,1.5-1.1,3.4-1.9,4.8c-1.5,2.2-3.7,3.7-6.3,2.6l0.7-0.4c2.2-1.5,1.1-4.8,3.7-7.1
		c1.1-0.7,2.2-1.1,3.3-1.5l0.4,0.4c0.7,0.7,2.2,0.7,3,0l0.4-0.4c0.7,0.4,1.5,0.7,2.2,1.1c0.7,0.4,1.9,1.1,2.2,1.9
		c1.1,1.9,0.4,4.5,2.6,5.6l0.7,0.4c-2.6,1.1-5.2-0.4-6.3-2.6c-0.7-1.5-1.5-3-1.9-4.8c0,0-0.4,0-0.4,0.4s0,0.7,0.4,0.7
		c0.7,2.6,3,5.2,1.9,8.2c-0.4,1.1-1.9,3-2.6,3.7l-0.4,0.4l-0.7-0.7c-1.5-1.5-2.6-3-2.2-5.2s1.9-4.5,2.6-6.7L127.1,188.4L127.1,188.4
		z"/>
	<path class="st1" d="M130.5,374.1c0.7-3,1.9-6,3.4-8.2c2.6-3.7,6.7-6.3,11.2-4.5l-1.1,0.7c-4.1,2.6-1.9,8.9-6.3,12.3
		c-1.9,1.5-3.7,1.9-5.6,3c0,0-0.4-0.4-0.7-0.7c-1.5-1.5-3.7-1.5-5.6-0.4l-0.7,0.7c-1.1-0.7-2.6-1.1-4.1-1.9c-1.5-0.7-3-1.9-3.7-3.4
		c-1.9-3.4-0.7-7.8-4.5-10l-1.1-0.4c4.5-1.9,8.9,0.7,11.5,4.5c1.5,2.6,2.6,5.2,3.3,8.2l0.7-0.4l-0.4-1.1c-1.5-4.5-5.2-9.3-3.3-14.1
		c0.7-2.2,3-4.8,4.5-6.3l0.7-0.4l1.5,1.5c2.2,2.6,4.5,5.6,4.1,9.3c-0.4,4.1-3,7.8-4.5,11.5C129.7,373.7,130.5,374.1,130.5,374.1
		L130.5,374.1z"/>
	<path class="st1" d="M124.9,382.6c-0.4,0.4-0.7,0.4-1.5,0.4c-2.2,0.7-4.1,0-5.9-0.7c-1.9-0.7-3.3-2.2-5.6-1.9
		c-0.7,0-1.9,0.7-2.2,1.5c0.4-5.2,5.2-8.9,10.4-6.3c0.7,0.4,3.7,2.6,4.1,3.7v0.7c0,0.7,0.4,1.5,0.4,1.9L124.9,382.6L124.9,382.6z"/>
	<path class="st1" d="M146.8,381.5c-1.1-1.1-2.6-1.5-4.1-1.1c-1.1,0.4-1.9,0.7-2.6,1.5c-2.6,1.5-5.6,2.2-8.6,0.7
		c0.4-0.7,0.7-1.5,0.7-2.6v-0.7c0.4-1.1,3.4-3,4.1-3.7C141.6,373,146.8,376.3,146.8,381.5z"/>
	<ellipse class="st1" cx="128.3" cy="379.7" rx="3" ry="3"/>
	<path class="st1" d="M127.1,385.6c-0.4,1.5-1.1,3.4-1.9,4.8c-1.5,2.2-3.7,3.7-6.3,2.6l0.7-0.4c2.2-1.5,1.1-4.8,3.7-7.1
		c1.1-0.7,2.2-1.1,3.3-1.5l0.4,0.4c0.7,0.7,2.2,0.7,3,0l0.4-0.4l2.2,1.1c0.7,0.4,1.9,1.1,2.2,1.9c1.1,1.9,0.4,4.5,2.6,5.6l0.7,0.4
		c-2.6,1.1-5.2-0.4-6.3-2.6c-0.7-1.5-1.5-3-1.9-4.8l-0.4,0.4c0,0,0,0.7,0.4,0.7c0.7,2.6,3,5.2,1.9,8.2c-0.4,1.1-1.9,3-2.6,3.7
		L129,399l-0.7-0.7c-1.5-1.5-2.6-3-2.2-5.2s1.9-4.5,2.6-6.7L127.1,385.6L127.1,385.6z"/>
	<path class="st1" d="M56.1,268.4c0.7-3,1.9-6,3.3-8.2c2.2-3.7,6.7-6.3,11.2-4.5l-1.1,0.7c-4.1,2.6-1.9,8.9-6.3,12.3
		c-1.9,1.5-4.1,1.9-6,3c0,0-0.4-0.4-0.7-0.7c-1.5-1.5-3.7-1.5-5.6-0.4l-0.7,0.7c-1.1-0.7-2.6-1.1-4.1-1.9s-3-1.9-3.7-3.4
		c-1.9-3.4-0.7-7.8-4.5-10l-0.7-0.4c4.5-1.9,8.9,0.7,11.5,4.5c1.5,2.6,2.6,5.2,3.3,8.2l0.7-0.4l-0.4-1.1c-1.5-4.5-5.2-9.3-3.3-14.1
		c0.7-2.2,3-4.8,4.5-6.3c0,0,0.4-0.4,0.7-0.4c0,0,1.1,1.1,1.5,1.5c2.2,2.6,4.5,5.6,4.1,9.3c-0.4,4.1-3.3,7.8-4.1,11.5
		C55.3,268.1,56.1,268.4,56.1,268.4L56.1,268.4z"/>
	<path class="st1" d="M50.5,277c-0.4,0.4-0.7,0.4-1.5,0.4c-2.2,0.7-4.1,0-6-0.7s-3.3-2.2-5.6-1.9c-0.7,0-1.5,0.7-2.2,1.5
		c0.4-5.2,5.2-8.9,10.4-6.3c0.7,0.4,4.1,2.6,4.1,3.7v0.7c0,0.7,0.4,1.5,0.4,1.9L50.5,277L50.5,277z"/>
	<path class="st1" d="M72.4,275.9c-1.1-1.1-2.6-1.5-4.1-1.1c-1.1,0.4-1.9,0.7-2.6,1.5c-2.6,1.5-5.6,2.2-8.6,0.7
		c0.4-0.7,0.7-1.5,0.7-2.6v-0.7c0.4-1.1,3.3-3,4.1-3.7C67.2,267.3,72.4,270.7,72.4,275.9z"/>
	<circle class="st1" cx="53.8" cy="274" r="3"/>
	<path class="st1" d="M52.7,279.6c-0.4,1.5-1.1,3.4-1.9,4.8c-1.5,2.2-3.7,3.7-6.3,2.6l0.7-0.4c2.2-1.5,1.1-4.8,3.7-7.1
		c1.1-0.7,2.2-1.1,3.3-1.5l0.4,0.4c0.7,0.7,2.2,0.7,3,0L56,278l2.2,1.1c0.7,0.4,1.5,1.1,2.2,1.9c1.1,1.9,0.4,4.5,2.6,5.6l0.4,0.4
		c-2.6,1.1-5.2-0.4-6.3-2.6c-0.7-1.5-1.5-3-1.9-4.8l-0.4,0.4l0.4,0.7c0.7,2.6,3,5.2,1.9,8.2c-0.4,1.1-1.9,3-2.6,3.7l-0.4,0.4
		l-0.7-0.7c-1.5-1.5-2.6-3-2.2-5.2c0.4-2.2,1.9-4.5,2.2-6.7L52.7,279.6L52.7,279.6z"/>
	<path class="st1" d="M204.9,268.4c0.7-3,1.9-6,3.4-8.2c2.6-3.7,6.7-6.3,11.2-4.5l-1.1,0.7c-4.1,2.6-1.9,8.9-6.3,12.3
		c-1.9,1.5-3.7,1.9-5.6,3c0,0-0.4-0.4-0.7-0.7c-1.5-1.5-3.7-1.5-5.6-0.4l-0.7,0.7c-1.1-0.7-2.6-1.1-4.1-1.9s-3-1.9-3.7-3.4
		c-1.9-3.4-0.7-7.8-4.5-10l-1.1-0.4c4.5-1.9,8.9,0.7,11.5,4.5c1.5,2.6,2.6,5.2,3.4,8.2l0.7-0.4l-0.4-1.1c-1.5-4.5-5.2-9.3-3.4-14.1
		c0.7-2.2,3-4.8,4.5-6.3l0.7-0.4l1.5,1.5c2.2,2.6,4.5,5.6,4.1,9.3c-0.4,4.1-3,7.8-4.5,11.5C204.1,268.1,204.9,268.4,204.9,268.4
		L204.9,268.4z"/>
	<path class="st1" d="M199.3,277c-0.4,0.4-0.7,0.4-1.5,0.4c-2.2,0.7-4.1,0-5.9-0.7s-3.4-2.2-5.6-1.9c-0.7,0-1.9,0.7-2.2,1.5
		c0.4-5.2,5.2-8.9,10.4-6.3c0.7,0.4,3.7,2.6,4.1,3.7v0.7c0,0.7,0.4,1.5,0.4,1.9L199.3,277L199.3,277z"/>
	<path class="st1" d="M221.2,275.9c-1.1-1.1-2.6-1.5-4.1-1.1c-1.1,0.4-1.9,0.7-2.6,1.5c-2.6,1.5-5.6,2.2-8.6,0.7
		c0.4-0.7,0.7-1.5,0.7-2.6v-0.7c0.4-1.1,3.4-3,4.1-3.7C216,267.3,221.2,270.7,221.2,275.9z"/>
	<circle class="st1" cx="202.6" cy="274" r="3"/>
	<path class="st1" d="M201.5,279.6c-0.4,1.5-1.1,3.4-1.9,4.8c-1.5,2.2-3.7,3.7-6.3,2.6l0.7-0.4c2.2-1.5,1.1-4.8,3.7-7.1
		c1.1-0.7,2.2-1.1,3.4-1.5l0.4,0.4c0.7,0.7,2.2,0.7,3,0l0.4-0.4l2.2,1.1c0.7,0.4,1.9,1.1,2.2,1.9c1.1,1.9,0.4,4.5,2.6,5.6l0.7,0.4
		c-2.6,1.1-5.2-0.4-6.3-2.6c-0.7-1.5-1.5-3-1.9-4.8L204,280c0,0,0,0.7,0.4,0.7c0.7,2.6,3,5.2,1.9,8.2c-0.4,1.1-1.9,3-2.6,3.7
		l-0.4,0.4l-0.7-0.7c-1.5-1.5-2.6-3-2.2-5.2c0.4-2.2,1.9-4.5,2.6-6.7L201.5,279.6L201.5,279.6z"/>
	<path class="st1" d="M82.1,296.7l13.4-69.6v-5.9c0-0.7,0.4-1.1,1.1-1.1h18.6c0.4,0,1.1,0.4,1.1,0.7l10.4,23.4
		c0.4,0.7,1.9,0.7,2.2,0l10.4-23.4c0-0.4,0.7-0.7,1.1-0.7H159c0.7,0,1.1,0.4,1.1,1.1v5.9l13.4,69.6l4.8,14.1
		c0.4,0.7-0.4,1.1-1.1,1.1h-28.6c-0.7,0-1.1-0.4-1.1-1.1l1.1-14.5l-3.7-40.2c0-1.1-1.9-1.1-2.6-0.4L130.1,287c0,0.4-0.7,0.7-1.1,0.7
		h-2.6c-0.7,0-1.1-0.4-1.1-0.7L113,255.8c-0.4-1.1-2.2-0.7-2.2,0.4l-3.7,40.2l1.1,14.5c0,0.7-0.4,1.1-1.1,1.1H78.4
		c-0.7,0-1.5-0.7-1.1-1.1C77.3,310.9,82.5,296.7,82.1,296.7z"/>
	<path class="st1" d="M77.3,207.1h100.5c0.7,0,1.5,0.7,1.5,1.5V222c0,0.7-0.7,1.5-1.5,1.5H77.3c-0.7,0-1.5-0.7-1.5-1.5v-13.4
		C76.2,207.8,76.5,207.1,77.3,207.1z"/>
	<path class="st1" d="M210.5,335c-3.7,11.2-14.1,19.7-25.7,11.9c-0.7-0.4-1.5-1.9-1.9-1.9s-3,1.5-4.5,1.9c-5.2,0.7-9.3-1.1-11.5-6
		c11.2-1.1,8.6-6,1.5-10.8c-4.8-3.4-20.5-10.4-21.2-16.4c-0.4-3.7,1.1-5.6,3.7-8.2c0.7-0.7,2.2-0.7,2.2-1.9v-0.4l-3-11.2h13.4
		c-4.5,2.6-7.1,6.7-7.1,11.2c0,3.4,1.5,6.3,3.7,8.6c-0.4,0.4-0.4,1.5,0.7,2.2c2.6,1.9,14.1,4.5,18.2,6c4.8,1.5,11.2,3,14.1,7.8
		c1.1,2.2,1.5,4.8,3.4,7.1C200.4,340.2,205.6,337.3,210.5,335L210.5,335z"/>
	<path class="st1" d="M45.3,335c3.7,11.2,14.1,19.7,25.7,11.9c0.7-0.4,1.5-1.9,1.9-1.9s3,1.5,4.1,1.9c5.2,0.7,9.3-1.1,11.5-6
		c-11.2-1.1-8.6-6-1.5-10.8c4.8-3.4,20.5-10.4,21.2-16.4c0.4-3.7-1.1-5.6-3.7-8.2c-0.7-0.7-2.2-0.7-2.2-1.9v-0.4l3-11.2h-13
		c4.1,2.6,7.1,6.7,7.1,11.2c0,3.4-1.5,6.3-3.7,8.6c0.7,0.7,0.7,1.9-0.4,2.6c-2.2,1.9-14.1,4.5-18.2,6c-4.8,1.5-11.2,3-14.1,7.8
		c-1.5,2.2-1.5,4.8-3.3,7.1C55.3,340.2,50.1,337.3,45.3,335L45.3,335z"/>
	<path class="st1" d="M175.1,210.8c2.6-9.3,8.2-17.9,17.5-21.2c3.7-1.1,8.6-1.5,10.1-5.6l0.7-4.1c6.7,4.8,7.4,14.1,0,18.2
		c2.2,4.5-1.1,10.4-6.3,8.9c-1.1-0.4,0.4-1.5,0.7-2.6c0.4-1.9-0.4-4.8-2.6-5.2c-5.6-0.7-9.3,7.4-11.2,11.5
		c-2.2,5.2,1.5,11.9-5.9,11.9L175.1,210.8L175.1,210.8z"/>
	<path class="st1" d="M77.6,223.1c-7.4,0-3.7-7.1-5.9-11.9c-1.9-4.1-5.6-12.3-11.2-11.5c-2.2,0.4-3,3.4-2.6,5.2
		c0.4,0.7,1.5,2.2,0.7,2.6c-5.2,1.5-8.6-4.5-6.3-8.9c-7.8-4.1-7.1-13.8,0-18.2l0.7,4.1c1.9,4.1,6.7,4.1,10,5.6
		c9.3,3.4,15.2,11.9,17.5,21.2L77.6,223.1L77.6,223.1z"/>
</g>
<g>
	<g>
		<text transform="matrix(1 0 0 1 342.9085 255.5996)" class="st1 st2 st3">City of Turku</text>
	</g>
	<g>
		<text transform="matrix(1 0 0 1 342.9085 398.2596)" class="st1 st2 st3">Business Services</text>
	</g>
	<path class="st1" d="M299.2,398.2L299.2,398.2c-2.2,0-4-1.8-4-4V171c0-2.2,1.8-4,4-4l0,0c2.2,0,4,1.8,4,4v223.1
		C303.2,396.4,301.4,398.2,299.2,398.2z"/>
</g>
</svg>
